G04*
G04 #@! TF.GenerationSoftware,Altium Limited,Altium Designer,19.0.10 (269)*
G04*
G04 Layer_Physical_Order=2*
G04 Layer_Color=16711680*
%FSTAX24Y24*%
%MOIN*%
G70*
G01*
G75*
%ADD14C,0.0200*%
%ADD18C,0.0100*%
%ADD112C,0.0300*%
%ADD113C,0.1000*%
%ADD114R,0.1200X0.1200*%
%ADD115C,0.1200*%
%ADD116R,0.0472X0.0472*%
%ADD117C,0.0650*%
%ADD118C,0.0768*%
%ADD119R,0.0768X0.0768*%
%ADD120C,0.0256*%
%ADD121O,0.0394X0.0787*%
%ADD122O,0.0354X0.0709*%
%ADD123C,0.0551*%
%ADD124C,0.0579*%
%ADD125C,0.0200*%
G36*
X068667Y050233D02*
X021183D01*
Y087217D01*
X068667D01*
Y050233D01*
D02*
G37*
%LPC*%
G36*
X0452Y086412D02*
X045104Y086399D01*
X045014Y086362D01*
X044937Y086302D01*
X044877Y086225D01*
X04484Y086135D01*
X044827Y086039D01*
X04484Y085943D01*
X044877Y085853D01*
X044937Y085776D01*
X045014Y085716D01*
X045104Y085679D01*
X0452Y085666D01*
X045296Y085679D01*
X045386Y085716D01*
X045463Y085776D01*
X045523Y085853D01*
X04556Y085943D01*
X045573Y086039D01*
X04556Y086135D01*
X045523Y086225D01*
X045463Y086302D01*
X045386Y086362D01*
X045296Y086399D01*
X0452Y086412D01*
D02*
G37*
G36*
X0295Y085922D02*
X029394Y085908D01*
X029296Y085867D01*
X029211Y085802D01*
X029146Y085718D01*
X029106Y085619D01*
X029092Y085514D01*
X029106Y085408D01*
X029146Y08531D01*
X029211Y085225D01*
X029296Y08516D01*
X029394Y085119D01*
X0295Y085105D01*
X029606Y085119D01*
X029704Y08516D01*
X029789Y085225D01*
X029854Y08531D01*
X029894Y085408D01*
X029908Y085514D01*
X029894Y085619D01*
X029854Y085718D01*
X029789Y085802D01*
X029704Y085867D01*
X029606Y085908D01*
X0295Y085922D01*
D02*
G37*
G36*
X0285D02*
X028394Y085908D01*
X028296Y085867D01*
X028211Y085802D01*
X028146Y085718D01*
X028106Y085619D01*
X028092Y085514D01*
X028106Y085408D01*
X028146Y08531D01*
X028211Y085225D01*
X028296Y08516D01*
X028394Y085119D01*
X0285Y085105D01*
X028606Y085119D01*
X028704Y08516D01*
X028789Y085225D01*
X028854Y08531D01*
X028894Y085408D01*
X028908Y085514D01*
X028894Y085619D01*
X028854Y085718D01*
X028789Y085802D01*
X028704Y085867D01*
X028606Y085908D01*
X0285Y085922D01*
D02*
G37*
G36*
X0275D02*
X027394Y085908D01*
X027296Y085867D01*
X027211Y085802D01*
X027146Y085718D01*
X027106Y085619D01*
X027092Y085514D01*
X027106Y085408D01*
X027146Y08531D01*
X027211Y085225D01*
X027296Y08516D01*
X027394Y085119D01*
X0275Y085105D01*
X027606Y085119D01*
X027704Y08516D01*
X027789Y085225D01*
X027854Y08531D01*
X027894Y085408D01*
X027908Y085514D01*
X027894Y085619D01*
X027854Y085718D01*
X027789Y085802D01*
X027704Y085867D01*
X027606Y085908D01*
X0275Y085922D01*
D02*
G37*
G36*
X0352Y085084D02*
X03513Y08507D01*
X035074Y085033D01*
X034676D01*
X03462Y08507D01*
X03455Y085084D01*
X03448Y08507D01*
X03442Y08503D01*
X03438Y08497D01*
X034366Y0849D01*
X03438Y08483D01*
X03442Y08477D01*
X03448Y08473D01*
X03455Y084716D01*
X03462Y08473D01*
X034676Y084767D01*
X035074D01*
X03513Y08473D01*
X0352Y084716D01*
X03527Y08473D01*
X03533Y08477D01*
X03537Y08483D01*
X035384Y0849D01*
X03537Y08497D01*
X03533Y08503D01*
X03527Y08507D01*
X0352Y085084D01*
D02*
G37*
G36*
X035776Y084962D02*
X035694Y084946D01*
X035626Y0849D01*
X03558Y084831D01*
X035564Y08475D01*
X03558Y084669D01*
X035626Y0846D01*
X035694Y084554D01*
X035776Y084538D01*
X035857Y084554D01*
X035926Y0846D01*
X035971Y084669D01*
X035988Y08475D01*
X035971Y084831D01*
X035926Y0849D01*
X035857Y084946D01*
X035776Y084962D01*
D02*
G37*
G36*
X0335D02*
X033419Y084946D01*
X03335Y0849D01*
X033304Y084831D01*
X033288Y08475D01*
X033304Y084669D01*
X03335Y0846D01*
X033419Y084554D01*
X0335Y084538D01*
X033581Y084554D01*
X03365Y0846D01*
X033696Y084669D01*
X033712Y08475D01*
X033696Y084831D01*
X03365Y0849D01*
X033581Y084946D01*
X0335Y084962D01*
D02*
G37*
G36*
X03665Y083784D02*
X0305D01*
X03043Y08377D01*
X03037Y08373D01*
X03002Y08338D01*
X02998Y08332D01*
X029966Y08325D01*
X029966Y06965D01*
X02998Y06958D01*
X03002Y06952D01*
X03008Y06948D01*
X03015Y069466D01*
X03022Y06948D01*
X03028Y06952D01*
X03032Y06958D01*
X030334Y06965D01*
X030334Y083174D01*
X030576Y083416D01*
X033214D01*
X033253Y083316D01*
X033156Y08322D01*
X033128Y083177D01*
X033117Y083126D01*
Y083076D01*
X03308Y08302D01*
X033066Y08295D01*
X03308Y08288D01*
X03312Y08282D01*
X03318Y08278D01*
X03325Y082766D01*
X03332Y08278D01*
X03337Y082813D01*
X033419Y08278D01*
X033489Y082766D01*
X03356Y08278D01*
X033619Y08282D01*
X033659Y08288D01*
X033673Y08295D01*
X033687Y082967D01*
X036324D01*
X03638Y08293D01*
X03645Y082916D01*
X03652Y08293D01*
X03658Y08297D01*
X03662Y08303D01*
X036634Y0831D01*
X03662Y08317D01*
X03658Y08323D01*
X03652Y08327D01*
X03645Y083284D01*
X03638Y08327D01*
X036361Y083278D01*
X036348Y083316D01*
X03642Y083416D01*
X036574D01*
X03672Y08327D01*
X03678Y08323D01*
X03685Y083216D01*
X03692Y08323D01*
X03698Y08327D01*
X03702Y08333D01*
X037034Y0834D01*
X03702Y08347D01*
X03698Y08353D01*
X03678Y08373D01*
X03672Y08377D01*
X036709Y083772D01*
X03665Y083784D01*
D02*
G37*
G36*
X06115Y085383D02*
X06085D01*
X060736Y085372D01*
X060627Y085338D01*
X060526Y085285D01*
X060438Y085212D01*
X060038Y084812D01*
X059965Y084724D01*
X059912Y084623D01*
X059878Y084514D01*
X059867Y0844D01*
Y0826D01*
Y07595D01*
Y06995D01*
Y06425D01*
Y0588D01*
X059878Y058686D01*
X059912Y058577D01*
X059965Y058476D01*
X060038Y058388D01*
X060556Y057869D01*
X060645Y057797D01*
X060745Y057743D01*
X060855Y05771D01*
X060968Y057699D01*
X0617D01*
X061814Y05771D01*
X061923Y057743D01*
X062024Y057797D01*
X062112Y057869D01*
X06226Y058017D01*
X06372D01*
Y05792D01*
X063817D01*
Y054D01*
X063828Y053886D01*
X063862Y053777D01*
X063915Y053676D01*
X063988Y053588D01*
X064738Y052838D01*
X064826Y052765D01*
X064927Y052712D01*
X065036Y052678D01*
X06515Y052667D01*
X066707D01*
X06682Y052678D01*
X06693Y052712D01*
X06703Y052765D01*
X067119Y052838D01*
X067191Y052926D01*
X067245Y053027D01*
X067278Y053136D01*
X06729Y05325D01*
X067278Y053364D01*
X067245Y053473D01*
X067191Y053574D01*
X067119Y053662D01*
X06703Y053735D01*
X06693Y053788D01*
X06682Y053822D01*
X066707Y053833D01*
X065391D01*
X064983Y054241D01*
Y05792D01*
X06508D01*
Y05928D01*
X06372D01*
Y059183D01*
X062018D01*
X061905Y059172D01*
X061795Y059138D01*
X061695Y059085D01*
X061606Y059012D01*
X061459Y058864D01*
X06121D01*
X061033Y059041D01*
Y063565D01*
X0617D01*
X061814Y063577D01*
X061923Y06361D01*
X062024Y063664D01*
X062112Y063736D01*
X062393Y064017D01*
X06372D01*
Y06392D01*
X06508D01*
Y06528D01*
X06372D01*
Y065183D01*
X062152D01*
X062038Y065172D01*
X061929Y065138D01*
X061828Y065085D01*
X06174Y065012D01*
X061459Y064731D01*
X061033D01*
Y069432D01*
X0617D01*
X061814Y069443D01*
X061923Y069476D01*
X062024Y06953D01*
X062112Y069603D01*
X062527Y070017D01*
X06372D01*
Y06992D01*
X06508D01*
Y07128D01*
X06372D01*
Y071183D01*
X062285D01*
X062171Y071172D01*
X062062Y071138D01*
X061961Y071085D01*
X061873Y071012D01*
X061459Y070598D01*
X061033D01*
Y075299D01*
X0617D01*
X061814Y07531D01*
X061923Y075343D01*
X062024Y075397D01*
X062112Y075469D01*
X06256Y075917D01*
X0643D01*
X064328Y07592D01*
X06508D01*
Y07728D01*
X06372D01*
Y077083D01*
X062319D01*
X062205Y077072D01*
X062095Y077038D01*
X061995Y076985D01*
X061906Y076912D01*
X061459Y076464D01*
X061033D01*
Y082017D01*
X06372D01*
Y08192D01*
X06508D01*
Y08328D01*
X06372D01*
Y083183D01*
X061033D01*
Y084159D01*
X061091Y084217D01*
X06115D01*
X061264Y084228D01*
X061373Y084262D01*
X061474Y084315D01*
X061562Y084388D01*
X061635Y084476D01*
X061688Y084577D01*
X061722Y084686D01*
X061733Y0848D01*
X061722Y084914D01*
X061688Y085023D01*
X061635Y085124D01*
X061562Y085212D01*
X061474Y085285D01*
X061373Y085338D01*
X061264Y085372D01*
X06115Y085383D01*
D02*
G37*
G36*
X0617Y080177D02*
X061607Y080165D01*
X061521Y080129D01*
X061446Y080072D01*
X061389Y079998D01*
X061354Y079911D01*
X061341Y079819D01*
X061354Y079726D01*
X061389Y079639D01*
X061446Y079565D01*
X061521Y079508D01*
X061607Y079472D01*
X0617Y07946D01*
X061793Y079472D01*
X061879Y079508D01*
X061954Y079565D01*
X062011Y079639D01*
X062046Y079726D01*
X062059Y079819D01*
X062046Y079911D01*
X062011Y079998D01*
X061954Y080072D01*
X061879Y080129D01*
X061793Y080165D01*
X0617Y080177D01*
D02*
G37*
G36*
X0644Y080283D02*
X064267Y08027D01*
X064139Y080231D01*
X06402Y080168D01*
X063917Y080083D01*
X063832Y07998D01*
X063769Y079861D01*
X06373Y079733D01*
X063717Y0796D01*
X06373Y079467D01*
X063769Y079339D01*
X063832Y07922D01*
X063917Y079117D01*
X06402Y079032D01*
X064139Y078969D01*
X064267Y07893D01*
X0644Y078917D01*
X064533Y07893D01*
X064661Y078969D01*
X06478Y079032D01*
X064883Y079117D01*
X064968Y07922D01*
X065031Y079339D01*
X06507Y079467D01*
X065083Y0796D01*
X06507Y079733D01*
X065031Y079861D01*
X064968Y07998D01*
X064883Y080083D01*
X06478Y080168D01*
X064661Y080231D01*
X064533Y08027D01*
X0644Y080283D01*
D02*
G37*
G36*
X0373Y080084D02*
X03355D01*
X03348Y08007D01*
X03342Y08003D01*
X03338Y07997D01*
X033366Y0799D01*
X03338Y07983D01*
X03342Y07977D01*
X03348Y07973D01*
X03355Y079716D01*
X037224D01*
X037396Y079544D01*
Y078789D01*
X03736Y078756D01*
X037325Y078733D01*
X037296Y078724D01*
X03725Y078734D01*
X03545D01*
X03538Y07872D01*
X03532Y07868D01*
X03507Y07843D01*
X03503Y07837D01*
X035016Y0783D01*
Y077667D01*
X034943Y077638D01*
X034916Y077633D01*
X034862Y07767D01*
X034791Y077684D01*
X034721Y07767D01*
X034662Y07763D01*
X034622Y07757D01*
X034608Y0775D01*
Y075334D01*
X03215D01*
X03208Y07532D01*
X03202Y07528D01*
X03187Y07513D01*
X03183Y07507D01*
X031816Y075D01*
Y0699D01*
X03183Y06983D01*
X03187Y06977D01*
X03202Y06962D01*
X03208Y06958D01*
X03215Y069566D01*
X03222Y06958D01*
X03228Y06962D01*
X03232Y06968D01*
X032334Y06975D01*
X03232Y06982D01*
X03228Y06988D01*
X032184Y069976D01*
Y074924D01*
X032226Y074966D01*
X0347D01*
X03477Y07498D01*
X03483Y07502D01*
X034916Y075107D01*
X034936Y075106D01*
X035016Y075074D01*
Y065676D01*
X034774Y065434D01*
X0344D01*
X03433Y06542D01*
X03427Y06538D01*
X03423Y06532D01*
X034216Y06525D01*
X03423Y06518D01*
X03427Y06512D01*
X03433Y06508D01*
X0344Y065066D01*
X03485D01*
X03492Y06508D01*
X034948Y065099D01*
X035012Y065021D01*
X034924Y064934D01*
X0344D01*
X03433Y06492D01*
X03427Y06488D01*
X03423Y06482D01*
X034216Y06475D01*
X03423Y06468D01*
X03427Y06462D01*
X03433Y06458D01*
X0344Y064566D01*
X035D01*
X03507Y06458D01*
X03513Y06462D01*
X03578Y06527D01*
X03582Y06533D01*
X035834Y0654D01*
Y07805D01*
X03582Y07812D01*
X03578Y07818D01*
X03572Y07822D01*
X03565Y078234D01*
X03558Y07822D01*
X03552Y07818D01*
X035508Y078162D01*
X03541Y078185D01*
X0354Y07824D01*
X035526Y078366D01*
X037176D01*
X03723Y07833D01*
X0373Y078316D01*
X037381Y07825D01*
X037384Y078144D01*
X03697Y07773D01*
X03693Y07767D01*
X036916Y0776D01*
Y0763D01*
X03693Y07623D01*
X03697Y07617D01*
X03703Y07613D01*
X0371Y076116D01*
X03717Y07613D01*
X03723Y07617D01*
X03727Y07623D01*
X037284Y0763D01*
Y077524D01*
X03771Y07795D01*
X03775Y07801D01*
X037764Y07808D01*
Y07962D01*
X03775Y07969D01*
X03771Y07975D01*
X03743Y08003D01*
X03737Y08007D01*
X037359Y080072D01*
X0373Y080084D01*
D02*
G37*
G36*
X0617Y07431D02*
X061607Y074298D01*
X061521Y074262D01*
X061446Y074205D01*
X061389Y074131D01*
X061354Y074045D01*
X061341Y073952D01*
X061354Y073859D01*
X061389Y073773D01*
X061446Y073698D01*
X061521Y073641D01*
X061607Y073605D01*
X0617Y073593D01*
X061793Y073605D01*
X061879Y073641D01*
X061954Y073698D01*
X062011Y073773D01*
X062046Y073859D01*
X062059Y073952D01*
X062046Y074045D01*
X062011Y074131D01*
X061954Y074205D01*
X061879Y074262D01*
X061793Y074298D01*
X0617Y07431D01*
D02*
G37*
G36*
X0644Y074283D02*
X064267Y07427D01*
X064139Y074231D01*
X06402Y074168D01*
X063917Y074083D01*
X063832Y07398D01*
X063769Y073861D01*
X06373Y073733D01*
X063717Y0736D01*
X06373Y073467D01*
X063769Y073339D01*
X063832Y07322D01*
X063917Y073117D01*
X06402Y073032D01*
X064139Y072969D01*
X064267Y07293D01*
X0644Y072917D01*
X064533Y07293D01*
X064661Y072969D01*
X06478Y073032D01*
X064883Y073117D01*
X064968Y07322D01*
X065031Y073339D01*
X06507Y073467D01*
X065083Y0736D01*
X06507Y073733D01*
X065031Y073861D01*
X064968Y07398D01*
X064883Y074083D01*
X06478Y074168D01*
X064661Y074231D01*
X064533Y07427D01*
X0644Y074283D01*
D02*
G37*
G36*
X0407Y081384D02*
X04063Y08137D01*
X04057Y08133D01*
X04053Y08127D01*
X040516Y0812D01*
Y073076D01*
X040474Y073034D01*
X03675D01*
X03668Y07302D01*
X03662Y07298D01*
X03658Y07292D01*
X036566Y07285D01*
X03658Y07278D01*
X03662Y07272D01*
X03668Y07268D01*
X03675Y072666D01*
X039166D01*
Y07105D01*
X03918Y07098D01*
X03922Y07092D01*
X03928Y07088D01*
X03935Y070866D01*
X03942Y07088D01*
X03948Y07092D01*
X03952Y07098D01*
X039534Y07105D01*
Y072666D01*
X04055D01*
X04062Y07268D01*
X04068Y07272D01*
X04083Y07287D01*
X04087Y07293D01*
X040884Y073D01*
Y0812D01*
X04087Y08127D01*
X04083Y08133D01*
X04077Y08137D01*
X0407Y081384D01*
D02*
G37*
G36*
X0617Y068444D02*
X061607Y068432D01*
X061521Y068396D01*
X061446Y068339D01*
X061389Y068264D01*
X061354Y068178D01*
X061341Y068085D01*
X061354Y067992D01*
X061389Y067906D01*
X061446Y067832D01*
X061521Y067775D01*
X061607Y067739D01*
X0617Y067727D01*
X061793Y067739D01*
X061879Y067775D01*
X061954Y067832D01*
X062011Y067906D01*
X062046Y067992D01*
X062059Y068085D01*
X062046Y068178D01*
X062011Y068264D01*
X061954Y068339D01*
X061879Y068396D01*
X061793Y068432D01*
X0617Y068444D01*
D02*
G37*
G36*
X0644Y068283D02*
X064267Y06827D01*
X064139Y068231D01*
X06402Y068168D01*
X063917Y068083D01*
X063832Y06798D01*
X063769Y067861D01*
X06373Y067733D01*
X063717Y0676D01*
X06373Y067467D01*
X063769Y067339D01*
X063832Y06722D01*
X063917Y067117D01*
X06402Y067032D01*
X064139Y066969D01*
X064267Y06693D01*
X0644Y066917D01*
X064533Y06693D01*
X064661Y066969D01*
X06478Y067032D01*
X064883Y067117D01*
X064968Y06722D01*
X065031Y067339D01*
X06507Y067467D01*
X065083Y0676D01*
X06507Y067733D01*
X065031Y067861D01*
X064968Y06798D01*
X064883Y068083D01*
X06478Y068168D01*
X064661Y068231D01*
X064533Y06827D01*
X0644Y068283D01*
D02*
G37*
G36*
X03575Y063934D02*
X0304D01*
X03033Y06392D01*
X03027Y06388D01*
X03023Y06382D01*
X030216Y06375D01*
X03023Y06368D01*
X03027Y06362D01*
X03033Y06358D01*
X0304Y063566D01*
X03575D01*
X03582Y06358D01*
X03588Y06362D01*
X03592Y06368D01*
X035934Y06375D01*
X03592Y06382D01*
X03588Y06388D01*
X03582Y06392D01*
X03575Y063934D01*
D02*
G37*
G36*
X0617Y062577D02*
X061607Y062565D01*
X061521Y062529D01*
X061446Y062472D01*
X061389Y062398D01*
X061354Y062311D01*
X061341Y062218D01*
X061354Y062126D01*
X061389Y062039D01*
X061446Y061965D01*
X061521Y061908D01*
X061607Y061872D01*
X0617Y06186D01*
X061793Y061872D01*
X061879Y061908D01*
X061954Y061965D01*
X062011Y062039D01*
X062046Y062126D01*
X062059Y062218D01*
X062046Y062311D01*
X062011Y062398D01*
X061954Y062472D01*
X061879Y062529D01*
X061793Y062565D01*
X0617Y062577D01*
D02*
G37*
G36*
X0644Y062283D02*
X064267Y06227D01*
X064139Y062231D01*
X06402Y062168D01*
X063917Y062083D01*
X063832Y06198D01*
X063769Y061861D01*
X06373Y061733D01*
X063717Y0616D01*
X06373Y061467D01*
X063769Y061339D01*
X063832Y06122D01*
X063917Y061117D01*
X06402Y061032D01*
X064139Y060969D01*
X064267Y06093D01*
X0644Y060917D01*
X064533Y06093D01*
X064661Y060969D01*
X06478Y061032D01*
X064883Y061117D01*
X064968Y06122D01*
X065031Y061339D01*
X06507Y061467D01*
X065083Y0616D01*
X06507Y061733D01*
X065031Y061861D01*
X064968Y06198D01*
X064883Y062083D01*
X06478Y062168D01*
X064661Y062231D01*
X064533Y06227D01*
X0644Y062283D01*
D02*
G37*
G36*
X028161Y061106D02*
X027689D01*
X027681Y061105D01*
X027609D01*
Y061033D01*
X027607Y061025D01*
Y060552D01*
X027609Y060544D01*
Y060472D01*
X027681D01*
X027689Y060471D01*
X028161D01*
X028169Y060472D01*
X028241D01*
Y060544D01*
X028243Y060552D01*
Y061025D01*
X028241Y061033D01*
Y061105D01*
X028169D01*
X028161Y061106D01*
D02*
G37*
G36*
X040087Y062738D02*
X033D01*
X033Y062738D01*
Y060301D01*
X040087Y060301D01*
Y062738D01*
D02*
G37*
G36*
X066107Y056718D02*
X065986Y056702D01*
X065873Y056655D01*
X065776Y056581D01*
X065702Y056484D01*
X065655Y056371D01*
X065639Y05625D01*
X065655Y056129D01*
X065702Y056016D01*
X065776Y055919D01*
X065873Y055845D01*
X065986Y055798D01*
X066107Y055782D01*
X066228Y055798D01*
X066341Y055845D01*
X066438Y055919D01*
X066512Y056016D01*
X066559Y056129D01*
X066575Y05625D01*
X066559Y056371D01*
X066512Y056484D01*
X066438Y056581D01*
X066341Y056655D01*
X066228Y056702D01*
X066107Y056718D01*
D02*
G37*
G36*
X061707D02*
X061586Y056702D01*
X061473Y056655D01*
X061376Y056581D01*
X061302Y056484D01*
X061255Y056371D01*
X061239Y05625D01*
X061255Y056129D01*
X061302Y056016D01*
X061376Y055919D01*
X061473Y055845D01*
X061586Y055798D01*
X061707Y055782D01*
X061828Y055798D01*
X061941Y055845D01*
X062038Y055919D01*
X062112Y056016D01*
X062159Y056129D01*
X062175Y05625D01*
X062159Y056371D01*
X062112Y056484D01*
X062038Y056581D01*
X061941Y056655D01*
X061828Y056702D01*
X061707Y056718D01*
D02*
G37*
G36*
X062171Y053714D02*
X061243D01*
Y053485D01*
X04545D01*
X04536Y053467D01*
X045284Y053416D01*
X044834Y052966D01*
X044783Y05289D01*
X044765Y0528D01*
Y05065D01*
X044783Y05056D01*
X044834Y050484D01*
X04491Y050433D01*
X045Y050415D01*
X04509Y050433D01*
X045166Y050484D01*
X045217Y05056D01*
X045235Y05065D01*
Y052703D01*
X045547Y053015D01*
X061243D01*
Y052786D01*
X062171D01*
Y053714D01*
D02*
G37*
G36*
X031Y058684D02*
X03093Y05867D01*
X03087Y05863D01*
X03083Y05857D01*
X030816Y0585D01*
Y05339D01*
X03083Y05332D01*
X03087Y053261D01*
X031765Y052365D01*
X031765Y052365D01*
X032241Y05189D01*
X0323Y05185D01*
X03237Y051836D01*
X04092D01*
X04099Y05185D01*
X04105Y05189D01*
X04143Y05227D01*
X04147Y05233D01*
X041484Y0524D01*
Y055283D01*
X041477Y055315D01*
X041531Y055401D01*
X041549Y055415D01*
X042494D01*
X042565Y055429D01*
X042624Y055469D01*
X04321Y056054D01*
X04325Y056114D01*
X043264Y056184D01*
Y057471D01*
X04327Y05748D01*
X043284Y05755D01*
X04327Y05762D01*
X04323Y05768D01*
X04317Y05772D01*
X0431Y057734D01*
X04303Y05772D01*
X04297Y05768D01*
X04295Y05766D01*
X04291Y0576D01*
X042896Y05753D01*
Y056563D01*
X0428Y056484D01*
X03489D01*
X03482Y05647D01*
X03476Y05643D01*
X034584Y056254D01*
X034538Y056243D01*
X034458Y056252D01*
X03423Y05648D01*
X03417Y05652D01*
X0341Y056534D01*
X03403Y05652D01*
X03397Y05648D01*
X03393Y05642D01*
X033916Y05635D01*
X03393Y05628D01*
X03397Y05622D01*
X034166Y056024D01*
Y054976D01*
X034071Y05492D01*
X034066Y05492D01*
X034Y054934D01*
X03393Y05492D01*
X03387Y05488D01*
X03383Y05482D01*
X033816Y05475D01*
Y0533D01*
X03383Y05323D01*
X03387Y05317D01*
X03422Y05282D01*
X03428Y05278D01*
X03435Y052766D01*
X037174D01*
X037645Y052296D01*
X037606Y052204D01*
X032446D01*
X032025Y052625D01*
X032025Y052625D01*
X031184Y053466D01*
Y0585D01*
X03117Y05857D01*
X03113Y05863D01*
X03107Y05867D01*
X031Y058684D01*
D02*
G37*
G36*
X06535Y052008D02*
X065244Y051994D01*
X065146Y051954D01*
X065061Y051889D01*
X064996Y051804D01*
X064956Y051706D01*
X064942Y0516D01*
X064956Y051494D01*
X064996Y051396D01*
X065061Y051311D01*
X065146Y051246D01*
X065244Y051206D01*
X06535Y051192D01*
X065456Y051206D01*
X065554Y051246D01*
X065639Y051311D01*
X065704Y051396D01*
X065744Y051494D01*
X065758Y0516D01*
X065744Y051706D01*
X065704Y051804D01*
X065639Y051889D01*
X065554Y051954D01*
X065456Y051994D01*
X06535Y052008D01*
D02*
G37*
G36*
X06435D02*
X064244Y051994D01*
X064146Y051954D01*
X064061Y051889D01*
X063996Y051804D01*
X063956Y051706D01*
X063942Y0516D01*
X063956Y051494D01*
X063996Y051396D01*
X064061Y051311D01*
X064146Y051246D01*
X064244Y051206D01*
X06435Y051192D01*
X064456Y051206D01*
X064554Y051246D01*
X064639Y051311D01*
X064704Y051396D01*
X064744Y051494D01*
X064758Y0516D01*
X064744Y051706D01*
X064704Y051804D01*
X064639Y051889D01*
X064554Y051954D01*
X064456Y051994D01*
X06435Y052008D01*
D02*
G37*
G36*
X0502D02*
X050094Y051994D01*
X049996Y051954D01*
X049911Y051889D01*
X049846Y051804D01*
X049806Y051706D01*
X049792Y0516D01*
X049806Y051494D01*
X049846Y051396D01*
X049911Y051311D01*
X049996Y051246D01*
X050094Y051206D01*
X0502Y051192D01*
X050306Y051206D01*
X050404Y051246D01*
X050489Y051311D01*
X050554Y051396D01*
X050594Y051494D01*
X050608Y0516D01*
X050594Y051706D01*
X050554Y051804D01*
X050489Y051889D01*
X050404Y051954D01*
X050306Y051994D01*
X0502Y052008D01*
D02*
G37*
G36*
X0492D02*
X049094Y051994D01*
X048996Y051954D01*
X048911Y051889D01*
X048846Y051804D01*
X048806Y051706D01*
X048792Y0516D01*
X048806Y051494D01*
X048846Y051396D01*
X048911Y051311D01*
X048996Y051246D01*
X049094Y051206D01*
X0492Y051192D01*
X049306Y051206D01*
X049404Y051246D01*
X049489Y051311D01*
X049554Y051396D01*
X049594Y051494D01*
X049608Y0516D01*
X049594Y051706D01*
X049554Y051804D01*
X049489Y051889D01*
X049404Y051954D01*
X049306Y051994D01*
X0492Y052008D01*
D02*
G37*
G36*
X0603Y051995D02*
X060194Y051981D01*
X060096Y05194D01*
X060011Y051875D01*
X059946Y05179D01*
X059906Y051692D01*
X059892Y051586D01*
X059906Y051481D01*
X059946Y051382D01*
X060011Y051298D01*
X060096Y051233D01*
X060194Y051192D01*
X0603Y051178D01*
X060406Y051192D01*
X060504Y051233D01*
X060589Y051298D01*
X060654Y051382D01*
X060694Y051481D01*
X060708Y051586D01*
X060694Y051692D01*
X060654Y05179D01*
X060589Y051875D01*
X060504Y05194D01*
X060406Y051981D01*
X0603Y051995D01*
D02*
G37*
G36*
X0593D02*
X059194Y051981D01*
X059096Y05194D01*
X059011Y051875D01*
X058946Y05179D01*
X058906Y051692D01*
X058892Y051586D01*
X058906Y051481D01*
X058946Y051382D01*
X059011Y051298D01*
X059096Y051233D01*
X059194Y051192D01*
X0593Y051178D01*
X059406Y051192D01*
X059504Y051233D01*
X059589Y051298D01*
X059654Y051382D01*
X059694Y051481D01*
X059708Y051586D01*
X059694Y051692D01*
X059654Y05179D01*
X059589Y051875D01*
X059504Y05194D01*
X059406Y051981D01*
X0593Y051995D01*
D02*
G37*
G36*
X05525D02*
X055144Y051981D01*
X055046Y05194D01*
X054961Y051875D01*
X054896Y05179D01*
X054856Y051692D01*
X054842Y051586D01*
X054856Y051481D01*
X054896Y051382D01*
X054961Y051298D01*
X055046Y051233D01*
X055144Y051192D01*
X05525Y051178D01*
X055356Y051192D01*
X055454Y051233D01*
X055539Y051298D01*
X055604Y051382D01*
X055644Y051481D01*
X055658Y051586D01*
X055644Y051692D01*
X055604Y05179D01*
X055539Y051875D01*
X055454Y05194D01*
X055356Y051981D01*
X05525Y051995D01*
D02*
G37*
G36*
X05425D02*
X054144Y051981D01*
X054046Y05194D01*
X053961Y051875D01*
X053896Y05179D01*
X053856Y051692D01*
X053842Y051586D01*
X053856Y051481D01*
X053896Y051382D01*
X053961Y051298D01*
X054046Y051233D01*
X054144Y051192D01*
X05425Y051178D01*
X054356Y051192D01*
X054454Y051233D01*
X054539Y051298D01*
X054604Y051382D01*
X054644Y051481D01*
X054658Y051586D01*
X054644Y051692D01*
X054604Y05179D01*
X054539Y051875D01*
X054454Y05194D01*
X054356Y051981D01*
X05425Y051995D01*
D02*
G37*
G36*
X067707Y056718D02*
X067586Y056702D01*
X067473Y056655D01*
X067376Y056581D01*
X067302Y056484D01*
X067255Y056371D01*
X067239Y05625D01*
X067255Y056129D01*
X067302Y056016D01*
X067376Y055919D01*
X067472Y055845D01*
Y052148D01*
X067329Y052006D01*
X067244Y051994D01*
X067146Y051954D01*
X067061Y051889D01*
X066996Y051804D01*
X066956Y051706D01*
X066942Y0516D01*
X066956Y051494D01*
X066996Y051396D01*
X067061Y051311D01*
X067115Y05127D01*
Y051097D01*
X066953Y050935D01*
X062535D01*
Y051256D01*
X062589Y051298D01*
X062654Y051382D01*
X062694Y051481D01*
X062708Y051586D01*
X062694Y051692D01*
X062654Y05179D01*
X062589Y051875D01*
X062504Y05194D01*
X062406Y051981D01*
X0623Y051995D01*
X062194Y051981D01*
X062096Y05194D01*
X062011Y051875D01*
X061946Y05179D01*
X061906Y051692D01*
X061892Y051586D01*
X061906Y051481D01*
X061946Y051382D01*
X062011Y051298D01*
X062065Y051256D01*
Y050935D01*
X057485D01*
Y051256D01*
X057539Y051298D01*
X057604Y051382D01*
X057644Y051481D01*
X057658Y051586D01*
X057644Y051692D01*
X057604Y05179D01*
X057539Y051875D01*
X057454Y05194D01*
X057356Y051981D01*
X05725Y051995D01*
X057144Y051981D01*
X057046Y05194D01*
X056961Y051875D01*
X056896Y05179D01*
X056856Y051692D01*
X056842Y051586D01*
X056856Y051481D01*
X056896Y051382D01*
X056961Y051298D01*
X057015Y051256D01*
Y050935D01*
X052597D01*
X052501Y05103D01*
Y051328D01*
X052554Y051396D01*
X052594Y051494D01*
X052608Y0516D01*
X052594Y051706D01*
X052554Y051804D01*
X052489Y051889D01*
X052404Y051954D01*
X052306Y051994D01*
X0522Y052008D01*
X052094Y051994D01*
X051996Y051954D01*
X051911Y051889D01*
X051846Y051804D01*
X051806Y051706D01*
X051792Y0516D01*
X051806Y051494D01*
X051846Y051396D01*
X051911Y051311D01*
X051996Y051246D01*
X052032Y051231D01*
Y050933D01*
X05205Y050843D01*
X052101Y050767D01*
X052334Y050534D01*
X05241Y050483D01*
X0525Y050465D01*
X06235D01*
X06235Y050465D01*
X06235Y050465D01*
X06705D01*
X06714Y050483D01*
X067216Y050534D01*
X067516Y050834D01*
X067567Y05091D01*
X067585Y051D01*
Y05127D01*
X067639Y051311D01*
X067704Y051396D01*
X067744Y051494D01*
X067758Y0516D01*
X067744Y051706D01*
X067729Y051742D01*
X067873Y051885D01*
X067923Y051962D01*
X067941Y052051D01*
Y055845D01*
X068038Y055919D01*
X068112Y056016D01*
X068159Y056129D01*
X068175Y05625D01*
X068159Y056371D01*
X068112Y056484D01*
X068038Y056581D01*
X067941Y056655D01*
X067828Y056702D01*
X067707Y056718D01*
D02*
G37*
%LPD*%
D14*
X0305Y0836D02*
X03665D01*
X03758Y07808D02*
Y07962D01*
X0373Y0799D02*
X03758Y07962D01*
X03355Y0799D02*
X0373D01*
X0371Y0776D02*
X03758Y07808D01*
X0371Y0763D02*
Y0776D01*
X03545Y07855D02*
X03725D01*
X0352Y0783D02*
X03545Y07855D01*
X0352Y0656D02*
Y0783D01*
X03725Y07855D02*
X0373Y0785D01*
X03485Y06525D02*
X0352Y0656D01*
X0344Y06525D02*
X03485D01*
X0344Y06475D02*
X035D01*
X03565Y0654D01*
Y07805D01*
X034791Y075241D02*
Y0775D01*
X03935Y07285D02*
X04055D01*
X03905D02*
X03935D01*
Y07105D02*
Y07285D01*
X04055D02*
X0407Y073D01*
X03675Y07285D02*
X03905D01*
X0407Y073D02*
Y0812D01*
X0304Y06375D02*
X03575D01*
X03015Y08325D02*
X0305Y0836D01*
X03015Y08325D02*
X03015Y06965D01*
X03665Y0836D02*
X03685Y0834D01*
X0413Y0524D02*
Y055283D01*
X04092Y05202D02*
X0413Y0524D01*
X03237Y05202D02*
X04092D01*
X031895Y052495D02*
X03237Y05202D01*
X04308Y056184D02*
Y05753D01*
X042494Y055598D02*
X04308Y056184D01*
X0405Y055598D02*
X042494D01*
X031Y05339D02*
X031895Y052495D01*
X031Y05339D02*
Y0585D01*
X0347Y07515D02*
X034791Y075241D01*
X032Y0699D02*
Y075D01*
Y0699D02*
X03215Y06975D01*
X032Y075D02*
X03215Y07515D01*
X0347D01*
X03489Y0563D02*
X0428D01*
X04308Y05753D02*
X0431Y05755D01*
X0347Y05611D02*
X03489Y0563D01*
X03615Y0559D02*
X03665Y0554D01*
Y054353D02*
Y0554D01*
X037845Y053845D02*
X0382Y0542D01*
X035955Y053845D02*
X037845D01*
X0355Y0543D02*
X035955Y053845D01*
X034541Y0534D02*
X04065D01*
X03435Y053591D02*
X034541Y0534D01*
X03435Y053591D02*
Y0561D01*
X0379Y0523D02*
X0385D01*
X03725Y05295D02*
X0379Y0523D01*
X03435Y05295D02*
X03725D01*
X034Y0533D02*
X03435Y05295D01*
X034Y0533D02*
Y05475D01*
X0341Y05635D02*
X03435Y0561D01*
X0347Y0547D02*
Y05611D01*
X0382Y0542D02*
X03825D01*
D18*
X03455Y0849D02*
X0352D01*
X033559Y0831D02*
X03645D01*
X033489Y083031D02*
X033559Y0831D01*
X033489Y08295D02*
Y083031D01*
X033374Y08325D02*
X0361D01*
X03325Y083126D02*
X033374Y08325D01*
X03325Y08295D02*
Y083126D01*
D112*
X04545Y05325D02*
X061707D01*
X045Y0528D02*
X04545Y05325D01*
X045Y05065D02*
Y0528D01*
X06235Y0507D02*
X06705D01*
X0572D02*
X06235D01*
X0623Y05075D02*
X06235Y0507D01*
X0623Y05075D02*
Y051586D01*
X0525Y0507D02*
X0572D01*
X05725Y05075D01*
Y051586D01*
X06735Y051D02*
Y0516D01*
X06705Y0507D02*
X06735Y051D01*
X052267Y050933D02*
X0525Y0507D01*
X052267Y050933D02*
Y051533D01*
X0522Y0516D02*
X052267Y051533D01*
X06735Y0516D02*
Y051695D01*
X067707Y052051D01*
Y05625D01*
D113*
X0644Y054D02*
X06515Y05325D01*
X0644Y054D02*
Y0586D01*
X06515Y05325D02*
X066707D01*
X062018Y0586D02*
X0644D01*
X0617Y058281D02*
X062018Y0586D01*
X0617Y064148D02*
X062152Y0646D01*
X0644D01*
X06045Y0826D02*
Y0844D01*
Y07595D02*
Y0826D01*
X0644D01*
X0617Y070015D02*
X062285Y0706D01*
X0644D01*
X0617Y075881D02*
X062319Y0765D01*
X0643D01*
X0644Y0766D01*
X06045Y06425D02*
Y06995D01*
Y0588D02*
Y06425D01*
X060552Y064148D01*
X0617D01*
X06045Y06995D02*
Y07595D01*
Y06995D02*
X060515Y070015D01*
X0617D01*
X06045Y07595D02*
X060519Y075881D01*
X0617D01*
X06085Y0848D02*
X06115D01*
X06045Y0844D02*
X06085Y0848D01*
X060968Y058281D02*
X0617D01*
X06045Y0588D02*
X060968Y058281D01*
D114*
X0644Y0826D02*
D03*
Y0646D02*
D03*
Y0766D02*
D03*
Y0706D02*
D03*
Y0586D02*
D03*
D115*
Y0856D02*
D03*
Y0676D02*
D03*
Y0796D02*
D03*
Y0736D02*
D03*
Y0616D02*
D03*
D116*
X027925Y060789D02*
D03*
D117*
X0492Y0516D02*
D03*
X0522D02*
D03*
X0502D02*
D03*
X0512D02*
D03*
X05425Y051586D02*
D03*
X05725D02*
D03*
X05525D02*
D03*
X05625D02*
D03*
X06435Y0516D02*
D03*
X06735D02*
D03*
X06535D02*
D03*
X06635D02*
D03*
X0593Y051586D02*
D03*
X0623D02*
D03*
X0603D02*
D03*
X0613D02*
D03*
X0305Y085514D02*
D03*
X0275D02*
D03*
X0295D02*
D03*
X0285D02*
D03*
D118*
X061707Y05625D02*
D03*
X066707Y05325D02*
D03*
X066107Y05625D02*
D03*
X067707D02*
D03*
D119*
X061707Y05325D02*
D03*
D120*
X035776Y08475D02*
D03*
X0335D02*
D03*
D121*
X036341Y084561D02*
D03*
X032935D02*
D03*
D122*
X036341Y086207D02*
D03*
X032935D02*
D03*
D123*
X0617Y064148D02*
D03*
Y068085D02*
D03*
Y075881D02*
D03*
Y079819D02*
D03*
Y070015D02*
D03*
Y073952D02*
D03*
Y058281D02*
D03*
Y062218D02*
D03*
D124*
X06115Y0848D02*
D03*
Y086178D02*
D03*
X0452Y086039D02*
D03*
Y084661D02*
D03*
D125*
X0684Y0864D02*
D03*
X068Y0856D02*
D03*
X0684Y0848D02*
D03*
X068Y084D02*
D03*
X0684Y0832D02*
D03*
X068Y0824D02*
D03*
X0684Y0816D02*
D03*
X068Y0808D02*
D03*
X0684Y08D02*
D03*
X068Y0792D02*
D03*
X0684Y0784D02*
D03*
X068Y0776D02*
D03*
X0684Y0768D02*
D03*
X068Y076D02*
D03*
X0684Y0752D02*
D03*
X068Y0744D02*
D03*
X0684Y0736D02*
D03*
X068Y0728D02*
D03*
X0684Y072D02*
D03*
X068Y0712D02*
D03*
X0684Y0704D02*
D03*
X068Y0696D02*
D03*
X0684Y0688D02*
D03*
X068Y068D02*
D03*
X0684Y0672D02*
D03*
X068Y0664D02*
D03*
X0684Y0656D02*
D03*
X068Y0648D02*
D03*
X0684Y064D02*
D03*
X068Y0632D02*
D03*
X0684Y0624D02*
D03*
X068Y0616D02*
D03*
X0684Y0608D02*
D03*
X068Y06D02*
D03*
X0684Y0592D02*
D03*
X068Y0584D02*
D03*
X0684Y0576D02*
D03*
X068Y0568D02*
D03*
X0684Y056D02*
D03*
Y0544D02*
D03*
Y0528D02*
D03*
Y0512D02*
D03*
X068Y0504D02*
D03*
X0676Y0864D02*
D03*
X0672Y0856D02*
D03*
X0676Y0848D02*
D03*
X0672Y084D02*
D03*
X0676Y0832D02*
D03*
X0672Y0824D02*
D03*
X0676Y0816D02*
D03*
X0672Y0808D02*
D03*
X0676Y08D02*
D03*
X0672Y0792D02*
D03*
X0676Y0784D02*
D03*
X0672Y0776D02*
D03*
X0676Y0768D02*
D03*
X0672Y076D02*
D03*
X0676Y0752D02*
D03*
X0672Y0744D02*
D03*
X0676Y0736D02*
D03*
X0672Y0728D02*
D03*
X0676Y072D02*
D03*
X0672Y0712D02*
D03*
X0676Y0704D02*
D03*
X0672Y0696D02*
D03*
X0676Y0688D02*
D03*
X0672Y068D02*
D03*
X0676Y0672D02*
D03*
X0672Y0664D02*
D03*
X0676Y0656D02*
D03*
X0672Y0648D02*
D03*
X0676Y064D02*
D03*
X0672Y0632D02*
D03*
X0676Y0624D02*
D03*
X0672Y0616D02*
D03*
X0676Y0608D02*
D03*
X0672Y06D02*
D03*
X0676Y0592D02*
D03*
X0672Y0584D02*
D03*
X0676Y0576D02*
D03*
X0672Y0568D02*
D03*
Y0552D02*
D03*
Y0504D02*
D03*
X0668Y0864D02*
D03*
X0664Y0856D02*
D03*
X0668Y0848D02*
D03*
X0664Y084D02*
D03*
X0668Y0832D02*
D03*
X0664Y0824D02*
D03*
X0668Y0816D02*
D03*
X0664Y0808D02*
D03*
X0668Y08D02*
D03*
X0664Y0792D02*
D03*
X0668Y0784D02*
D03*
X0664Y0776D02*
D03*
X0668Y0768D02*
D03*
X0664Y076D02*
D03*
X0668Y0752D02*
D03*
X0664Y0744D02*
D03*
X0668Y0736D02*
D03*
X0664Y0728D02*
D03*
X0668Y072D02*
D03*
X0664Y0712D02*
D03*
X0668Y0704D02*
D03*
X0664Y0696D02*
D03*
X0668Y0688D02*
D03*
X0664Y068D02*
D03*
X0668Y0672D02*
D03*
X0664Y0664D02*
D03*
X0668Y0656D02*
D03*
X0664Y0648D02*
D03*
X0668Y064D02*
D03*
X0664Y0632D02*
D03*
X0668Y0624D02*
D03*
X0664Y0616D02*
D03*
X0668Y0608D02*
D03*
X0664Y06D02*
D03*
X0668Y0592D02*
D03*
X0664Y0584D02*
D03*
X0668Y0576D02*
D03*
X0664Y0568D02*
D03*
X0668Y056D02*
D03*
X0664Y0552D02*
D03*
X0668Y0544D02*
D03*
Y0512D02*
D03*
X066Y0864D02*
D03*
X0656Y0856D02*
D03*
X066Y0848D02*
D03*
X0656Y084D02*
D03*
X066Y0832D02*
D03*
X0656Y0824D02*
D03*
X066Y0816D02*
D03*
X0656Y0808D02*
D03*
X066Y08D02*
D03*
X0656Y0792D02*
D03*
X066Y0784D02*
D03*
X0656Y0776D02*
D03*
X066Y0768D02*
D03*
X0656Y076D02*
D03*
X066Y0752D02*
D03*
X0656Y0744D02*
D03*
X066Y0736D02*
D03*
X0656Y0728D02*
D03*
X066Y072D02*
D03*
X0656Y0712D02*
D03*
X066Y0704D02*
D03*
X0656Y0696D02*
D03*
X066Y0688D02*
D03*
X0656Y068D02*
D03*
X066Y0672D02*
D03*
X0656Y0664D02*
D03*
X066Y0656D02*
D03*
X0656Y0648D02*
D03*
X066Y064D02*
D03*
X0656Y0632D02*
D03*
X066Y0624D02*
D03*
X0656Y0616D02*
D03*
X066Y0608D02*
D03*
X0656Y06D02*
D03*
X066Y0592D02*
D03*
X0656Y0584D02*
D03*
X066Y0576D02*
D03*
X0656Y0568D02*
D03*
Y0552D02*
D03*
X066Y0544D02*
D03*
Y0512D02*
D03*
X0652Y0864D02*
D03*
Y0848D02*
D03*
X0648Y084D02*
D03*
X0652Y0832D02*
D03*
Y0816D02*
D03*
X0648Y0808D02*
D03*
X0652Y08D02*
D03*
Y0784D02*
D03*
X0648Y0776D02*
D03*
X0652Y0768D02*
D03*
Y0752D02*
D03*
X0648Y0744D02*
D03*
X0652Y0736D02*
D03*
X0648Y0728D02*
D03*
X0652Y072D02*
D03*
Y0704D02*
D03*
X0648Y0696D02*
D03*
X0652Y0688D02*
D03*
Y0672D02*
D03*
X0648Y0664D02*
D03*
X0652Y0656D02*
D03*
Y064D02*
D03*
X0648Y0632D02*
D03*
X0652Y0624D02*
D03*
Y0608D02*
D03*
X0648Y06D02*
D03*
X0652Y0592D02*
D03*
Y0576D02*
D03*
Y056D02*
D03*
Y0544D02*
D03*
X0648Y052D02*
D03*
X0644Y0864D02*
D03*
Y0848D02*
D03*
X064Y084D02*
D03*
X0644Y0816D02*
D03*
X064Y0808D02*
D03*
X0644Y0784D02*
D03*
X064Y0776D02*
D03*
X0644Y0752D02*
D03*
X064Y0728D02*
D03*
X0644Y072D02*
D03*
Y0688D02*
D03*
X064Y0664D02*
D03*
X0644Y0656D02*
D03*
X064Y0632D02*
D03*
X0644Y0608D02*
D03*
X064Y06D02*
D03*
X0644Y0528D02*
D03*
X0636Y0864D02*
D03*
X0632Y0856D02*
D03*
X0636Y0848D02*
D03*
X0632Y084D02*
D03*
X0636Y0816D02*
D03*
X0632Y0808D02*
D03*
X0636Y0784D02*
D03*
X0632Y0776D02*
D03*
X0636Y0752D02*
D03*
X0632Y0728D02*
D03*
X0636Y072D02*
D03*
Y0688D02*
D03*
Y0672D02*
D03*
X0632Y0664D02*
D03*
X0636Y0656D02*
D03*
X0632Y0632D02*
D03*
X0636Y0608D02*
D03*
X0632Y06D02*
D03*
Y0568D02*
D03*
X0636Y056D02*
D03*
X0632Y0552D02*
D03*
X0636Y0544D02*
D03*
X0632Y0536D02*
D03*
X0636Y0528D02*
D03*
X0632Y052D02*
D03*
X0636Y0512D02*
D03*
X0628Y0864D02*
D03*
X0624Y0856D02*
D03*
X0628Y0848D02*
D03*
X0624Y084D02*
D03*
X0628Y0816D02*
D03*
X0624Y0808D02*
D03*
X0628Y0784D02*
D03*
X0624Y0776D02*
D03*
X0628Y0752D02*
D03*
X0624Y0728D02*
D03*
X0628Y072D02*
D03*
Y0688D02*
D03*
Y0672D02*
D03*
X0624Y0664D02*
D03*
X0628Y0656D02*
D03*
X0624Y0632D02*
D03*
X0628Y0608D02*
D03*
X0624Y06D02*
D03*
Y0552D02*
D03*
X0628Y0528D02*
D03*
Y0512D02*
D03*
X062Y0864D02*
D03*
X0616Y0856D02*
D03*
X062Y0848D02*
D03*
X0616Y084D02*
D03*
X062Y0816D02*
D03*
X0616Y0808D02*
D03*
X062Y0784D02*
D03*
X0616Y0776D02*
D03*
X062Y0752D02*
D03*
X0616Y0728D02*
D03*
X062Y072D02*
D03*
X0616Y0712D02*
D03*
X062Y0688D02*
D03*
Y0672D02*
D03*
X0616Y0664D02*
D03*
X062Y0656D02*
D03*
X0616Y0632D02*
D03*
X062Y0608D02*
D03*
X0616Y06D02*
D03*
Y0552D02*
D03*
X062Y0544D02*
D03*
X0616Y052D02*
D03*
X0608Y0856D02*
D03*
X0612Y0816D02*
D03*
Y0784D02*
D03*
Y0768D02*
D03*
Y072D02*
D03*
Y0688D02*
D03*
Y0672D02*
D03*
Y0656D02*
D03*
Y0608D02*
D03*
Y0592D02*
D03*
X0608Y0568D02*
D03*
Y0552D02*
D03*
X0612Y0544D02*
D03*
X0608Y0536D02*
D03*
Y052D02*
D03*
X0604Y0864D02*
D03*
X06Y0856D02*
D03*
Y0568D02*
D03*
X0604Y0528D02*
D03*
X06Y052D02*
D03*
X0596Y0864D02*
D03*
X0592Y084D02*
D03*
X0596Y0832D02*
D03*
X0592Y0824D02*
D03*
X0596Y0816D02*
D03*
X0592Y0808D02*
D03*
X0596Y0784D02*
D03*
X0592Y0776D02*
D03*
X0596Y0768D02*
D03*
Y0752D02*
D03*
X0592Y0728D02*
D03*
X0596Y072D02*
D03*
Y0688D02*
D03*
Y0672D02*
D03*
X0592Y0664D02*
D03*
X0596Y0656D02*
D03*
X0592Y0632D02*
D03*
X0596Y0608D02*
D03*
X0592Y06D02*
D03*
X0596Y0592D02*
D03*
X0592Y0568D02*
D03*
X0596Y0528D02*
D03*
X0588Y0832D02*
D03*
X0584Y0824D02*
D03*
X0588Y0816D02*
D03*
X0584Y0808D02*
D03*
X0588Y0784D02*
D03*
X0584Y0776D02*
D03*
X0588Y0752D02*
D03*
X0584Y0728D02*
D03*
X0588Y072D02*
D03*
X0584Y0696D02*
D03*
X0588Y0688D02*
D03*
X0584Y0664D02*
D03*
Y0632D02*
D03*
X0588Y0608D02*
D03*
X0584Y06D02*
D03*
X0588Y0576D02*
D03*
X0584Y0568D02*
D03*
X0588Y0544D02*
D03*
Y0528D02*
D03*
X0584Y052D02*
D03*
X0588Y0512D02*
D03*
X058Y0864D02*
D03*
X0576Y0856D02*
D03*
X058Y0848D02*
D03*
X0576Y084D02*
D03*
Y0824D02*
D03*
X058Y0816D02*
D03*
X0576Y0808D02*
D03*
X058Y0784D02*
D03*
X0576Y0776D02*
D03*
Y076D02*
D03*
X058Y0752D02*
D03*
X0576Y0728D02*
D03*
X058Y072D02*
D03*
X0576Y0696D02*
D03*
X058Y0688D02*
D03*
X0576Y0664D02*
D03*
X058Y0656D02*
D03*
Y064D02*
D03*
X0576Y0632D02*
D03*
X058Y0608D02*
D03*
X0576Y06D02*
D03*
Y0584D02*
D03*
X058Y0576D02*
D03*
X0576Y0568D02*
D03*
X058Y0544D02*
D03*
Y0528D02*
D03*
X0576Y052D02*
D03*
X058Y0512D02*
D03*
X0572Y0816D02*
D03*
Y08D02*
D03*
X0568Y0776D02*
D03*
X0572Y0768D02*
D03*
X0568Y076D02*
D03*
X0572Y0752D02*
D03*
X0568Y0728D02*
D03*
X0572Y072D02*
D03*
X0568Y0712D02*
D03*
X0572Y0704D02*
D03*
X0568Y0696D02*
D03*
X0572Y0688D02*
D03*
Y0672D02*
D03*
X0568Y0664D02*
D03*
X0572Y0656D02*
D03*
X0568Y0648D02*
D03*
X0572Y064D02*
D03*
X0568Y0632D02*
D03*
X0572Y0608D02*
D03*
X0568Y06D02*
D03*
X0572Y0592D02*
D03*
X0568Y0584D02*
D03*
X0572Y0576D02*
D03*
X0568Y0568D02*
D03*
X0572Y056D02*
D03*
X0568Y0536D02*
D03*
X0572Y0528D02*
D03*
X0568Y052D02*
D03*
X0564Y08D02*
D03*
Y0768D02*
D03*
X056Y076D02*
D03*
X0564Y0752D02*
D03*
X056Y0744D02*
D03*
X0564Y072D02*
D03*
Y0704D02*
D03*
X056Y0696D02*
D03*
X0564Y0688D02*
D03*
Y0656D02*
D03*
X056Y0648D02*
D03*
X0564Y064D02*
D03*
X056Y0632D02*
D03*
X0564Y0608D02*
D03*
Y0592D02*
D03*
X056Y0584D02*
D03*
X0564Y0576D02*
D03*
X056Y0568D02*
D03*
X0564Y056D02*
D03*
Y0544D02*
D03*
Y0528D02*
D03*
X056Y052D02*
D03*
X0556Y0864D02*
D03*
Y0848D02*
D03*
X0552Y076D02*
D03*
X0556Y0752D02*
D03*
X0552Y0744D02*
D03*
X0556Y0704D02*
D03*
X0552Y0696D02*
D03*
X0556Y0688D02*
D03*
X0552Y068D02*
D03*
Y0648D02*
D03*
X0556Y064D02*
D03*
X0552Y0632D02*
D03*
X0556Y0624D02*
D03*
X0552Y0584D02*
D03*
X0556Y0576D02*
D03*
Y056D02*
D03*
Y0544D02*
D03*
Y0528D02*
D03*
Y0512D02*
D03*
X0548Y0864D02*
D03*
Y0848D02*
D03*
Y0832D02*
D03*
X0544Y076D02*
D03*
X0548Y0752D02*
D03*
X0544Y0744D02*
D03*
X0548Y0704D02*
D03*
X0544Y0696D02*
D03*
X0548Y0688D02*
D03*
X0544Y068D02*
D03*
Y0648D02*
D03*
X0548Y064D02*
D03*
X0544Y0632D02*
D03*
X0548Y0624D02*
D03*
X0544Y0584D02*
D03*
X0548Y0576D02*
D03*
X0544Y0568D02*
D03*
Y0536D02*
D03*
X0548Y0528D02*
D03*
Y0512D02*
D03*
X0536Y076D02*
D03*
X054Y0752D02*
D03*
X0536Y0744D02*
D03*
X054Y0704D02*
D03*
X0536Y0696D02*
D03*
X054Y0688D02*
D03*
X0536Y068D02*
D03*
Y0648D02*
D03*
X054Y064D02*
D03*
X0536Y0632D02*
D03*
X054Y0624D02*
D03*
X0536Y0584D02*
D03*
X054Y0576D02*
D03*
X0536Y0568D02*
D03*
X054Y056D02*
D03*
X0536Y0552D02*
D03*
X054Y0544D02*
D03*
X0536Y0536D02*
D03*
X054Y0528D02*
D03*
X0536Y052D02*
D03*
X0528Y0792D02*
D03*
Y0776D02*
D03*
Y076D02*
D03*
X0532Y0752D02*
D03*
X0528Y0744D02*
D03*
Y0728D02*
D03*
Y0712D02*
D03*
X0532Y0704D02*
D03*
X0528Y0696D02*
D03*
X0532Y0688D02*
D03*
X0528Y068D02*
D03*
Y0664D02*
D03*
Y0648D02*
D03*
X0532Y064D02*
D03*
X0528Y0632D02*
D03*
X0532Y0624D02*
D03*
X0528Y0616D02*
D03*
Y06D02*
D03*
Y0584D02*
D03*
X0532Y0576D02*
D03*
X0528Y0568D02*
D03*
X0532Y056D02*
D03*
X0528Y0552D02*
D03*
X0532Y0544D02*
D03*
X0528Y0536D02*
D03*
X0532Y0528D02*
D03*
X0528Y052D02*
D03*
X0532Y0512D02*
D03*
X052Y0792D02*
D03*
X0524Y0784D02*
D03*
X052Y0776D02*
D03*
X0524Y0768D02*
D03*
X052Y076D02*
D03*
X0524Y0752D02*
D03*
X052Y0744D02*
D03*
X0524Y0736D02*
D03*
X052Y0728D02*
D03*
X0524Y072D02*
D03*
X052Y0712D02*
D03*
X0524Y0704D02*
D03*
X052Y0696D02*
D03*
X0524Y0688D02*
D03*
X052Y068D02*
D03*
X0524Y0672D02*
D03*
X052Y0664D02*
D03*
X0524Y0656D02*
D03*
X052Y0648D02*
D03*
X0524Y064D02*
D03*
X052Y0632D02*
D03*
X0524Y0624D02*
D03*
X052Y0616D02*
D03*
X0524Y0608D02*
D03*
X052Y06D02*
D03*
X0524Y0592D02*
D03*
X052Y0584D02*
D03*
X0524Y0576D02*
D03*
X052Y0568D02*
D03*
X0524Y056D02*
D03*
X052Y0552D02*
D03*
X0524Y0544D02*
D03*
X052Y0536D02*
D03*
X0524Y0528D02*
D03*
X0516Y08D02*
D03*
Y0784D02*
D03*
X0512Y0776D02*
D03*
X0516Y0768D02*
D03*
X0512Y076D02*
D03*
X0516Y0752D02*
D03*
X0512Y0744D02*
D03*
X0516Y0736D02*
D03*
X0512Y0728D02*
D03*
X0516Y072D02*
D03*
Y0704D02*
D03*
X0512Y0696D02*
D03*
X0516Y0688D02*
D03*
X0512Y068D02*
D03*
X0516Y0672D02*
D03*
X0512Y0664D02*
D03*
X0516Y0656D02*
D03*
X0512Y0648D02*
D03*
X0516Y064D02*
D03*
X0512Y0632D02*
D03*
X0516Y0624D02*
D03*
Y0608D02*
D03*
X0512Y06D02*
D03*
X0516Y0592D02*
D03*
X0512Y0584D02*
D03*
X0516Y0576D02*
D03*
X0512Y0568D02*
D03*
X0516Y056D02*
D03*
Y0544D02*
D03*
Y0528D02*
D03*
Y0512D02*
D03*
X0508Y08D02*
D03*
Y0784D02*
D03*
X0504Y0776D02*
D03*
Y076D02*
D03*
X0508Y0752D02*
D03*
X0504Y0744D02*
D03*
X0508Y0736D02*
D03*
X0504Y0728D02*
D03*
X0508Y072D02*
D03*
Y0704D02*
D03*
X0504Y0696D02*
D03*
X0508Y0688D02*
D03*
X0504Y068D02*
D03*
Y0664D02*
D03*
Y0648D02*
D03*
X0508Y064D02*
D03*
X0504Y0632D02*
D03*
X0508Y0624D02*
D03*
Y0608D02*
D03*
X0504Y06D02*
D03*
Y0584D02*
D03*
X0508Y0576D02*
D03*
X0504Y0568D02*
D03*
X0508Y056D02*
D03*
X0504Y0536D02*
D03*
X0508Y0528D02*
D03*
Y0512D02*
D03*
X0496Y084D02*
D03*
X05Y0832D02*
D03*
X0496Y0824D02*
D03*
X05Y08D02*
D03*
Y0784D02*
D03*
X0496Y0776D02*
D03*
Y076D02*
D03*
X05Y0752D02*
D03*
X0496Y0744D02*
D03*
X05Y0736D02*
D03*
X0496Y0728D02*
D03*
X05Y072D02*
D03*
Y0704D02*
D03*
X0496Y0696D02*
D03*
X05Y0688D02*
D03*
X0496Y068D02*
D03*
Y0664D02*
D03*
Y0648D02*
D03*
X05Y064D02*
D03*
X0496Y0632D02*
D03*
X05Y0624D02*
D03*
Y0608D02*
D03*
X0496Y06D02*
D03*
Y0584D02*
D03*
X05Y0576D02*
D03*
X0496Y0568D02*
D03*
X05Y056D02*
D03*
Y0544D02*
D03*
X0496Y0536D02*
D03*
X05Y0528D02*
D03*
X0492Y0832D02*
D03*
Y08D02*
D03*
X0488Y0792D02*
D03*
X0492Y0768D02*
D03*
X0488Y076D02*
D03*
X0492Y0752D02*
D03*
Y0736D02*
D03*
X0488Y0712D02*
D03*
X0492Y0704D02*
D03*
X0488Y0696D02*
D03*
X0492Y0688D02*
D03*
X0488Y068D02*
D03*
X0492Y0672D02*
D03*
X0488Y0648D02*
D03*
X0492Y064D02*
D03*
X0488Y0632D02*
D03*
X0492Y0624D02*
D03*
X0488Y0616D02*
D03*
X0492Y0592D02*
D03*
Y0576D02*
D03*
Y056D02*
D03*
Y0544D02*
D03*
X0488Y0536D02*
D03*
X0492Y0528D02*
D03*
X0488Y052D02*
D03*
X048Y084D02*
D03*
Y0824D02*
D03*
X0484Y0816D02*
D03*
Y0768D02*
D03*
X048Y076D02*
D03*
X0484Y0752D02*
D03*
Y0736D02*
D03*
X048Y0712D02*
D03*
X0484Y0704D02*
D03*
X048Y0696D02*
D03*
X0484Y0672D02*
D03*
X048Y0664D02*
D03*
Y0648D02*
D03*
X0484Y064D02*
D03*
X048Y0632D02*
D03*
Y0584D02*
D03*
X0484Y0576D02*
D03*
X048Y0568D02*
D03*
X0484Y056D02*
D03*
X048Y0552D02*
D03*
X0484Y0544D02*
D03*
X048Y0536D02*
D03*
X0484Y0528D02*
D03*
X048Y052D02*
D03*
X0484Y0512D02*
D03*
X0472Y084D02*
D03*
X0476Y0832D02*
D03*
X0472Y0824D02*
D03*
X0476Y0816D02*
D03*
X0472Y0792D02*
D03*
X0476Y0784D02*
D03*
Y0768D02*
D03*
X0472Y076D02*
D03*
X0476Y0752D02*
D03*
X0472Y0744D02*
D03*
Y0712D02*
D03*
X0476Y0704D02*
D03*
X0472Y0696D02*
D03*
Y068D02*
D03*
Y0648D02*
D03*
X0476Y064D02*
D03*
X0472Y0632D02*
D03*
Y0616D02*
D03*
Y0584D02*
D03*
X0476Y0576D02*
D03*
X0472Y0568D02*
D03*
X0476Y056D02*
D03*
X0472Y0552D02*
D03*
X0476Y0544D02*
D03*
X0472Y0536D02*
D03*
X0476Y0528D02*
D03*
X0472Y052D02*
D03*
X0476Y0512D02*
D03*
X0464Y0856D02*
D03*
X0468Y0848D02*
D03*
X0464Y084D02*
D03*
X0468Y0832D02*
D03*
X0464Y0824D02*
D03*
X0468Y0816D02*
D03*
Y08D02*
D03*
X0464Y0792D02*
D03*
X0468Y0768D02*
D03*
X0464Y076D02*
D03*
X0468Y0752D02*
D03*
X0464Y0744D02*
D03*
X0468Y0736D02*
D03*
X0464Y0712D02*
D03*
X0468Y0704D02*
D03*
X0464Y0696D02*
D03*
X0468Y0688D02*
D03*
X0464Y068D02*
D03*
X0468Y0656D02*
D03*
X0464Y0648D02*
D03*
X0468Y064D02*
D03*
X0464Y0632D02*
D03*
X0468Y0624D02*
D03*
X0464Y0616D02*
D03*
Y0584D02*
D03*
X0468Y0576D02*
D03*
X0464Y0568D02*
D03*
X0468Y056D02*
D03*
Y0512D02*
D03*
X0456Y0856D02*
D03*
X046Y0848D02*
D03*
X0456Y084D02*
D03*
X046Y0832D02*
D03*
X0456Y0824D02*
D03*
X046Y0816D02*
D03*
X0456Y06D02*
D03*
Y0584D02*
D03*
X046Y0576D02*
D03*
X0456Y0568D02*
D03*
Y0552D02*
D03*
Y0504D02*
D03*
X0448Y0856D02*
D03*
Y084D02*
D03*
X0452Y0832D02*
D03*
X0448Y0824D02*
D03*
X0452Y0816D02*
D03*
X0448Y0808D02*
D03*
X0452Y08D02*
D03*
X0448Y0792D02*
D03*
X0452Y0784D02*
D03*
X0448Y0776D02*
D03*
X0452Y0768D02*
D03*
X0448Y076D02*
D03*
X0452Y0752D02*
D03*
X0448Y0744D02*
D03*
X0452Y0736D02*
D03*
X0448Y0728D02*
D03*
X0452Y072D02*
D03*
X0448Y0712D02*
D03*
X0452Y0704D02*
D03*
X0448Y0696D02*
D03*
X0452Y0688D02*
D03*
X0448Y068D02*
D03*
X0452Y0672D02*
D03*
X0448Y0664D02*
D03*
X0452Y0656D02*
D03*
X0448Y0648D02*
D03*
X0452Y064D02*
D03*
X0448Y0632D02*
D03*
X0452Y0624D02*
D03*
X0448Y0616D02*
D03*
X0452Y0608D02*
D03*
X0448Y06D02*
D03*
Y0584D02*
D03*
X0452Y0576D02*
D03*
X0444Y0864D02*
D03*
X044Y0856D02*
D03*
X0444Y0848D02*
D03*
X044Y084D02*
D03*
X0444Y0832D02*
D03*
X044Y0824D02*
D03*
X0444Y0816D02*
D03*
X044Y0808D02*
D03*
X0444Y08D02*
D03*
Y0784D02*
D03*
X044Y0776D02*
D03*
X0444Y0768D02*
D03*
X044Y076D02*
D03*
X0444Y0752D02*
D03*
Y0736D02*
D03*
Y072D02*
D03*
X044Y0712D02*
D03*
X0444Y0704D02*
D03*
X044Y0696D02*
D03*
X0444Y0688D02*
D03*
Y0672D02*
D03*
X044Y0664D02*
D03*
X0444Y0656D02*
D03*
X044Y0648D02*
D03*
X0444Y064D02*
D03*
X044Y0632D02*
D03*
X0444Y0624D02*
D03*
Y0608D02*
D03*
X044Y06D02*
D03*
Y0584D02*
D03*
X0444Y0576D02*
D03*
Y0512D02*
D03*
X0432Y0856D02*
D03*
X0436Y0848D02*
D03*
X0432Y084D02*
D03*
X0436Y0832D02*
D03*
X0432Y0824D02*
D03*
X0436Y0816D02*
D03*
X0432Y0808D02*
D03*
Y0792D02*
D03*
X0436Y0768D02*
D03*
X0432Y076D02*
D03*
X0436Y0752D02*
D03*
Y072D02*
D03*
X0432Y0712D02*
D03*
X0436Y0704D02*
D03*
X0432Y0696D02*
D03*
Y068D02*
D03*
X0436Y0656D02*
D03*
X0432Y0648D02*
D03*
X0436Y064D02*
D03*
X0432Y0632D02*
D03*
Y0616D02*
D03*
X0436Y0576D02*
D03*
X0428Y0848D02*
D03*
Y0832D02*
D03*
Y0816D02*
D03*
X0424Y0792D02*
D03*
X0428Y0768D02*
D03*
X0424Y076D02*
D03*
X0428Y0752D02*
D03*
Y0736D02*
D03*
X0424Y0712D02*
D03*
X0428Y0704D02*
D03*
X0424Y0696D02*
D03*
Y068D02*
D03*
X0428Y0656D02*
D03*
X0424Y0648D02*
D03*
X0428Y064D02*
D03*
X0424Y0632D02*
D03*
Y0616D02*
D03*
Y06D02*
D03*
X0428Y0512D02*
D03*
X0416Y0856D02*
D03*
X042Y0848D02*
D03*
Y0832D02*
D03*
Y08D02*
D03*
Y0784D02*
D03*
Y0768D02*
D03*
Y0752D02*
D03*
X0416Y0712D02*
D03*
X042Y0608D02*
D03*
Y0576D02*
D03*
X0412Y0848D02*
D03*
Y0704D02*
D03*
X0408Y0664D02*
D03*
Y0648D02*
D03*
Y0632D02*
D03*
Y0616D02*
D03*
Y06D02*
D03*
X0412Y0592D02*
D03*
Y0576D02*
D03*
X04Y0856D02*
D03*
X0404Y0848D02*
D03*
Y0832D02*
D03*
Y08D02*
D03*
X04Y0792D02*
D03*
X0404Y0784D02*
D03*
X04Y0776D02*
D03*
X0404Y0768D02*
D03*
X04Y076D02*
D03*
X0404Y0752D02*
D03*
X04Y0744D02*
D03*
X0404Y0736D02*
D03*
Y072D02*
D03*
Y0704D02*
D03*
Y0624D02*
D03*
Y0608D02*
D03*
X04Y06D02*
D03*
X0404Y0592D02*
D03*
Y0576D02*
D03*
X0396Y0848D02*
D03*
X0392Y0808D02*
D03*
X0396Y0768D02*
D03*
X0392Y076D02*
D03*
X0396Y0752D02*
D03*
Y0736D02*
D03*
X0392Y0632D02*
D03*
Y06D02*
D03*
X0396Y0592D02*
D03*
Y0576D02*
D03*
X0392Y0568D02*
D03*
X0388Y0864D02*
D03*
Y0848D02*
D03*
X0384Y084D02*
D03*
Y0808D02*
D03*
Y0792D02*
D03*
X0388Y0768D02*
D03*
X0384Y076D02*
D03*
X0388Y0752D02*
D03*
X0384Y0696D02*
D03*
X0388Y0688D02*
D03*
X0384Y068D02*
D03*
X0388Y0672D02*
D03*
X0384Y0664D02*
D03*
X0388Y0656D02*
D03*
X0384Y0648D02*
D03*
Y0632D02*
D03*
Y06D02*
D03*
X0388Y0592D02*
D03*
Y0576D02*
D03*
X038Y0864D02*
D03*
Y0848D02*
D03*
Y0784D02*
D03*
X0376Y0696D02*
D03*
X038Y0688D02*
D03*
X0376Y068D02*
D03*
X038Y0672D02*
D03*
X0376Y0648D02*
D03*
Y0632D02*
D03*
Y06D02*
D03*
X038Y0592D02*
D03*
Y0576D02*
D03*
Y0512D02*
D03*
X0372Y0864D02*
D03*
Y0848D02*
D03*
X0368Y084D02*
D03*
X0372Y0832D02*
D03*
Y0752D02*
D03*
X0368Y0744D02*
D03*
X0372Y0736D02*
D03*
X0368Y0696D02*
D03*
X0372Y0688D02*
D03*
X0368Y068D02*
D03*
X0372Y0672D02*
D03*
X0368Y0648D02*
D03*
Y0632D02*
D03*
Y06D02*
D03*
X0372Y0592D02*
D03*
Y0576D02*
D03*
X036Y0808D02*
D03*
X0364Y0752D02*
D03*
X036Y0696D02*
D03*
X0364Y0688D02*
D03*
X036Y068D02*
D03*
X0364Y0672D02*
D03*
X036Y0664D02*
D03*
Y0648D02*
D03*
Y0632D02*
D03*
Y06D02*
D03*
X0364Y0592D02*
D03*
Y0576D02*
D03*
X0356Y0864D02*
D03*
Y0576D02*
D03*
X0348Y0864D02*
D03*
X0344Y0776D02*
D03*
Y0696D02*
D03*
Y0664D02*
D03*
Y0632D02*
D03*
Y06D02*
D03*
Y0584D02*
D03*
X0348Y0576D02*
D03*
X034Y0864D02*
D03*
Y0816D02*
D03*
X0336Y0776D02*
D03*
Y0696D02*
D03*
X034Y0672D02*
D03*
X0336Y0664D02*
D03*
X034Y0656D02*
D03*
X0336Y0632D02*
D03*
Y06D02*
D03*
X034Y0592D02*
D03*
X0336Y0584D02*
D03*
X034Y0576D02*
D03*
X0328Y084D02*
D03*
Y0824D02*
D03*
X0332Y0816D02*
D03*
Y0704D02*
D03*
X0328Y0616D02*
D03*
Y06D02*
D03*
X0332Y0592D02*
D03*
X0328Y0584D02*
D03*
X0332Y0576D02*
D03*
X0328Y0568D02*
D03*
Y0552D02*
D03*
Y0536D02*
D03*
X0332Y0512D02*
D03*
X0324Y0864D02*
D03*
Y0704D02*
D03*
Y0688D02*
D03*
X032Y068D02*
D03*
Y0664D02*
D03*
X0324Y0624D02*
D03*
Y0608D02*
D03*
Y0592D02*
D03*
Y0576D02*
D03*
Y056D02*
D03*
Y0544D02*
D03*
Y0512D02*
D03*
X0312Y0856D02*
D03*
X0316Y0848D02*
D03*
X0312Y0664D02*
D03*
Y0648D02*
D03*
Y0632D02*
D03*
Y0616D02*
D03*
X0308Y0848D02*
D03*
Y0768D02*
D03*
Y072D02*
D03*
Y0704D02*
D03*
Y0688D02*
D03*
Y0672D02*
D03*
Y0656D02*
D03*
X0304Y06D02*
D03*
X03Y0848D02*
D03*
X0296Y076D02*
D03*
Y0744D02*
D03*
Y0728D02*
D03*
Y0712D02*
D03*
Y0696D02*
D03*
X03Y0672D02*
D03*
X0296Y0664D02*
D03*
X03Y0656D02*
D03*
Y064D02*
D03*
X0296Y0632D02*
D03*
X03Y0608D02*
D03*
X0296Y06D02*
D03*
X0292Y0848D02*
D03*
X0288Y084D02*
D03*
X0292Y0816D02*
D03*
Y08D02*
D03*
X0288Y0792D02*
D03*
X0292Y0784D02*
D03*
X0288Y0776D02*
D03*
Y076D02*
D03*
X0292Y0752D02*
D03*
X0288Y0744D02*
D03*
X0292Y0736D02*
D03*
X0288Y0712D02*
D03*
X0292Y0704D02*
D03*
X0288Y0696D02*
D03*
X0292Y0688D02*
D03*
Y0672D02*
D03*
X0288Y0664D02*
D03*
X0292Y0656D02*
D03*
X0288Y0648D02*
D03*
X0292Y064D02*
D03*
X0288Y0632D02*
D03*
Y06D02*
D03*
Y0584D02*
D03*
X028Y0856D02*
D03*
Y084D02*
D03*
X0284Y0816D02*
D03*
Y08D02*
D03*
X028Y0792D02*
D03*
X0284Y072D02*
D03*
X028Y0712D02*
D03*
X0284Y0704D02*
D03*
X028Y0696D02*
D03*
X0284Y0688D02*
D03*
Y0672D02*
D03*
X028Y0664D02*
D03*
X0284Y0656D02*
D03*
Y064D02*
D03*
X028Y0632D02*
D03*
X0284Y0624D02*
D03*
X028Y06D02*
D03*
Y0584D02*
D03*
Y0568D02*
D03*
X0284Y056D02*
D03*
X028Y0552D02*
D03*
X0284Y0544D02*
D03*
X028Y0536D02*
D03*
X0284Y0528D02*
D03*
X0272Y0808D02*
D03*
X0276Y08D02*
D03*
X0272Y0792D02*
D03*
Y076D02*
D03*
X0276Y0704D02*
D03*
X0272Y0696D02*
D03*
X0276Y0688D02*
D03*
X0272Y0664D02*
D03*
X0276Y0656D02*
D03*
Y064D02*
D03*
X0272Y0632D02*
D03*
Y06D02*
D03*
Y0584D02*
D03*
Y0568D02*
D03*
X0276Y056D02*
D03*
X0272Y0552D02*
D03*
X0276Y0544D02*
D03*
X0272Y0536D02*
D03*
X0276Y0528D02*
D03*
X0268Y0848D02*
D03*
Y0832D02*
D03*
Y0816D02*
D03*
Y08D02*
D03*
Y0784D02*
D03*
X0264Y076D02*
D03*
X0268Y0752D02*
D03*
Y0736D02*
D03*
Y072D02*
D03*
Y0656D02*
D03*
Y064D02*
D03*
Y0624D02*
D03*
Y0608D02*
D03*
X0264Y0584D02*
D03*
Y0568D02*
D03*
X0268Y056D02*
D03*
X0264Y0552D02*
D03*
X0268Y0544D02*
D03*
X0264Y0536D02*
D03*
X0268Y0528D02*
D03*
X0256Y0856D02*
D03*
Y084D02*
D03*
Y0824D02*
D03*
Y0808D02*
D03*
Y0792D02*
D03*
Y0776D02*
D03*
X026Y0768D02*
D03*
X0256Y076D02*
D03*
Y0744D02*
D03*
X026Y0736D02*
D03*
X0256Y0584D02*
D03*
Y0568D02*
D03*
X026Y056D02*
D03*
X0256Y0552D02*
D03*
X026Y0544D02*
D03*
Y0528D02*
D03*
X0248Y0856D02*
D03*
X0252Y0816D02*
D03*
Y08D02*
D03*
Y0784D02*
D03*
Y0768D02*
D03*
Y0752D02*
D03*
X0248Y0728D02*
D03*
X0252Y072D02*
D03*
X0248Y0712D02*
D03*
X0252Y0704D02*
D03*
X0248Y0696D02*
D03*
X0252Y0688D02*
D03*
X0248Y068D02*
D03*
X0252Y0672D02*
D03*
X0248Y0664D02*
D03*
X0252Y0656D02*
D03*
Y0624D02*
D03*
Y0608D02*
D03*
Y0592D02*
D03*
X0248Y0568D02*
D03*
X0252Y056D02*
D03*
X0248Y0552D02*
D03*
X024Y0856D02*
D03*
Y0824D02*
D03*
Y0808D02*
D03*
Y0792D02*
D03*
Y0776D02*
D03*
Y076D02*
D03*
Y0744D02*
D03*
Y0728D02*
D03*
X0244Y072D02*
D03*
X024Y0712D02*
D03*
X0244Y0704D02*
D03*
X024Y0696D02*
D03*
X0244Y0688D02*
D03*
X024Y068D02*
D03*
X0244Y0672D02*
D03*
X024Y0664D02*
D03*
X0244Y0656D02*
D03*
X024Y0648D02*
D03*
Y0632D02*
D03*
Y0616D02*
D03*
Y06D02*
D03*
Y0584D02*
D03*
X0244Y0576D02*
D03*
X024Y0568D02*
D03*
X0244Y056D02*
D03*
X024Y0552D02*
D03*
Y052D02*
D03*
X0244Y0512D02*
D03*
X0236Y0864D02*
D03*
X0232Y0856D02*
D03*
Y084D02*
D03*
Y0808D02*
D03*
Y0792D02*
D03*
Y0776D02*
D03*
Y0744D02*
D03*
Y0728D02*
D03*
Y0712D02*
D03*
Y0696D02*
D03*
Y068D02*
D03*
Y0648D02*
D03*
Y0632D02*
D03*
Y06D02*
D03*
Y0584D02*
D03*
Y0568D02*
D03*
Y0552D02*
D03*
Y0536D02*
D03*
Y052D02*
D03*
Y0504D02*
D03*
X0224Y0856D02*
D03*
X0228Y0848D02*
D03*
X0224Y084D02*
D03*
X0228Y0832D02*
D03*
X0224Y0808D02*
D03*
X0228Y08D02*
D03*
X0224Y0792D02*
D03*
X0228Y0784D02*
D03*
X0224Y0776D02*
D03*
X0228Y0752D02*
D03*
X0224Y0744D02*
D03*
X0228Y0736D02*
D03*
X0224Y0728D02*
D03*
Y0712D02*
D03*
X0228Y0704D02*
D03*
X0224Y0696D02*
D03*
X0228Y0688D02*
D03*
X0224Y068D02*
D03*
X0228Y0672D02*
D03*
X0224Y0648D02*
D03*
X0228Y064D02*
D03*
X0224Y0632D02*
D03*
X0228Y0624D02*
D03*
Y0608D02*
D03*
X0224Y06D02*
D03*
X0228Y0592D02*
D03*
X0224Y0584D02*
D03*
X0228Y0576D02*
D03*
X0224Y0568D02*
D03*
Y0552D02*
D03*
X0228Y0544D02*
D03*
X0224Y0536D02*
D03*
X0228Y0528D02*
D03*
X0224Y052D02*
D03*
Y0504D02*
D03*
X0216Y0856D02*
D03*
X022Y0848D02*
D03*
X0216Y084D02*
D03*
X022Y0832D02*
D03*
X0216Y0808D02*
D03*
X022Y08D02*
D03*
X0216Y0792D02*
D03*
X022Y0784D02*
D03*
X0216Y0776D02*
D03*
X022Y0752D02*
D03*
X0216Y0744D02*
D03*
X022Y0736D02*
D03*
X0216Y0728D02*
D03*
Y0712D02*
D03*
X022Y0704D02*
D03*
X0216Y0696D02*
D03*
X022Y0688D02*
D03*
X0216Y068D02*
D03*
X022Y0672D02*
D03*
X0216Y0648D02*
D03*
X022Y064D02*
D03*
X0216Y0632D02*
D03*
X022Y0624D02*
D03*
Y0608D02*
D03*
X0216Y06D02*
D03*
X022Y0592D02*
D03*
X0216Y0584D02*
D03*
X022Y0576D02*
D03*
X0216Y0568D02*
D03*
Y0552D02*
D03*
X022Y0544D02*
D03*
X0216Y0536D02*
D03*
X022Y0528D02*
D03*
X0216Y052D02*
D03*
Y0504D02*
D03*
X0352Y0849D02*
D03*
X03455D02*
D03*
X0293Y0546D02*
D03*
X03355Y0799D02*
D03*
X0371Y0763D02*
D03*
X0373Y0785D02*
D03*
X0344Y06525D02*
D03*
Y06475D02*
D03*
X03565Y07805D02*
D03*
X034791Y0775D02*
D03*
X0407Y0812D02*
D03*
X03675Y07285D02*
D03*
X03935Y07105D02*
D03*
X0304Y06375D02*
D03*
X03575D02*
D03*
X03015Y06965D02*
D03*
X03685Y0834D02*
D03*
X0413Y055283D02*
D03*
X0405Y055598D02*
D03*
X031895Y052495D02*
D03*
X031Y0585D02*
D03*
X045Y05065D02*
D03*
X03215Y06975D02*
D03*
X0347Y07515D02*
D03*
X03325Y08295D02*
D03*
X033489D02*
D03*
X03645Y0831D02*
D03*
X0361Y08325D02*
D03*
X0428Y0563D02*
D03*
X0431Y05755D02*
D03*
X03615Y0559D02*
D03*
X03665Y054353D02*
D03*
X04065Y0534D02*
D03*
X0347Y0547D02*
D03*
X0341Y05635D02*
D03*
X03825Y0542D02*
D03*
X0355Y0543D02*
D03*
X0385Y0523D02*
D03*
X03725Y05295D02*
D03*
X034Y05475D02*
D03*
M02*
