G04*
G04 #@! TF.GenerationSoftware,Altium Limited,Altium Designer,19.0.10 (269)*
G04*
G04 Layer_Physical_Order=1*
G04 Layer_Color=255*
%FSTAX24Y24*%
%MOIN*%
G70*
G01*
G75*
%ADD14C,0.0200*%
%ADD18C,0.0100*%
%ADD26R,0.0315X0.0354*%
%ADD27R,0.0550X0.0394*%
%ADD28R,0.0394X0.0550*%
%ADD29R,0.0550X0.0433*%
G04:AMPARAMS|DCode=30|XSize=77.6mil|YSize=23.2mil|CornerRadius=2.9mil|HoleSize=0mil|Usage=FLASHONLY|Rotation=270.000|XOffset=0mil|YOffset=0mil|HoleType=Round|Shape=RoundedRectangle|*
%AMROUNDEDRECTD30*
21,1,0.0776,0.0174,0,0,270.0*
21,1,0.0718,0.0232,0,0,270.0*
1,1,0.0058,-0.0087,-0.0359*
1,1,0.0058,-0.0087,0.0359*
1,1,0.0058,0.0087,0.0359*
1,1,0.0058,0.0087,-0.0359*
%
%ADD30ROUNDEDRECTD30*%
%ADD31O,0.0217X0.0709*%
%ADD32R,0.0354X0.0315*%
%ADD33R,0.0591X0.1260*%
%ADD34R,0.0539X0.0638*%
%ADD35R,0.0835X0.0591*%
%ADD36R,0.0591X0.0835*%
%ADD37R,0.0413X0.0512*%
%ADD38R,0.0882X0.1417*%
%ADD39R,0.0882X0.0480*%
G04:AMPARAMS|DCode=40|XSize=57.9mil|YSize=11mil|CornerRadius=1.4mil|HoleSize=0mil|Usage=FLASHONLY|Rotation=270.000|XOffset=0mil|YOffset=0mil|HoleType=Round|Shape=RoundedRectangle|*
%AMROUNDEDRECTD40*
21,1,0.0579,0.0083,0,0,270.0*
21,1,0.0551,0.0110,0,0,270.0*
1,1,0.0028,-0.0041,-0.0276*
1,1,0.0028,-0.0041,0.0276*
1,1,0.0028,0.0041,0.0276*
1,1,0.0028,0.0041,-0.0276*
%
%ADD40ROUNDEDRECTD40*%
%ADD41R,0.0906X0.0900*%
%ADD42R,0.1378X0.0630*%
%ADD43R,0.0512X0.1063*%
%ADD44R,0.0890X0.0490*%
%ADD45R,0.1670X0.0810*%
%ADD46R,0.1457X0.1457*%
%ADD47R,0.0354X0.0709*%
%ADD48R,0.0709X0.0354*%
%ADD49O,0.0984X0.0591*%
%ADD50R,0.0354X0.0374*%
%ADD51R,0.0250X0.0984*%
%ADD52O,0.0250X0.0984*%
%ADD53R,0.0118X0.0449*%
%ADD54R,0.0315X0.0472*%
%ADD55R,0.1500X0.0800*%
G04:AMPARAMS|DCode=56|XSize=41.7mil|YSize=148.8mil|CornerRadius=11.1mil|HoleSize=0mil|Usage=FLASHONLY|Rotation=270.000|XOffset=0mil|YOffset=0mil|HoleType=Round|Shape=RoundedRectangle|*
%AMROUNDEDRECTD56*
21,1,0.0417,0.1267,0,0,270.0*
21,1,0.0196,0.1488,0,0,270.0*
1,1,0.0221,-0.0634,-0.0098*
1,1,0.0221,-0.0634,0.0098*
1,1,0.0221,0.0634,0.0098*
1,1,0.0221,0.0634,-0.0098*
%
%ADD56ROUNDEDRECTD56*%
%ADD57R,0.0354X0.0236*%
%ADD58R,0.0315X0.0394*%
%ADD59R,0.0850X0.0421*%
%ADD60R,0.3150X0.4252*%
%ADD61R,0.0669X0.0787*%
%ADD62R,0.1063X0.0512*%
%ADD63R,0.0984X0.0669*%
%ADD111R,0.3150X0.2516*%
%ADD112C,0.0300*%
%ADD113C,0.1000*%
%ADD114R,0.1200X0.1200*%
%ADD115C,0.1200*%
%ADD116R,0.0472X0.0472*%
%ADD117C,0.0650*%
%ADD118C,0.0768*%
%ADD119R,0.0768X0.0768*%
%ADD120C,0.0256*%
%ADD121O,0.0394X0.0787*%
%ADD122O,0.0354X0.0709*%
%ADD123C,0.0551*%
%ADD124C,0.0579*%
%ADD125C,0.0200*%
G36*
X068667Y050233D02*
X065256D01*
X065214Y050333D01*
X065516Y050634D01*
X065516Y050634D01*
X065567Y05071D01*
X065585Y0508D01*
Y05127D01*
X065639Y051311D01*
X065704Y051396D01*
X065744Y051494D01*
X065758Y0516D01*
X065744Y051706D01*
X065704Y051804D01*
X065639Y051889D01*
X065554Y051954D01*
X065456Y051994D01*
X06535Y052008D01*
X065244Y051994D01*
X065146Y051954D01*
X065061Y051889D01*
X064996Y051804D01*
X064956Y051706D01*
X064942Y0516D01*
X064956Y051494D01*
X064996Y051396D01*
X065061Y051311D01*
X065115Y05127D01*
Y050897D01*
X064853Y050635D01*
X060535D01*
Y051256D01*
X060589Y051298D01*
X060654Y051382D01*
X060694Y051481D01*
X060708Y051586D01*
X060694Y051692D01*
X060654Y05179D01*
X060589Y051875D01*
X060504Y05194D01*
X060406Y051981D01*
X0603Y051995D01*
X060194Y051981D01*
X060096Y05194D01*
X060011Y051875D01*
X059946Y05179D01*
X059906Y051692D01*
X059892Y051586D01*
X059906Y051481D01*
X059946Y051382D01*
X060011Y051298D01*
X060065Y051256D01*
Y050635D01*
X055485D01*
Y051256D01*
X055539Y051298D01*
X055604Y051382D01*
X055644Y051481D01*
X055658Y051586D01*
X055644Y051692D01*
X055604Y05179D01*
X055539Y051875D01*
X055454Y05194D01*
X055356Y051981D01*
X05525Y051995D01*
X055144Y051981D01*
X055046Y05194D01*
X054961Y051875D01*
X054896Y05179D01*
X054856Y051692D01*
X054842Y051586D01*
X054856Y051481D01*
X054896Y051382D01*
X054961Y051298D01*
X055015Y051256D01*
Y050635D01*
X050435D01*
Y05127D01*
X050489Y051311D01*
X050554Y051396D01*
X050594Y051494D01*
X050608Y0516D01*
X050594Y051706D01*
X050554Y051804D01*
X050489Y051889D01*
X050404Y051954D01*
X050306Y051994D01*
X0502Y052008D01*
X050094Y051994D01*
X049996Y051954D01*
X049911Y051889D01*
X049846Y051804D01*
X049806Y051706D01*
X049792Y0516D01*
X049806Y051494D01*
X049846Y051396D01*
X049911Y051311D01*
X049965Y05127D01*
Y050635D01*
X046347D01*
X04616Y050821D01*
Y054224D01*
X046142Y054314D01*
X046092Y05439D01*
X045916Y054566D01*
X04584Y054617D01*
X04575Y054635D01*
X045402D01*
Y05546D01*
X044651D01*
Y05404D01*
X045402D01*
Y054166D01*
X045653D01*
X045691Y054127D01*
Y050724D01*
X045709Y050635D01*
X04576Y050558D01*
X045986Y050333D01*
X045944Y050233D01*
X021183D01*
Y087217D01*
X048141D01*
X048235Y087205D01*
X048235Y087117D01*
Y086966D01*
X046694D01*
X046604Y086948D01*
X046528Y086897D01*
X045904Y086273D01*
X045486D01*
X045463Y086302D01*
X045386Y086362D01*
X045296Y086399D01*
X0452Y086412D01*
X045104Y086399D01*
X045014Y086362D01*
X044937Y086302D01*
X044914Y086273D01*
X043808D01*
X043425Y086657D01*
X043349Y086708D01*
X043259Y086725D01*
X043016D01*
Y086827D01*
X041793D01*
Y086784D01*
X041259D01*
Y086827D01*
X040549D01*
Y086784D01*
X039843D01*
X039843Y086784D01*
X039754Y086767D01*
X039677Y086716D01*
X038634Y085672D01*
X032309D01*
X031216Y086766D01*
X03114Y086817D01*
X03105Y086835D01*
X024293D01*
X024204Y086817D01*
X024127Y086766D01*
X023484Y086123D01*
X02346Y086087D01*
X02336Y086117D01*
Y08694D01*
X02153D01*
Y08597D01*
X023319D01*
X023365Y085964D01*
X023415Y085893D01*
Y08415D01*
Y082607D01*
X02336Y08253D01*
X023315Y08253D01*
X02153D01*
Y08156D01*
X023315D01*
X02336Y08156D01*
X023415Y081483D01*
Y0768D01*
X02336Y076723D01*
X023315Y076723D01*
X02153D01*
Y075753D01*
X023315D01*
X02336Y075753D01*
X023415Y075676D01*
Y073952D01*
Y072391D01*
X023315Y072314D01*
X02153D01*
Y071344D01*
X023315D01*
X02336Y071344D01*
X023415Y071266D01*
X023415Y066583D01*
X023315Y066506D01*
X02153D01*
Y065536D01*
X023315D01*
X02336Y065536D01*
X023415Y065459D01*
Y0638D01*
Y062174D01*
X02336Y062097D01*
X023315Y062097D01*
X02153D01*
Y061127D01*
X023315D01*
X02336Y061127D01*
X023415Y06105D01*
Y056367D01*
X02336Y05629D01*
X023315Y05629D01*
X02153D01*
Y05532D01*
X023315D01*
X02336Y05532D01*
X023415Y055243D01*
Y053695D01*
Y051957D01*
X02336Y05188D01*
X023315Y05188D01*
X02153D01*
Y05091D01*
X023349D01*
X02336Y05091D01*
X02346Y05092D01*
X023484Y050884D01*
X023964Y050404D01*
X023964Y050404D01*
X02404Y050353D01*
X02413Y050335D01*
X02413Y050335D01*
X04492D01*
X04501Y050353D01*
X045086Y050404D01*
X045166Y050484D01*
X045217Y05056D01*
X045235Y05065D01*
X045217Y05074D01*
X045166Y050816D01*
X04509Y050867D01*
X045Y050885D01*
X04491Y050867D01*
X044834Y050816D01*
X044823Y050805D01*
X040622D01*
X040591Y050905D01*
X04062Y050947D01*
X040634Y051017D01*
Y051095D01*
X041164D01*
Y051274D01*
X041525D01*
Y05107D01*
X042275D01*
Y051374D01*
X04287D01*
Y051275D01*
X043865D01*
Y051415D01*
X04395D01*
X04404Y051433D01*
X044116Y051484D01*
X044316Y051684D01*
X044367Y05176D01*
X044385Y05185D01*
X044385Y05185D01*
Y056324D01*
X044367Y056414D01*
X044316Y05649D01*
X04414Y056666D01*
X044064Y056717D01*
X043974Y056735D01*
X043748D01*
Y05726D01*
X042998D01*
Y056484D01*
X042872D01*
X042857Y056491D01*
X042797Y056582D01*
X042801Y056599D01*
Y057933D01*
X042787Y058003D01*
X042768Y058031D01*
X042846Y058095D01*
X042916Y058024D01*
Y05755D01*
X04293Y05748D01*
X04297Y05742D01*
X04303Y05738D01*
X0431Y057366D01*
X04317Y05738D01*
X04323Y05742D01*
X04327Y05748D01*
X043284Y05755D01*
Y0581D01*
X04327Y05817D01*
X04323Y05823D01*
X042643Y058816D01*
X042653Y05887D01*
X04268Y058916D01*
X048424D01*
X048616Y058724D01*
Y055455D01*
X048523D01*
Y054745D01*
X049077D01*
Y055455D01*
X048984D01*
Y0588D01*
X04897Y05887D01*
X04893Y05893D01*
X04863Y05923D01*
X04857Y05927D01*
X0485Y059284D01*
X047297D01*
X047276Y059328D01*
X047269Y059384D01*
X047333Y059432D01*
X047393Y059511D01*
X047396Y059519D01*
X048703D01*
X048726Y059523D01*
X049105D01*
Y060077D01*
X048395D01*
Y059988D01*
X047307D01*
X047255Y060028D01*
X047163Y060066D01*
X047065Y060079D01*
X046672D01*
X046574Y060066D01*
X046482Y060028D01*
X046404Y059968D01*
X046344Y059889D01*
X046306Y059798D01*
X046293Y0597D01*
X046306Y059602D01*
X046344Y059511D01*
X046404Y059432D01*
X046468Y059384D01*
X046461Y059328D01*
X04644Y059284D01*
X041926D01*
X041634Y059576D01*
Y062392D01*
X041726Y062427D01*
X041734Y062425D01*
X04177Y06237D01*
X04207Y06207D01*
X04213Y06203D01*
X0422Y062016D01*
X042623D01*
Y061845D01*
X043177D01*
Y062555D01*
X042623D01*
Y062384D01*
X042276D01*
X042084Y062576D01*
Y06865D01*
X04207Y06872D01*
X04203Y06878D01*
X04193Y06888D01*
X04187Y06892D01*
X0418Y068934D01*
X040521D01*
Y069066D01*
X042549D01*
X042623Y069005D01*
Y068295D01*
X043177D01*
Y069005D01*
X043051D01*
Y069133D01*
X043037Y069203D01*
X042997Y069263D01*
X04288Y06938D01*
X04282Y06942D01*
X04275Y069434D01*
X040521D01*
Y069566D01*
X04175D01*
X04182Y06958D01*
X04188Y06962D01*
X04223Y06997D01*
X04227Y07003D01*
X042284Y0701D01*
Y072647D01*
X042384Y072667D01*
X042407Y072611D01*
X042467Y072532D01*
X042545Y072472D01*
X042637Y072434D01*
X042735Y072421D01*
X043128D01*
X043226Y072434D01*
X043318Y072472D01*
X043396Y072532D01*
X043421Y072565D01*
X04355D01*
X04364Y072583D01*
X043716Y072634D01*
X043966Y072884D01*
X044017Y07296D01*
X044034Y07305D01*
Y074035D01*
X044077D01*
Y074745D01*
X043523D01*
Y074035D01*
X043565D01*
Y073147D01*
X043504Y073085D01*
X043396Y073068D01*
X043318Y073128D01*
X043226Y073166D01*
X043128Y073179D01*
X042735D01*
X042637Y073166D01*
X042545Y073128D01*
X042467Y073068D01*
X042407Y072989D01*
X042384Y072933D01*
X042284Y072953D01*
Y074114D01*
X042376Y074206D01*
X042623D01*
Y074035D01*
X043177D01*
Y074745D01*
X042623D01*
Y074574D01*
X0423D01*
X04223Y07456D01*
X04217Y07452D01*
X04197Y07432D01*
X04193Y07426D01*
X041916Y07419D01*
Y070176D01*
X041674Y069934D01*
X040521D01*
Y070007D01*
X039652D01*
Y069493D01*
Y068993D01*
Y068493D01*
Y067993D01*
Y067493D01*
Y066993D01*
Y066493D01*
Y065993D01*
Y065493D01*
Y064993D01*
Y064434D01*
X039508D01*
X039499Y064443D01*
Y070948D01*
X03952Y07098D01*
X039534Y07105D01*
X03952Y07112D01*
X039489Y071166D01*
X039504Y071221D01*
X03953Y071266D01*
X041233D01*
X041303Y07128D01*
X041363Y07132D01*
X04148Y071437D01*
X04152Y071497D01*
X041534Y071567D01*
Y079924D01*
X041726Y080116D01*
X042623D01*
Y079945D01*
X043177D01*
Y080655D01*
X042623D01*
Y080484D01*
X042344D01*
X042317Y08053D01*
X042307Y080584D01*
X04248Y080757D01*
X04252Y080816D01*
X042534Y080886D01*
Y082383D01*
X04252Y082453D01*
X04248Y082513D01*
X042363Y08263D01*
X042303Y08267D01*
X042233Y082684D01*
X042005D01*
Y082827D01*
X041755D01*
Y082986D01*
X041741Y083057D01*
X041702Y083116D01*
X040568Y08425D01*
X040509Y084289D01*
X040438Y084303D01*
X039687D01*
Y084436D01*
X039213D01*
Y083804D01*
X039687D01*
Y083936D01*
X040362D01*
X041372Y082927D01*
X041349Y082827D01*
X041295D01*
Y082273D01*
X042005D01*
Y082316D01*
X042157D01*
X042166Y082307D01*
Y080962D01*
X042088Y080884D01*
X03975D01*
X03968Y08087D01*
X03962Y08083D01*
X03927Y08048D01*
X03923Y08042D01*
X039216Y08035D01*
Y077426D01*
X039074Y077284D01*
X03893D01*
X038903Y07733D01*
X038893Y077384D01*
X03898Y07747D01*
X03902Y07753D01*
X039034Y0776D01*
Y081373D01*
X039205D01*
Y081466D01*
X039445D01*
Y081373D01*
X040155D01*
Y081916D01*
X040345D01*
Y081373D01*
X040516D01*
Y0812D01*
X04053Y08113D01*
X04057Y08107D01*
X04063Y08103D01*
X0407Y081016D01*
X04077Y08103D01*
X04083Y08107D01*
X04087Y08113D01*
X040884Y0812D01*
Y081373D01*
X041055D01*
Y081466D01*
X041295D01*
Y081373D01*
X042005D01*
Y081927D01*
X041295D01*
Y081834D01*
X041055D01*
Y081927D01*
X040798D01*
X040757Y082027D01*
X040817Y082087D01*
X040857Y082147D01*
X040871Y082217D01*
Y082273D01*
X041055D01*
Y082827D01*
X040345D01*
Y082284D01*
X040155D01*
Y082827D01*
X039984D01*
Y0833D01*
X03997Y08337D01*
X03993Y08343D01*
X03978Y08358D01*
X03972Y08362D01*
X03965Y083634D01*
X037887D01*
X037878Y083643D01*
Y083768D01*
X037887D01*
Y084401D01*
X037413D01*
Y083768D01*
X037511D01*
Y083567D01*
X037525Y083497D01*
X037564Y083437D01*
X037682Y08332D01*
X037741Y08328D01*
X037811Y083266D01*
X039574D01*
X039616Y083224D01*
Y082827D01*
X039445D01*
Y082284D01*
X039205D01*
Y082827D01*
X038495D01*
Y082734D01*
X038205D01*
Y082827D01*
X037495D01*
Y082734D01*
X037205D01*
Y082827D01*
X037034D01*
Y0834D01*
X03702Y08347D01*
X03698Y08353D01*
X03692Y08357D01*
X03685Y083584D01*
X03678Y08357D01*
X03672Y08353D01*
X03668Y08347D01*
X036666Y0834D01*
Y08328D01*
X036621Y083254D01*
X036566Y083239D01*
X03652Y08327D01*
X036455Y083283D01*
X035804Y083934D01*
X035781Y084024D01*
X035781Y084024D01*
X035781D01*
X035781Y084024D01*
Y084539D01*
X035857Y084554D01*
X035926Y0846D01*
X035971Y084669D01*
X035988Y08475D01*
X035971Y084831D01*
X035926Y0849D01*
X035857Y084946D01*
X035776Y084962D01*
X035694Y084946D01*
X035626Y0849D01*
X03558Y084831D01*
X035564Y08475D01*
X035567Y084733D01*
X035492Y084633D01*
X0353D01*
X035273Y084726D01*
X035274Y084733D01*
X03533Y08477D01*
X03537Y08483D01*
X035384Y0849D01*
X03537Y08497D01*
X03533Y08503D01*
X03527Y08507D01*
X0352Y085084D01*
X035162Y085076D01*
X035151Y085075D01*
X035119Y085103D01*
X03512Y085117D01*
X03517Y085203D01*
X038731D01*
X038821Y085221D01*
X038897Y085272D01*
X03994Y086315D01*
X040549D01*
Y086273D01*
X041259D01*
Y086315D01*
X041793D01*
Y086155D01*
X043016D01*
Y086256D01*
X043162D01*
X043545Y085873D01*
X043621Y085822D01*
X043711Y085804D01*
X044914D01*
X044937Y085776D01*
X045014Y085716D01*
X045104Y085679D01*
X0452Y085666D01*
X045296Y085679D01*
X045386Y085716D01*
X045463Y085776D01*
X045486Y085804D01*
X046002D01*
X046091Y085822D01*
X046167Y085873D01*
X046791Y086497D01*
X04713D01*
X047158Y086397D01*
X047155Y086395D01*
X047138Y086369D01*
X047131Y086337D01*
Y084763D01*
X047138Y084731D01*
X047155Y084705D01*
X047182Y084687D01*
X047213Y084681D01*
X048235D01*
Y083895D01*
X048415D01*
Y0821D01*
X048433Y08201D01*
X048484Y081934D01*
X049034Y081384D01*
X049034Y081384D01*
X04911Y081333D01*
X049095Y081235D01*
X0461D01*
X04601Y081217D01*
X045934Y081166D01*
X045584Y080816D01*
X045533Y08074D01*
X045515Y08065D01*
Y078644D01*
Y0728D01*
Y0673D01*
Y060876D01*
X045533Y060786D01*
X045584Y06071D01*
X04576Y060534D01*
X045836Y060483D01*
X045926Y060465D01*
X046379D01*
X046404Y060432D01*
X046482Y060372D01*
X046574Y060334D01*
X046672Y060321D01*
X047065D01*
X047163Y060334D01*
X047255Y060372D01*
X047333Y060432D01*
X047393Y060511D01*
X047431Y060602D01*
X047444Y0607D01*
X047435Y060768D01*
X047533Y060786D01*
X047557Y060751D01*
X047584Y06071D01*
X04776Y060534D01*
X047836Y060483D01*
X047926Y060465D01*
X048395D01*
Y060423D01*
X049105D01*
Y060512D01*
X049303D01*
X049393Y06053D01*
X049469Y060581D01*
X049895Y061008D01*
X051025D01*
X051099Y061022D01*
X051162Y061065D01*
X051204Y061128D01*
X051219Y061202D01*
Y061398D01*
X051204Y061472D01*
X051162Y061535D01*
X051099Y061578D01*
X051025Y061592D01*
X049758D01*
X049683Y061578D01*
X04962Y061535D01*
X049578Y061472D01*
X049564Y061398D01*
Y061339D01*
X049206Y060981D01*
X048797D01*
X048774Y060977D01*
X048395D01*
Y060935D01*
X048023D01*
X047984Y060973D01*
Y061855D01*
X048027D01*
Y062565D01*
X047473D01*
Y061855D01*
X047515D01*
Y060884D01*
X047515Y060876D01*
X047513Y06086D01*
X047411Y060846D01*
X047393Y060889D01*
X047333Y060968D01*
X047255Y061028D01*
X047163Y061066D01*
X047065Y061079D01*
X046672D01*
X046574Y061066D01*
X046482Y061028D01*
X046404Y060968D01*
X046379Y060935D01*
X046023D01*
X045985Y060973D01*
Y066965D01*
X046379D01*
X046404Y066932D01*
X046482Y066872D01*
X046574Y066834D01*
X046672Y066821D01*
X047065D01*
X047163Y066834D01*
X047255Y066872D01*
X047333Y066932D01*
X047393Y067011D01*
X047415Y067065D01*
X047515Y06705D01*
X047533Y06696D01*
X047584Y066884D01*
X047904Y066564D01*
X04798Y066514D01*
X04807Y066496D01*
X048395D01*
Y066406D01*
X049105D01*
Y066496D01*
X049336D01*
X049426Y066514D01*
X049502Y066564D01*
X049895Y066958D01*
X051025D01*
X051099Y066972D01*
X051162Y067015D01*
X051204Y067078D01*
X051219Y067152D01*
Y067348D01*
X051204Y067422D01*
X051162Y067485D01*
X051099Y067528D01*
X051025Y067542D01*
X049758D01*
X049683Y067528D01*
X04962Y067485D01*
X049578Y067422D01*
X049564Y067348D01*
Y067289D01*
X049239Y066965D01*
X048797D01*
X048774Y06696D01*
X048726D01*
X048703Y066965D01*
X048167D01*
X047984Y067147D01*
Y068305D01*
X048027D01*
Y069015D01*
X047473D01*
Y068305D01*
X047515D01*
Y067355D01*
X047415Y067335D01*
X047393Y067389D01*
X047333Y067468D01*
X047255Y067528D01*
X047163Y067566D01*
X047065Y067579D01*
X046672D01*
X046574Y067566D01*
X046482Y067528D01*
X046404Y067468D01*
X046379Y067435D01*
X045985D01*
Y072565D01*
X046379D01*
X046404Y072532D01*
X046482Y072472D01*
X046574Y072434D01*
X046672Y072421D01*
X047065D01*
X047163Y072434D01*
X047255Y072472D01*
X047333Y072532D01*
X047393Y072611D01*
X047431Y072702D01*
X047444Y0728D01*
X047479Y07281D01*
X047543Y072813D01*
X047584Y072751D01*
X047834Y072501D01*
X04791Y07245D01*
X048Y072432D01*
X048395D01*
Y07239D01*
X049105D01*
Y072612D01*
X0494Y072907D01*
X050333D01*
X050337Y072908D01*
X051025D01*
X051099Y072922D01*
X051162Y072965D01*
X051204Y073028D01*
X051219Y073102D01*
Y073298D01*
X051204Y073372D01*
X051162Y073435D01*
X051099Y073478D01*
X051025Y073492D01*
X049758D01*
X049683Y073478D01*
X04962Y073435D01*
X049581Y073376D01*
X049303D01*
X049213Y073358D01*
X049137Y073307D01*
X048773Y072944D01*
X048395D01*
Y072901D01*
X048097D01*
X047984Y073014D01*
Y074045D01*
X048027D01*
Y074755D01*
X047473D01*
Y074045D01*
X047515D01*
Y072955D01*
X047415Y072935D01*
X047393Y072989D01*
X047333Y073068D01*
X047255Y073128D01*
X047163Y073166D01*
X047065Y073179D01*
X046672D01*
X046574Y073166D01*
X046482Y073128D01*
X046404Y073068D01*
X046379Y073035D01*
X045985D01*
Y07841D01*
X046433D01*
X046482Y078372D01*
X046574Y078334D01*
X046672Y078321D01*
X047065D01*
X047163Y078334D01*
X047255Y078372D01*
X047333Y078432D01*
X047393Y078511D01*
X047431Y078602D01*
X047444Y0787D01*
X047431Y078798D01*
X047393Y078889D01*
X047333Y078968D01*
X047255Y079028D01*
X047163Y079066D01*
X047065Y079079D01*
X046672D01*
X046574Y079066D01*
X046482Y079028D01*
X046404Y078968D01*
X046344Y078889D01*
X04634Y078879D01*
X045985D01*
Y080553D01*
X046197Y080765D01*
X051553D01*
X052384Y079934D01*
X05246Y079883D01*
X05255Y079865D01*
X05575D01*
X05584Y079883D01*
X055916Y079934D01*
X057016Y081035D01*
X057067Y081111D01*
X057085Y0812D01*
X057085Y0812D01*
Y083221D01*
X057356D01*
Y083277D01*
X058361D01*
X058451Y083295D01*
X058527Y083346D01*
X058816Y083634D01*
X058816Y083634D01*
X058867Y08371D01*
X058885Y0838D01*
X058885Y0838D01*
Y084565D01*
X060864D01*
X060887Y084537D01*
X060915Y084514D01*
Y08295D01*
X060933Y08286D01*
X060984Y082784D01*
X061334Y082434D01*
X06141Y082383D01*
X0615Y082365D01*
X06372D01*
Y08192D01*
X06508D01*
Y08328D01*
X06372D01*
Y082835D01*
X061597D01*
X061385Y083047D01*
Y084514D01*
X061413Y084537D01*
X061473Y084614D01*
X06151Y084704D01*
X061523Y0848D01*
X06151Y084896D01*
X061473Y084986D01*
X061413Y085063D01*
X061336Y085123D01*
X061246Y08516D01*
X06115Y085173D01*
X061054Y08516D01*
X060964Y085123D01*
X060887Y085063D01*
X060864Y085035D01*
X058885D01*
Y085173D01*
X059262D01*
Y085845D01*
X058039D01*
Y085173D01*
X058416D01*
Y08475D01*
Y083897D01*
X058264Y083746D01*
X057437D01*
X057356Y083802D01*
Y08389D01*
X057356Y083902D01*
Y084471D01*
X056345D01*
Y084355D01*
X05607D01*
X05598Y084337D01*
X055904Y084286D01*
X055634Y084016D01*
X055583Y08394D01*
X055565Y08385D01*
Y081197D01*
X055303Y080935D01*
X053414D01*
X053335Y080985D01*
Y081815D01*
X05219D01*
Y081785D01*
X049297D01*
X048885Y082197D01*
Y083895D01*
X049065D01*
Y084681D01*
X050087D01*
X050118Y084687D01*
X050145Y084705D01*
X050162Y084731D01*
X050169Y084763D01*
Y086337D01*
X050162Y086369D01*
X050161Y086371D01*
X050239Y086434D01*
X050315Y086358D01*
Y0825D01*
X050333Y08241D01*
X050384Y082334D01*
X050734Y081984D01*
X05081Y081933D01*
X0509Y081915D01*
X05485D01*
X05494Y081933D01*
X055016Y081984D01*
X055316Y082284D01*
X055367Y08236D01*
X055385Y08245D01*
Y085246D01*
X055423Y085285D01*
X056345D01*
Y085229D01*
X057356D01*
Y08581D01*
X056345D01*
Y085754D01*
X055326D01*
X055236Y085736D01*
X05516Y085685D01*
X054984Y085509D01*
X054933Y085433D01*
X054915Y085344D01*
Y082547D01*
X054753Y082385D01*
X050997D01*
X050785Y082597D01*
Y086455D01*
X050767Y086544D01*
X050716Y086621D01*
X050439Y086897D01*
X050363Y086948D01*
X050274Y086966D01*
X049065D01*
X049065Y087205D01*
X049159Y087217D01*
X068667D01*
Y050233D01*
D02*
G37*
G36*
X033957Y085195D02*
X034018Y085103D01*
X034017Y0851D01*
Y08485D01*
X034028Y084799D01*
X034056Y084756D01*
X034087Y084726D01*
X034049Y084633D01*
X033783D01*
X033709Y084733D01*
X033712Y08475D01*
X033696Y084831D01*
X03365Y0849D01*
X033581Y084946D01*
X0335Y084962D01*
X033419Y084946D01*
X03335Y0849D01*
X033304Y084831D01*
X033288Y08475D01*
X033304Y084669D01*
X03335Y0846D01*
X033419Y084554D01*
X033495Y084539D01*
Y084024D01*
X033501D01*
Y083143D01*
X033489Y083134D01*
X033419Y08312D01*
X03337Y083087D01*
X03332Y08312D01*
X03325Y083134D01*
X03318Y08312D01*
X03312Y08308D01*
X03308Y08302D01*
X033066Y08295D01*
X03308Y08288D01*
X033027Y08278D01*
X033017D01*
Y08172D01*
X034083D01*
Y082649D01*
X034175Y082687D01*
X034259Y082603D01*
X034295Y082579D01*
Y082273D01*
X035005D01*
X035026Y082182D01*
Y081213D01*
X034995Y081183D01*
X034309D01*
X034258Y081172D01*
X034215Y081144D01*
X034175Y081104D01*
X034083Y081142D01*
Y08118D01*
X033349D01*
X032535Y081994D01*
Y085203D01*
X033944D01*
X033957Y085195D01*
D02*
G37*
G36*
X026065Y077076D02*
X026083Y076986D01*
X026134Y07691D01*
X02631Y076734D01*
X026386Y076683D01*
X026476Y076665D01*
X030091D01*
Y076069D01*
X029792D01*
Y075009D01*
X030858D01*
Y076069D01*
X03056D01*
Y07695D01*
X03056Y07695D01*
X03056Y07695D01*
Y077594D01*
X030946D01*
X031016Y077523D01*
Y066867D01*
X03103Y066797D01*
X03107Y066737D01*
X031187Y06662D01*
X031247Y06658D01*
X031317Y066566D01*
X032566D01*
Y065967D01*
X0318D01*
X03173Y065953D01*
X03167Y065913D01*
X031502Y065745D01*
X031462Y065685D01*
X031448Y065615D01*
Y057063D01*
X031436Y056967D01*
X030726D01*
Y056967D01*
X030636D01*
Y056967D01*
X029926D01*
Y056967D01*
X029836Y056967D01*
Y056967D01*
X029126D01*
Y056967D01*
X029036Y056967D01*
Y056967D01*
X028326D01*
Y056414D01*
X028549D01*
Y054719D01*
X028559Y054668D01*
X028588Y054625D01*
X028855Y054357D01*
Y053888D01*
X028851Y053866D01*
Y053315D01*
X028858Y053278D01*
X028879Y053247D01*
X028889Y05324D01*
X028918Y053155D01*
X028921Y053122D01*
X028891Y053083D01*
X02875D01*
X028699Y053072D01*
X028656Y053044D01*
X028588Y052975D01*
X028559Y052932D01*
X028549Y052881D01*
Y052527D01*
X028095D01*
Y051983D01*
X025755D01*
X025733Y052005D01*
Y053522D01*
X025722Y053572D01*
X025694Y053615D01*
X025615Y053694D01*
X025572Y053722D01*
X025522Y053733D01*
X025167D01*
Y053925D01*
X02457D01*
X024547Y05393D01*
X023885D01*
Y063582D01*
X024117D01*
Y063492D01*
X025167D01*
Y064142D01*
X024117D01*
Y064051D01*
X023885D01*
X023884Y073799D01*
X024117D01*
Y073708D01*
X025167D01*
Y074358D01*
X024117D01*
Y074268D01*
X023884D01*
Y084015D01*
X024117D01*
Y083925D01*
X025167D01*
Y084575D01*
X024117D01*
Y084485D01*
X023884D01*
Y08586D01*
X02439Y086365D01*
X026065D01*
Y077076D01*
D02*
G37*
G36*
X03628Y083033D02*
X03628Y08303D01*
X03632Y08297D01*
X03638Y08293D01*
X03645Y082916D01*
X036491Y082885D01*
X036495Y082823D01*
Y082273D01*
X037205D01*
Y082366D01*
X037495D01*
Y082273D01*
X038205D01*
Y082366D01*
X038495D01*
Y082273D01*
X03872D01*
Y082247D01*
X038734Y082177D01*
X038773Y082117D01*
X038864Y082027D01*
X038822Y081927D01*
X038495D01*
Y081373D01*
X038666D01*
Y077684D01*
X034791D01*
X034721Y07767D01*
X034662Y07763D01*
X034622Y07757D01*
X034608Y0775D01*
X034622Y07743D01*
X034662Y07737D01*
X034721Y07733D01*
X034791Y077316D01*
X03787D01*
X037897Y07727D01*
X037907Y077216D01*
X037664Y076974D01*
X037625Y076914D01*
X037611Y076844D01*
Y073965D01*
X037563D01*
Y073411D01*
X038037D01*
Y073965D01*
X037978D01*
Y074435D01*
X038412D01*
Y074449D01*
X038793D01*
Y074417D01*
X039307D01*
Y074813D01*
X03905D01*
X039032Y074817D01*
X038412D01*
Y074989D01*
X037978D01*
Y076768D01*
X038126Y076916D01*
X03915D01*
X03922Y07693D01*
X03928Y07697D01*
X03953Y07722D01*
X03957Y07728D01*
X039584Y07735D01*
Y080274D01*
X039826Y080516D01*
X04147D01*
X041497Y08047D01*
X041507Y080416D01*
X04122Y08013D01*
X04118Y08007D01*
X041166Y08D01*
Y071643D01*
X041157Y071634D01*
X03865D01*
X03858Y07162D01*
X03852Y07158D01*
X038162Y071221D01*
X038122Y071162D01*
X038108Y071091D01*
Y070795D01*
X037898D01*
Y071386D01*
X037884Y071456D01*
X037844Y071516D01*
X037576Y071783D01*
X037517Y071823D01*
X037446Y071837D01*
X032851D01*
X032604Y072085D01*
Y072606D01*
X032696Y072645D01*
X03328Y07206D01*
X03334Y07202D01*
X03341Y072006D01*
X03859D01*
X03866Y07202D01*
X03872Y07206D01*
X03918Y07252D01*
X03922Y07258D01*
X039234Y07265D01*
Y073702D01*
X039307D01*
Y074098D01*
X038793D01*
Y073702D01*
X038866D01*
Y072726D01*
X038514Y072374D01*
X033486D01*
X032884Y072976D01*
Y074259D01*
X032976Y074294D01*
X032984Y074292D01*
X03302Y074237D01*
X033137Y07412D01*
X033186Y074088D01*
X033252Y074015D01*
Y073461D01*
X033306D01*
Y073061D01*
X03332Y07299D01*
X03336Y072931D01*
X03357Y07272D01*
X03363Y07268D01*
X0337Y072666D01*
X03675D01*
X03682Y07268D01*
X03688Y07272D01*
X03692Y07278D01*
X036934Y07285D01*
X03692Y07292D01*
X03688Y07298D01*
X03682Y07302D01*
X03675Y073034D01*
X036527D01*
Y07356D01*
X036705D01*
Y074153D01*
X035995D01*
Y07356D01*
X03616D01*
Y073034D01*
X035667D01*
X035626Y073134D01*
X03568Y073187D01*
X03572Y073247D01*
X035734Y073317D01*
Y073927D01*
X03572Y073997D01*
X03568Y074057D01*
X035598Y074139D01*
Y074435D01*
X035652D01*
Y074989D01*
X035598D01*
Y075238D01*
X03577Y07541D01*
X03581Y07547D01*
X035824Y07554D01*
Y075677D01*
X035845Y075698D01*
X035935D01*
X035945Y075698D01*
X036335D01*
X036345Y075698D01*
X036435D01*
X036445Y075698D01*
X036845D01*
Y076116D01*
X0371D01*
X03717Y07613D01*
X03723Y07617D01*
X03727Y07623D01*
X037284Y0763D01*
X03727Y07637D01*
X03723Y07643D01*
X03717Y07647D01*
X0371Y076484D01*
X036845D01*
Y076843D01*
X036445D01*
X036435Y076843D01*
X036345D01*
X036335Y076843D01*
X035945D01*
X035935Y076843D01*
X035845D01*
X035835Y076843D01*
X035435D01*
Y076843D01*
X035345D01*
Y076843D01*
X034945D01*
X034935Y076843D01*
Y076843D01*
X034845D01*
Y076843D01*
X034435D01*
Y076843D01*
X034345D01*
Y076843D01*
X033945D01*
X033935Y076843D01*
X033845D01*
X033835Y076843D01*
X033445D01*
X033435Y076843D01*
X033345D01*
X033335Y076843D01*
X032984D01*
X032935Y076843D01*
X032884Y076921D01*
Y078179D01*
X032935Y078257D01*
X032984Y078257D01*
X033335D01*
X033345Y078257D01*
X033435D01*
X033445Y078257D01*
X033835D01*
X033845Y078257D01*
X033935D01*
X033945Y078257D01*
X034345D01*
Y078257D01*
X034435D01*
Y078257D01*
X034845D01*
Y078257D01*
X034935D01*
Y078257D01*
X035335D01*
X035345Y078257D01*
X035435D01*
X035457Y078162D01*
Y07806D01*
X035471Y07799D01*
X03551Y07793D01*
X03552Y07792D01*
X03558Y07788D01*
X03565Y077866D01*
X03572Y07788D01*
X03578Y07792D01*
X03582Y07798D01*
X035834Y07805D01*
X035824Y078099D01*
Y078166D01*
X035845Y078257D01*
X035935D01*
Y078257D01*
X036345D01*
Y079336D01*
X036376Y079366D01*
X037116D01*
Y0785D01*
X03713Y07843D01*
X03717Y07837D01*
X03723Y07833D01*
X0373Y078316D01*
X03737Y07833D01*
X03743Y07837D01*
X03747Y07843D01*
X037484Y0785D01*
Y079366D01*
X037741D01*
X037812Y07938D01*
X037871Y07942D01*
X037943Y079492D01*
X037983Y079551D01*
X037997Y079622D01*
Y079738D01*
X038087D01*
Y080253D01*
X037613D01*
Y079738D01*
X037515Y079734D01*
X037185D01*
X037087Y079738D01*
Y080253D01*
X036613D01*
Y080029D01*
X035757D01*
X035687Y080015D01*
X035628Y079975D01*
X03551Y079858D01*
X035471Y079799D01*
X035457Y079728D01*
Y079423D01*
X03544Y079406D01*
X035342Y079417D01*
X035324Y079497D01*
Y079678D01*
X03531Y079749D01*
X03527Y079808D01*
X035164Y079914D01*
X035174Y080014D01*
X03526D01*
Y080686D01*
X035342Y080728D01*
X035385Y080756D01*
X035508Y080879D01*
X035537Y080922D01*
X035547Y080973D01*
Y082273D01*
X036194D01*
Y082827D01*
X035971D01*
Y082991D01*
X035969Y083001D01*
X035993Y083032D01*
X036049Y083077D01*
X0361Y083066D01*
X03617Y08308D01*
X03617Y083081D01*
X03628Y083033D01*
D02*
G37*
G36*
X032065Y085253D02*
Y082018D01*
X031965Y081964D01*
X031934Y081986D01*
Y083411D01*
X03192Y083481D01*
X03188Y08354D01*
X03149Y08393D01*
X031431Y08397D01*
X031361Y083984D01*
X029763D01*
X029684Y084063D01*
Y085152D01*
X029704Y08516D01*
X029789Y085225D01*
X029854Y08531D01*
X029894Y085408D01*
X029908Y085514D01*
X029894Y085619D01*
X029854Y085718D01*
X029789Y085802D01*
X029704Y085867D01*
X029606Y085908D01*
X0295Y085922D01*
X029394Y085908D01*
X029296Y085867D01*
X029211Y085802D01*
X029146Y085718D01*
X029106Y085619D01*
X029092Y085514D01*
X029106Y085408D01*
X029146Y08531D01*
X029211Y085225D01*
X029296Y08516D01*
X029316Y085152D01*
Y083987D01*
X02933Y083916D01*
X02937Y083857D01*
X029481Y083746D01*
X029439Y083646D01*
X029273D01*
X029203Y083632D01*
X029143Y083592D01*
X029026Y083475D01*
X028987Y083416D01*
X028973Y083345D01*
Y082382D01*
X028924Y082334D01*
X028755D01*
Y082427D01*
X028045D01*
Y081873D01*
X028755D01*
Y081966D01*
X029D01*
X02907Y08198D01*
X02913Y08202D01*
X029286Y082176D01*
X029326Y082236D01*
X02934Y082306D01*
Y083269D01*
X029349Y083279D01*
X031061D01*
X031216Y083124D01*
Y081701D01*
X031213Y081697D01*
X031135Y081631D01*
X031035Y081645D01*
Y082139D01*
X031037D01*
Y082653D01*
X030563D01*
Y082139D01*
X030565D01*
Y081627D01*
X030445D01*
Y081084D01*
X030155D01*
Y081627D01*
X030035D01*
Y082139D01*
X030037D01*
Y082653D01*
X029563D01*
Y082139D01*
X029565D01*
Y081627D01*
X029445D01*
Y081201D01*
X029424Y081184D01*
X027576D01*
X027532Y081228D01*
Y081873D01*
X027703D01*
Y082427D01*
X026993D01*
Y081873D01*
X027165D01*
Y081152D01*
X027178Y081082D01*
X027218Y081022D01*
X02737Y08087D01*
X02743Y08083D01*
X0275Y080816D01*
X029348D01*
X029394Y08077D01*
X029445Y080727D01*
Y080173D01*
X029616D01*
Y079D01*
X02963Y07893D01*
X02967Y07887D01*
X02982Y07872D01*
X02988Y07868D01*
X02995Y078666D01*
X031007D01*
X031016Y078657D01*
Y078455D01*
X030946Y078384D01*
X029408D01*
Y077594D01*
X030091D01*
Y077135D01*
X026573D01*
X026535Y077173D01*
Y086365D01*
X030953D01*
X032065Y085253D01*
D02*
G37*
G36*
X03475Y067881D02*
Y062738D01*
X033D01*
X033Y062738D01*
Y060301D01*
X03475Y060301D01*
Y058917D01*
X034764Y058847D01*
X034803Y058787D01*
X035439Y058152D01*
X035498Y058112D01*
X035568Y058098D01*
X042192D01*
X042434Y057857D01*
Y057452D01*
X042427Y057355D01*
X041873D01*
Y056905D01*
X041652Y056684D01*
X041527D01*
Y057355D01*
X040973D01*
Y057184D01*
X040511D01*
Y057237D01*
X039997D01*
Y056763D01*
X039946Y056684D01*
X0399D01*
X03983Y05667D01*
X03977Y05663D01*
X03962Y05648D01*
X03958Y05642D01*
X039566Y05635D01*
Y055887D01*
X039558Y055844D01*
Y055352D01*
X039573Y055279D01*
X039603Y055234D01*
X039584Y055171D01*
X039559Y055134D01*
X039441D01*
X039416Y055171D01*
X039397Y055234D01*
X039427Y055279D01*
X039442Y055352D01*
Y055844D01*
X03943Y055903D01*
Y056133D01*
X039416Y056203D01*
X039377Y056263D01*
X039259Y05638D01*
X0392Y05642D01*
X03913Y056434D01*
X037867D01*
X037797Y05642D01*
X037737Y05638D01*
X03762Y056263D01*
X03758Y056203D01*
X037566Y056133D01*
Y055887D01*
X037558Y055844D01*
Y055352D01*
X037573Y055279D01*
X037614Y055217D01*
X037677Y055175D01*
X03775Y05516D01*
X037823Y055175D01*
X037886Y055217D01*
X037927Y055279D01*
X037942Y055352D01*
Y055844D01*
X037934Y055887D01*
Y056057D01*
X037943Y056066D01*
X038063D01*
X038089Y056022D01*
X038105Y055966D01*
X038073Y055918D01*
X038058Y055844D01*
Y055352D01*
X038066Y05531D01*
Y054976D01*
X038034Y054944D01*
X03621D01*
X03616Y054934D01*
X035693D01*
X035684Y054943D01*
Y05506D01*
X03569Y055069D01*
X035698Y055112D01*
Y055829D01*
X03569Y055872D01*
X035666Y055908D01*
X03563Y055932D01*
X035587Y05594D01*
X035413D01*
X03537Y055932D01*
X035334Y055908D01*
X03531Y055872D01*
X035302Y055829D01*
Y055112D01*
X03531Y055069D01*
X035316Y05506D01*
Y054867D01*
X03533Y054797D01*
X03537Y054737D01*
X035487Y05462D01*
X035547Y05458D01*
X035617Y054566D01*
X036016D01*
Y05254D01*
X036007Y05253D01*
X035697D01*
X035679Y052527D01*
X035357D01*
X035315Y052627D01*
X035614Y052925D01*
X035653Y052985D01*
X035667Y053055D01*
Y053087D01*
X03569Y05312D01*
X035698Y053163D01*
Y05388D01*
X03569Y053923D01*
X035666Y053959D01*
X03563Y053983D01*
X035587Y053992D01*
X035413D01*
X03537Y053983D01*
X035334Y053959D01*
X03531Y053923D01*
X035302Y05388D01*
Y053513D01*
X0353Y053506D01*
Y053228D01*
X035298Y053226D01*
X035198Y053272D01*
Y05388D01*
X03519Y053923D01*
X035166Y053959D01*
X03513Y053983D01*
X035087Y053992D01*
X034913D01*
X034884Y054016D01*
Y054176D01*
X034976Y054215D01*
X03502Y05417D01*
X03508Y05413D01*
X03515Y054116D01*
X0355D01*
X03557Y05413D01*
X03563Y05417D01*
X03567Y05423D01*
X035684Y0543D01*
X03567Y05437D01*
X03563Y05443D01*
X03557Y05447D01*
X0355Y054484D01*
X035226D01*
X035184Y054526D01*
Y05506D01*
X03519Y055069D01*
X035198Y055112D01*
Y055829D01*
X03519Y055872D01*
X035166Y055908D01*
X03513Y055932D01*
X035087Y05594D01*
X034913D01*
X03487Y055932D01*
X034834Y055908D01*
X03481Y055872D01*
X034802Y055829D01*
Y055654D01*
X034698D01*
Y055829D01*
X03469Y055872D01*
X034666Y055908D01*
X03463Y055932D01*
X034587Y05594D01*
X034413D01*
X03437Y055932D01*
X034334Y055908D01*
X03431Y055872D01*
X034302Y055829D01*
Y055112D01*
X03431Y055069D01*
X034334Y055033D01*
X03437Y055009D01*
X034413Y055001D01*
X034587D01*
X03463Y055009D01*
X034666Y055033D01*
X03469Y055069D01*
X034698Y055112D01*
Y055287D01*
X034802D01*
Y055112D01*
X03481Y055069D01*
X034816Y05506D01*
Y05495D01*
X034716Y05488D01*
X0347Y054884D01*
X03463Y05487D01*
X03457Y05483D01*
X03453Y05477D01*
X034516Y0547D01*
Y053992D01*
X034413D01*
X03437Y053983D01*
X034334Y053959D01*
X03431Y053923D01*
X034302Y05388D01*
Y053163D01*
X034304Y053154D01*
X034254Y053071D01*
X034234Y053054D01*
X03369D01*
X033584Y05316D01*
Y056674D01*
X033679Y05677D01*
X033823D01*
Y056645D01*
X033916D01*
Y05635D01*
X03393Y05628D01*
X03397Y05622D01*
X03403Y05618D01*
X0341Y056166D01*
X03417Y05618D01*
X03423Y05622D01*
X03427Y05628D01*
X034284Y05635D01*
Y056645D01*
X034377D01*
Y057355D01*
X033823D01*
Y057137D01*
X033603D01*
X033533Y057123D01*
X033473Y057083D01*
X03327Y05688D01*
X03323Y05682D01*
X033216Y05675D01*
Y053084D01*
X03323Y053014D01*
X03327Y052954D01*
X033358Y052866D01*
X03332Y052774D01*
X03199D01*
X03192Y05276D01*
X031861Y05272D01*
X031765Y052625D01*
X031765Y052625D01*
X03167Y05253D01*
X03163Y05247D01*
X031616Y0524D01*
Y0516D01*
X03158Y051563D01*
X031436D01*
Y051617D01*
X030726D01*
Y051617D01*
X030636D01*
Y051617D01*
X029926D01*
Y051617D01*
X029836D01*
Y051617D01*
X029126D01*
Y051064D01*
X029836D01*
Y051064D01*
X029926D01*
Y051064D01*
X030636D01*
Y051064D01*
X030726D01*
Y051064D01*
X031436D01*
Y051196D01*
X031656D01*
X031727Y05121D01*
X031786Y05125D01*
X03193Y051394D01*
X03197Y051453D01*
X031984Y051524D01*
Y052324D01*
X032025Y052365D01*
X032025Y052365D01*
X032066Y052407D01*
X034816D01*
Y051506D01*
X03483Y051436D01*
X03487Y051377D01*
X035027Y05122D01*
X035082Y051184D01*
X035083Y051176D01*
X035048Y051084D01*
X034794D01*
X034705Y05111D01*
Y051703D01*
X033995D01*
Y05111D01*
X034216D01*
Y051017D01*
X03423Y050947D01*
X034259Y050905D01*
X034228Y050805D01*
X024227D01*
X023885Y051147D01*
Y05346D01*
X024117D01*
Y053275D01*
X025167D01*
Y053467D01*
X025467D01*
X025467Y053467D01*
Y05195D01*
X025478Y051899D01*
X025506Y051856D01*
X025606Y051756D01*
X025649Y051728D01*
X0257Y051717D01*
X027991D01*
X028046Y051617D01*
X028022Y051581D01*
X028013Y051575D01*
X025057D01*
X024877Y051755D01*
Y052488D01*
X025167D01*
Y053138D01*
X024117D01*
Y052488D01*
X024408D01*
Y051658D01*
X024425Y051568D01*
X024476Y051492D01*
X024794Y051175D01*
X02487Y051124D01*
X024959Y051106D01*
X028095D01*
Y051073D01*
X028805D01*
Y051617D01*
X028805Y051627D01*
X028828Y051717D01*
X028929D01*
X02898Y051728D01*
X029023Y051756D01*
X029081Y051815D01*
X02911Y051858D01*
X02912Y051909D01*
X029126Y051964D01*
X029836D01*
Y051964D01*
X029926D01*
Y051964D01*
X030636D01*
Y051964D01*
X030726D01*
Y051964D01*
X031436D01*
Y052517D01*
X031283D01*
Y053422D01*
X031355Y05349D01*
X031908D01*
Y053716D01*
X031983D01*
X032053Y05373D01*
X032113Y05377D01*
X03223Y053887D01*
X03227Y053947D01*
X032284Y054017D01*
Y064022D01*
X032328Y064066D01*
X032566D01*
Y063493D01*
X033434D01*
Y063993D01*
Y064566D01*
X0344D01*
X03447Y06458D01*
X03453Y06462D01*
X03457Y06468D01*
X034584Y06475D01*
X03457Y06482D01*
X03453Y06488D01*
X03447Y06492D01*
X0344Y064934D01*
X033434D01*
Y065066D01*
X0344D01*
X0344Y065066D01*
X03447Y06508D01*
X03453Y06512D01*
X03457Y06518D01*
X034584Y06525D01*
X03457Y06532D01*
X03453Y06538D01*
X03453Y06538D01*
X03447Y06542D01*
X0344Y065434D01*
X033434D01*
Y065993D01*
Y066493D01*
Y066993D01*
Y067493D01*
Y068066D01*
X034564D01*
X03475Y067881D01*
D02*
G37*
G36*
X031945Y071581D02*
X03227Y071256D01*
X03233Y071216D01*
X0324Y071202D01*
X032571D01*
X032603Y07117D01*
X032662Y07113D01*
X032733Y071116D01*
X036874D01*
X037052Y070939D01*
Y070795D01*
X034034D01*
Y069926D01*
X038549D01*
Y070795D01*
X038475D01*
Y071015D01*
X038726Y071266D01*
X03917D01*
X039197Y07122D01*
X039207Y071166D01*
X039185Y071145D01*
X039146Y071085D01*
X039132Y071015D01*
Y064367D01*
X039146Y064297D01*
X039185Y064237D01*
X039302Y06412D01*
X039362Y06408D01*
X039432Y064066D01*
X039652D01*
Y063934D01*
X03575D01*
X03575Y063934D01*
X03568Y06392D01*
X035634Y063889D01*
X035579Y063904D01*
X035534Y06393D01*
Y068189D01*
X03552Y068259D01*
X03548Y068318D01*
X034918Y06888D01*
X034859Y06892D01*
X034789Y068934D01*
X033434D01*
Y069493D01*
Y070007D01*
X032566D01*
Y069934D01*
X03215D01*
X03208Y06992D01*
X03202Y06988D01*
X03198Y06982D01*
X031966Y06975D01*
X03198Y06968D01*
X03202Y06962D01*
X03208Y06958D01*
X03215Y069566D01*
X032566D01*
Y068993D01*
Y068493D01*
Y067993D01*
Y067434D01*
X031907D01*
X031815Y067526D01*
Y07161D01*
X031857Y071624D01*
X031915Y071626D01*
X031945Y071581D01*
D02*
G37*
G36*
X041266Y067024D02*
Y0595D01*
X04128Y05943D01*
X04132Y05937D01*
X041707Y058984D01*
X041697Y05893D01*
X04167Y058884D01*
X035876D01*
X035534Y059226D01*
Y060301D01*
X040087Y060301D01*
Y062738D01*
X035534D01*
Y06357D01*
X035579Y063596D01*
X035634Y063611D01*
X03568Y06358D01*
X03575Y063566D01*
X039652D01*
Y063493D01*
X040521D01*
Y063993D01*
Y064493D01*
Y064993D01*
Y065493D01*
Y065993D01*
Y066493D01*
Y067066D01*
X041224D01*
X041266Y067024D01*
D02*
G37*
G36*
X029552Y055751D02*
X029583Y055667D01*
X029569Y055655D01*
X029537D01*
X0295Y055647D01*
X029469Y055627D01*
X029449Y055596D01*
X029441Y055559D01*
Y055008D01*
X029446Y054986D01*
Y054859D01*
X029456Y054808D01*
X029485Y054765D01*
X029543Y054706D01*
X029586Y054678D01*
X029586Y054678D01*
X02962Y05457D01*
X029485Y054434D01*
X029456Y054391D01*
X029446Y054341D01*
Y053981D01*
X029423Y053962D01*
X02934D01*
X029303Y053954D01*
X029283Y053941D01*
X029262Y053954D01*
X029226Y053962D01*
X029143D01*
X02912Y053981D01*
Y054412D01*
X02911Y054463D01*
X029081Y054506D01*
X028814Y054774D01*
Y054871D01*
X028909Y054919D01*
X028914Y054919D01*
X028946Y054912D01*
X029029D01*
X029066Y05492D01*
X029086Y054933D01*
X029107Y05492D01*
X029143Y054912D01*
X029226D01*
X029262Y05492D01*
X029293Y05494D01*
X029314Y054971D01*
X029321Y055008D01*
Y055559D01*
X029317Y055581D01*
Y05575D01*
X029335Y055767D01*
X029535D01*
X029552Y055751D01*
D02*
G37*
G36*
X036484Y052642D02*
X03652Y052587D01*
X036637Y05247D01*
X036697Y05243D01*
X036767Y052416D01*
X03755D01*
X03762Y05243D01*
X03768Y05247D01*
X037828Y052619D01*
X03792Y052569D01*
X037916Y05255D01*
Y051763D01*
X03793Y051692D01*
X03797Y051633D01*
X038136Y051467D01*
Y051095D01*
X038041Y051084D01*
X037597D01*
X037505Y051103D01*
Y051697D01*
X036795D01*
Y051559D01*
X035955D01*
Y051627D01*
X035245D01*
X035184Y051701D01*
Y051899D01*
X035245Y051973D01*
X035955D01*
Y052163D01*
X036083D01*
X036153Y052177D01*
X036213Y052217D01*
X03633Y052334D01*
X03637Y052394D01*
X036384Y052464D01*
Y052609D01*
X036476Y052644D01*
X036484Y052642D01*
D02*
G37*
%LPC*%
G36*
X041259Y085927D02*
X040549D01*
Y085373D01*
X040721D01*
Y084386D01*
X040735Y084316D01*
X040775Y084256D01*
X04112Y083911D01*
X04118Y083871D01*
X04125Y083857D01*
X041454D01*
Y083664D01*
X042028D01*
Y084336D01*
X041454D01*
Y084224D01*
X041326D01*
X041088Y084462D01*
Y085373D01*
X041259D01*
Y085927D01*
D02*
G37*
G36*
X054304Y087056D02*
X050995D01*
Y082644D01*
X054304D01*
Y087056D01*
D02*
G37*
G36*
X044077Y080655D02*
X043523D01*
Y079945D01*
X043565D01*
Y079036D01*
X043506Y078976D01*
X043396Y078968D01*
X043318Y079028D01*
X043226Y079066D01*
X043128Y079079D01*
X042735D01*
X042637Y079066D01*
X042545Y079028D01*
X042467Y078968D01*
X042407Y078889D01*
X042369Y078798D01*
X042356Y0787D01*
X042369Y078602D01*
X042407Y078511D01*
X042467Y078432D01*
X042545Y078372D01*
X042637Y078334D01*
X042735Y078321D01*
X043128D01*
X043226Y078334D01*
X043318Y078372D01*
X043396Y078432D01*
X043421Y078465D01*
X043561D01*
X043651Y078483D01*
X043727Y078534D01*
X043966Y078773D01*
X044017Y078849D01*
X044034Y078939D01*
Y079945D01*
X044077D01*
Y080655D01*
D02*
G37*
G36*
X0644Y080283D02*
X064267Y08027D01*
X064139Y080231D01*
X064048Y080183D01*
X058D01*
X057886Y080172D01*
X057777Y080138D01*
X057761Y08013D01*
X05762D01*
Y080038D01*
X057588Y080012D01*
X057075Y079499D01*
X055683D01*
X05557Y079488D01*
X055569Y079488D01*
X052945D01*
Y076812D01*
X056255D01*
Y078334D01*
X057317D01*
X05743Y078345D01*
X05754Y078378D01*
X05764Y078432D01*
X057729Y078504D01*
X058241Y079017D01*
X064048D01*
X064139Y078969D01*
X064267Y07893D01*
X0644Y078917D01*
X064533Y07893D01*
X064661Y078969D01*
X06478Y079032D01*
X064883Y079117D01*
X064968Y07922D01*
X065031Y079339D01*
X06507Y079467D01*
X065083Y0796D01*
X06507Y079733D01*
X065031Y079861D01*
X064968Y07998D01*
X064883Y080083D01*
X06478Y080168D01*
X064661Y080231D01*
X064533Y08027D01*
X0644Y080283D01*
D02*
G37*
G36*
X048027Y080655D02*
X047473D01*
Y079945D01*
X047515D01*
Y07895D01*
X047533Y07886D01*
X047584Y078784D01*
X047884Y078484D01*
X047884Y078484D01*
X04796Y078433D01*
X04805Y078416D01*
X048395D01*
Y078373D01*
X049105D01*
Y078416D01*
X049356D01*
X049446Y078433D01*
X049522Y078484D01*
X049895Y078858D01*
X051025D01*
X051099Y078872D01*
X051162Y078915D01*
X051204Y078978D01*
X051219Y079052D01*
Y079248D01*
X051204Y079322D01*
X051162Y079385D01*
X051099Y079428D01*
X051025Y079442D01*
X049758D01*
X049683Y079428D01*
X04962Y079385D01*
X049578Y079322D01*
X049564Y079248D01*
Y079189D01*
X049259Y078885D01*
X049105D01*
Y078927D01*
X048395D01*
Y078885D01*
X048147D01*
X047984Y079047D01*
Y079945D01*
X048027D01*
Y080655D01*
D02*
G37*
G36*
X047065Y078079D02*
X046672D01*
X046574Y078066D01*
X046482Y078028D01*
X046404Y077968D01*
X046344Y077889D01*
X046306Y077798D01*
X046293Y0777D01*
X046306Y077602D01*
X046344Y077511D01*
X046404Y077432D01*
X046482Y077372D01*
X046574Y077334D01*
X046672Y077321D01*
X047065D01*
X047163Y077334D01*
X047255Y077372D01*
X047333Y077432D01*
X047378Y077491D01*
X048395D01*
Y077473D01*
X049105D01*
Y078027D01*
X048395D01*
Y07796D01*
X047339D01*
X047333Y077968D01*
X047255Y078028D01*
X047163Y078066D01*
X047065Y078079D01*
D02*
G37*
G36*
X05845Y077433D02*
X058336Y077422D01*
X058227Y077388D01*
X058126Y077335D01*
X058121Y07733D01*
X05762D01*
Y07637D01*
X057971D01*
X058038Y076288D01*
X058838Y075488D01*
X058926Y075415D01*
X059027Y075362D01*
X059136Y075328D01*
X05925Y075317D01*
X0637D01*
X063814Y075328D01*
X063923Y075362D01*
X064024Y075415D01*
X064112Y075488D01*
X064544Y07592D01*
X06508D01*
Y07728D01*
X06372D01*
Y076744D01*
X063459Y076483D01*
X059491D01*
X05928Y076694D01*
Y07733D01*
X058779D01*
X058774Y077335D01*
X058673Y077388D01*
X058564Y077422D01*
X05845Y077433D01*
D02*
G37*
G36*
X064146Y074383D02*
X056517D01*
X056403Y074372D01*
X056294Y074338D01*
X056193Y074285D01*
X056105Y074212D01*
X055431Y073538D01*
X052945D01*
Y070862D01*
X056255D01*
Y072714D01*
X056758Y073217D01*
X063834D01*
X063917Y073117D01*
X06402Y073032D01*
X064139Y072969D01*
X064267Y07293D01*
X0644Y072917D01*
X064533Y07293D01*
X064661Y072969D01*
X06478Y073032D01*
X064883Y073117D01*
X064968Y07322D01*
X065031Y073339D01*
X06507Y073467D01*
X065083Y0736D01*
X06507Y073733D01*
X065031Y073861D01*
X064968Y07398D01*
X064883Y074083D01*
X06478Y074168D01*
X064661Y074231D01*
X064533Y07427D01*
X064481Y074275D01*
X06447Y074285D01*
X064369Y074338D01*
X06426Y074372D01*
X064146Y074383D01*
D02*
G37*
G36*
X047065Y072179D02*
X046672D01*
X046574Y072166D01*
X046482Y072128D01*
X046404Y072068D01*
X046344Y071989D01*
X046306Y071898D01*
X046293Y0718D01*
X046306Y071702D01*
X046344Y071611D01*
X046404Y071532D01*
X046482Y071472D01*
X046574Y071434D01*
X046672Y071421D01*
X047065D01*
X047163Y071434D01*
X047255Y071472D01*
X047333Y071532D01*
X047346Y071549D01*
X048395D01*
Y07149D01*
X049105D01*
Y072044D01*
X048395D01*
Y072018D01*
X047371D01*
X047333Y072068D01*
X047255Y072128D01*
X047163Y072166D01*
X047065Y072179D01*
D02*
G37*
G36*
X05845Y071483D02*
X058336Y071472D01*
X058227Y071438D01*
X058126Y071385D01*
X058121Y07138D01*
X05762D01*
Y07042D01*
X058106D01*
X058923Y069603D01*
X059011Y06953D01*
X059112Y069476D01*
X059221Y069443D01*
X059335Y069432D01*
X063815D01*
X063929Y069443D01*
X064038Y069476D01*
X064139Y06953D01*
X064227Y069603D01*
X064544Y06992D01*
X06508D01*
Y07128D01*
X06372D01*
Y070744D01*
X063573Y070598D01*
X059577D01*
X05928Y070894D01*
Y07138D01*
X058779D01*
X058774Y071385D01*
X058673Y071438D01*
X058564Y071472D01*
X05845Y071483D01*
D02*
G37*
G36*
X044077Y069005D02*
X043523D01*
Y068295D01*
X04354D01*
Y067535D01*
X043494Y067491D01*
X043396Y067468D01*
X043318Y067528D01*
X043226Y067566D01*
X043128Y067579D01*
X042735D01*
X042637Y067566D01*
X042545Y067528D01*
X042467Y067468D01*
X042407Y067389D01*
X042369Y067298D01*
X042356Y0672D01*
X042369Y067102D01*
X042407Y067011D01*
X042467Y066932D01*
X042545Y066872D01*
X042637Y066834D01*
X042735Y066821D01*
X043128D01*
X043226Y066834D01*
X043318Y066872D01*
X043396Y066932D01*
X043421Y066965D01*
X0436D01*
X04369Y066983D01*
X043766Y067034D01*
X043941Y067209D01*
X043991Y067285D01*
X044009Y067375D01*
X044009Y067375D01*
Y068295D01*
X044077D01*
Y069005D01*
D02*
G37*
G36*
X06395Y068633D02*
X056717D01*
X056603Y068622D01*
X056494Y068588D01*
X056393Y068535D01*
X056305Y068462D01*
X055431Y067588D01*
X052945D01*
Y064912D01*
X056255D01*
Y066764D01*
X056958Y067467D01*
X05762D01*
Y06727D01*
X05928D01*
Y067467D01*
X063709D01*
X063739Y067437D01*
X063769Y067339D01*
X063832Y06722D01*
X063917Y067117D01*
X06402Y067032D01*
X064139Y066969D01*
X064267Y06693D01*
X0644Y066917D01*
X064533Y06693D01*
X064661Y066969D01*
X06478Y067032D01*
X064883Y067117D01*
X064968Y06722D01*
X065031Y067339D01*
X06507Y067467D01*
X065083Y0676D01*
X06507Y067733D01*
X065031Y067861D01*
X064968Y06798D01*
X064883Y068083D01*
X06478Y068168D01*
X064661Y068231D01*
X064563Y068261D01*
X064362Y068462D01*
X064274Y068535D01*
X064173Y068588D01*
X064064Y068622D01*
X06395Y068633D01*
D02*
G37*
G36*
X047065Y066579D02*
X046672D01*
X046574Y066566D01*
X046482Y066528D01*
X046404Y066468D01*
X046344Y066389D01*
X046306Y066298D01*
X046293Y0662D01*
X046306Y066102D01*
X046344Y066011D01*
X046404Y065932D01*
X046482Y065872D01*
X046574Y065834D01*
X046672Y065821D01*
X047065D01*
X047163Y065834D01*
X047174Y065839D01*
X047395Y065618D01*
X047395Y065618D01*
X047471Y065567D01*
X047561Y065549D01*
X048395D01*
Y065507D01*
X049105D01*
Y06606D01*
X048395D01*
Y066018D01*
X047658D01*
X047439Y066237D01*
X047431Y066298D01*
X047393Y066389D01*
X047333Y066468D01*
X047255Y066528D01*
X047163Y066566D01*
X047065Y066579D01*
D02*
G37*
G36*
X0588Y065533D02*
X05845D01*
X058336Y065522D01*
X058227Y065488D01*
X058126Y065435D01*
X058121Y06543D01*
X05762D01*
Y06447D01*
X058121D01*
X058126Y064465D01*
X058227Y064412D01*
X058336Y064378D01*
X05845Y064367D01*
X058559D01*
X05919Y063736D01*
X059278Y063664D01*
X059379Y06361D01*
X059488Y063577D01*
X059602Y063565D01*
X062426D01*
X062444Y063567D01*
X06395D01*
X064064Y063578D01*
X064173Y063612D01*
X064274Y063665D01*
X064362Y063738D01*
X064544Y06392D01*
X06508D01*
Y06528D01*
X06372D01*
Y064744D01*
X063709Y064733D01*
X062427D01*
X062409Y064731D01*
X059843D01*
X05928Y065294D01*
Y06543D01*
X059129D01*
X059124Y065435D01*
X059023Y065488D01*
X058914Y065522D01*
X0588Y065533D01*
D02*
G37*
G36*
X044077Y062555D02*
X043523D01*
Y061845D01*
X043565D01*
Y061024D01*
X043502Y060962D01*
X043396Y060968D01*
X043318Y061028D01*
X043226Y061066D01*
X043128Y061079D01*
X042735D01*
X042637Y061066D01*
X042545Y061028D01*
X042467Y060968D01*
X042407Y060889D01*
X042369Y060798D01*
X042356Y0607D01*
X042369Y060602D01*
X042407Y060511D01*
X042467Y060432D01*
X042545Y060372D01*
X042637Y060334D01*
X042735Y060321D01*
X043128D01*
X043226Y060334D01*
X043318Y060372D01*
X043396Y060432D01*
X043421Y060465D01*
X0436D01*
X04369Y060483D01*
X043766Y060534D01*
X043966Y060734D01*
X044017Y06081D01*
X044034Y0609D01*
Y061845D01*
X044077D01*
Y062555D01*
D02*
G37*
G36*
X063781Y062801D02*
X056835D01*
X056722Y06279D01*
X056612Y062757D01*
X056512Y062703D01*
X056423Y062631D01*
X055431Y061638D01*
X052945D01*
Y058962D01*
X056255D01*
Y060814D01*
X057077Y061636D01*
X05762D01*
Y06132D01*
X05928D01*
Y061636D01*
X06354D01*
X063739Y061437D01*
X063769Y061339D01*
X063832Y06122D01*
X063917Y061117D01*
X06402Y061032D01*
X064139Y060969D01*
X064267Y06093D01*
X0644Y060917D01*
X064533Y06093D01*
X064661Y060969D01*
X06478Y061032D01*
X064883Y061117D01*
X064968Y06122D01*
X065031Y061339D01*
X06507Y061467D01*
X065083Y0616D01*
X06507Y061733D01*
X065031Y061861D01*
X064968Y06198D01*
X064883Y062083D01*
X06478Y062168D01*
X064661Y062231D01*
X064563Y062261D01*
X064194Y062631D01*
X064105Y062703D01*
X064005Y062757D01*
X063895Y06279D01*
X063781Y062801D01*
D02*
G37*
G36*
X0588Y059583D02*
X05845D01*
X058336Y059572D01*
X058227Y059538D01*
X058126Y059485D01*
X058121Y05948D01*
X05762D01*
Y05852D01*
X058121D01*
X058126Y058515D01*
X058227Y058462D01*
X058336Y058428D01*
X05845Y058417D01*
X058559D01*
X059106Y057869D01*
X059195Y057797D01*
X059295Y057743D01*
X059405Y05771D01*
X059518Y057699D01*
X064082D01*
X064195Y05771D01*
X064305Y057743D01*
X064405Y057797D01*
X064494Y057869D01*
X064544Y05792D01*
X06508D01*
Y05928D01*
X06372D01*
Y058864D01*
X05976D01*
X05928Y059344D01*
Y05948D01*
X059129D01*
X059124Y059485D01*
X059023Y059538D01*
X058914Y059572D01*
X0588Y059583D01*
D02*
G37*
G36*
X061707Y056718D02*
X061586Y056702D01*
X061473Y056655D01*
X061376Y056581D01*
X061302Y056485D01*
X06035D01*
X06026Y056467D01*
X060184Y056416D01*
X060184Y056416D01*
X059998Y05623D01*
X05952D01*
X059497Y056235D01*
X058157D01*
Y056409D01*
X057643D01*
Y055875D01*
X057835D01*
X057876Y055834D01*
X057876Y055834D01*
X057952Y055783D01*
X058042Y055765D01*
X058042Y055765D01*
X059267D01*
Y05517D01*
X060333D01*
Y055901D01*
X060447Y056015D01*
X061302D01*
X061376Y055919D01*
X061473Y055845D01*
X061586Y055798D01*
X061707Y055782D01*
X061828Y055798D01*
X061941Y055845D01*
X062038Y055919D01*
X062112Y056016D01*
X062159Y056129D01*
X062175Y05625D01*
X062159Y056371D01*
X062112Y056484D01*
X062038Y056581D01*
X061941Y056655D01*
X061828Y056702D01*
X061707Y056718D01*
D02*
G37*
G36*
X067707D02*
X067586Y056702D01*
X067473Y056655D01*
X067376Y056581D01*
X067302Y056484D01*
X067255Y056371D01*
X067239Y05625D01*
X067255Y056129D01*
X067302Y056016D01*
X067376Y055919D01*
X067473Y055845D01*
X067586Y055798D01*
X067707Y055782D01*
X067828Y055798D01*
X067941Y055845D01*
X068038Y055919D01*
X068112Y056016D01*
X068159Y056129D01*
X068175Y05625D01*
X068159Y056371D01*
X068112Y056484D01*
X068038Y056581D01*
X067941Y056655D01*
X067828Y056702D01*
X067707Y056718D01*
D02*
G37*
G36*
X066107D02*
X065986Y056702D01*
X065873Y056655D01*
X065776Y056581D01*
X065702Y056484D01*
X065655Y056371D01*
X065639Y05625D01*
X065655Y056129D01*
X065702Y056016D01*
X065776Y055919D01*
X065873Y055845D01*
X065986Y055798D01*
X066107Y055782D01*
X066228Y055798D01*
X066341Y055845D01*
X066438Y055919D01*
X066512Y056016D01*
X066559Y056129D01*
X066575Y05625D01*
X066559Y056371D01*
X066512Y056484D01*
X066438Y056581D01*
X066341Y056655D01*
X066228Y056702D01*
X066107Y056718D01*
D02*
G37*
G36*
X049977Y055455D02*
X049423D01*
Y054745D01*
X049977D01*
Y054815D01*
X050555D01*
X050557Y054811D01*
X050617Y054732D01*
X050695Y054672D01*
X050787Y054634D01*
X050885Y054621D01*
X051278D01*
X051376Y054634D01*
X051468Y054672D01*
X051546Y054732D01*
X051606Y054811D01*
X051644Y054902D01*
X051657Y055D01*
X051644Y055098D01*
X051606Y055189D01*
X051546Y055268D01*
X051468Y055328D01*
X051376Y055366D01*
X051278Y055379D01*
X050885D01*
X050787Y055366D01*
X050695Y055328D01*
X050639Y055285D01*
X049977D01*
Y055455D01*
D02*
G37*
G36*
X055215Y054379D02*
X054822D01*
X054724Y054366D01*
X054632Y054328D01*
X054554Y054268D01*
X054494Y054189D01*
X054456Y054098D01*
X054443Y054D01*
X054456Y053902D01*
X054494Y053811D01*
X054554Y053732D01*
X054632Y053672D01*
X054724Y053634D01*
X054822Y053621D01*
X055215D01*
X055313Y053634D01*
X055405Y053672D01*
X055483Y053732D01*
X055508Y053765D01*
X055948D01*
X055964Y053762D01*
X055995D01*
Y053673D01*
X056705D01*
Y054227D01*
X056326D01*
X056303Y054231D01*
X055976D01*
X055961Y054235D01*
X055508D01*
X055483Y054268D01*
X055405Y054328D01*
X055313Y054366D01*
X055215Y054379D01*
D02*
G37*
G36*
X057783Y055425D02*
X057269D01*
Y055383D01*
X056726D01*
X056636Y055365D01*
X05656Y055314D01*
X056373Y055127D01*
X055995D01*
Y054573D01*
X056705D01*
Y054795D01*
X056823Y054914D01*
X057215D01*
Y054355D01*
X057173D01*
Y053645D01*
X057727D01*
Y054355D01*
X057684D01*
Y054891D01*
X057783D01*
Y055425D01*
D02*
G37*
G36*
X0624Y057435D02*
X0553D01*
X05521Y057417D01*
X055134Y057366D01*
X055134Y057366D01*
X054853Y057084D01*
X054802Y057008D01*
X054784Y056919D01*
Y055374D01*
X054724Y055366D01*
X054632Y055328D01*
X054554Y055268D01*
X054494Y055189D01*
X054456Y055098D01*
X054443Y055D01*
X054456Y054902D01*
X054494Y054811D01*
X054554Y054732D01*
X054632Y054672D01*
X054724Y054634D01*
X054822Y054621D01*
X055215D01*
X055313Y054634D01*
X055405Y054672D01*
X055483Y054732D01*
X055543Y054811D01*
X055581Y054902D01*
X055594Y055D01*
X055581Y055098D01*
X055543Y055189D01*
X055483Y055268D01*
X055405Y055328D01*
X055313Y055366D01*
X055253Y055374D01*
Y056821D01*
X055397Y056965D01*
X062303D01*
X062515Y056753D01*
Y053797D01*
X062303Y053585D01*
X062171D01*
Y053714D01*
X061243D01*
Y053485D01*
X06075D01*
X060333Y053902D01*
Y05463D01*
X059267D01*
Y05357D01*
X060001D01*
X060487Y053084D01*
X060487Y053084D01*
X060563Y053033D01*
X060653Y053015D01*
X060653Y053015D01*
X061243D01*
Y052786D01*
X062171D01*
Y053115D01*
X0624D01*
X06249Y053133D01*
X062566Y053184D01*
X062916Y053534D01*
X062967Y05361D01*
X062985Y0537D01*
Y05685D01*
X062967Y05694D01*
X062916Y057016D01*
X062566Y057366D01*
X06249Y057417D01*
X0624Y057435D01*
D02*
G37*
G36*
X066707Y053718D02*
X066586Y053702D01*
X066473Y053655D01*
X066376Y053581D01*
X066302Y053484D01*
X066255Y053371D01*
X066239Y05325D01*
X066255Y053129D01*
X066302Y053016D01*
X066376Y052919D01*
X066473Y052845D01*
X066586Y052798D01*
X066707Y052782D01*
X066828Y052798D01*
X066941Y052845D01*
X067038Y052919D01*
X067112Y053016D01*
X067159Y053129D01*
X067175Y05325D01*
X067159Y053371D01*
X067112Y053484D01*
X067038Y053581D01*
X066941Y053655D01*
X066828Y053702D01*
X066707Y053718D01*
D02*
G37*
G36*
X04553Y053525D02*
X044535D01*
Y052775D01*
X044798D01*
Y052025D01*
X044535D01*
Y051275D01*
X04553D01*
Y052025D01*
X045267D01*
Y052775D01*
X04553D01*
Y053525D01*
D02*
G37*
G36*
X06735Y052008D02*
X067244Y051994D01*
X067146Y051954D01*
X067061Y051889D01*
X066996Y051804D01*
X066956Y051706D01*
X066942Y0516D01*
X066956Y051494D01*
X066996Y051396D01*
X067061Y051311D01*
X067146Y051246D01*
X067244Y051206D01*
X06735Y051192D01*
X067456Y051206D01*
X067554Y051246D01*
X067639Y051311D01*
X067704Y051396D01*
X067744Y051494D01*
X067758Y0516D01*
X067744Y051706D01*
X067704Y051804D01*
X067639Y051889D01*
X067554Y051954D01*
X067456Y051994D01*
X06735Y052008D01*
D02*
G37*
G36*
X045402Y05726D02*
X044651D01*
Y05584D01*
X045149D01*
X045172Y055836D01*
X046133D01*
X046265Y055703D01*
Y051813D01*
X046283Y051723D01*
X046334Y051647D01*
X046547Y051434D01*
X046623Y051383D01*
X046713Y051365D01*
X046713Y051365D01*
X04887D01*
X048911Y051311D01*
X048996Y051246D01*
X049094Y051206D01*
X0492Y051192D01*
X049306Y051206D01*
X049404Y051246D01*
X049489Y051311D01*
X049554Y051396D01*
X049594Y051494D01*
X049608Y0516D01*
X049594Y051706D01*
X049554Y051804D01*
X049489Y051889D01*
X049494Y05201D01*
X0496Y052115D01*
X053965D01*
Y051878D01*
X053961Y051875D01*
X053896Y05179D01*
X053856Y051692D01*
X053842Y051586D01*
X053856Y051481D01*
X053896Y051382D01*
X053961Y051298D01*
X054046Y051233D01*
X054144Y051192D01*
X05425Y051178D01*
X054356Y051192D01*
X054454Y051233D01*
X054539Y051298D01*
X054604Y051382D01*
X054644Y051481D01*
X054658Y051586D01*
X054644Y051692D01*
X054604Y05179D01*
X054539Y051875D01*
X054454Y05194D01*
X054435Y051948D01*
Y052115D01*
X059065D01*
Y051917D01*
X059011Y051875D01*
X058946Y05179D01*
X058906Y051692D01*
X058892Y051586D01*
X058906Y051481D01*
X058946Y051382D01*
X059011Y051298D01*
X059096Y051233D01*
X059194Y051192D01*
X0593Y051178D01*
X059406Y051192D01*
X059504Y051233D01*
X059589Y051298D01*
X059654Y051382D01*
X059694Y051481D01*
X059708Y051586D01*
X059694Y051692D01*
X059654Y05179D01*
X059589Y051875D01*
X059535Y051917D01*
Y052115D01*
X06404D01*
X064079Y052077D01*
Y051902D01*
X064061Y051889D01*
X063996Y051804D01*
X063956Y051706D01*
X063942Y0516D01*
X063956Y051494D01*
X063996Y051396D01*
X064061Y051311D01*
X064146Y051246D01*
X064244Y051206D01*
X06435Y051192D01*
X064456Y051206D01*
X064554Y051246D01*
X064639Y051311D01*
X064704Y051396D01*
X064744Y051494D01*
X064758Y0516D01*
X064744Y051706D01*
X064704Y051804D01*
X064639Y051889D01*
X064554Y051954D01*
X064548Y051956D01*
Y052174D01*
X06453Y052264D01*
X064479Y05234D01*
X064303Y052516D01*
X064227Y052567D01*
X064137Y052585D01*
X049503D01*
X049503Y052585D01*
X049413Y052567D01*
X049337Y052516D01*
X049034Y052213D01*
X048983Y052137D01*
X048965Y052047D01*
Y05193D01*
X048911Y051889D01*
X04887Y051835D01*
X04681D01*
X046735Y05191D01*
Y0558D01*
X046717Y05589D01*
X046666Y055966D01*
X046396Y056236D01*
X04632Y056287D01*
X04623Y056305D01*
X045402D01*
Y05726D01*
D02*
G37*
G36*
X0522Y052008D02*
X052094Y051994D01*
X051996Y051954D01*
X051911Y051889D01*
X051846Y051804D01*
X051806Y051706D01*
X051792Y0516D01*
X051806Y051494D01*
X051846Y051396D01*
X051911Y051311D01*
X051996Y051246D01*
X052094Y051206D01*
X0522Y051192D01*
X052306Y051206D01*
X052404Y051246D01*
X052489Y051311D01*
X052554Y051396D01*
X052594Y051494D01*
X052608Y0516D01*
X052594Y051706D01*
X052554Y051804D01*
X052489Y051889D01*
X052404Y051954D01*
X052306Y051994D01*
X0522Y052008D01*
D02*
G37*
G36*
X0623Y051995D02*
X062194Y051981D01*
X062096Y05194D01*
X062011Y051875D01*
X061946Y05179D01*
X061906Y051692D01*
X061892Y051586D01*
X061906Y051481D01*
X061946Y051382D01*
X062011Y051298D01*
X062096Y051233D01*
X062194Y051192D01*
X0623Y051178D01*
X062406Y051192D01*
X062504Y051233D01*
X062589Y051298D01*
X062654Y051382D01*
X062694Y051481D01*
X062708Y051586D01*
X062694Y051692D01*
X062654Y05179D01*
X062589Y051875D01*
X062504Y05194D01*
X062406Y051981D01*
X0623Y051995D01*
D02*
G37*
G36*
X05725D02*
X057144Y051981D01*
X057046Y05194D01*
X056961Y051875D01*
X056896Y05179D01*
X056856Y051692D01*
X056842Y051586D01*
X056856Y051481D01*
X056896Y051382D01*
X056961Y051298D01*
X057046Y051233D01*
X057144Y051192D01*
X05725Y051178D01*
X057356Y051192D01*
X057454Y051233D01*
X057539Y051298D01*
X057604Y051382D01*
X057644Y051481D01*
X057658Y051586D01*
X057644Y051692D01*
X057604Y05179D01*
X057539Y051875D01*
X057454Y05194D01*
X057356Y051981D01*
X05725Y051995D01*
D02*
G37*
G36*
X025167Y083788D02*
X024117D01*
Y083138D01*
X024408D01*
Y076308D01*
X024425Y076218D01*
X024476Y076142D01*
X026115Y074503D01*
Y073247D01*
X026017Y073216D01*
X026015Y073216D01*
X02582Y073412D01*
X025744Y073463D01*
X025654Y07348D01*
X025167D01*
Y073571D01*
X024117D01*
Y072921D01*
X025167D01*
Y073011D01*
X025557D01*
X025615Y072953D01*
Y059D01*
X025633Y05891D01*
X025684Y058834D01*
X025934Y058584D01*
X02601Y058533D01*
X0261Y058515D01*
X029059D01*
X029247Y058328D01*
Y057867D01*
X029136D01*
X029126Y057867D01*
X029028Y057867D01*
X028326D01*
Y057825D01*
X025557D01*
X024877Y058505D01*
Y062704D01*
X025167D01*
Y063354D01*
X024117D01*
Y062704D01*
X024408D01*
Y058408D01*
X024425Y058318D01*
X024476Y058242D01*
X025294Y057425D01*
X02537Y057374D01*
X025459Y057356D01*
X028326D01*
Y057314D01*
X029026D01*
X029036Y057314D01*
X029135Y057314D01*
X029826D01*
X029926Y057314D01*
X029936Y057314D01*
X030636D01*
Y057867D01*
X030481D01*
Y059077D01*
X030481Y059077D01*
X030464Y059167D01*
X030413Y059243D01*
X030413Y059243D01*
X03019Y059466D01*
X030114Y059517D01*
X030024Y059535D01*
X026823D01*
X026585Y059773D01*
Y067392D01*
X026685Y067434D01*
X026901Y067217D01*
X026977Y067166D01*
X027067Y067149D01*
X027223D01*
Y067063D01*
X028265D01*
Y067703D01*
X027223D01*
Y0677D01*
X027123Y067659D01*
X027035Y067747D01*
Y071001D01*
X027611Y071577D01*
X027951D01*
Y072272D01*
X027956Y072294D01*
X027956Y072294D01*
Y073409D01*
X028358D01*
Y073704D01*
X029792D01*
Y073409D01*
X030041D01*
Y072885D01*
X02992D01*
Y072292D01*
X03063D01*
Y072885D01*
X03051D01*
Y073409D01*
X030858D01*
Y074469D01*
X029792D01*
Y074173D01*
X028358D01*
Y074469D01*
X027292D01*
Y073409D01*
X027487D01*
Y0728D01*
X027279D01*
Y071909D01*
X026685Y071314D01*
X026585Y071355D01*
Y0746D01*
X026567Y07469D01*
X026516Y074766D01*
X024877Y076405D01*
Y083138D01*
X025167D01*
Y083788D01*
D02*
G37*
G36*
X03015Y069834D02*
X03008Y06982D01*
X03002Y06978D01*
X02998Y06972D01*
X029966Y06965D01*
Y069077D01*
X029585D01*
Y068523D01*
X028265D01*
Y068609D01*
X027223D01*
Y067968D01*
X028265D01*
Y068054D01*
X029585D01*
Y0675D01*
X030165D01*
Y065484D01*
X029308D01*
Y064694D01*
X030165D01*
Y06375D01*
Y0629D01*
X03008D01*
Y061685D01*
X028017D01*
X02788Y061821D01*
Y062141D01*
X02717D01*
Y061548D01*
X02749D01*
X027754Y061284D01*
X02783Y061233D01*
X02792Y061215D01*
X027962D01*
X028011Y061115D01*
X028003Y061106D01*
X027689D01*
X027681Y061105D01*
X027609D01*
Y061033D01*
X027607Y061025D01*
Y060552D01*
X027609Y060544D01*
Y060472D01*
X027681D01*
X027689Y060471D01*
X028102D01*
Y060453D01*
X028675D01*
Y060554D01*
X029298D01*
Y060434D01*
X029852D01*
Y061115D01*
X029852Y061144D01*
X02992Y061215D01*
X030165D01*
Y060942D01*
X030183Y060852D01*
X030198Y06083D01*
Y060434D01*
X03042D01*
X030765Y060088D01*
Y0585D01*
X030783Y05841D01*
X030834Y058334D01*
X03091Y058283D01*
X031Y058265D01*
X03109Y058283D01*
X031166Y058334D01*
X031217Y05841D01*
X031235Y0585D01*
Y060186D01*
X031217Y060275D01*
X031166Y060351D01*
X030752Y060765D01*
Y061144D01*
X030635D01*
Y061677D01*
X030752D01*
Y0629D01*
X030635D01*
Y06375D01*
Y064694D01*
X030846D01*
Y065484D01*
X030635D01*
Y067995D01*
X030627Y068032D01*
Y069077D01*
X030334D01*
Y06965D01*
X03032Y06972D01*
X03028Y06978D01*
X03022Y06982D01*
X03015Y069834D01*
D02*
G37*
G36*
X038205Y081927D02*
X037495D01*
Y081373D01*
X037666D01*
Y080962D01*
X037613D01*
Y080447D01*
X038087D01*
Y080962D01*
X038034D01*
Y081373D01*
X038205D01*
Y081927D01*
D02*
G37*
G36*
X037205D02*
X036495D01*
Y081373D01*
X036666D01*
Y080962D01*
X036613D01*
Y080447D01*
X037087D01*
Y080962D01*
X037034D01*
Y081373D01*
X037205D01*
Y081927D01*
D02*
G37*
G36*
X0285Y085922D02*
X028394Y085908D01*
X028296Y085867D01*
X028211Y085802D01*
X028146Y085718D01*
X028106Y085619D01*
X028092Y085514D01*
X028106Y085408D01*
X028146Y08531D01*
X028211Y085225D01*
X028266Y085183D01*
Y083327D01*
X028045D01*
Y082773D01*
X028755D01*
Y083327D01*
X028634D01*
Y085131D01*
X028704Y08516D01*
X028789Y085225D01*
X028854Y08531D01*
X028894Y085408D01*
X028908Y085514D01*
X028894Y085619D01*
X028854Y085718D01*
X028789Y085802D01*
X028704Y085867D01*
X028606Y085908D01*
X0285Y085922D01*
D02*
G37*
G36*
X0275D02*
X027394Y085908D01*
X027296Y085867D01*
X027211Y085802D01*
X027146Y085718D01*
X027106Y085619D01*
X027092Y085514D01*
X027106Y085408D01*
X027146Y08531D01*
X027211Y085225D01*
X02724Y085203D01*
Y083327D01*
X026993D01*
Y082773D01*
X027703D01*
Y083327D01*
X027608D01*
Y08512D01*
X027704Y08516D01*
X027789Y085225D01*
X027854Y08531D01*
X027894Y085408D01*
X027908Y085514D01*
X027894Y085619D01*
X027854Y085718D01*
X027789Y085802D01*
X027704Y085867D01*
X027606Y085908D01*
X0275Y085922D01*
D02*
G37*
G36*
X037327Y057355D02*
X036773D01*
Y056645D01*
X037327D01*
Y056816D01*
X037743D01*
Y056763D01*
X038258D01*
Y057237D01*
X037743D01*
Y057184D01*
X037327D01*
Y057355D01*
D02*
G37*
G36*
X036427D02*
X035873D01*
Y056645D01*
X035966D01*
Y0559D01*
X03598Y05583D01*
X03602Y05577D01*
X03608Y05573D01*
X03615Y055716D01*
X03622Y05573D01*
X03628Y05577D01*
X03632Y05583D01*
X036334Y0559D01*
Y056645D01*
X036427D01*
Y057355D01*
D02*
G37*
G36*
X034087Y05594D02*
X033913D01*
X03387Y055932D01*
X033834Y055908D01*
X03381Y055872D01*
X033802Y055829D01*
Y055112D01*
X03381Y055069D01*
X033816Y05506D01*
Y05475D01*
X03383Y05468D01*
X03387Y05462D01*
X03393Y05458D01*
X034Y054566D01*
X03407Y05458D01*
X03413Y05462D01*
X03417Y05468D01*
X034184Y05475D01*
Y05506D01*
X03419Y055069D01*
X034198Y055112D01*
Y055829D01*
X03419Y055872D01*
X034166Y055908D01*
X03413Y055932D01*
X034087Y05594D01*
D02*
G37*
%LPD*%
D14*
X03355Y08065D02*
Y080653D01*
Y0799D02*
Y08065D01*
X033547D02*
X03355Y080653D01*
X036665Y0763D02*
X0371D01*
X03664Y076275D02*
X036665Y0763D01*
X03664Y07627D02*
Y076275D01*
X03859Y07219D02*
X03905Y07265D01*
X0327Y0729D02*
X03341Y07219D01*
X03859D01*
X03725Y07955D02*
X037741D01*
X0363D02*
X03725D01*
X0373Y0795D01*
Y0785D02*
Y0795D01*
X0344Y06525D02*
X0344Y06525D01*
X033Y06525D02*
X0344D01*
X033Y06475D02*
X0344D01*
X03564Y07806D02*
X03565Y07805D01*
X03564Y07806D02*
Y07883D01*
X034791Y0775D02*
X03875D01*
X03885Y0776D02*
Y08165D01*
X03875Y0775D02*
X03885Y0776D01*
X041572Y08255D02*
Y082986D01*
X0394Y07735D02*
Y08035D01*
X03915Y0771D02*
X0394Y07735D01*
X03805Y0771D02*
X03915D01*
X037794Y076844D02*
X03805Y0771D01*
X037794Y073694D02*
Y076844D01*
X0407Y0812D02*
Y08165D01*
X04235Y080886D02*
Y082383D01*
X042164Y0807D02*
X04235Y080886D01*
X03975Y0807D02*
X042164D01*
X0394Y08035D02*
X03975Y0807D01*
X03905Y07265D02*
Y0739D01*
X037794Y073694D02*
X0378Y073688D01*
X042233Y0825D02*
X04235Y082383D01*
X0417Y0825D02*
X042233D01*
X04165Y08255D02*
X0417Y0825D01*
X036344Y07285D02*
Y07385D01*
Y07285D02*
X03675D01*
X0337D02*
X036344D01*
X039315Y064367D02*
X039432Y06425D01*
X039315Y064367D02*
Y071015D01*
X03935Y07105D01*
X039432Y06425D02*
X040087D01*
X04185Y0591D02*
X0485D01*
X04145Y0595D02*
X04185Y0591D01*
X04145Y0595D02*
Y0671D01*
X0488Y0551D02*
Y0588D01*
X0485Y0591D02*
X0488Y0588D01*
X0413Y06725D02*
X04145Y0671D01*
X040087Y06725D02*
X0413D01*
X0431Y05755D02*
Y0581D01*
X0425Y0587D02*
X0431Y0581D01*
X0358Y0587D02*
X0425D01*
X0419Y0625D02*
Y06865D01*
X0418Y06875D02*
X0419Y06865D01*
X040087Y06875D02*
X0418D01*
X0419Y0625D02*
X0422Y0622D01*
X0429D01*
X04165Y0803D02*
X0429D01*
X04135Y08D02*
X04165Y0803D01*
X04135Y071567D02*
Y08D01*
X041233Y07145D02*
X04135Y071567D01*
X03865Y07145D02*
X041233D01*
X038291Y071091D02*
X03865Y07145D01*
X038291Y07036D02*
Y071091D01*
X0423Y07439D02*
X0429D01*
X0421Y07419D02*
X0423Y07439D01*
X0421Y0701D02*
Y07419D01*
X04175Y06975D02*
X0421Y0701D01*
X040087Y06975D02*
X04175D01*
X04275Y06925D02*
X042867Y069133D01*
Y068683D02*
Y069133D01*
Y068683D02*
X0429Y06865D01*
X040087Y06925D02*
X04275D01*
X03575Y06375D02*
X03575Y06375D01*
X040087D01*
X03685Y08255D02*
X038903D01*
X030106Y068289D02*
X03015Y068332D01*
Y06965D01*
X03685Y08255D02*
Y0834D01*
X0413Y055283D02*
X041833D01*
X04185Y0553D01*
X04085Y0546D02*
Y05595D01*
Y0546D02*
X04165D01*
X03995D02*
X04085D01*
X041Y0561D02*
X042119D01*
X04085Y05595D02*
X041Y0561D01*
X04025Y055598D02*
X0405D01*
X031895Y052495D02*
X03199Y05259D01*
X0318Y0524D02*
X031895Y052495D01*
X035Y05259D02*
X035019D01*
X03199D02*
X035D01*
X035484Y053055D02*
Y053506D01*
X035019Y05259D02*
X035484Y053055D01*
X031656Y05138D02*
X0318Y051524D01*
X031121Y05138D02*
X031656D01*
X031081Y051341D02*
X031121Y05138D01*
X0318Y051524D02*
Y0524D01*
X033614Y05287D02*
X03462D01*
X035Y05325D01*
Y053522D01*
X0334Y053084D02*
X033614Y05287D01*
X0334Y053084D02*
Y05675D01*
X029687Y0838D02*
X031361D01*
X0295Y083987D02*
X029687Y0838D01*
X0295Y083987D02*
Y085514D01*
X03175Y08185D02*
Y083411D01*
X031361Y0838D02*
X03175Y083411D01*
Y08185D02*
X0327Y0809D01*
Y0729D02*
Y0809D01*
X03242Y072009D02*
Y08068D01*
X0314Y0817D02*
X03242Y08068D01*
X0314Y0817D02*
Y0832D01*
X031137Y083463D02*
X0314Y0832D01*
X029273Y083463D02*
X031137D01*
X03695Y0713D02*
X037235Y071015D01*
Y070416D02*
Y071015D01*
Y070416D02*
X037291Y07036D01*
X032733Y0713D02*
X03695D01*
X032647Y071386D02*
X032733Y0713D01*
X0324Y071386D02*
X032647D01*
X032075Y071711D02*
X0324Y071386D01*
X032075Y071711D02*
Y080575D01*
X03175Y0809D02*
X032075Y080575D01*
X029524Y0809D02*
X03175D01*
X029424Y081D02*
X029524Y0809D01*
X0275Y081D02*
X029424D01*
X027348Y081152D02*
X0275Y081D01*
X027348Y081152D02*
Y08215D01*
X0284D02*
X029D01*
X029156Y083345D02*
X029273Y083463D01*
X029156Y082306D02*
Y083345D01*
X029Y08215D02*
X029156Y082306D01*
X032775Y071654D02*
X037446D01*
X03242Y072009D02*
X032775Y071654D01*
X037714Y070437D02*
Y071386D01*
X037446Y071654D02*
X037714Y071386D01*
Y070437D02*
X037791Y07036D01*
X03215Y06975D02*
X033D01*
X033Y06975D01*
X0347Y074746D02*
Y07515D01*
X034666Y074712D02*
X0347Y074746D01*
X03564Y07554D02*
Y07627D01*
X035414Y075314D02*
X03564Y07554D01*
X035414Y074712D02*
Y075314D01*
X033863Y074762D02*
Y075421D01*
X033981Y075539D01*
X034998D01*
X035115Y075656D01*
Y076245D01*
X03514Y07627D01*
X034367Y073688D02*
X03504D01*
X03425Y073805D02*
X034367Y073688D01*
X03425Y073805D02*
Y074336D01*
X033863Y074722D02*
X03425Y074336D01*
X033863Y074722D02*
Y074762D01*
X034Y0732D02*
X035433D01*
X033863Y073337D02*
X034Y0732D01*
X033863Y073337D02*
Y074063D01*
X033676Y07425D02*
X033863Y074063D01*
X033267Y07425D02*
X033676D01*
X035433Y0732D02*
X03555Y073317D01*
Y073927D01*
X035414Y074063D02*
X03555Y073927D01*
X035414Y074063D02*
Y074712D01*
X03315Y074367D02*
X033267Y07425D01*
X03315Y074367D02*
Y074727D01*
X033115Y074762D02*
X03315Y074727D01*
X033489Y073061D02*
X0337Y07285D01*
X033489Y073061D02*
Y073738D01*
X036344Y07385D02*
X03635Y073856D01*
X038174Y07469D02*
Y074712D01*
Y07469D02*
X038231Y074633D01*
X039032D01*
X03905Y074615D01*
X04125Y08404D02*
X0417D01*
X041741Y084D01*
X040904Y084386D02*
X04125Y08404D01*
X040904Y084386D02*
Y08565D01*
X0407Y08165D02*
X0407Y08165D01*
X04165D01*
X04165Y08165D01*
X03885Y08165D02*
X0398D01*
X037741Y07955D02*
X037813Y079622D01*
X03614Y07939D02*
X0363Y07955D01*
X03614Y07883D02*
Y07939D01*
X037813Y079622D02*
Y079959D01*
X03785Y079996D01*
X0367Y079846D02*
X03685Y079996D01*
X035757Y079846D02*
X0367D01*
X03564Y079728D02*
X035757Y079846D01*
X03564Y07883D02*
Y079728D01*
X03785Y080704D02*
Y08165D01*
X03685Y080704D02*
Y08165D01*
X037694Y083567D02*
Y08404D01*
X03765Y084085D02*
X037694Y08404D01*
Y083567D02*
X037811Y08345D01*
X03965D01*
X0398Y0833D01*
Y08255D02*
Y0833D01*
X038903Y082247D02*
Y08255D01*
Y082247D02*
X03905Y0821D01*
X04057D01*
X040687Y082217D01*
Y082537D01*
X0407Y08255D01*
X03685Y08255D02*
X03685Y08255D01*
X040438Y08412D02*
X041572Y082986D01*
X03945Y08412D02*
X040438D01*
X041572Y08255D02*
X04165D01*
X03514Y07883D02*
Y079678D01*
X034973Y079846D02*
X03514Y079678D01*
X034973Y079846D02*
Y08035D01*
X032252Y06425D02*
X033D01*
X0321Y064098D02*
X032252Y06425D01*
X0321Y054017D02*
Y064098D01*
X031983Y0539D02*
X0321Y054017D01*
X031687Y0539D02*
X031983D01*
X031631Y053845D02*
X031687Y0539D01*
X0318Y065783D02*
X032967D01*
X033Y06575D01*
X031631Y065615D02*
X0318Y065783D01*
X031631Y054991D02*
Y065615D01*
X042617Y056599D02*
Y057933D01*
X042119Y0561D02*
X042617Y056599D01*
X0428Y0563D02*
X043178D01*
X042269Y058281D02*
X042617Y057933D01*
X03535Y05915D02*
X0358Y0587D01*
X03535Y05915D02*
Y068189D01*
X034789Y06875D02*
X03535Y068189D01*
X033Y06875D02*
X034789D01*
X035568Y058281D02*
X042269D01*
X034933Y058917D02*
X035568Y058281D01*
X034933Y058917D02*
Y067957D01*
X03464Y06825D02*
X034933Y067957D01*
X033Y06825D02*
X03464D01*
X03975Y055598D02*
Y05635D01*
X0399Y0565D01*
X041728D01*
X04215Y056922D01*
Y057D01*
X03665Y052717D02*
Y054353D01*
X03615Y0559D02*
Y057D01*
X040268Y053766D02*
X040402Y0539D01*
X040253Y053766D02*
X040268D01*
X040253Y053476D02*
Y053766D01*
X040402Y0539D02*
X042283D01*
X041855Y0534D02*
X0419Y053355D01*
X04065Y0534D02*
X041855D01*
X03665Y052717D02*
X036767Y0526D01*
X03755D01*
X03775Y0528D01*
Y053472D01*
X03705Y057D02*
X038D01*
X040254D02*
X04125D01*
X03975Y0544D02*
X03995Y0546D01*
X03975Y053472D02*
Y0544D01*
X04165Y0546D02*
X04185Y0544D01*
X04245Y054067D02*
Y055183D01*
X042283Y0539D02*
X04245Y054067D01*
X04025Y053472D02*
X040253Y053476D01*
X042333Y0553D02*
X04245Y055183D01*
X04185Y0553D02*
X042333D01*
X03788Y05448D02*
X039083D01*
X037753Y054353D02*
X03788Y05448D01*
X037753Y053476D02*
Y054353D01*
X03925Y053472D02*
Y054313D01*
X039083Y05448D02*
X03925Y054313D01*
X03775Y053472D02*
X037753Y053476D01*
X03621Y05476D02*
X03811D01*
X0362Y05475D02*
X03621Y05476D01*
X03811D02*
X03825Y0549D01*
X0347Y053722D02*
Y0547D01*
X0345Y053522D02*
X0347Y053722D01*
X034053Y056953D02*
X0341Y057D01*
Y05635D02*
Y057D01*
X0341Y057D01*
X0419Y053233D02*
Y053355D01*
X03825Y053472D02*
Y0542D01*
X03515Y0543D02*
X0355D01*
X035Y05445D02*
X03515Y0543D01*
X035Y05445D02*
Y05547D01*
X04025Y05305D02*
Y053472D01*
X039987Y052787D02*
X04025Y05305D01*
X039987Y05145D02*
Y052787D01*
X035Y051506D02*
Y05259D01*
X035156Y05135D02*
X0356D01*
X035Y051506D02*
X035156Y05135D01*
X035484Y053506D02*
X0355Y053522D01*
X037125Y051375D02*
X03715Y0514D01*
X035625Y051375D02*
X037125D01*
X0356Y05135D02*
X035625Y051375D01*
X038413Y0509D02*
X040333D01*
X034517D02*
X038413D01*
X0344Y051017D02*
Y051356D01*
X03435Y051406D02*
X0344Y051356D01*
Y051017D02*
X034517Y0509D01*
X038413D02*
Y05145D01*
X0385Y0523D02*
X039063D01*
X039113Y05235D01*
X03725Y05295D02*
Y053472D01*
X034Y05475D02*
Y05547D01*
X043178Y0563D02*
X043373Y056495D01*
Y05655D01*
X04013Y05495D02*
X040247Y055067D01*
X0389Y05495D02*
X04013D01*
X03875Y055598D02*
X038753Y055595D01*
Y055097D02*
Y055595D01*
X040247D02*
X04025Y055598D01*
X038753Y055097D02*
X0389Y05495D01*
X040247Y055067D02*
Y055595D01*
X043367Y05315D02*
X043373Y053156D01*
X0334Y05675D02*
X033603Y056953D01*
X034053D01*
X0345Y05547D02*
X035D01*
X035617Y05475D02*
X0362D01*
Y052464D02*
Y05475D01*
X036083Y052347D02*
X0362Y052464D01*
X035697Y052347D02*
X036083D01*
X0356Y05225D02*
X035697Y052347D01*
X0355Y054867D02*
X035617Y05475D01*
X0355Y054867D02*
Y05547D01*
X03825Y0549D02*
Y055598D01*
X03775Y056133D02*
X037867Y05625D01*
X03775Y055598D02*
Y056133D01*
X037867Y05625D02*
X03913D01*
X039247Y056133D01*
Y055602D02*
Y056133D01*
Y055602D02*
X03925Y055598D01*
X038747Y053197D02*
Y053469D01*
X0381Y05255D02*
X038747Y053197D01*
X0381Y051763D02*
Y05255D01*
Y051763D02*
X038413Y05145D01*
X04045Y052113D02*
X040687Y05235D01*
X04045Y051017D02*
Y052113D01*
X040333Y0509D02*
X04045Y051017D01*
X038747Y053469D02*
X03875Y053472D01*
X039113Y05235D02*
X039216Y052247D01*
Y051547D02*
Y052247D01*
Y051547D02*
X039313Y05145D01*
X031631Y06745D02*
X031831Y06725D01*
X033D01*
X031631Y06745D02*
Y079119D01*
X0314Y07935D02*
X031631Y079119D01*
X03095Y07935D02*
X0314D01*
X0308Y0795D02*
X03095Y07935D01*
X0308Y0795D02*
Y08045D01*
X031317Y06675D02*
X033D01*
X0312Y066867D02*
X031317Y06675D01*
X0312Y066867D02*
Y078733D01*
X031083Y07885D02*
X0312Y078733D01*
X02995Y07885D02*
X031083D01*
X0298Y079D02*
X02995Y07885D01*
X0298Y079D02*
Y08045D01*
X0284Y08305D02*
X02845Y0831D01*
Y085464D01*
X0285Y085514D01*
X027348Y08305D02*
X027424Y083126D01*
Y085438D01*
X0275Y085514D01*
D18*
X0342Y08515D02*
X03485D01*
X03415Y0851D02*
X0342Y08515D01*
X03415Y08485D02*
Y0851D01*
Y08485D02*
X034343Y084657D01*
Y084329D02*
Y084657D01*
X03485Y08515D02*
X034933Y085067D01*
X034736Y084691D02*
X034933Y084888D01*
X034736Y084329D02*
Y084691D01*
X034933Y084888D02*
Y085067D01*
X034736Y083778D02*
Y084329D01*
X034941Y084641D02*
X0352Y0849D01*
X034941Y084337D02*
Y084641D01*
X034933Y084329D02*
X034941Y084337D01*
X034545Y084895D02*
X03455Y0849D01*
X034545Y084334D02*
Y084895D01*
X034539Y084329D02*
X034545Y084334D01*
X034539Y083611D02*
X035159Y082991D01*
X034539Y083611D02*
Y084329D01*
X035159Y081159D02*
Y082991D01*
X034736Y083778D02*
X035414Y0831D01*
Y080973D02*
Y0831D01*
X03513Y0837D02*
X035839Y082991D01*
Y08255D02*
Y082991D01*
X03513Y0837D02*
Y084329D01*
X033949Y083101D02*
Y084329D01*
X033752Y082452D02*
Y084329D01*
X033634Y082334D02*
Y084329D01*
X033949Y083101D02*
X034353Y082697D01*
X033489Y082311D02*
X03355Y08225D01*
X03325Y08255D02*
X033489Y082311D01*
X03325Y08255D02*
Y08295D01*
X035642Y083908D02*
X03645Y0831D01*
X033489Y082311D02*
Y08295D01*
X035642Y083908D02*
Y084329D01*
X035524Y083826D02*
X0361Y08325D01*
X035524Y083826D02*
Y084329D01*
X03505Y08105D02*
X035159Y081159D01*
X034309Y08105D02*
X03505D01*
X03414Y080882D02*
X034309Y08105D01*
X0347Y08085D02*
X035291D01*
X034636Y080786D02*
X0347Y08085D01*
X034636Y078833D02*
Y080786D01*
X035291Y08085D02*
X035414Y080973D01*
X03414Y07883D02*
Y080882D01*
X034353Y082697D02*
X034695D01*
X034842Y08255D01*
X03485D01*
X034636Y078833D02*
X03464Y07883D01*
X03355Y08225D02*
X033634Y082334D01*
X033752Y082452D01*
X025522Y0536D02*
X0256Y053522D01*
X024642Y0536D02*
X025522D01*
X0256Y05195D02*
Y053522D01*
Y05195D02*
X0257Y05185D01*
X028929D01*
X028988Y051909D01*
Y052538D01*
X029381Y052931D01*
Y053591D01*
X028681Y052241D02*
Y052881D01*
X029185Y053135D02*
Y053591D01*
X029Y05295D02*
X029185Y053135D01*
X02875Y05295D02*
X029D01*
X028681Y052881D02*
X02875Y05295D01*
X028681Y054719D02*
X028988Y054412D01*
X0303Y05362D02*
X030585D01*
X02978D02*
X0303D01*
X030281Y053601D02*
X0303Y05362D01*
X030281Y052241D02*
Y053601D01*
X029481Y052241D02*
X029578Y052337D01*
Y053591D01*
X03115Y052309D02*
Y05535D01*
X03105Y05545D02*
X03115Y05535D01*
X0303Y05545D02*
X03105D01*
X031081Y052241D02*
X03115Y052309D01*
X0302Y05535D02*
X0303Y05545D01*
X0302Y054859D02*
Y05535D01*
X030141Y0548D02*
X0302Y054859D01*
X029637Y0548D02*
X030141D01*
X029578Y054859D02*
X029637Y0548D01*
X029578Y054859D02*
Y055283D01*
X030731Y053766D02*
Y053845D01*
X030585Y05362D02*
X030731Y053766D01*
X029775Y053614D02*
X02978Y05362D01*
X029775Y053591D02*
Y053614D01*
X030731Y054631D02*
Y054991D01*
X03065Y05455D02*
X030731Y054631D01*
X029788Y05455D02*
X03065D01*
X029578Y054341D02*
X029788Y05455D01*
X029578Y053591D02*
Y054341D01*
X031Y05565D02*
X031081Y055731D01*
Y056691D01*
X029834Y05565D02*
X031D01*
X029775Y055591D02*
X029834Y05565D01*
X029775Y055283D02*
Y055591D01*
X029481Y056181D02*
Y056691D01*
X02938Y05608D02*
X029481Y056181D01*
X02908Y05608D02*
X02938D01*
X028988Y055988D02*
X02908Y05608D01*
X02928Y0559D02*
X03015D01*
X029185Y055805D02*
X02928Y0559D01*
X03015D02*
X030281Y056031D01*
Y056691D01*
X029185Y055283D02*
Y055805D01*
X028988Y055283D02*
Y055988D01*
Y053591D02*
Y054412D01*
X028681Y054719D02*
Y056691D01*
D26*
X0298Y083104D02*
D03*
Y082396D02*
D03*
X0308Y083104D02*
D03*
Y082396D02*
D03*
X03785Y079996D02*
D03*
Y080704D02*
D03*
X03685Y079996D02*
D03*
Y080704D02*
D03*
D27*
X0298Y08045D02*
D03*
Y08135D02*
D03*
X0308Y08045D02*
D03*
Y08135D02*
D03*
X04165Y08255D02*
D03*
Y08165D02*
D03*
X0407Y08165D02*
D03*
Y08255D02*
D03*
X0356Y05225D02*
D03*
Y05135D02*
D03*
X031081Y051341D02*
D03*
Y052241D02*
D03*
Y057591D02*
D03*
Y056691D02*
D03*
X030281Y051341D02*
D03*
Y052241D02*
D03*
X029481Y051341D02*
D03*
Y052241D02*
D03*
X030281Y057591D02*
D03*
Y056691D02*
D03*
X029481Y057591D02*
D03*
Y056691D02*
D03*
X028681Y057591D02*
D03*
Y056691D02*
D03*
X02845Y05135D02*
D03*
Y05225D02*
D03*
X04185Y0544D02*
D03*
Y0553D02*
D03*
X05635Y05395D02*
D03*
Y05485D02*
D03*
X027348Y08215D02*
D03*
Y08305D02*
D03*
X0284Y08215D02*
D03*
Y08305D02*
D03*
X035839Y08255D02*
D03*
Y08165D02*
D03*
X03465Y08165D02*
D03*
Y08255D02*
D03*
X04875Y065783D02*
D03*
Y066683D02*
D03*
Y07775D02*
D03*
Y07865D02*
D03*
X03885Y08165D02*
D03*
Y08255D02*
D03*
X0398Y08165D02*
D03*
Y08255D02*
D03*
X04875Y071767D02*
D03*
Y072667D02*
D03*
X03785Y08255D02*
D03*
Y08165D02*
D03*
X04875Y0598D02*
D03*
Y0607D02*
D03*
X03685Y08255D02*
D03*
Y08165D02*
D03*
X040904Y08655D02*
D03*
Y08565D02*
D03*
D28*
X038413Y05145D02*
D03*
X039313D02*
D03*
X039987D02*
D03*
X040887D02*
D03*
X03705Y057D02*
D03*
X03615D02*
D03*
X0341D02*
D03*
X035D02*
D03*
X04125D02*
D03*
X04215D02*
D03*
X030475Y060789D02*
D03*
X029575D02*
D03*
X031631Y053845D02*
D03*
X030731D02*
D03*
X031631Y054991D02*
D03*
X030731D02*
D03*
X0488Y0551D02*
D03*
X0497D02*
D03*
X05835Y054D02*
D03*
X05745D02*
D03*
X0438Y06865D02*
D03*
X0429D02*
D03*
X0438Y0803D02*
D03*
X0429D02*
D03*
X04865Y06866D02*
D03*
X04775D02*
D03*
X04865Y0803D02*
D03*
X04775D02*
D03*
X0438Y07439D02*
D03*
X0429D02*
D03*
X0438Y0622D02*
D03*
X0429D02*
D03*
X04865Y0744D02*
D03*
X04775D02*
D03*
X04865Y06221D02*
D03*
X04775D02*
D03*
D29*
X03435Y051406D02*
D03*
Y052194D02*
D03*
X03715Y0514D02*
D03*
Y052187D02*
D03*
X027525Y062632D02*
D03*
Y061845D02*
D03*
X030275Y071801D02*
D03*
Y072589D02*
D03*
X03635Y073856D02*
D03*
Y074644D02*
D03*
D30*
X0355Y05547D02*
D03*
X035D02*
D03*
X0345D02*
D03*
X034D02*
D03*
Y053522D02*
D03*
X0345D02*
D03*
X035D02*
D03*
X0355D02*
D03*
D31*
X03725Y053472D02*
D03*
X03775D02*
D03*
X03825D02*
D03*
X03875D02*
D03*
X03925D02*
D03*
X03975D02*
D03*
X04025D02*
D03*
X03725Y055598D02*
D03*
X03775D02*
D03*
X03825D02*
D03*
X03875D02*
D03*
X03925D02*
D03*
X03975D02*
D03*
X04025D02*
D03*
D32*
X038709Y057D02*
D03*
X038D02*
D03*
X039546D02*
D03*
X040254D02*
D03*
D33*
X043373Y05655D02*
D03*
X045027D02*
D03*
X043373Y05475D02*
D03*
X045027D02*
D03*
D34*
X039113Y05235D02*
D03*
X040687D02*
D03*
D35*
X045033Y05165D02*
D03*
X043367D02*
D03*
Y05315D02*
D03*
X045033D02*
D03*
D36*
X0419Y051567D02*
D03*
Y053233D02*
D03*
D37*
X027462Y060789D02*
D03*
X028389D02*
D03*
X034973Y08035D02*
D03*
X0359D02*
D03*
X042668Y084D02*
D03*
X041741D02*
D03*
D38*
X030106Y068289D02*
D03*
D39*
X027744Y067383D02*
D03*
Y068289D02*
D03*
Y069194D02*
D03*
D40*
X029775Y055283D02*
D03*
X029578D02*
D03*
X029381D02*
D03*
X029185D02*
D03*
X028988D02*
D03*
Y053591D02*
D03*
X029185D02*
D03*
X029381D02*
D03*
X029578D02*
D03*
X029775D02*
D03*
D41*
X030325Y073939D02*
D03*
Y075539D02*
D03*
X027825Y073939D02*
D03*
Y075539D02*
D03*
X0598Y0557D02*
D03*
Y0541D02*
D03*
X03355Y08065D02*
D03*
Y08225D02*
D03*
D42*
X027873Y065089D02*
D03*
X030077D02*
D03*
X027973Y077989D02*
D03*
X030177D02*
D03*
D43*
X030416Y062289D02*
D03*
X029156D02*
D03*
X027615Y072189D02*
D03*
X028875D02*
D03*
D44*
X024642Y083463D02*
D03*
Y08425D02*
D03*
Y085037D02*
D03*
Y073246D02*
D03*
Y074033D02*
D03*
Y074821D02*
D03*
Y063029D02*
D03*
Y063817D02*
D03*
Y064604D02*
D03*
Y052813D02*
D03*
Y0536D02*
D03*
Y054387D02*
D03*
D45*
X022445Y086455D02*
D03*
Y082045D02*
D03*
Y076238D02*
D03*
Y071829D02*
D03*
Y066021D02*
D03*
Y061612D02*
D03*
Y055805D02*
D03*
Y051395D02*
D03*
D46*
X037134Y066289D02*
D03*
D47*
X038791Y07036D02*
D03*
X038291D02*
D03*
X037291D02*
D03*
X037791D02*
D03*
X036291D02*
D03*
X036791D02*
D03*
X035291D02*
D03*
X035791D02*
D03*
X034291D02*
D03*
X034791D02*
D03*
D48*
X033Y06325D02*
D03*
Y06375D02*
D03*
Y06475D02*
D03*
Y06425D02*
D03*
Y06575D02*
D03*
Y06525D02*
D03*
Y06675D02*
D03*
Y06625D02*
D03*
Y06775D02*
D03*
Y06725D02*
D03*
Y06875D02*
D03*
Y06825D02*
D03*
Y06975D02*
D03*
Y06925D02*
D03*
X040087D02*
D03*
Y06975D02*
D03*
Y06825D02*
D03*
Y06875D02*
D03*
Y06725D02*
D03*
Y06775D02*
D03*
Y06625D02*
D03*
Y06675D02*
D03*
Y06525D02*
D03*
Y06575D02*
D03*
Y06375D02*
D03*
Y06475D02*
D03*
Y06325D02*
D03*
Y06425D02*
D03*
D49*
X055019Y054D02*
D03*
Y055D02*
D03*
X051082Y054D02*
D03*
Y055D02*
D03*
X046869Y0662D02*
D03*
Y0672D02*
D03*
X042931Y0662D02*
D03*
Y0672D02*
D03*
X046869Y0777D02*
D03*
Y0787D02*
D03*
X042931Y0777D02*
D03*
Y0787D02*
D03*
X046869Y0718D02*
D03*
Y0728D02*
D03*
X042931Y0718D02*
D03*
Y0728D02*
D03*
X046869Y0597D02*
D03*
Y0607D02*
D03*
X042931Y0597D02*
D03*
Y0607D02*
D03*
D50*
X057526Y055158D02*
D03*
X0579Y056142D02*
D03*
X058274Y055158D02*
D03*
D51*
X03664Y07627D02*
D03*
X03614D02*
D03*
X03564D02*
D03*
X03514D02*
D03*
X03464D02*
D03*
X03414D02*
D03*
X03364D02*
D03*
X03314D02*
D03*
X03314Y07883D02*
D03*
X03364D02*
D03*
X03414D02*
D03*
X03464D02*
D03*
X03514D02*
D03*
X03564D02*
D03*
X03614D02*
D03*
D52*
X03664D02*
D03*
D53*
X034736Y084329D02*
D03*
X034933D02*
D03*
X03513D02*
D03*
X035327D02*
D03*
X035524D02*
D03*
X035642D02*
D03*
X035839D02*
D03*
X035957D02*
D03*
X034539D02*
D03*
X034343D02*
D03*
X034146D02*
D03*
X033949D02*
D03*
X033752D02*
D03*
X033634D02*
D03*
X033437D02*
D03*
X033319D02*
D03*
D54*
X03945Y08412D02*
D03*
Y086876D02*
D03*
X03765Y084085D02*
D03*
Y086841D02*
D03*
D55*
X05845Y06775D02*
D03*
Y06495D02*
D03*
Y07965D02*
D03*
Y07685D02*
D03*
Y0737D02*
D03*
Y0709D02*
D03*
Y0618D02*
D03*
Y059D02*
D03*
D56*
X050391Y06725D02*
D03*
Y06525D02*
D03*
Y07915D02*
D03*
Y07715D02*
D03*
Y0732D02*
D03*
Y0712D02*
D03*
Y0613D02*
D03*
Y0593D02*
D03*
D57*
X03905Y0739D02*
D03*
X03905Y074615D02*
D03*
D58*
X0378Y073688D02*
D03*
X037426Y074712D02*
D03*
X038174D02*
D03*
X033489Y073738D02*
D03*
X033115Y074762D02*
D03*
X033863D02*
D03*
X03504Y073688D02*
D03*
X034666Y074712D02*
D03*
X035414D02*
D03*
D59*
X05685Y086189D02*
D03*
Y085519D02*
D03*
Y083511D02*
D03*
Y084181D02*
D03*
Y08485D02*
D03*
D60*
X05265D02*
D03*
D61*
X04865Y084369D02*
D03*
Y086731D02*
D03*
D62*
X05865Y085509D02*
D03*
Y086769D02*
D03*
X042404Y086491D02*
D03*
Y085231D02*
D03*
D63*
X054337Y0814D02*
D03*
X052763D02*
D03*
D111*
X0546Y06625D02*
D03*
Y07815D02*
D03*
Y0722D02*
D03*
Y0603D02*
D03*
D112*
X032212Y085438D02*
X038731D01*
X029661Y077989D02*
X030177D01*
X038731Y085438D02*
X039843Y08655D01*
X05835Y0738D02*
X05845Y0737D01*
X054917Y07815D02*
X055683Y078917D01*
X0304Y06375D02*
Y067995D01*
Y060942D02*
Y06375D01*
X031Y0585D02*
Y060186D01*
X030475Y06071D02*
X031Y060186D01*
X030475Y06071D02*
Y060789D01*
X04337Y053159D02*
X043373Y053156D01*
X02413Y05057D02*
X04492D01*
X045Y05065D01*
X02365Y05105D02*
X02413Y05057D01*
X02365Y053695D02*
Y0638D01*
Y05105D02*
Y053695D01*
X024547D01*
X032212Y085438D02*
X0323Y08535D01*
Y081897D02*
Y08535D01*
Y081897D02*
X033547Y08065D01*
X030325Y07695D02*
Y077841D01*
Y075539D02*
Y07695D01*
X0263Y077076D02*
Y0866D01*
X030275Y0769D02*
X030325Y07695D01*
X026476Y0769D02*
X030275D01*
X0263Y077076D02*
X026476Y0769D01*
X0263Y0866D02*
X03105D01*
X024293D02*
X0263D01*
X03105D02*
X032212Y085438D01*
X02365Y085957D02*
X024293Y0866D01*
X02365Y08415D02*
Y085957D01*
Y073952D02*
Y08415D01*
X02375Y08425D02*
X024642D01*
X02365Y08415D02*
X02375Y08425D01*
X039843Y08655D02*
X040904D01*
X05685Y0812D02*
Y083511D01*
X05575Y0801D02*
X05685Y0812D01*
X05255Y0801D02*
X05575D01*
X05165Y081D02*
X05255Y0801D01*
X0461Y081D02*
X05165D01*
X05279Y08096D02*
Y0814D01*
X0554Y0807D02*
X0558Y0811D01*
X05305Y0807D02*
X0554D01*
X05279Y08096D02*
X05305Y0807D01*
X0558Y0811D02*
Y08385D01*
X04575Y08065D02*
X0461Y081D01*
X052613Y08155D02*
X052763Y0814D01*
X0492Y08155D02*
X052613D01*
X04865Y0821D02*
X0492Y08155D01*
X04865Y0821D02*
Y084369D01*
X04575Y078644D02*
Y08065D01*
Y0728D02*
Y078644D01*
X046813D01*
X04625Y0504D02*
X05025D01*
X045926Y050724D02*
X04625Y0504D01*
X045926Y050724D02*
Y054224D01*
X06035Y0504D02*
X06495D01*
X05525D02*
X06035D01*
X0603Y05045D02*
X06035Y0504D01*
X0603Y05045D02*
Y051586D01*
X05025Y0504D02*
X05525D01*
Y051586D01*
X0502Y05045D02*
X05025Y0504D01*
X0502Y05045D02*
Y0516D01*
X06495Y0504D02*
X06535Y0508D01*
Y0516D01*
X0593Y05235D02*
X064137D01*
X0542D02*
X0593D01*
Y051586D02*
Y05235D01*
X049503D02*
X0542D01*
Y051636D02*
Y05235D01*
Y051636D02*
X05425Y051586D01*
X0492Y052047D02*
X049503Y05235D01*
X0492Y0516D02*
Y052047D01*
X064137Y05235D02*
X064313Y052174D01*
Y051637D02*
Y052174D01*
Y051637D02*
X06435Y0516D01*
X046713D02*
X0492D01*
X0465Y051813D02*
X046713Y0516D01*
X0465Y051813D02*
Y0558D01*
X04623Y05607D02*
X0465Y0558D01*
X045172Y05607D02*
X04623D01*
X045027Y056215D02*
X045172Y05607D01*
X045027Y056215D02*
Y05655D01*
X04575Y0544D02*
X045926Y054224D01*
X045172Y0544D02*
X04575D01*
X045027Y054545D02*
X045172Y0544D01*
X045027Y054545D02*
Y05475D01*
X0497Y055097D02*
Y0551D01*
Y055097D02*
X049747Y05505D01*
X051031D01*
X051082Y055D01*
X0553Y0572D02*
X0624D01*
X055019Y056919D02*
X0553Y0572D01*
X055019Y055D02*
Y056919D01*
X06275Y0537D02*
Y05685D01*
X0624Y0572D02*
X06275Y05685D01*
X0624Y05335D02*
X06275Y0537D01*
X061807Y05335D02*
X0624D01*
X061707Y05325D02*
X061807Y05335D01*
X055961Y054D02*
X055964Y053997D01*
X056303D01*
X05635Y05395D01*
X055019Y054D02*
X055961D01*
X057374Y055148D02*
X05745Y055072D01*
X056726Y055148D02*
X057374D01*
X056428Y05485D02*
X056726Y055148D01*
X05635Y05485D02*
X056428D01*
X05745Y054D02*
Y055072D01*
X059497Y056D02*
X059797Y0557D01*
X058042Y056D02*
X059497D01*
X0579Y056142D02*
X058042Y056D01*
X059797Y0557D02*
X0598D01*
X06035Y05625D02*
X061707D01*
X0598Y0557D02*
X06035Y05625D01*
X060653Y05325D02*
X061707D01*
X059803Y0541D02*
X060653Y05325D01*
X0598Y0541D02*
X059803D01*
X0546Y07815D02*
X054917D01*
X04575Y0673D02*
Y0728D01*
Y060876D02*
Y0673D01*
X04585Y0672D01*
X046869D01*
X04575Y0728D02*
X046869D01*
X046813Y078644D02*
X046869Y0787D01*
X04575Y060876D02*
X045926Y0607D01*
X046869D01*
Y0597D02*
X046922Y059753D01*
X048703D01*
X04875Y0598D01*
Y0607D02*
X048797Y060747D01*
X049303D01*
X049856Y0613D01*
X050391D01*
X04775Y060876D02*
X047926Y0607D01*
X04875D01*
X04875Y0607D01*
X04775Y060876D02*
Y06221D01*
X0438Y0609D02*
Y0622D01*
X0436Y0607D02*
X0438Y0609D01*
X042931Y0607D02*
X0436D01*
X043775Y067375D02*
Y068625D01*
X0436Y0672D02*
X043775Y067375D01*
X042931Y0672D02*
X0436D01*
X043775Y068625D02*
X0438Y06865D01*
X046869Y0662D02*
X047144D01*
X047561Y065783D01*
X04875D01*
Y066683D02*
X048797Y06673D01*
X049336D01*
X049856Y06725D01*
X050391D01*
X04775Y06705D02*
X04807Y06673D01*
X048703D01*
X04875Y066683D01*
X04775Y06705D02*
Y06866D01*
X046869Y0718D02*
X046885Y071783D01*
X048733D01*
X04875Y071767D01*
X0438Y07305D02*
Y07439D01*
X04355Y0728D02*
X0438Y07305D01*
X042931Y0728D02*
X04355D01*
X050333Y073141D02*
X050391Y0732D01*
X049303Y073141D02*
X050333D01*
X048828Y072667D02*
X049303Y073141D01*
X04875Y072667D02*
X048828D01*
X048D02*
X04875D01*
X04775Y072917D02*
X048Y072667D01*
X04775Y072917D02*
Y0744D01*
X046869Y0777D02*
X046894Y077725D01*
X048725D01*
X04875Y07775D01*
X0438Y078939D02*
Y0803D01*
X043561Y0787D02*
X0438Y078939D01*
X042931Y0787D02*
X043561D01*
X049356Y07865D02*
X049856Y07915D01*
X04875Y07865D02*
X049356D01*
X04805D02*
X04875D01*
X04775Y07895D02*
X04805Y07865D01*
X04775Y07895D02*
Y0803D01*
X049856Y07915D02*
X050391D01*
X0615Y0826D02*
X0644D01*
X06115Y08295D02*
X0615Y0826D01*
X06115Y08295D02*
Y0848D01*
X05865Y08475D02*
Y085509D01*
Y0838D02*
Y08475D01*
X0587Y0848D01*
X06115D01*
X058361Y083511D02*
X05865Y0838D01*
X05685Y083511D02*
X058361D01*
X05515Y08245D02*
Y085344D01*
X05485Y08215D02*
X05515Y08245D01*
X0509Y08215D02*
X05485D01*
X05515Y085344D02*
X055326Y085519D01*
X05685D01*
X05055Y0825D02*
X0509Y08215D01*
X05055Y0825D02*
Y086455D01*
X050274Y086731D02*
X05055Y086455D01*
X04865Y086731D02*
X050274D01*
X052763Y0814D02*
X05279D01*
X0558Y08385D02*
X05607Y08412D01*
X05679D01*
X05685Y084181D01*
X046694Y086731D02*
X04865D01*
X046002Y086039D02*
X046694Y086731D01*
X0452Y086039D02*
X046002D01*
X043711D02*
X0452D01*
X043259Y086491D02*
X043711Y086039D01*
X042404Y086491D02*
X043259D01*
X040904Y08655D02*
X042345D01*
X042404Y086491D01*
X04395Y05165D02*
X04415Y05185D01*
X043367Y05165D02*
X04395D01*
X04415Y05185D02*
Y056324D01*
X043974Y0565D02*
X04415Y056324D01*
X043423Y0565D02*
X043974D01*
X043373Y05655D02*
X043423Y0565D01*
X043326Y053191D02*
X043367Y05315D01*
X04337Y053159D02*
Y054747D01*
X043373Y05475D01*
X041841Y051509D02*
X0419Y051567D01*
X040934Y051509D02*
X041841D01*
X040887Y051462D02*
X040934Y051509D01*
X040887Y05145D02*
Y051462D01*
X0419Y051567D02*
X041941Y051609D01*
X043326D01*
X043367Y05165D01*
X0419Y053233D02*
X041941Y053191D01*
X043326D01*
X045033Y05165D02*
Y05315D01*
X02792Y06145D02*
X030247D01*
X027525Y061845D02*
X02792Y06145D01*
X02365Y073952D02*
X02365Y0638D01*
X023667Y063817D01*
X024642D01*
X027067Y067383D02*
X027744D01*
X0268Y06765D02*
X027067Y067383D01*
X0268Y06765D02*
Y071098D01*
X027615Y071913D01*
X030247Y057591D02*
Y059077D01*
X024642Y076308D02*
X02635Y0746D01*
Y059676D02*
Y0746D01*
Y059676D02*
X026726Y0593D01*
X027615Y071913D02*
Y072189D01*
X0298Y08135D02*
Y082396D01*
X0308Y08135D02*
Y082396D01*
X030177Y077989D02*
X030325Y077841D01*
X027825Y073939D02*
X030325D01*
X030275Y072589D02*
Y073889D01*
X030325Y073939D01*
X027721Y073835D02*
X027825Y073939D01*
X027721Y072294D02*
Y073835D01*
X027615Y072189D02*
X027721Y072294D01*
X027744Y068289D02*
X030106D01*
X0304Y067995D01*
Y060942D02*
X030475Y060867D01*
Y060789D02*
Y060867D01*
X030281Y051341D02*
X031081D01*
X029481D02*
X030281D01*
X028391Y060789D02*
X029575D01*
X024642Y051658D02*
Y052813D01*
Y051658D02*
X024959Y051341D01*
X02845D01*
X024642Y058408D02*
X025459Y057591D01*
X028681D01*
X024642Y058408D02*
Y063029D01*
X029481Y057591D02*
Y058425D01*
X029156Y05875D02*
X029481Y058425D01*
X0261Y05875D02*
X029156D01*
X02585Y059D02*
X0261Y05875D01*
X02585Y059D02*
Y07305D01*
X025654Y073246D02*
X02585Y07305D01*
X024642Y073246D02*
X025654D01*
X02365Y073952D02*
X023731Y074033D01*
X024642D01*
Y076308D02*
Y083463D01*
X030024Y0593D02*
X030247Y059077D01*
Y057591D02*
X030281D01*
X026726Y0593D02*
X030024D01*
X024547Y053695D02*
X024642Y0536D01*
X024642Y08425D02*
X024642Y08425D01*
D113*
X05925Y0759D02*
X0637D01*
X05845Y0767D02*
X05925Y0759D01*
X05845Y0767D02*
Y07685D01*
X0637Y0759D02*
X0644Y0766D01*
X059335Y070015D02*
X0617D01*
X05845Y0709D02*
X059335Y070015D01*
X056835Y062218D02*
X0617D01*
X054917Y0603D02*
X056835Y062218D01*
X056717Y06805D02*
X06395D01*
X0644Y0676D01*
X055374Y066707D02*
X056717Y06805D01*
X0617Y0738D02*
X064146D01*
X05835D02*
X0617D01*
X056517D02*
X05835D01*
X055683Y072967D02*
X056517Y0738D01*
X064146D02*
X064346Y0736D01*
X0644D01*
X058Y0796D02*
X0644D01*
X057317Y078917D02*
X058Y0796D01*
X055683Y078917D02*
X057317D01*
X05845Y059D02*
X0588D01*
X059518Y058281D01*
X0617D01*
X064082D01*
X0644Y0586D01*
X0546Y0603D02*
X054917D01*
X063781Y062218D02*
X0644Y0616D01*
X0617Y062218D02*
X063781D01*
X05845Y06495D02*
X0588D01*
X059602Y064148D01*
X0617D01*
X062426D02*
X062427Y06415D01*
X06395D01*
X0644Y0646D01*
X0617Y064148D02*
X062426D01*
X063815Y070015D02*
X0644Y0706D01*
X0617Y070015D02*
X063815D01*
D114*
X0644Y0826D02*
D03*
Y0646D02*
D03*
Y0766D02*
D03*
Y0706D02*
D03*
Y0586D02*
D03*
D115*
Y0856D02*
D03*
Y0676D02*
D03*
Y0796D02*
D03*
Y0736D02*
D03*
Y0616D02*
D03*
D116*
X027925Y060789D02*
D03*
D117*
X0492Y0516D02*
D03*
X0522D02*
D03*
X0502D02*
D03*
X0512D02*
D03*
X05425Y051586D02*
D03*
X05725D02*
D03*
X05525D02*
D03*
X05625D02*
D03*
X06435Y0516D02*
D03*
X06735D02*
D03*
X06535D02*
D03*
X06635D02*
D03*
X0593Y051586D02*
D03*
X0623D02*
D03*
X0603D02*
D03*
X0613D02*
D03*
X0305Y085514D02*
D03*
X0275D02*
D03*
X0295D02*
D03*
X0285D02*
D03*
D118*
X061707Y05625D02*
D03*
X066707Y05325D02*
D03*
X066107Y05625D02*
D03*
X067707D02*
D03*
D119*
X061707Y05325D02*
D03*
D120*
X035776Y08475D02*
D03*
X0335D02*
D03*
D121*
X036341Y084561D02*
D03*
X032935D02*
D03*
D122*
X036341Y086207D02*
D03*
X032935D02*
D03*
D123*
X0617Y064148D02*
D03*
Y068085D02*
D03*
Y075881D02*
D03*
Y079819D02*
D03*
Y070015D02*
D03*
Y073952D02*
D03*
Y058281D02*
D03*
Y062218D02*
D03*
D124*
X06115Y0848D02*
D03*
Y086178D02*
D03*
X0452Y086039D02*
D03*
Y084661D02*
D03*
D125*
X0684Y0864D02*
D03*
X068Y0856D02*
D03*
X0684Y0848D02*
D03*
X068Y084D02*
D03*
X0684Y0832D02*
D03*
X068Y0824D02*
D03*
X0684Y0816D02*
D03*
X068Y0808D02*
D03*
X0684Y08D02*
D03*
X068Y0792D02*
D03*
X0684Y0784D02*
D03*
X068Y0776D02*
D03*
X0684Y0768D02*
D03*
X068Y076D02*
D03*
X0684Y0752D02*
D03*
X068Y0744D02*
D03*
X0684Y0736D02*
D03*
X068Y0728D02*
D03*
X0684Y072D02*
D03*
X068Y0712D02*
D03*
X0684Y0704D02*
D03*
X068Y0696D02*
D03*
X0684Y0688D02*
D03*
X068Y068D02*
D03*
X0684Y0672D02*
D03*
X068Y0664D02*
D03*
X0684Y0656D02*
D03*
X068Y0648D02*
D03*
X0684Y064D02*
D03*
X068Y0632D02*
D03*
X0684Y0624D02*
D03*
X068Y0616D02*
D03*
X0684Y0608D02*
D03*
X068Y06D02*
D03*
X0684Y0592D02*
D03*
X068Y0584D02*
D03*
X0684Y0576D02*
D03*
X068Y0568D02*
D03*
X0684Y056D02*
D03*
Y0544D02*
D03*
Y0528D02*
D03*
Y0512D02*
D03*
X068Y0504D02*
D03*
X0676Y0864D02*
D03*
X0672Y0856D02*
D03*
X0676Y0848D02*
D03*
X0672Y084D02*
D03*
X0676Y0832D02*
D03*
X0672Y0824D02*
D03*
X0676Y0816D02*
D03*
X0672Y0808D02*
D03*
X0676Y08D02*
D03*
X0672Y0792D02*
D03*
X0676Y0784D02*
D03*
X0672Y0776D02*
D03*
X0676Y0768D02*
D03*
X0672Y076D02*
D03*
X0676Y0752D02*
D03*
X0672Y0744D02*
D03*
X0676Y0736D02*
D03*
X0672Y0728D02*
D03*
X0676Y072D02*
D03*
X0672Y0712D02*
D03*
X0676Y0704D02*
D03*
X0672Y0696D02*
D03*
X0676Y0688D02*
D03*
X0672Y068D02*
D03*
X0676Y0672D02*
D03*
X0672Y0664D02*
D03*
X0676Y0656D02*
D03*
X0672Y0648D02*
D03*
X0676Y064D02*
D03*
X0672Y0632D02*
D03*
X0676Y0624D02*
D03*
X0672Y0616D02*
D03*
X0676Y0608D02*
D03*
X0672Y06D02*
D03*
X0676Y0592D02*
D03*
X0672Y0584D02*
D03*
X0676Y0576D02*
D03*
X0672Y0568D02*
D03*
Y0552D02*
D03*
Y0504D02*
D03*
X0668Y0864D02*
D03*
X0664Y0856D02*
D03*
X0668Y0848D02*
D03*
X0664Y084D02*
D03*
X0668Y0832D02*
D03*
X0664Y0824D02*
D03*
X0668Y0816D02*
D03*
X0664Y0808D02*
D03*
X0668Y08D02*
D03*
X0664Y0792D02*
D03*
X0668Y0784D02*
D03*
X0664Y0776D02*
D03*
X0668Y0768D02*
D03*
X0664Y076D02*
D03*
X0668Y0752D02*
D03*
X0664Y0744D02*
D03*
X0668Y0736D02*
D03*
X0664Y0728D02*
D03*
X0668Y072D02*
D03*
X0664Y0712D02*
D03*
X0668Y0704D02*
D03*
X0664Y0696D02*
D03*
X0668Y0688D02*
D03*
X0664Y068D02*
D03*
X0668Y0672D02*
D03*
X0664Y0664D02*
D03*
X0668Y0656D02*
D03*
X0664Y0648D02*
D03*
X0668Y064D02*
D03*
X0664Y0632D02*
D03*
X0668Y0624D02*
D03*
X0664Y0616D02*
D03*
X0668Y0608D02*
D03*
X0664Y06D02*
D03*
X0668Y0592D02*
D03*
X0664Y0584D02*
D03*
X0668Y0576D02*
D03*
X0664Y0568D02*
D03*
X0668Y056D02*
D03*
X0664Y0552D02*
D03*
X0668Y0544D02*
D03*
Y0512D02*
D03*
X066Y0864D02*
D03*
X0656Y0856D02*
D03*
X066Y0848D02*
D03*
X0656Y084D02*
D03*
X066Y0832D02*
D03*
X0656Y0824D02*
D03*
X066Y0816D02*
D03*
X0656Y0808D02*
D03*
X066Y08D02*
D03*
X0656Y0792D02*
D03*
X066Y0784D02*
D03*
X0656Y0776D02*
D03*
X066Y0768D02*
D03*
X0656Y076D02*
D03*
X066Y0752D02*
D03*
X0656Y0744D02*
D03*
X066Y0736D02*
D03*
X0656Y0728D02*
D03*
X066Y072D02*
D03*
X0656Y0712D02*
D03*
X066Y0704D02*
D03*
X0656Y0696D02*
D03*
X066Y0688D02*
D03*
X0656Y068D02*
D03*
X066Y0672D02*
D03*
X0656Y0664D02*
D03*
X066Y0656D02*
D03*
X0656Y0648D02*
D03*
X066Y064D02*
D03*
X0656Y0632D02*
D03*
X066Y0624D02*
D03*
X0656Y0616D02*
D03*
X066Y0608D02*
D03*
X0656Y06D02*
D03*
X066Y0592D02*
D03*
X0656Y0584D02*
D03*
X066Y0576D02*
D03*
X0656Y0568D02*
D03*
Y0552D02*
D03*
X066Y0544D02*
D03*
Y0512D02*
D03*
X0652Y0864D02*
D03*
Y0848D02*
D03*
X0648Y084D02*
D03*
X0652Y0832D02*
D03*
Y0816D02*
D03*
X0648Y0808D02*
D03*
X0652Y08D02*
D03*
Y0784D02*
D03*
X0648Y0776D02*
D03*
X0652Y0768D02*
D03*
Y0752D02*
D03*
X0648Y0744D02*
D03*
X0652Y0736D02*
D03*
X0648Y0728D02*
D03*
X0652Y072D02*
D03*
Y0704D02*
D03*
X0648Y0696D02*
D03*
X0652Y0688D02*
D03*
Y0672D02*
D03*
X0648Y0664D02*
D03*
X0652Y0656D02*
D03*
Y064D02*
D03*
X0648Y0632D02*
D03*
X0652Y0624D02*
D03*
Y0608D02*
D03*
X0648Y06D02*
D03*
X0652Y0592D02*
D03*
Y0576D02*
D03*
Y056D02*
D03*
Y0544D02*
D03*
X0648Y052D02*
D03*
X0644Y0864D02*
D03*
Y0848D02*
D03*
X064Y084D02*
D03*
X0644Y0816D02*
D03*
X064Y0808D02*
D03*
X0644Y0784D02*
D03*
X064Y0776D02*
D03*
X0644Y0752D02*
D03*
X064Y0728D02*
D03*
X0644Y072D02*
D03*
Y0688D02*
D03*
X064Y0664D02*
D03*
X0644Y0656D02*
D03*
X064Y0632D02*
D03*
X0644Y0608D02*
D03*
X064Y06D02*
D03*
X0644Y0528D02*
D03*
X0636Y0864D02*
D03*
X0632Y0856D02*
D03*
X0636Y0848D02*
D03*
X0632Y084D02*
D03*
X0636Y0816D02*
D03*
X0632Y0808D02*
D03*
X0636Y0784D02*
D03*
X0632Y0776D02*
D03*
X0636Y0752D02*
D03*
X0632Y0728D02*
D03*
X0636Y072D02*
D03*
Y0688D02*
D03*
Y0672D02*
D03*
X0632Y0664D02*
D03*
X0636Y0656D02*
D03*
X0632Y0632D02*
D03*
X0636Y0608D02*
D03*
X0632Y06D02*
D03*
Y0568D02*
D03*
X0636Y056D02*
D03*
X0632Y0552D02*
D03*
X0636Y0544D02*
D03*
X0632Y0536D02*
D03*
X0636Y0528D02*
D03*
X0632Y052D02*
D03*
X0636Y0512D02*
D03*
X0628Y0864D02*
D03*
X0624Y0856D02*
D03*
X0628Y0848D02*
D03*
X0624Y084D02*
D03*
X0628Y0816D02*
D03*
X0624Y0808D02*
D03*
X0628Y0784D02*
D03*
X0624Y0776D02*
D03*
X0628Y0752D02*
D03*
X0624Y0728D02*
D03*
X0628Y072D02*
D03*
Y0688D02*
D03*
Y0672D02*
D03*
X0624Y0664D02*
D03*
X0628Y0656D02*
D03*
X0624Y0632D02*
D03*
X0628Y0608D02*
D03*
X0624Y06D02*
D03*
Y0552D02*
D03*
X0628Y0528D02*
D03*
Y0512D02*
D03*
X062Y0864D02*
D03*
X0616Y0856D02*
D03*
X062Y0848D02*
D03*
X0616Y084D02*
D03*
X062Y0816D02*
D03*
X0616Y0808D02*
D03*
X062Y0784D02*
D03*
X0616Y0776D02*
D03*
X062Y0752D02*
D03*
X0616Y0728D02*
D03*
X062Y072D02*
D03*
X0616Y0712D02*
D03*
X062Y0688D02*
D03*
Y0672D02*
D03*
X0616Y0664D02*
D03*
X062Y0656D02*
D03*
X0616Y0632D02*
D03*
X062Y0608D02*
D03*
X0616Y06D02*
D03*
Y0552D02*
D03*
X062Y0544D02*
D03*
X0616Y052D02*
D03*
X0608Y0856D02*
D03*
X0612Y0816D02*
D03*
Y0784D02*
D03*
Y0768D02*
D03*
Y072D02*
D03*
Y0688D02*
D03*
Y0672D02*
D03*
Y0656D02*
D03*
Y0608D02*
D03*
Y0592D02*
D03*
X0608Y0568D02*
D03*
Y0552D02*
D03*
X0612Y0544D02*
D03*
X0608Y0536D02*
D03*
Y052D02*
D03*
X0604Y0864D02*
D03*
X06Y0856D02*
D03*
Y0568D02*
D03*
X0604Y0528D02*
D03*
X06Y052D02*
D03*
X0596Y0864D02*
D03*
X0592Y084D02*
D03*
X0596Y0832D02*
D03*
X0592Y0824D02*
D03*
X0596Y0816D02*
D03*
X0592Y0808D02*
D03*
X0596Y0784D02*
D03*
X0592Y0776D02*
D03*
X0596Y0768D02*
D03*
Y0752D02*
D03*
X0592Y0728D02*
D03*
X0596Y072D02*
D03*
Y0688D02*
D03*
Y0672D02*
D03*
X0592Y0664D02*
D03*
X0596Y0656D02*
D03*
X0592Y0632D02*
D03*
X0596Y0608D02*
D03*
X0592Y06D02*
D03*
X0596Y0592D02*
D03*
X0592Y0568D02*
D03*
X0596Y0528D02*
D03*
X0588Y0832D02*
D03*
X0584Y0824D02*
D03*
X0588Y0816D02*
D03*
X0584Y0808D02*
D03*
X0588Y0784D02*
D03*
X0584Y0776D02*
D03*
X0588Y0752D02*
D03*
X0584Y0728D02*
D03*
X0588Y072D02*
D03*
X0584Y0696D02*
D03*
X0588Y0688D02*
D03*
X0584Y0664D02*
D03*
Y0632D02*
D03*
X0588Y0608D02*
D03*
X0584Y06D02*
D03*
X0588Y0576D02*
D03*
X0584Y0568D02*
D03*
X0588Y0544D02*
D03*
Y0528D02*
D03*
X0584Y052D02*
D03*
X0588Y0512D02*
D03*
X058Y0864D02*
D03*
X0576Y0856D02*
D03*
X058Y0848D02*
D03*
X0576Y084D02*
D03*
Y0824D02*
D03*
X058Y0816D02*
D03*
X0576Y0808D02*
D03*
X058Y0784D02*
D03*
X0576Y0776D02*
D03*
Y076D02*
D03*
X058Y0752D02*
D03*
X0576Y0728D02*
D03*
X058Y072D02*
D03*
X0576Y0696D02*
D03*
X058Y0688D02*
D03*
X0576Y0664D02*
D03*
X058Y0656D02*
D03*
Y064D02*
D03*
X0576Y0632D02*
D03*
X058Y0608D02*
D03*
X0576Y06D02*
D03*
Y0584D02*
D03*
X058Y0576D02*
D03*
X0576Y0568D02*
D03*
X058Y0544D02*
D03*
Y0528D02*
D03*
X0576Y052D02*
D03*
X058Y0512D02*
D03*
X0572Y0816D02*
D03*
Y08D02*
D03*
X0568Y0776D02*
D03*
X0572Y0768D02*
D03*
X0568Y076D02*
D03*
X0572Y0752D02*
D03*
X0568Y0728D02*
D03*
X0572Y072D02*
D03*
X0568Y0712D02*
D03*
X0572Y0704D02*
D03*
X0568Y0696D02*
D03*
X0572Y0688D02*
D03*
Y0672D02*
D03*
X0568Y0664D02*
D03*
X0572Y0656D02*
D03*
X0568Y0648D02*
D03*
X0572Y064D02*
D03*
X0568Y0632D02*
D03*
X0572Y0608D02*
D03*
X0568Y06D02*
D03*
X0572Y0592D02*
D03*
X0568Y0584D02*
D03*
X0572Y0576D02*
D03*
X0568Y0568D02*
D03*
X0572Y056D02*
D03*
X0568Y0536D02*
D03*
X0572Y0528D02*
D03*
X0568Y052D02*
D03*
X0564Y08D02*
D03*
Y0768D02*
D03*
X056Y076D02*
D03*
X0564Y0752D02*
D03*
X056Y0744D02*
D03*
X0564Y072D02*
D03*
Y0704D02*
D03*
X056Y0696D02*
D03*
X0564Y0688D02*
D03*
Y0656D02*
D03*
X056Y0648D02*
D03*
X0564Y064D02*
D03*
X056Y0632D02*
D03*
X0564Y0608D02*
D03*
Y0592D02*
D03*
X056Y0584D02*
D03*
X0564Y0576D02*
D03*
X056Y0568D02*
D03*
X0564Y056D02*
D03*
Y0544D02*
D03*
Y0528D02*
D03*
X056Y052D02*
D03*
X0556Y0864D02*
D03*
Y0848D02*
D03*
X0552Y076D02*
D03*
X0556Y0752D02*
D03*
X0552Y0744D02*
D03*
X0556Y0704D02*
D03*
X0552Y0696D02*
D03*
X0556Y0688D02*
D03*
X0552Y068D02*
D03*
Y0648D02*
D03*
X0556Y064D02*
D03*
X0552Y0632D02*
D03*
X0556Y0624D02*
D03*
X0552Y0584D02*
D03*
X0556Y0576D02*
D03*
Y056D02*
D03*
Y0544D02*
D03*
Y0528D02*
D03*
Y0512D02*
D03*
X0548Y0864D02*
D03*
Y0848D02*
D03*
Y0832D02*
D03*
X0544Y076D02*
D03*
X0548Y0752D02*
D03*
X0544Y0744D02*
D03*
X0548Y0704D02*
D03*
X0544Y0696D02*
D03*
X0548Y0688D02*
D03*
X0544Y068D02*
D03*
Y0648D02*
D03*
X0548Y064D02*
D03*
X0544Y0632D02*
D03*
X0548Y0624D02*
D03*
X0544Y0584D02*
D03*
X0548Y0576D02*
D03*
X0544Y0568D02*
D03*
Y0536D02*
D03*
X0548Y0528D02*
D03*
Y0512D02*
D03*
X0536Y076D02*
D03*
X054Y0752D02*
D03*
X0536Y0744D02*
D03*
X054Y0704D02*
D03*
X0536Y0696D02*
D03*
X054Y0688D02*
D03*
X0536Y068D02*
D03*
Y0648D02*
D03*
X054Y064D02*
D03*
X0536Y0632D02*
D03*
X054Y0624D02*
D03*
X0536Y0584D02*
D03*
X054Y0576D02*
D03*
X0536Y0568D02*
D03*
X054Y056D02*
D03*
X0536Y0552D02*
D03*
X054Y0544D02*
D03*
X0536Y0536D02*
D03*
X054Y0528D02*
D03*
X0536Y052D02*
D03*
X0528Y0792D02*
D03*
Y0776D02*
D03*
Y076D02*
D03*
X0532Y0752D02*
D03*
X0528Y0744D02*
D03*
Y0728D02*
D03*
Y0712D02*
D03*
X0532Y0704D02*
D03*
X0528Y0696D02*
D03*
X0532Y0688D02*
D03*
X0528Y068D02*
D03*
Y0664D02*
D03*
Y0648D02*
D03*
X0532Y064D02*
D03*
X0528Y0632D02*
D03*
X0532Y0624D02*
D03*
X0528Y0616D02*
D03*
Y06D02*
D03*
Y0584D02*
D03*
X0532Y0576D02*
D03*
X0528Y0568D02*
D03*
X0532Y056D02*
D03*
X0528Y0552D02*
D03*
X0532Y0544D02*
D03*
X0528Y0536D02*
D03*
X0532Y0528D02*
D03*
X0528Y052D02*
D03*
X0532Y0512D02*
D03*
X052Y0792D02*
D03*
X0524Y0784D02*
D03*
X052Y0776D02*
D03*
X0524Y0768D02*
D03*
X052Y076D02*
D03*
X0524Y0752D02*
D03*
X052Y0744D02*
D03*
X0524Y0736D02*
D03*
X052Y0728D02*
D03*
X0524Y072D02*
D03*
X052Y0712D02*
D03*
X0524Y0704D02*
D03*
X052Y0696D02*
D03*
X0524Y0688D02*
D03*
X052Y068D02*
D03*
X0524Y0672D02*
D03*
X052Y0664D02*
D03*
X0524Y0656D02*
D03*
X052Y0648D02*
D03*
X0524Y064D02*
D03*
X052Y0632D02*
D03*
X0524Y0624D02*
D03*
X052Y0616D02*
D03*
X0524Y0608D02*
D03*
X052Y06D02*
D03*
X0524Y0592D02*
D03*
X052Y0584D02*
D03*
X0524Y0576D02*
D03*
X052Y0568D02*
D03*
X0524Y056D02*
D03*
X052Y0552D02*
D03*
X0524Y0544D02*
D03*
X052Y0536D02*
D03*
X0524Y0528D02*
D03*
X0516Y08D02*
D03*
Y0784D02*
D03*
X0512Y0776D02*
D03*
X0516Y0768D02*
D03*
X0512Y076D02*
D03*
X0516Y0752D02*
D03*
X0512Y0744D02*
D03*
X0516Y0736D02*
D03*
X0512Y0728D02*
D03*
X0516Y072D02*
D03*
Y0704D02*
D03*
X0512Y0696D02*
D03*
X0516Y0688D02*
D03*
X0512Y068D02*
D03*
X0516Y0672D02*
D03*
X0512Y0664D02*
D03*
X0516Y0656D02*
D03*
X0512Y0648D02*
D03*
X0516Y064D02*
D03*
X0512Y0632D02*
D03*
X0516Y0624D02*
D03*
Y0608D02*
D03*
X0512Y06D02*
D03*
X0516Y0592D02*
D03*
X0512Y0584D02*
D03*
X0516Y0576D02*
D03*
X0512Y0568D02*
D03*
X0516Y056D02*
D03*
Y0544D02*
D03*
Y0528D02*
D03*
Y0512D02*
D03*
X0508Y08D02*
D03*
Y0784D02*
D03*
X0504Y0776D02*
D03*
Y076D02*
D03*
X0508Y0752D02*
D03*
X0504Y0744D02*
D03*
X0508Y0736D02*
D03*
X0504Y0728D02*
D03*
X0508Y072D02*
D03*
Y0704D02*
D03*
X0504Y0696D02*
D03*
X0508Y0688D02*
D03*
X0504Y068D02*
D03*
Y0664D02*
D03*
Y0648D02*
D03*
X0508Y064D02*
D03*
X0504Y0632D02*
D03*
X0508Y0624D02*
D03*
Y0608D02*
D03*
X0504Y06D02*
D03*
Y0584D02*
D03*
X0508Y0576D02*
D03*
X0504Y0568D02*
D03*
X0508Y056D02*
D03*
X0504Y0536D02*
D03*
X0508Y0528D02*
D03*
Y0512D02*
D03*
X0496Y084D02*
D03*
X05Y0832D02*
D03*
X0496Y0824D02*
D03*
X05Y08D02*
D03*
Y0784D02*
D03*
X0496Y0776D02*
D03*
Y076D02*
D03*
X05Y0752D02*
D03*
X0496Y0744D02*
D03*
X05Y0736D02*
D03*
X0496Y0728D02*
D03*
X05Y072D02*
D03*
Y0704D02*
D03*
X0496Y0696D02*
D03*
X05Y0688D02*
D03*
X0496Y068D02*
D03*
Y0664D02*
D03*
Y0648D02*
D03*
X05Y064D02*
D03*
X0496Y0632D02*
D03*
X05Y0624D02*
D03*
Y0608D02*
D03*
X0496Y06D02*
D03*
Y0584D02*
D03*
X05Y0576D02*
D03*
X0496Y0568D02*
D03*
X05Y056D02*
D03*
Y0544D02*
D03*
X0496Y0536D02*
D03*
X05Y0528D02*
D03*
X0492Y0832D02*
D03*
Y08D02*
D03*
X0488Y0792D02*
D03*
X0492Y0768D02*
D03*
X0488Y076D02*
D03*
X0492Y0752D02*
D03*
Y0736D02*
D03*
X0488Y0712D02*
D03*
X0492Y0704D02*
D03*
X0488Y0696D02*
D03*
X0492Y0688D02*
D03*
X0488Y068D02*
D03*
X0492Y0672D02*
D03*
X0488Y0648D02*
D03*
X0492Y064D02*
D03*
X0488Y0632D02*
D03*
X0492Y0624D02*
D03*
X0488Y0616D02*
D03*
X0492Y0592D02*
D03*
Y0576D02*
D03*
Y056D02*
D03*
Y0544D02*
D03*
X0488Y0536D02*
D03*
X0492Y0528D02*
D03*
X0488Y052D02*
D03*
X048Y084D02*
D03*
Y0824D02*
D03*
X0484Y0816D02*
D03*
Y0768D02*
D03*
X048Y076D02*
D03*
X0484Y0752D02*
D03*
Y0736D02*
D03*
X048Y0712D02*
D03*
X0484Y0704D02*
D03*
X048Y0696D02*
D03*
X0484Y0672D02*
D03*
X048Y0664D02*
D03*
Y0648D02*
D03*
X0484Y064D02*
D03*
X048Y0632D02*
D03*
Y0584D02*
D03*
X0484Y0576D02*
D03*
X048Y0568D02*
D03*
X0484Y056D02*
D03*
X048Y0552D02*
D03*
X0484Y0544D02*
D03*
X048Y0536D02*
D03*
X0484Y0528D02*
D03*
X048Y052D02*
D03*
X0484Y0512D02*
D03*
X0472Y084D02*
D03*
X0476Y0832D02*
D03*
X0472Y0824D02*
D03*
X0476Y0816D02*
D03*
X0472Y0792D02*
D03*
X0476Y0784D02*
D03*
Y0768D02*
D03*
X0472Y076D02*
D03*
X0476Y0752D02*
D03*
X0472Y0744D02*
D03*
Y0712D02*
D03*
X0476Y0704D02*
D03*
X0472Y0696D02*
D03*
Y068D02*
D03*
Y0648D02*
D03*
X0476Y064D02*
D03*
X0472Y0632D02*
D03*
Y0616D02*
D03*
Y0584D02*
D03*
X0476Y0576D02*
D03*
X0472Y0568D02*
D03*
X0476Y056D02*
D03*
X0472Y0552D02*
D03*
X0476Y0544D02*
D03*
X0472Y0536D02*
D03*
X0476Y0528D02*
D03*
X0472Y052D02*
D03*
X0476Y0512D02*
D03*
X0464Y0856D02*
D03*
X0468Y0848D02*
D03*
X0464Y084D02*
D03*
X0468Y0832D02*
D03*
X0464Y0824D02*
D03*
X0468Y0816D02*
D03*
Y08D02*
D03*
X0464Y0792D02*
D03*
X0468Y0768D02*
D03*
X0464Y076D02*
D03*
X0468Y0752D02*
D03*
X0464Y0744D02*
D03*
X0468Y0736D02*
D03*
X0464Y0712D02*
D03*
X0468Y0704D02*
D03*
X0464Y0696D02*
D03*
X0468Y0688D02*
D03*
X0464Y068D02*
D03*
X0468Y0656D02*
D03*
X0464Y0648D02*
D03*
X0468Y064D02*
D03*
X0464Y0632D02*
D03*
X0468Y0624D02*
D03*
X0464Y0616D02*
D03*
Y0584D02*
D03*
X0468Y0576D02*
D03*
X0464Y0568D02*
D03*
X0468Y056D02*
D03*
Y0512D02*
D03*
X0456Y0856D02*
D03*
X046Y0848D02*
D03*
X0456Y084D02*
D03*
X046Y0832D02*
D03*
X0456Y0824D02*
D03*
X046Y0816D02*
D03*
X0456Y06D02*
D03*
Y0584D02*
D03*
X046Y0576D02*
D03*
X0456Y0568D02*
D03*
Y0552D02*
D03*
Y0504D02*
D03*
X0448Y0856D02*
D03*
Y084D02*
D03*
X0452Y0832D02*
D03*
X0448Y0824D02*
D03*
X0452Y0816D02*
D03*
X0448Y0808D02*
D03*
X0452Y08D02*
D03*
X0448Y0792D02*
D03*
X0452Y0784D02*
D03*
X0448Y0776D02*
D03*
X0452Y0768D02*
D03*
X0448Y076D02*
D03*
X0452Y0752D02*
D03*
X0448Y0744D02*
D03*
X0452Y0736D02*
D03*
X0448Y0728D02*
D03*
X0452Y072D02*
D03*
X0448Y0712D02*
D03*
X0452Y0704D02*
D03*
X0448Y0696D02*
D03*
X0452Y0688D02*
D03*
X0448Y068D02*
D03*
X0452Y0672D02*
D03*
X0448Y0664D02*
D03*
X0452Y0656D02*
D03*
X0448Y0648D02*
D03*
X0452Y064D02*
D03*
X0448Y0632D02*
D03*
X0452Y0624D02*
D03*
X0448Y0616D02*
D03*
X0452Y0608D02*
D03*
X0448Y06D02*
D03*
Y0584D02*
D03*
X0452Y0576D02*
D03*
X0444Y0864D02*
D03*
X044Y0856D02*
D03*
X0444Y0848D02*
D03*
X044Y084D02*
D03*
X0444Y0832D02*
D03*
X044Y0824D02*
D03*
X0444Y0816D02*
D03*
X044Y0808D02*
D03*
X0444Y08D02*
D03*
Y0784D02*
D03*
X044Y0776D02*
D03*
X0444Y0768D02*
D03*
X044Y076D02*
D03*
X0444Y0752D02*
D03*
Y0736D02*
D03*
Y072D02*
D03*
X044Y0712D02*
D03*
X0444Y0704D02*
D03*
X044Y0696D02*
D03*
X0444Y0688D02*
D03*
Y0672D02*
D03*
X044Y0664D02*
D03*
X0444Y0656D02*
D03*
X044Y0648D02*
D03*
X0444Y064D02*
D03*
X044Y0632D02*
D03*
X0444Y0624D02*
D03*
Y0608D02*
D03*
X044Y06D02*
D03*
Y0584D02*
D03*
X0444Y0576D02*
D03*
Y0512D02*
D03*
X0432Y0856D02*
D03*
X0436Y0848D02*
D03*
X0432Y084D02*
D03*
X0436Y0832D02*
D03*
X0432Y0824D02*
D03*
X0436Y0816D02*
D03*
X0432Y0808D02*
D03*
Y0792D02*
D03*
X0436Y0768D02*
D03*
X0432Y076D02*
D03*
X0436Y0752D02*
D03*
Y072D02*
D03*
X0432Y0712D02*
D03*
X0436Y0704D02*
D03*
X0432Y0696D02*
D03*
Y068D02*
D03*
X0436Y0656D02*
D03*
X0432Y0648D02*
D03*
X0436Y064D02*
D03*
X0432Y0632D02*
D03*
Y0616D02*
D03*
X0436Y0576D02*
D03*
X0428Y0848D02*
D03*
Y0832D02*
D03*
Y0816D02*
D03*
X0424Y0792D02*
D03*
X0428Y0768D02*
D03*
X0424Y076D02*
D03*
X0428Y0752D02*
D03*
Y0736D02*
D03*
X0424Y0712D02*
D03*
X0428Y0704D02*
D03*
X0424Y0696D02*
D03*
Y068D02*
D03*
X0428Y0656D02*
D03*
X0424Y0648D02*
D03*
X0428Y064D02*
D03*
X0424Y0632D02*
D03*
Y0616D02*
D03*
Y06D02*
D03*
X0428Y0512D02*
D03*
X0416Y0856D02*
D03*
X042Y0848D02*
D03*
Y0832D02*
D03*
Y08D02*
D03*
Y0784D02*
D03*
Y0768D02*
D03*
Y0752D02*
D03*
X0416Y0712D02*
D03*
X042Y0608D02*
D03*
Y0576D02*
D03*
X0412Y0848D02*
D03*
Y0704D02*
D03*
X0408Y0664D02*
D03*
Y0648D02*
D03*
Y0632D02*
D03*
Y0616D02*
D03*
Y06D02*
D03*
X0412Y0592D02*
D03*
Y0576D02*
D03*
X04Y0856D02*
D03*
X0404Y0848D02*
D03*
Y0832D02*
D03*
Y08D02*
D03*
X04Y0792D02*
D03*
X0404Y0784D02*
D03*
X04Y0776D02*
D03*
X0404Y0768D02*
D03*
X04Y076D02*
D03*
X0404Y0752D02*
D03*
X04Y0744D02*
D03*
X0404Y0736D02*
D03*
Y072D02*
D03*
Y0704D02*
D03*
Y0624D02*
D03*
Y0608D02*
D03*
X04Y06D02*
D03*
X0404Y0592D02*
D03*
Y0576D02*
D03*
X0396Y0848D02*
D03*
X0392Y0808D02*
D03*
X0396Y0768D02*
D03*
X0392Y076D02*
D03*
X0396Y0752D02*
D03*
Y0736D02*
D03*
X0392Y0632D02*
D03*
Y06D02*
D03*
X0396Y0592D02*
D03*
Y0576D02*
D03*
X0392Y0568D02*
D03*
X0388Y0864D02*
D03*
Y0848D02*
D03*
X0384Y084D02*
D03*
Y0808D02*
D03*
Y0792D02*
D03*
X0388Y0768D02*
D03*
X0384Y076D02*
D03*
X0388Y0752D02*
D03*
X0384Y0696D02*
D03*
X0388Y0688D02*
D03*
X0384Y068D02*
D03*
X0388Y0672D02*
D03*
X0384Y0664D02*
D03*
X0388Y0656D02*
D03*
X0384Y0648D02*
D03*
Y0632D02*
D03*
Y06D02*
D03*
X0388Y0592D02*
D03*
Y0576D02*
D03*
X038Y0864D02*
D03*
Y0848D02*
D03*
Y0784D02*
D03*
X0376Y0696D02*
D03*
X038Y0688D02*
D03*
X0376Y068D02*
D03*
X038Y0672D02*
D03*
X0376Y0648D02*
D03*
Y0632D02*
D03*
Y06D02*
D03*
X038Y0592D02*
D03*
Y0576D02*
D03*
Y0512D02*
D03*
X0372Y0864D02*
D03*
Y0848D02*
D03*
X0368Y084D02*
D03*
X0372Y0832D02*
D03*
Y0752D02*
D03*
X0368Y0744D02*
D03*
X0372Y0736D02*
D03*
X0368Y0696D02*
D03*
X0372Y0688D02*
D03*
X0368Y068D02*
D03*
X0372Y0672D02*
D03*
X0368Y0648D02*
D03*
Y0632D02*
D03*
Y06D02*
D03*
X0372Y0592D02*
D03*
Y0576D02*
D03*
X036Y0808D02*
D03*
X0364Y0752D02*
D03*
X036Y0696D02*
D03*
X0364Y0688D02*
D03*
X036Y068D02*
D03*
X0364Y0672D02*
D03*
X036Y0664D02*
D03*
Y0648D02*
D03*
Y0632D02*
D03*
Y06D02*
D03*
X0364Y0592D02*
D03*
Y0576D02*
D03*
X0356Y0864D02*
D03*
Y0576D02*
D03*
X0348Y0864D02*
D03*
X0344Y0776D02*
D03*
Y0696D02*
D03*
Y0664D02*
D03*
Y0632D02*
D03*
Y06D02*
D03*
Y0584D02*
D03*
X0348Y0576D02*
D03*
X034Y0864D02*
D03*
Y0816D02*
D03*
X0336Y0776D02*
D03*
Y0696D02*
D03*
X034Y0672D02*
D03*
X0336Y0664D02*
D03*
X034Y0656D02*
D03*
X0336Y0632D02*
D03*
Y06D02*
D03*
X034Y0592D02*
D03*
X0336Y0584D02*
D03*
X034Y0576D02*
D03*
X0328Y084D02*
D03*
Y0824D02*
D03*
X0332Y0816D02*
D03*
Y0704D02*
D03*
X0328Y0616D02*
D03*
Y06D02*
D03*
X0332Y0592D02*
D03*
X0328Y0584D02*
D03*
X0332Y0576D02*
D03*
X0328Y0568D02*
D03*
Y0552D02*
D03*
Y0536D02*
D03*
X0332Y0512D02*
D03*
X0324Y0864D02*
D03*
Y0704D02*
D03*
Y0688D02*
D03*
X032Y068D02*
D03*
Y0664D02*
D03*
X0324Y0624D02*
D03*
Y0608D02*
D03*
Y0592D02*
D03*
Y0576D02*
D03*
Y056D02*
D03*
Y0544D02*
D03*
Y0512D02*
D03*
X0312Y0856D02*
D03*
X0316Y0848D02*
D03*
X0312Y0664D02*
D03*
Y0648D02*
D03*
Y0632D02*
D03*
Y0616D02*
D03*
X0308Y0848D02*
D03*
Y0768D02*
D03*
Y072D02*
D03*
Y0704D02*
D03*
Y0688D02*
D03*
Y0672D02*
D03*
Y0656D02*
D03*
X0304Y06D02*
D03*
X03Y0848D02*
D03*
X0296Y076D02*
D03*
Y0744D02*
D03*
Y0728D02*
D03*
Y0712D02*
D03*
Y0696D02*
D03*
X03Y0672D02*
D03*
X0296Y0664D02*
D03*
X03Y0656D02*
D03*
Y064D02*
D03*
X0296Y0632D02*
D03*
X03Y0608D02*
D03*
X0296Y06D02*
D03*
X0292Y0848D02*
D03*
X0288Y084D02*
D03*
X0292Y0816D02*
D03*
Y08D02*
D03*
X0288Y0792D02*
D03*
X0292Y0784D02*
D03*
X0288Y0776D02*
D03*
Y076D02*
D03*
X0292Y0752D02*
D03*
X0288Y0744D02*
D03*
X0292Y0736D02*
D03*
X0288Y0712D02*
D03*
X0292Y0704D02*
D03*
X0288Y0696D02*
D03*
X0292Y0688D02*
D03*
Y0672D02*
D03*
X0288Y0664D02*
D03*
X0292Y0656D02*
D03*
X0288Y0648D02*
D03*
X0292Y064D02*
D03*
X0288Y0632D02*
D03*
Y06D02*
D03*
Y0584D02*
D03*
X028Y0856D02*
D03*
Y084D02*
D03*
X0284Y0816D02*
D03*
Y08D02*
D03*
X028Y0792D02*
D03*
X0284Y072D02*
D03*
X028Y0712D02*
D03*
X0284Y0704D02*
D03*
X028Y0696D02*
D03*
X0284Y0688D02*
D03*
Y0672D02*
D03*
X028Y0664D02*
D03*
X0284Y0656D02*
D03*
Y064D02*
D03*
X028Y0632D02*
D03*
X0284Y0624D02*
D03*
X028Y06D02*
D03*
Y0584D02*
D03*
Y0568D02*
D03*
X0284Y056D02*
D03*
X028Y0552D02*
D03*
X0284Y0544D02*
D03*
X028Y0536D02*
D03*
X0284Y0528D02*
D03*
X0272Y0808D02*
D03*
X0276Y08D02*
D03*
X0272Y0792D02*
D03*
Y076D02*
D03*
X0276Y0704D02*
D03*
X0272Y0696D02*
D03*
X0276Y0688D02*
D03*
X0272Y0664D02*
D03*
X0276Y0656D02*
D03*
Y064D02*
D03*
X0272Y0632D02*
D03*
Y06D02*
D03*
Y0584D02*
D03*
Y0568D02*
D03*
X0276Y056D02*
D03*
X0272Y0552D02*
D03*
X0276Y0544D02*
D03*
X0272Y0536D02*
D03*
X0276Y0528D02*
D03*
X0268Y0848D02*
D03*
Y0832D02*
D03*
Y0816D02*
D03*
Y08D02*
D03*
Y0784D02*
D03*
X0264Y076D02*
D03*
X0268Y0752D02*
D03*
Y0736D02*
D03*
Y072D02*
D03*
Y0656D02*
D03*
Y064D02*
D03*
Y0624D02*
D03*
Y0608D02*
D03*
X0264Y0584D02*
D03*
Y0568D02*
D03*
X0268Y056D02*
D03*
X0264Y0552D02*
D03*
X0268Y0544D02*
D03*
X0264Y0536D02*
D03*
X0268Y0528D02*
D03*
X0256Y0856D02*
D03*
Y084D02*
D03*
Y0824D02*
D03*
Y0808D02*
D03*
Y0792D02*
D03*
Y0776D02*
D03*
X026Y0768D02*
D03*
X0256Y076D02*
D03*
Y0744D02*
D03*
X026Y0736D02*
D03*
X0256Y0584D02*
D03*
Y0568D02*
D03*
X026Y056D02*
D03*
X0256Y0552D02*
D03*
X026Y0544D02*
D03*
Y0528D02*
D03*
X0248Y0856D02*
D03*
X0252Y0816D02*
D03*
Y08D02*
D03*
Y0784D02*
D03*
Y0768D02*
D03*
Y0752D02*
D03*
X0248Y0728D02*
D03*
X0252Y072D02*
D03*
X0248Y0712D02*
D03*
X0252Y0704D02*
D03*
X0248Y0696D02*
D03*
X0252Y0688D02*
D03*
X0248Y068D02*
D03*
X0252Y0672D02*
D03*
X0248Y0664D02*
D03*
X0252Y0656D02*
D03*
Y0624D02*
D03*
Y0608D02*
D03*
Y0592D02*
D03*
X0248Y0568D02*
D03*
X0252Y056D02*
D03*
X0248Y0552D02*
D03*
X024Y0856D02*
D03*
Y0824D02*
D03*
Y0808D02*
D03*
Y0792D02*
D03*
Y0776D02*
D03*
Y076D02*
D03*
Y0744D02*
D03*
Y0728D02*
D03*
X0244Y072D02*
D03*
X024Y0712D02*
D03*
X0244Y0704D02*
D03*
X024Y0696D02*
D03*
X0244Y0688D02*
D03*
X024Y068D02*
D03*
X0244Y0672D02*
D03*
X024Y0664D02*
D03*
X0244Y0656D02*
D03*
X024Y0648D02*
D03*
Y0632D02*
D03*
Y0616D02*
D03*
Y06D02*
D03*
Y0584D02*
D03*
X0244Y0576D02*
D03*
X024Y0568D02*
D03*
X0244Y056D02*
D03*
X024Y0552D02*
D03*
Y052D02*
D03*
X0244Y0512D02*
D03*
X0236Y0864D02*
D03*
X0232Y0856D02*
D03*
Y084D02*
D03*
Y0808D02*
D03*
Y0792D02*
D03*
Y0776D02*
D03*
Y0744D02*
D03*
Y0728D02*
D03*
Y0712D02*
D03*
Y0696D02*
D03*
Y068D02*
D03*
Y0648D02*
D03*
Y0632D02*
D03*
Y06D02*
D03*
Y0584D02*
D03*
Y0568D02*
D03*
Y0552D02*
D03*
Y0536D02*
D03*
Y052D02*
D03*
Y0504D02*
D03*
X0224Y0856D02*
D03*
X0228Y0848D02*
D03*
X0224Y084D02*
D03*
X0228Y0832D02*
D03*
X0224Y0808D02*
D03*
X0228Y08D02*
D03*
X0224Y0792D02*
D03*
X0228Y0784D02*
D03*
X0224Y0776D02*
D03*
X0228Y0752D02*
D03*
X0224Y0744D02*
D03*
X0228Y0736D02*
D03*
X0224Y0728D02*
D03*
Y0712D02*
D03*
X0228Y0704D02*
D03*
X0224Y0696D02*
D03*
X0228Y0688D02*
D03*
X0224Y068D02*
D03*
X0228Y0672D02*
D03*
X0224Y0648D02*
D03*
X0228Y064D02*
D03*
X0224Y0632D02*
D03*
X0228Y0624D02*
D03*
Y0608D02*
D03*
X0224Y06D02*
D03*
X0228Y0592D02*
D03*
X0224Y0584D02*
D03*
X0228Y0576D02*
D03*
X0224Y0568D02*
D03*
Y0552D02*
D03*
X0228Y0544D02*
D03*
X0224Y0536D02*
D03*
X0228Y0528D02*
D03*
X0224Y052D02*
D03*
Y0504D02*
D03*
X0216Y0856D02*
D03*
X022Y0848D02*
D03*
X0216Y084D02*
D03*
X022Y0832D02*
D03*
X0216Y0808D02*
D03*
X022Y08D02*
D03*
X0216Y0792D02*
D03*
X022Y0784D02*
D03*
X0216Y0776D02*
D03*
X022Y0752D02*
D03*
X0216Y0744D02*
D03*
X022Y0736D02*
D03*
X0216Y0728D02*
D03*
Y0712D02*
D03*
X022Y0704D02*
D03*
X0216Y0696D02*
D03*
X022Y0688D02*
D03*
X0216Y068D02*
D03*
X022Y0672D02*
D03*
X0216Y0648D02*
D03*
X022Y064D02*
D03*
X0216Y0632D02*
D03*
X022Y0624D02*
D03*
Y0608D02*
D03*
X0216Y06D02*
D03*
X022Y0592D02*
D03*
X0216Y0584D02*
D03*
X022Y0576D02*
D03*
X0216Y0568D02*
D03*
Y0552D02*
D03*
X022Y0544D02*
D03*
X0216Y0536D02*
D03*
X022Y0528D02*
D03*
X0216Y052D02*
D03*
Y0504D02*
D03*
X0352Y0849D02*
D03*
X03455D02*
D03*
X0293Y0546D02*
D03*
X03355Y0799D02*
D03*
X0371Y0763D02*
D03*
X0373Y0785D02*
D03*
X0344Y06525D02*
D03*
Y06475D02*
D03*
X03565Y07805D02*
D03*
X034791Y0775D02*
D03*
X0407Y0812D02*
D03*
X03675Y07285D02*
D03*
X03935Y07105D02*
D03*
X0304Y06375D02*
D03*
X03575D02*
D03*
X03015Y06965D02*
D03*
X03685Y0834D02*
D03*
X0413Y055283D02*
D03*
X0405Y055598D02*
D03*
X031895Y052495D02*
D03*
X031Y0585D02*
D03*
X045Y05065D02*
D03*
X03215Y06975D02*
D03*
X0347Y07515D02*
D03*
X03325Y08295D02*
D03*
X033489D02*
D03*
X03645Y0831D02*
D03*
X0361Y08325D02*
D03*
X0428Y0563D02*
D03*
X0431Y05755D02*
D03*
X03615Y0559D02*
D03*
X03665Y054353D02*
D03*
X04065Y0534D02*
D03*
X0347Y0547D02*
D03*
X0341Y05635D02*
D03*
X03825Y0542D02*
D03*
X0355Y0543D02*
D03*
X0385Y0523D02*
D03*
X03725Y05295D02*
D03*
X034Y05475D02*
D03*
M02*
