G04*
G04 #@! TF.GenerationSoftware,Altium Limited,Altium Designer,19.0.10 (269)*
G04*
G04 Layer_Color=32896*
%FSTAX24Y24*%
%MOIN*%
G70*
G01*
G75*
%ADD14C,0.0200*%
%ADD126C,0.0030*%
G36*
X0236Y070752D02*
X022025D01*
Y0865D01*
X0236D01*
Y070752D01*
D02*
G37*
G36*
X0257Y070702D02*
X024125D01*
Y08645D01*
X0257D01*
Y070702D01*
D02*
G37*
%LPC*%
G36*
X023063Y085441D02*
D01*
X023044Y085433D01*
Y085419D01*
X023043Y08541D01*
X023041Y085391D01*
X023039Y085382D01*
X023037Y085374D01*
Y085373D01*
X023036Y085371D01*
X023033Y085368D01*
X023031Y085363D01*
X023024Y085353D01*
X023013Y085345D01*
X023012Y085344D01*
X023009Y085342D01*
X023005Y08534D01*
X022997Y085337D01*
X022989Y085333D01*
X022977Y085328D01*
X022961Y085323D01*
X022944Y085317D01*
X02251Y085193D01*
X022509D01*
X022507Y085192D01*
X022503Y085191D01*
X022499Y085189D01*
X022488Y085187D01*
X022474Y085183D01*
X022458Y08518D01*
X022444Y085177D01*
X022431Y085175D01*
X02242Y085174D01*
X022419D01*
X022417D01*
X022414Y085175D01*
X02241Y085176D01*
X022401Y085181D01*
X022395Y085184D01*
X022391Y085189D01*
X02239Y085191D01*
X022389Y085193D01*
X022386Y085197D01*
X022384Y085204D01*
X022381Y085212D01*
X022379Y085224D01*
X022376Y085239D01*
X022375Y085256D01*
X022357Y085251D01*
Y085441D01*
D01*
Y084725D01*
X023063D01*
D01*
X022504D01*
X022512Y084726D01*
X022521Y084728D01*
X022533Y08473D01*
X022546Y084735D01*
X02256Y084741D01*
X022574Y084749D01*
X022577Y08475D01*
X022581Y084753D01*
X022589Y084759D01*
X022597Y084766D01*
X022607Y084776D01*
X022618Y084788D01*
X022629Y084803D01*
X022639Y084819D01*
X02264Y084821D01*
X022641Y084823D01*
X022643Y084828D01*
X022645Y084832D01*
X022648Y084839D01*
X022651Y084845D01*
X022654Y084854D01*
X022657Y084863D01*
X022661Y084874D01*
X022665Y084885D01*
X022668Y084898D01*
X022673Y084912D01*
X022677Y084926D01*
X02268Y084942D01*
X022685Y08496D01*
Y084959D01*
X022686Y084956D01*
X022688Y08495D01*
X02269Y084944D01*
X022692Y084936D01*
X022696Y084926D01*
X022704Y084905D01*
X022715Y084882D01*
X022727Y084859D01*
X022742Y084839D01*
X022749Y084829D01*
X022757Y084821D01*
X022759Y084819D01*
X022765Y084815D01*
X022773Y084809D01*
X022785Y084801D01*
X022799Y084794D01*
X022817Y084788D01*
X022836Y084784D01*
X022856Y084782D01*
X022857D01*
X022859D01*
X022862D01*
X022865Y084783D01*
X022876Y084784D01*
X022889Y084786D01*
X022905Y084792D01*
X022924Y084798D01*
X022943Y084807D01*
X022962Y08482D01*
X022963D01*
X022965Y084822D01*
X022971Y084827D01*
X02298Y084835D01*
X022992Y084846D01*
X023004Y08486D01*
X023017Y084878D01*
X023029Y084898D01*
X023039Y084919D01*
Y084921D01*
X02304Y084923D01*
X023041Y084926D01*
X023042Y084931D01*
X023044Y084939D01*
X023047Y084948D01*
X023049Y084959D01*
X023051Y084971D01*
X023053Y084986D01*
X023055Y085003D01*
X023057Y085021D01*
X02306Y085042D01*
X023061Y085065D01*
X023062Y08509D01*
X023063Y085117D01*
Y085441D01*
D02*
G37*
G36*
X022902Y084605D02*
X022896D01*
X022887Y084604D01*
X022875Y084603D01*
X02286Y084599D01*
X022841Y084596D01*
X022819Y08459D01*
X022793Y084584D01*
X022484Y084495D01*
X022481Y084494D01*
X022477Y084493D01*
X022469Y084491D01*
X022461Y084489D01*
X02244Y084486D01*
X02243Y084483D01*
X022421D01*
X02242D01*
X022418D01*
X022415Y084484D01*
X02241Y084486D01*
X022401Y08449D01*
X022395Y084493D01*
X022391Y084499D01*
Y0845D01*
X022389Y084502D01*
X022387Y084506D01*
X022384Y084513D01*
X022382Y084522D01*
X02238Y084534D01*
X022378Y084549D01*
X022375Y084568D01*
X022357Y084562D01*
Y084157D01*
Y084211D01*
X022375Y084217D01*
Y084225D01*
X022376Y084234D01*
X022379Y084246D01*
X022381Y084258D01*
X022385Y084271D01*
X022391Y084284D01*
X022398Y084295D01*
X022399Y084296D01*
X022403Y0843D01*
X022408Y084304D01*
X022417Y084311D01*
X022429Y084318D01*
X022443Y084325D01*
X022462Y084333D01*
X022484Y08434D01*
X022793Y084429D01*
X022794D01*
X022796Y08443D01*
X022801Y084431D01*
X022806Y084432D01*
X022813Y084434D01*
X02282Y084435D01*
X022838Y08444D01*
X022857Y084444D01*
X022878Y084447D01*
X022899Y084449D01*
X022918Y084451D01*
X02292D01*
X022925Y084449D01*
X022933Y084448D01*
X022943Y084446D01*
X022955Y084442D01*
X022967Y084436D01*
X02298Y084428D01*
X022992Y084417D01*
X022993Y084416D01*
X022996Y08441D01*
X023002Y084402D01*
X023007Y084392D01*
X023014Y084378D01*
X023018Y084362D01*
X023022Y084343D01*
X023024Y084322D01*
Y084312D01*
X023022Y084302D01*
X023021Y084289D01*
X023019Y084275D01*
X023015Y084258D01*
X02301Y084243D01*
X023004Y084228D01*
X023003Y084225D01*
X022999Y084221D01*
X022995Y084213D01*
X022989Y084205D01*
X022981Y084194D01*
X022971Y084183D01*
X022959Y084172D01*
X022946Y084162D01*
X022945D01*
X022944Y084161D01*
X02294Y084159D01*
X022937Y084157D01*
X022932Y084153D01*
X022925Y08415D01*
X022919Y084146D01*
X02291Y084141D01*
X022889Y084133D01*
X022865Y084122D01*
X022837Y084112D01*
X022804Y084101D01*
X022484Y084009D01*
X022483D01*
X022479Y084008D01*
X022474Y084007D01*
X022467Y084005D01*
X022453Y084002D01*
X022438Y084001D01*
X022437D01*
X022432D01*
X022427Y084002D01*
X022419Y084005D01*
X022411Y084007D01*
X022403Y084011D01*
X022395Y084017D01*
X022387Y084024D01*
X022386Y084025D01*
X022385Y084028D01*
X022383Y084032D01*
X022381Y084039D01*
X022379Y084047D01*
X022378Y084059D01*
X022375Y084073D01*
Y084091D01*
X022357Y084086D01*
D01*
Y083437D01*
X023063D01*
D01*
X022357D01*
X022375Y083444D01*
Y083452D01*
X022376Y08346D01*
X022378Y08347D01*
X022381Y083482D01*
X022384Y083494D01*
X02239Y083506D01*
X022397Y083516D01*
X022398Y083517D01*
X022402Y08352D01*
X022407Y083525D01*
X022416Y08353D01*
X022428Y083537D01*
X022443Y083544D01*
X022462Y083551D01*
X022485Y083559D01*
X022936Y083689D01*
X022938Y08369D01*
X022944Y083691D01*
X022952Y083693D01*
X022962Y083695D01*
X022973Y083699D01*
X022983Y083701D01*
X022993Y083702D01*
X023001Y083703D01*
X023002D01*
X023004D01*
X023007Y083702D01*
X023012Y083701D01*
X023021Y083696D01*
X023026Y083693D01*
X02303Y083688D01*
X023031Y083687D01*
X023032Y083684D01*
X023034Y083679D01*
X023037Y083672D01*
X02304Y083663D01*
X023042Y083651D01*
X023043Y083635D01*
X023044Y083618D01*
X023063Y083622D01*
Y083846D01*
X023079D01*
Y08438D01*
X023078Y084392D01*
X023077Y084408D01*
X023075Y084425D01*
X023072Y084445D01*
X023067Y084465D01*
X023061Y084484D01*
X02306Y084487D01*
X023057Y084492D01*
X023053Y084501D01*
X023049Y084512D01*
X023036Y084536D01*
X023028Y084547D01*
X023019Y084557D01*
X023018Y084558D01*
X023015Y08456D01*
X023009Y084564D01*
X023003Y08457D01*
X022994Y084575D01*
X022984Y084582D01*
X022973Y084587D01*
X022961Y084593D01*
X02296D01*
X022956Y084595D01*
X022949Y084596D01*
X02294Y084598D01*
X022932Y0846D01*
X022922Y084603D01*
X022912Y084604D01*
X022902Y084605D01*
D02*
G37*
G36*
X022832Y083196D02*
X02282D01*
X022813Y083195D01*
X022802Y083194D01*
X02279Y083193D01*
X022775Y08319D01*
X02276Y083187D01*
X022743Y083184D01*
X022724Y083179D01*
X022705Y083174D01*
X022685Y083168D01*
X022664Y083161D01*
X022643Y083152D01*
X022621Y083142D01*
X022599Y08313D01*
X022598Y083129D01*
X022594Y083127D01*
X022589Y083124D01*
X02258Y083118D01*
X02257Y083112D01*
X022558Y083103D01*
X022546Y083094D01*
X022532Y083083D01*
X022517Y083071D01*
X022502Y083057D01*
X022486Y083043D01*
X02247Y083026D01*
X022455Y08301D01*
X02244Y082991D01*
X022425Y082973D01*
X022411Y082952D01*
X02241Y082951D01*
X022408Y082947D01*
X022405Y082941D01*
X022401Y082932D01*
X022395Y082923D01*
X022389Y082911D01*
X022383Y082897D01*
X022375Y082882D01*
X022369Y082866D01*
X022363Y082849D01*
X022351Y082811D01*
X022347Y082791D01*
X022344Y082772D01*
X022342Y082751D01*
X02234Y08273D01*
D01*
Y082488D01*
X023285D01*
D01*
X022592D01*
X022599Y082489D01*
X022608D01*
X022618Y08249D01*
X022629Y082491D01*
X022642Y082493D01*
X022656Y082495D01*
X022672Y082498D01*
X022703Y082507D01*
X022739Y082518D01*
X022775Y082533D01*
X022777D01*
X02278Y082536D01*
X022785Y082538D01*
X022792Y082541D01*
X022801Y082547D01*
X02281Y082552D01*
X022821Y082559D01*
X022833Y082565D01*
X02286Y082583D01*
X022888Y082605D01*
X022918Y082629D01*
X022946Y082656D01*
X022947Y082657D01*
X022949Y082659D01*
X022952Y082664D01*
X022958Y082669D01*
X022963Y082676D01*
X022971Y082684D01*
X022979Y082693D01*
X022986Y082704D01*
X023004Y082727D01*
X023021Y082753D01*
X023038Y082782D01*
X023052Y082811D01*
Y082812D01*
X023053Y082813D01*
X023054Y082817D01*
X023055Y08282D01*
X023059Y082832D01*
X023063Y082846D01*
X023067Y082864D01*
X023073Y082884D01*
X023076Y082908D01*
X023079Y082934D01*
X023162Y083026D01*
Y083024D01*
X023161Y083018D01*
X023159Y083009D01*
X023157Y082997D01*
X023156Y082984D01*
X023154Y08297D01*
X023153Y082955D01*
Y082934D01*
X023154Y082924D01*
X023155Y082909D01*
X023158Y082891D01*
X023161Y082869D01*
X023167Y082844D01*
X023174Y082814D01*
Y082813D01*
X023175Y082811D01*
X023177Y082807D01*
X023178Y0828D01*
X02318Y082794D01*
X023181Y082786D01*
X023185Y082767D01*
X02319Y082747D01*
X023193Y082725D01*
X023195Y082703D01*
X023196Y082684D01*
Y082676D01*
X023195Y082666D01*
X023194Y082653D01*
X023192Y082638D01*
X023187Y082622D01*
X023183Y082606D01*
X023177Y082588D01*
X023175Y082587D01*
X023174Y082584D01*
X023171Y082578D01*
X023168Y082571D01*
X023162Y082562D01*
X023156Y082552D01*
X023148Y082542D01*
X023138Y082531D01*
X023153Y082516D01*
X023154Y082517D01*
X023156Y082518D01*
X023159Y082521D01*
X023163Y082525D01*
X023174Y082537D01*
X023189Y082551D01*
X023204Y08257D01*
X02322Y08259D01*
X023236Y082614D01*
X02325Y082641D01*
Y082642D01*
X023251Y082644D01*
X023253Y082648D01*
X023255Y082654D01*
X023257Y08266D01*
X023261Y082669D01*
X023264Y082679D01*
X023267Y08269D01*
X023271Y082702D01*
X023274Y082716D01*
X023277Y08273D01*
X023279Y082747D01*
X023284Y08278D01*
X023285Y08282D01*
Y082849D01*
Y082831D01*
X023284Y082836D01*
Y082843D01*
X023283Y08286D01*
X02328Y082881D01*
X023277Y082905D01*
X023273Y082932D01*
X023267Y082962D01*
Y082963D01*
X023266Y082965D01*
Y08297D01*
X023265Y082975D01*
X023263Y082982D01*
X023262Y08299D01*
X023259Y083008D01*
X023256Y083029D01*
X023253Y08305D01*
X023252Y083071D01*
X023251Y083091D01*
Y083105D01*
X023252Y083115D01*
X023253Y083127D01*
X023255Y083141D01*
X023257Y083156D01*
X023261Y083172D01*
X023248Y083182D01*
X023079Y082989D01*
Y08299D01*
X023078Y082993D01*
Y082996D01*
X023077Y083D01*
X023074Y083012D01*
X023071Y083027D01*
X023065Y083044D01*
X023059Y083061D01*
X023052Y083078D01*
X023043Y083093D01*
X023042Y083095D01*
X023037Y083101D01*
X02303Y083111D01*
X023019Y083121D01*
X023007Y083134D01*
X022991Y083146D01*
X022973Y083159D01*
X022952Y08317D01*
X022951D01*
X02295Y083171D01*
X022947Y083172D01*
X022943Y083174D01*
X022931Y083178D01*
X022915Y083183D01*
X022897Y083187D01*
X022877Y083191D01*
X022855Y083195D01*
X022832Y083196D01*
D02*
G37*
G36*
X022902Y082385D02*
X022896D01*
X022887Y082384D01*
X022875Y082383D01*
X02286Y082379D01*
X022841Y082376D01*
X022819Y082371D01*
X022793Y082364D01*
X022484Y082276D01*
X022481Y082274D01*
X022477Y082273D01*
X022469Y082271D01*
X022461Y082269D01*
X02244Y082266D01*
X02243Y082263D01*
X022421D01*
X02242D01*
X022418D01*
X022415Y082265D01*
X02241Y082266D01*
X022401Y08227D01*
X022395Y082273D01*
X022391Y082279D01*
Y08228D01*
X022389Y082282D01*
X022387Y082286D01*
X022384Y082293D01*
X022382Y082302D01*
X02238Y082314D01*
X022378Y082329D01*
X022375Y082348D01*
X022357Y082342D01*
Y082385D01*
D01*
Y081774D01*
D01*
Y081626D01*
X022375Y081632D01*
Y081634D01*
X022376Y081638D01*
X022378Y081646D01*
X022379Y081655D01*
X022385Y081675D01*
X022391Y081685D01*
X022396Y081695D01*
X022397Y081696D01*
X022402Y081701D01*
X022407Y081707D01*
X022417Y081715D01*
X022429Y081724D01*
X022443Y081733D01*
X022462Y081741D01*
X022483Y081749D01*
X022507Y081756D01*
X02257Y081774D01*
D01*
X022807Y081842D01*
X022809D01*
X022814Y081844D01*
X022821Y081846D01*
X022832Y081849D01*
X022844Y081854D01*
X022859Y081859D01*
X022874Y081866D01*
X02289Y081872D01*
X022925Y08189D01*
X02296Y081909D01*
X022978Y081921D01*
X022993Y081933D01*
X023007Y081947D01*
X023019Y08196D01*
X02302Y081961D01*
X023021Y081963D01*
X023025Y081967D01*
X023029Y081973D01*
X023033Y08198D01*
X023038Y081989D01*
X023043Y081999D01*
X023049Y082011D01*
X023055Y082024D01*
X023061Y082038D01*
X023065Y082054D01*
X023069Y082071D01*
X023074Y082089D01*
X023077Y082107D01*
X023078Y082128D01*
X023079Y082149D01*
Y08216D01*
X023078Y082172D01*
X023077Y082188D01*
X023075Y082206D01*
X023072Y082225D01*
X023067Y082245D01*
X023061Y082265D01*
X02306Y082267D01*
X023057Y082272D01*
X023053Y082281D01*
X023049Y082292D01*
X023036Y082316D01*
X023028Y082327D01*
X023019Y082337D01*
X023018Y082338D01*
X023015Y08234D01*
X023009Y082344D01*
X023003Y08235D01*
X022994Y082355D01*
X022984Y082362D01*
X022973Y082367D01*
X022961Y082373D01*
X02296D01*
X022956Y082375D01*
X022949Y082376D01*
X02294Y082378D01*
X022932Y08238D01*
X022922Y082383D01*
X022912Y082384D01*
X022902Y082385D01*
D02*
G37*
G36*
X023063Y081774D02*
X023044Y081769D01*
Y081768D01*
X023043Y081765D01*
X023042Y08176D01*
X02304Y081752D01*
X023034Y081737D01*
X023025Y081719D01*
X023024Y081718D01*
X02302Y081714D01*
X023015Y081707D01*
X023006Y081698D01*
X022994Y081686D01*
X02298Y081672D01*
X022961Y081656D01*
X022938Y081636D01*
X022936Y081634D01*
X022927Y081626D01*
D01*
X02234Y081136D01*
Y081774D01*
D01*
Y081075D01*
X023063D01*
D01*
X023044D01*
X023063Y081081D01*
Y081385D01*
X023044Y081379D01*
Y081377D01*
X023043Y081372D01*
Y081365D01*
X023042Y081356D01*
X023041Y081346D01*
X02304Y081339D01*
X023039Y081332D01*
X023038Y081328D01*
Y081327D01*
X023037Y081326D01*
X023031Y081319D01*
X023027Y081315D01*
X023021Y08131D01*
X023015Y081306D01*
X023007Y081302D01*
X023006Y081301D01*
X023003Y081299D01*
X022996Y081297D01*
X022987Y081295D01*
X022977Y081293D01*
X022962Y08129D01*
X022945Y081287D01*
X022925Y081286D01*
X022836Y081282D01*
Y081501D01*
X02289Y081544D01*
X02295Y081595D01*
X022951Y081596D01*
X022954Y081597D01*
X022957Y0816D01*
X022961Y081603D01*
X022973Y08161D01*
X022985Y081616D01*
X022987Y081618D01*
X022993Y081619D01*
X023001Y081621D01*
X023009Y081622D01*
X023012D01*
X023017Y08162D01*
X023024Y081616D01*
X023028Y081613D01*
X023032Y081609D01*
Y081608D01*
X023034Y081606D01*
X023036Y081602D01*
X023038Y081598D01*
X02304Y081591D01*
X023042Y081584D01*
X023043Y081575D01*
X023044Y081564D01*
X023063D01*
Y081626D01*
X023079D01*
X023063D01*
Y081774D01*
D02*
G37*
G36*
Y081037D02*
D01*
X023044Y081033D01*
Y081023D01*
X023043Y081016D01*
X023042Y081003D01*
X023041Y080997D01*
X02304Y080992D01*
Y080991D01*
X023038Y080989D01*
X023036Y080985D01*
X023032Y080979D01*
X023028Y080973D01*
X023022Y080965D01*
X023016Y080957D01*
X023008Y08095D01*
X023007Y080949D01*
X023004Y080946D01*
X022998Y080942D01*
X022991Y080938D01*
X022981Y080932D01*
X022969Y080926D01*
X022955Y08092D01*
X022939Y080916D01*
X022426Y080768D01*
X022425Y080769D01*
X02242Y080773D01*
X022415Y080777D01*
X022408Y080784D01*
X022395Y080798D01*
X02239Y080805D01*
X022385Y080812D01*
Y080813D01*
X022384Y080815D01*
X022382Y08082D01*
X022381Y080825D01*
X022379Y080832D01*
X022378Y080842D01*
X022376Y080851D01*
X022375Y080863D01*
X022357Y080859D01*
Y081037D01*
D01*
Y080159D01*
D01*
Y080146D01*
X022375Y080152D01*
Y080154D01*
X022376Y080158D01*
X022378Y080167D01*
X02238Y080177D01*
X022383Y080188D01*
X022387Y0802D01*
X022393Y080212D01*
X022401Y080223D01*
X022402Y080224D01*
X022405Y080227D01*
X02241Y080233D01*
X022419Y080239D01*
X02243Y080246D01*
X022445Y080253D01*
X022464Y080261D01*
X022486Y080269D01*
X023071Y080437D01*
Y080453D01*
X022469Y080741D01*
X022938Y080874D01*
X022939D01*
X022943Y080875D01*
X022947Y080876D01*
X022954Y080878D01*
X022968Y080881D01*
X022982Y080882D01*
X022983D01*
X022986D01*
X022992Y080881D01*
X022998Y08088D01*
X023006Y080878D01*
X023014Y080874D01*
X023021Y08087D01*
X023028Y080863D01*
X023029Y080862D01*
X02303Y08086D01*
X023033Y080856D01*
X023036Y080849D01*
X023039Y08084D01*
X023042Y080831D01*
X023043Y080819D01*
X023044Y080804D01*
X023063Y080809D01*
Y081037D01*
D02*
G37*
G36*
X022771Y080159D02*
X02277D01*
X022769D01*
X022762D01*
D01*
X022751Y080158D01*
X022738Y080156D01*
X022721Y080154D01*
X022701Y08015D01*
X022679Y080144D01*
X022655Y080138D01*
X022629Y080128D01*
X022603Y080116D01*
X022575Y080102D01*
X022548Y080085D01*
X022521Y080064D01*
X022493Y08004D01*
X022467Y080013D01*
X022442Y079982D01*
X022441Y079981D01*
X022438Y079976D01*
X022432Y079968D01*
X022426Y079958D01*
X022418Y079945D01*
X02241Y079929D01*
X022401Y079911D01*
X022391Y079891D01*
X022382Y079869D01*
X022372Y079845D01*
X022364Y079818D01*
X022356Y079791D01*
X02235Y079762D01*
X022345Y079732D01*
X022342Y0797D01*
X02234Y079668D01*
Y080159D01*
D01*
Y079438D01*
X023079D01*
X02234D01*
X022567Y079486D01*
Y079505D01*
X022566D01*
X022562D01*
X022557Y079506D01*
X02255D01*
X022543Y079507D01*
X022534Y079508D01*
X022512Y079512D01*
X022489Y079518D01*
X022466Y079526D01*
X022444Y079536D01*
X022434Y079542D01*
X022426Y07955D01*
X022423Y079552D01*
X022419Y079557D01*
X022411Y079566D01*
X022404Y079579D01*
X022396Y079595D01*
X022389Y079614D01*
X022384Y079637D01*
X022382Y079663D01*
Y079671D01*
X022383Y079676D01*
Y079683D01*
X022385Y079691D01*
X022386Y0797D01*
X022389Y07971D01*
X022395Y079733D01*
X022405Y079758D01*
X02241Y079773D01*
X022418Y079786D01*
X022426Y0798D01*
X022436Y079814D01*
X022437Y079815D01*
X022438Y079817D01*
X022441Y079822D01*
X022445Y079826D01*
X022451Y079833D01*
X022457Y07984D01*
X022466Y079849D01*
X022476Y079858D01*
X022486Y079868D01*
X022498Y079877D01*
X022512Y079888D01*
X022526Y079899D01*
X022543Y079909D01*
X02256Y07992D01*
X022579Y079931D01*
X022598Y079941D01*
X022599Y079942D01*
X022604Y079943D01*
X022609Y079945D01*
X022617Y079949D01*
X022628Y079953D01*
X02264Y079957D01*
X022653Y079962D01*
X022668Y079967D01*
X022686Y079971D01*
X022703Y079977D01*
X022723Y079981D01*
X022743Y079985D01*
X022785Y079991D01*
X022807Y079992D01*
X02283Y079993D01*
X022831D01*
X022834D01*
X02284D01*
X022848Y079992D01*
X022856D01*
X022866Y079991D01*
X022889Y079987D01*
X022914Y079981D01*
X02294Y079973D01*
X022966Y079961D01*
X022978Y079954D01*
X022989Y079945D01*
X02299Y079944D01*
X022991Y079943D01*
X022997Y079936D01*
X023006Y079927D01*
X023016Y079912D01*
X023026Y079896D01*
X023034Y079876D01*
X023041Y079855D01*
X023042Y079842D01*
X023043Y07983D01*
Y079825D01*
X023042Y07982D01*
X023041Y079812D01*
X02304Y079802D01*
X023037Y07979D01*
X023033Y079777D01*
X023029Y079763D01*
X022842Y079709D01*
X022841D01*
X02284Y079708D01*
X022834Y079707D01*
X022827Y079705D01*
X022817Y079703D01*
X022806Y0797D01*
X022796Y079698D01*
X022786Y079696D01*
X02278D01*
X022779D01*
X022777D01*
X022773Y079697D01*
X022769Y079698D01*
X022763Y0797D01*
X022759Y079703D01*
X022754Y079707D01*
X022748Y079712D01*
X022747Y079714D01*
X022746Y079716D01*
X022744Y07972D01*
X02274Y079726D01*
X022738Y079733D01*
X022736Y079743D01*
X022735Y079755D01*
X022734Y079769D01*
X022714Y079764D01*
Y079461D01*
X022734Y079465D01*
Y07947D01*
X022735Y079475D01*
X022736Y079481D01*
X022739Y079495D01*
X022742Y079501D01*
X022745Y079508D01*
Y079509D01*
X022746Y07951D01*
X022751Y079517D01*
X022759Y079524D01*
X022771Y079532D01*
X022773Y079533D01*
X022777Y079534D01*
X022781Y079536D01*
X022789Y079539D01*
X022797Y079541D01*
X022809Y079544D01*
X022824Y079548D01*
X023033Y079609D01*
Y07961D01*
X023036Y079614D01*
X023038Y07962D01*
X023041Y079628D01*
X023044Y079638D01*
X023048Y07965D01*
X023052Y079664D01*
X023056Y07968D01*
X023061Y079697D01*
X023065Y079715D01*
X023068Y079734D01*
X023072Y079755D01*
X023077Y079798D01*
X023079Y079844D01*
Y079852D01*
X023078Y07986D01*
Y079868D01*
X023077Y079877D01*
X023076Y079887D01*
X023075Y079899D01*
X023072Y079924D01*
X023065Y079952D01*
X023057Y079979D01*
X023047Y080005D01*
Y080006D01*
X023045Y080009D01*
X023043Y080012D01*
X02304Y080016D01*
X023032Y080028D01*
X02302Y080044D01*
X023005Y080061D01*
X022987Y08008D01*
X022965Y080098D01*
X022939Y080116D01*
X022938D01*
X022936Y080118D01*
X022932Y08012D01*
X022926Y080122D01*
X02292Y080126D01*
X022911Y08013D01*
X022901Y080133D01*
X02289Y080138D01*
X022878Y080142D01*
X022865Y080145D01*
X022839Y080152D01*
X022837Y080153D01*
X022805Y080157D01*
X022771Y080159D01*
D02*
G37*
G36*
X023063Y079232D02*
D01*
X023044Y079226D01*
Y079218D01*
X023043Y07921D01*
X023042Y079199D01*
X02304Y079187D01*
X023037Y079175D01*
X023032Y079164D01*
X023026Y079154D01*
X023025Y079153D01*
X023021Y07915D01*
X023016Y079145D01*
X023007Y07914D01*
X022995Y079133D01*
X02298Y079125D01*
X022961Y079118D01*
X022949Y079113D01*
X022937Y07911D01*
X022485Y078981D01*
X022483D01*
X022478Y078979D01*
X02247Y078978D01*
X022462Y078976D01*
X022442Y078972D01*
X022431Y07897D01*
X022422D01*
X022421D01*
X022419D01*
X022415Y078971D01*
X02241Y078972D01*
X022401Y078976D01*
X022395Y07898D01*
X022391Y078984D01*
Y078986D01*
X022389Y078988D01*
X022387Y078991D01*
X022384Y078998D01*
X022382Y079006D01*
X02238Y079017D01*
X022378Y079031D01*
X022375Y079049D01*
X022357Y079044D01*
Y079232D01*
D01*
Y078283D01*
X023063D01*
D01*
X022357D01*
X022375Y078288D01*
Y078297D01*
X022376Y078306D01*
X022379Y078318D01*
X022381Y078331D01*
X022385Y078344D01*
X022391Y078356D01*
X022398Y078367D01*
X022399Y078368D01*
X022403Y078371D01*
X022408Y078376D01*
X022417Y078382D01*
X022429Y07839D01*
X022444Y078396D01*
X022463Y078404D01*
X022485Y078412D01*
X022937Y078542D01*
X022939D01*
X022945Y078544D01*
X022952Y078546D01*
X022962Y078548D01*
X022983Y078553D01*
X022993Y078554D01*
X023001Y078555D01*
X023002D01*
X023004D01*
X023007Y078554D01*
X023012Y078553D01*
X023021Y078548D01*
X023026Y078545D01*
X02303Y078541D01*
X023031Y07854D01*
X023032Y078537D01*
X023034Y078532D01*
X023037Y078525D01*
X02304Y078517D01*
X023042Y078505D01*
X023043Y078492D01*
X023044Y078475D01*
X023063Y07848D01*
Y078823D01*
X023044Y078814D01*
Y078806D01*
X023043Y078798D01*
X023042Y078787D01*
X02304Y078775D01*
X023037Y078763D01*
X023032Y078751D01*
X023026Y078741D01*
X023025Y07874D01*
X023021Y078736D01*
X023016Y078732D01*
X023007Y078727D01*
X022995Y07872D01*
X02298Y078712D01*
X022961Y078705D01*
X022949Y0787D01*
X022937Y078697D01*
X022726Y078637D01*
Y078895D01*
X022937Y078955D01*
X022939D01*
X022945Y078957D01*
X022952Y078959D01*
X022961Y078962D01*
X022983Y078966D01*
X022993Y078967D01*
X023002Y078968D01*
X023003D01*
X023005D01*
X023008Y078967D01*
X023013Y078966D01*
X023022Y078962D01*
X023028Y078958D01*
X023032Y078953D01*
Y078952D01*
X023034Y07895D01*
X023036Y078945D01*
X023038Y078939D01*
X02304Y07893D01*
X023042Y078919D01*
X023043Y078906D01*
X023044Y078889D01*
X023063Y078895D01*
Y079232D01*
D02*
G37*
G36*
X022902Y078271D02*
X022896D01*
X022887Y07827D01*
X022875Y078269D01*
X02286Y078265D01*
X022841Y078262D01*
X022819Y078257D01*
X022793Y07825D01*
X022484Y078161D01*
X022481Y07816D01*
X022477Y078159D01*
X022469Y078157D01*
X022461Y078155D01*
X02244Y078152D01*
X02243Y078149D01*
X022421D01*
X02242D01*
X022418D01*
X022415Y078151D01*
X02241Y078152D01*
X022401Y078156D01*
X022395Y078159D01*
X022391Y078165D01*
Y078166D01*
X022389Y078168D01*
X022387Y078172D01*
X022384Y078179D01*
X022382Y078188D01*
X02238Y0782D01*
X022378Y078215D01*
X022375Y078234D01*
X022357Y078228D01*
Y078271D01*
D01*
Y077512D01*
X023079D01*
X022357D01*
X022375Y077518D01*
Y07752D01*
X022376Y077524D01*
X022378Y077532D01*
X022379Y077541D01*
X022385Y077561D01*
X022391Y077571D01*
X022396Y077581D01*
X022397Y077582D01*
X022402Y077587D01*
X022407Y077593D01*
X022417Y077601D01*
X022429Y077609D01*
X022443Y077619D01*
X022462Y077627D01*
X022483Y077635D01*
X022807Y077728D01*
X022809D01*
X022814Y07773D01*
X022821Y077732D01*
X022832Y077735D01*
X022844Y07774D01*
X022859Y077745D01*
X022874Y077752D01*
X02289Y077758D01*
X022925Y077776D01*
X02296Y077795D01*
X022978Y077807D01*
X022993Y077819D01*
X023007Y077832D01*
X023019Y077846D01*
X02302Y077847D01*
X023021Y077849D01*
X023025Y077853D01*
X023029Y077859D01*
X023033Y077866D01*
X023038Y077875D01*
X023043Y077885D01*
X023049Y077897D01*
X023055Y07791D01*
X023061Y077924D01*
X023065Y07794D01*
X023069Y077957D01*
X023074Y077975D01*
X023077Y077993D01*
X023078Y078014D01*
X023079Y078035D01*
Y078046D01*
X023078Y078058D01*
X023077Y078074D01*
X023075Y078092D01*
X023072Y078111D01*
X023067Y078131D01*
X023061Y078151D01*
X02306Y078153D01*
X023057Y078158D01*
X023053Y078167D01*
X023049Y078178D01*
X023036Y078202D01*
X023028Y078213D01*
X023019Y078223D01*
X023018Y078224D01*
X023015Y078226D01*
X023009Y07823D01*
X023003Y078236D01*
X022994Y078241D01*
X022984Y078248D01*
X022973Y078253D01*
X022961Y078259D01*
X02296D01*
X022956Y078261D01*
X022949Y078262D01*
X02294Y078264D01*
X022932Y078266D01*
X022922Y078269D01*
X022912Y07827D01*
X022902Y078271D01*
D02*
G37*
G36*
X023063Y077496D02*
D01*
X023044Y07749D01*
Y077476D01*
X023043Y077467D01*
X023042Y077458D01*
X023041Y077447D01*
X023038Y077437D01*
X023034Y077427D01*
X023033Y077426D01*
X023032Y077423D01*
X02303Y077418D01*
X023026Y077414D01*
X023017Y077402D01*
X023012Y077396D01*
X023005Y077391D01*
X023004D01*
X023002Y077389D01*
X022998Y077388D01*
X022992Y077384D01*
X022983Y077381D01*
X022972Y077377D01*
X022957Y077371D01*
X022938Y077366D01*
X022751Y077319D01*
X022495Y077378D01*
X022493D01*
X022491Y077379D01*
X022488D01*
X022484Y07738D01*
X022472Y077383D01*
X022457Y077388D01*
X022442Y077393D01*
X022427Y0774D01*
X022414Y077406D01*
X022403Y077414D01*
X022402Y077415D01*
X022399Y077417D01*
X022396Y077421D01*
X022392Y077427D01*
X022387Y077436D01*
X022383Y077446D01*
X022379Y077458D01*
X022375Y077473D01*
X022357Y077467D01*
Y077496D01*
D01*
Y076837D01*
X023063D01*
D01*
X022375D01*
Y076838D01*
X022376Y076841D01*
X022378Y076847D01*
X022379Y076853D01*
X022385Y07687D01*
X02239Y076878D01*
X022395Y076886D01*
X022396Y076887D01*
X022398Y07689D01*
X022404Y076896D01*
X022414Y076903D01*
X022419Y076909D01*
X022426Y076915D01*
X022434Y076922D01*
X022443Y07693D01*
X022454Y076937D01*
X022466Y076947D01*
X022479Y076957D01*
X022495Y076968D01*
X02277Y077169D01*
X022934Y077211D01*
X022936Y077212D01*
X022942Y077213D01*
X02295Y077215D01*
X02296Y077218D01*
X02297Y077221D01*
X02298Y077224D01*
X022987Y077225D01*
X022993Y077226D01*
X022994D01*
X022996D01*
X023001Y077225D01*
X023006Y077224D01*
X023012Y077221D01*
X023018Y077219D01*
X023025Y077215D01*
X02303Y077209D01*
X023031Y077208D01*
X023032Y077206D01*
X023034Y077202D01*
X023037Y077195D01*
X02304Y077188D01*
X023042Y077177D01*
X023043Y077165D01*
X023044Y07715D01*
Y077131D01*
X023063Y077137D01*
Y077496D01*
D02*
G37*
G36*
X022884Y076675D02*
D01*
X022775Y076641D01*
Y076675D01*
D01*
Y076338D01*
X022884D01*
D01*
X022775D01*
X022884Y07637D01*
Y076675D01*
D02*
G37*
G36*
X022914Y076041D02*
D01*
X022827Y076016D01*
X022343Y075589D01*
Y076041D01*
D01*
X022343Y075011D01*
X023063D01*
D01*
X022505D01*
X022516Y075013D01*
X02253Y075015D01*
X022546Y075017D01*
X022564Y075021D01*
X022583Y075028D01*
X022603Y075035D01*
X022604D01*
X022605Y075037D01*
X022608Y075038D01*
X022613Y07504D01*
X022624Y075047D01*
X022639Y075057D01*
X022657Y07507D01*
X02268Y075088D01*
X022692Y075098D01*
X022705Y075109D01*
X02272Y075122D01*
X022734Y075135D01*
X022735Y075136D01*
X022737Y075138D01*
X02274Y075142D01*
X022746Y075147D01*
X022752Y075154D01*
X022761Y075162D01*
X022771Y075172D01*
X022782Y075185D01*
X022796Y075199D01*
X022812Y075216D01*
X022828Y075236D01*
X022848Y075256D01*
X022868Y075279D01*
X022891Y075305D01*
X022915Y075334D01*
X022943Y075366D01*
Y07522D01*
X022942Y075209D01*
X02294Y075195D01*
X022939Y07518D01*
X022936Y075164D01*
X022933Y07515D01*
X022928Y075139D01*
X022927Y075138D01*
X022925Y075135D01*
X022921Y075129D01*
X022915Y075123D01*
X022907Y075115D01*
X022897Y075108D01*
X022884Y075099D01*
X022868Y07509D01*
Y075066D01*
X023063Y075148D01*
Y075517D01*
X023077D01*
D01*
X023063D01*
Y075522D01*
X023044D01*
X023043Y07552D01*
X02304Y075517D01*
D01*
X023038Y075515D01*
X023031Y075508D01*
X023021Y075498D01*
X023009Y075485D01*
X022995Y07547D01*
X02298Y075454D01*
X022962Y075437D01*
X022944Y075418D01*
X022924Y075398D01*
X022881Y075357D01*
X022839Y075315D01*
X022795Y075276D01*
X022794Y075275D01*
X022791Y075273D01*
X022786Y075268D01*
X02278Y075263D01*
X022772Y075255D01*
X022762Y075249D01*
X022742Y075231D01*
X022719Y075213D01*
X022695Y075196D01*
X022673Y075181D01*
X022662Y075174D01*
X022652Y07517D01*
X022651D01*
X02265Y075169D01*
X022643Y075167D01*
X022633Y075163D01*
X02262Y075159D01*
X022605Y075155D01*
X022589Y075151D01*
X02257Y075149D01*
X022551Y075148D01*
X02255D01*
X022549D01*
X022544D01*
X022535Y075149D01*
X022524Y075151D01*
X022512Y075156D01*
X022499Y075161D01*
X022487Y075169D01*
X022475Y075179D01*
X022474Y07518D01*
X02247Y075184D01*
X022465Y075191D01*
X02246Y075199D01*
X022454Y075209D01*
X022449Y075222D01*
X022445Y075237D01*
X022444Y075253D01*
Y07526D01*
X022445Y075265D01*
X022446Y075272D01*
X022449Y075278D01*
X022454Y075296D01*
X022458Y075304D01*
X022464Y075315D01*
X02247Y075325D01*
X022478Y075335D01*
X022487Y075346D01*
X022498Y075357D01*
X02251Y075367D01*
X022524Y075377D01*
X022515Y075396D01*
X022514D01*
X022512Y075395D01*
X022508Y075393D01*
X022502Y075391D01*
X022497Y075389D01*
X022489Y075385D01*
X022472Y075378D01*
X022453Y075367D01*
X022433Y075355D01*
X022415Y075342D01*
X022398Y075326D01*
X022397Y075325D01*
X022396Y075323D01*
X022393Y07532D01*
X02239Y075315D01*
X022385Y07531D01*
X022381Y075303D01*
X02237Y075286D01*
X02236Y075265D01*
X022351Y075241D01*
X022345Y075215D01*
X022344Y075201D01*
X022343Y075185D01*
Y075517D01*
X022344Y075518D01*
X022827Y075665D01*
Y075584D01*
X022914Y075611D01*
Y075691D01*
X023077Y07574D01*
Y075859D01*
X022914Y075809D01*
Y076041D01*
D02*
G37*
G36*
X022877Y074934D02*
X022865D01*
X022856Y074933D01*
X022845D01*
X022833Y074932D01*
X022818Y074931D01*
X022803Y074928D01*
X022785Y074926D01*
X022767Y074923D01*
X022726Y074916D01*
X022683Y074905D01*
X022638Y074891D01*
X022637D01*
X022633Y074889D01*
X022628Y074888D01*
X022621Y074885D01*
X022613Y074881D01*
X022602Y074877D01*
X022591Y074872D01*
X022579Y074866D01*
X022551Y074853D01*
X022522Y074838D01*
X022493Y074821D01*
X022465Y074802D01*
X022464Y0748D01*
X022462Y074799D01*
X022458Y074796D01*
X022453Y074793D01*
X022441Y074782D01*
X022426Y074769D01*
X022409Y074755D01*
X022394Y074738D01*
X022379Y074721D01*
X022373Y074713D01*
X022368Y074704D01*
X022367Y074702D01*
X022363Y074697D01*
X02236Y074688D01*
X022355Y074677D01*
X02235Y074664D01*
X022347Y074649D01*
X022344Y074632D01*
X022343Y074616D01*
Y074934D01*
D01*
Y074461D01*
X023077D01*
D01*
X022562D01*
X02257Y074462D01*
X022579D01*
X022589Y074463D01*
X022601D01*
X022626Y074466D01*
X022654Y074469D01*
X022686Y074475D01*
X022719Y074482D01*
X02272D01*
X022723Y074484D01*
X022727Y074485D01*
X022734Y074487D01*
X022742Y074489D01*
X02275Y074491D01*
X02276Y074494D01*
X022771Y074498D01*
X022796Y074506D01*
X022824Y074517D01*
X022852Y074529D01*
X02288Y074544D01*
X022881D01*
X022884Y074546D01*
X022887Y074547D01*
X022892Y07455D01*
X022899Y074553D01*
X022907Y074558D01*
X022923Y074569D01*
X022943Y074581D01*
X022963Y074596D01*
X022984Y074611D01*
X023004Y074629D01*
X023005Y07463D01*
X023009Y074634D01*
X023015Y074641D01*
X023021Y074649D01*
X02303Y074659D01*
X023039Y074672D01*
X023048Y074686D01*
X023056Y074701D01*
X023057Y074703D01*
X02306Y074709D01*
X023063Y074716D01*
X023066Y074727D01*
X023071Y07474D01*
X023074Y074755D01*
X023076Y074771D01*
X023077Y074787D01*
Y074794D01*
X023076Y074803D01*
X023074Y074813D01*
X023072Y074825D01*
X023067Y074837D01*
X023061Y07485D01*
X023053Y074863D01*
X023052Y074864D01*
X023049Y074868D01*
X023042Y074874D01*
X023034Y074881D01*
X023025Y07489D01*
X023012Y074899D01*
X022996Y074908D01*
X02298Y074915D01*
X022979D01*
X022978Y074916D01*
X022971Y074919D01*
X022961Y074921D01*
X022949Y074924D01*
X022934Y074928D01*
X022916Y074931D01*
X022897Y074933D01*
X022877Y074934D01*
D02*
G37*
G36*
Y0744D02*
X022865D01*
X022856Y074399D01*
X022845D01*
X022833Y074398D01*
X022818Y074397D01*
X022803Y074395D01*
X022785Y074393D01*
X022767Y07439D01*
X022726Y074383D01*
X022683Y074372D01*
X022638Y074358D01*
X022637D01*
X022633Y074356D01*
X022628Y074355D01*
X022621Y074351D01*
X022613Y074348D01*
X022602Y074344D01*
X022591Y074338D01*
X022579Y074333D01*
X022551Y07432D01*
X022522Y074304D01*
X022493Y074288D01*
X022465Y074268D01*
X022464Y074267D01*
X022462Y074266D01*
X022458Y074263D01*
X022453Y074259D01*
X022441Y074249D01*
X022426Y074235D01*
X022409Y074221D01*
X022394Y074205D01*
X022379Y074187D01*
X022373Y07418D01*
X022368Y074171D01*
X022367Y074169D01*
X022363Y074163D01*
X02236Y074155D01*
X022355Y074144D01*
X02235Y07413D01*
X022347Y074115D01*
X022344Y074099D01*
X022343Y074082D01*
Y0744D01*
D01*
Y073927D01*
X023077D01*
D01*
X022562D01*
X02257Y073928D01*
X022579D01*
X022589Y073929D01*
X022601D01*
X022626Y073933D01*
X022654Y073936D01*
X022686Y073941D01*
X022719Y073949D01*
X02272D01*
X022723Y07395D01*
X022727Y073951D01*
X022734Y073953D01*
X022742Y073956D01*
X02275Y073958D01*
X02276Y073961D01*
X022771Y073964D01*
X022796Y073973D01*
X022824Y073984D01*
X022852Y073996D01*
X02288Y07401D01*
X022881D01*
X022884Y074012D01*
X022887Y074014D01*
X022892Y074017D01*
X022899Y07402D01*
X022907Y074024D01*
X022923Y074035D01*
X022943Y074047D01*
X022963Y074063D01*
X022984Y074078D01*
X023004Y074096D01*
X023005Y074097D01*
X023009Y074101D01*
X023015Y074108D01*
X023021Y074115D01*
X02303Y074126D01*
X023039Y074138D01*
X023048Y074152D01*
X023056Y074168D01*
X023057Y07417D01*
X02306Y074175D01*
X023063Y074183D01*
X023066Y074194D01*
X023071Y074207D01*
X023074Y074221D01*
X023076Y074238D01*
X023077Y074254D01*
Y074261D01*
X023076Y074269D01*
X023074Y074279D01*
X023072Y074291D01*
X023067Y074303D01*
X023061Y074316D01*
X023053Y074329D01*
X023052Y074331D01*
X023049Y074335D01*
X023042Y07434D01*
X023034Y074348D01*
X023025Y074357D01*
X023012Y074365D01*
X022996Y074374D01*
X02298Y074382D01*
X022979D01*
X022978Y074383D01*
X022971Y074385D01*
X022961Y074387D01*
X022949Y074391D01*
X022934Y074395D01*
X022916Y074397D01*
X022897Y074399D01*
X022877Y0744D01*
D02*
G37*
G36*
X023063Y073901D02*
D01*
X023044Y073895D01*
Y073878D01*
X023043Y073867D01*
X023041Y073842D01*
X023039Y073831D01*
X023037Y073822D01*
Y073821D01*
X023034Y073819D01*
X023033Y073815D01*
X02303Y073809D01*
X023021Y073798D01*
X02301Y073787D01*
X023009Y073786D01*
X023007Y073785D01*
X023002Y073782D01*
X022994Y073779D01*
X022984Y073774D01*
X022971Y07377D01*
X022955Y073763D01*
X022935Y073758D01*
X022584Y073655D01*
X022583D01*
X022581Y073654D01*
X022577Y073653D01*
X022571Y073651D01*
X022558Y073647D01*
X022543Y073642D01*
X022527Y073638D01*
X022514Y073633D01*
X022509Y073632D01*
X022503Y07363D01*
X022501Y073629D01*
X022499D01*
X022498D01*
X022497Y073628D01*
X022491Y073627D01*
X022483Y073626D01*
X022474D01*
X022473D01*
X022469D01*
X022466Y073627D01*
X022461Y073628D01*
X022449Y073631D01*
X022443Y073635D01*
X022438Y07364D01*
X022437Y073641D01*
X022436Y073642D01*
X022433Y073645D01*
X02243Y07365D01*
X022428Y073656D01*
X022426Y073663D01*
X022425Y07367D01*
X022423Y07368D01*
Y073691D01*
X022425Y073699D01*
Y073707D01*
X022426Y073718D01*
X022427Y073732D01*
X022407Y073736D01*
X022343Y07347D01*
Y073448D01*
X023063D01*
Y073901D01*
D02*
G37*
G36*
Y073368D02*
D01*
X023044Y073362D01*
Y073345D01*
X023043Y073334D01*
X023041Y073309D01*
X023039Y073298D01*
X023037Y073289D01*
Y073288D01*
X023034Y073286D01*
X023033Y073281D01*
X02303Y073276D01*
X023021Y073265D01*
X02301Y073254D01*
X023009Y073253D01*
X023007Y073252D01*
X023002Y073248D01*
X022994Y073245D01*
X022984Y073241D01*
X022971Y073236D01*
X022955Y07323D01*
X022935Y073224D01*
X022584Y073122D01*
X022583D01*
X022581Y073121D01*
X022577Y073119D01*
X022571Y073117D01*
X022558Y073114D01*
X022543Y073109D01*
X022527Y073104D01*
X022514Y0731D01*
X022509Y073099D01*
X022503Y073096D01*
X022501Y073095D01*
X022499D01*
X022498D01*
X022497Y073094D01*
X022491Y073093D01*
X022483Y073092D01*
X022474D01*
X022473D01*
X022469D01*
X022466Y073093D01*
X022461Y073094D01*
X022449Y073098D01*
X022443Y073102D01*
X022438Y073106D01*
X022437Y073107D01*
X022436Y073109D01*
X022433Y073112D01*
X02243Y073116D01*
X022428Y073123D01*
X022426Y073129D01*
X022425Y073137D01*
X022423Y073147D01*
Y073158D01*
X022425Y073165D01*
Y073174D01*
X022426Y073185D01*
X022427Y073198D01*
X022407Y073203D01*
X022343Y072937D01*
Y073368D01*
D01*
Y072915D01*
X023063D01*
D01*
X022343D01*
X022935Y07309D01*
X022937Y073091D01*
X022943Y073092D01*
X02295Y073094D01*
X02296Y073096D01*
X02297Y0731D01*
X02298Y073102D01*
X022987Y073103D01*
X022994Y073104D01*
X022995D01*
X022996D01*
X023002Y073103D01*
X02301Y0731D01*
X02302Y073094D01*
X023022Y073092D01*
X023027Y073088D01*
X023033Y073081D01*
X023038Y073074D01*
Y073072D01*
X023039Y073071D01*
Y073067D01*
X02304Y07306D01*
X023041Y073052D01*
X023042Y073041D01*
X023043Y073025D01*
X023044Y073006D01*
X023063Y073011D01*
Y073368D01*
D02*
G37*
G36*
X022545Y072735D02*
D01*
X022357Y07264D01*
Y072735D01*
D01*
Y072322D01*
D01*
Y072269D01*
X022381D01*
X023077Y072683D01*
D01*
X023054Y072726D01*
X022483Y072386D01*
Y072567D01*
X022484Y07258D01*
X022485Y072595D01*
X022486Y072611D01*
X022488Y072628D01*
X022492Y072643D01*
X022497Y072657D01*
X022498Y072658D01*
X022499Y072663D01*
X022503Y072668D01*
X022508Y072676D01*
X022514Y072686D01*
X022523Y072695D01*
X022533Y072705D01*
X022545Y072715D01*
Y072735D01*
D02*
G37*
G36*
X023063Y072322D02*
X023044D01*
X023043Y072319D01*
X023038Y072315D01*
X023031Y072307D01*
X023021Y072298D01*
X023009Y072284D01*
X022995Y07227D01*
X022994Y072269D01*
D01*
X02298Y072254D01*
X022962Y072236D01*
X022944Y072218D01*
X022924Y072198D01*
X022881Y072157D01*
X022839Y072115D01*
X022795Y072076D01*
X022794Y072075D01*
X022791Y072072D01*
X022786Y072068D01*
X02278Y072063D01*
X022772Y072055D01*
X022762Y072048D01*
X022742Y072031D01*
X022719Y072012D01*
X022695Y071996D01*
X022673Y071981D01*
X022662Y071974D01*
X022652Y07197D01*
X022651D01*
X02265Y071969D01*
X022643Y071966D01*
X022633Y071963D01*
X02262Y071959D01*
X022605Y071954D01*
X022589Y071951D01*
X02257Y071949D01*
X022551Y071948D01*
X02255D01*
X022549D01*
X022544D01*
X022535Y071949D01*
X022524Y071951D01*
X022512Y071955D01*
X022499Y071961D01*
X022487Y071969D01*
X022475Y071978D01*
X022474Y071979D01*
X02247Y071984D01*
X022465Y07199D01*
X02246Y071999D01*
X022454Y072009D01*
X022449Y072022D01*
X022445Y072036D01*
X022444Y072053D01*
Y072059D01*
X022445Y072065D01*
X022446Y072071D01*
X022449Y072078D01*
X022454Y072095D01*
X022458Y072104D01*
X022464Y072115D01*
X02247Y072125D01*
X022478Y072135D01*
X022487Y072146D01*
X022498Y072157D01*
X02251Y072166D01*
X022524Y072176D01*
X022515Y072196D01*
X022514D01*
X022512Y072195D01*
X022508Y072193D01*
X022502Y07219D01*
X022497Y072188D01*
X022489Y072185D01*
X022472Y072177D01*
X022453Y072166D01*
X022433Y072154D01*
X022415Y072141D01*
X022398Y072126D01*
X022397Y072125D01*
X022396Y072123D01*
X022393Y072119D01*
X02239Y072115D01*
X022385Y07211D01*
X022381Y072103D01*
X02237Y072085D01*
X02236Y072065D01*
X022351Y072041D01*
X022345Y072014D01*
X022344Y072D01*
X022343Y071985D01*
Y072322D01*
D01*
Y071811D01*
X023063D01*
D01*
X022505D01*
X022516Y071812D01*
X02253Y071814D01*
X022546Y071817D01*
X022564Y071821D01*
X022583Y071828D01*
X022603Y071835D01*
X022604D01*
X022605Y071836D01*
X022608Y071837D01*
X022613Y07184D01*
X022624Y071847D01*
X022639Y071857D01*
X022657Y07187D01*
X02268Y071888D01*
X022692Y071897D01*
X022705Y071908D01*
X02272Y071922D01*
X022734Y071935D01*
X022735Y071936D01*
X022737Y071938D01*
X02274Y071941D01*
X022746Y071947D01*
X022752Y071953D01*
X022761Y071962D01*
X022771Y071972D01*
X022782Y071985D01*
X022796Y071999D01*
X022812Y072016D01*
X022828Y072035D01*
X022848Y072056D01*
X022868Y072079D01*
X022891Y072105D01*
X022915Y072134D01*
X022943Y072165D01*
Y07202D01*
X022942Y072009D01*
X02294Y071995D01*
X022939Y071979D01*
X022936Y071964D01*
X022933Y07195D01*
X022928Y071939D01*
X022927Y071938D01*
X022925Y071935D01*
X022921Y071929D01*
X022915Y071923D01*
X022907Y071915D01*
X022897Y071907D01*
X022884Y071899D01*
X022868Y07189D01*
Y071866D01*
X023063Y071948D01*
Y072269D01*
X023077D01*
D01*
X023063D01*
Y072322D01*
D02*
G37*
%LPD*%
G36*
X023024Y085142D02*
X023022Y085135D01*
X023021Y085125D01*
X02302Y085115D01*
X023016Y08509D01*
X023008Y085064D01*
X023003Y085051D01*
X022996Y085038D01*
X022989Y085026D01*
X02298Y085013D01*
X02297Y085003D01*
X022959Y084994D01*
X022958Y084993D01*
X022956Y084992D01*
X022952Y084989D01*
X022948Y084986D01*
X022942Y084983D01*
X022935Y08498D01*
X022918Y084971D01*
X022897Y084962D01*
X022873Y084956D01*
X022848Y08495D01*
X02282Y084948D01*
X022819D01*
X022814D01*
X022807Y084949D01*
X022798Y08495D01*
X022789Y084952D01*
X022779Y084956D01*
X022768Y08496D01*
X022757Y084966D01*
X022756Y084968D01*
X022752Y08497D01*
X022748Y084973D01*
X022742Y084979D01*
X022735Y084985D01*
X02273Y084993D01*
X022723Y085001D01*
X022719Y085011D01*
Y085012D01*
X022716Y085017D01*
X022715Y085023D01*
X022713Y085032D01*
X022711Y085045D01*
X02271Y08506D01*
X022708Y085079D01*
Y085102D01*
X023024Y085192D01*
Y085142D01*
D02*
G37*
G36*
X022668Y085079D02*
X022667Y085067D01*
X022666Y085051D01*
X022663Y085033D01*
X02266Y085015D01*
X022654Y084997D01*
X022648Y084981D01*
X022646Y084979D01*
X022643Y084974D01*
X022638Y084966D01*
X02263Y084958D01*
X022621Y084947D01*
X022609Y084936D01*
X022594Y084926D01*
X022578Y084916D01*
X022577D01*
X022575Y084915D01*
X022569Y084912D01*
X02256Y084909D01*
X022548Y084903D01*
X022534Y084899D01*
X022519Y084895D01*
X022502Y084892D01*
X022486Y084891D01*
X022484D01*
X022479D01*
X022472Y084892D01*
X022463Y084894D01*
X022452Y084898D01*
X022441Y084902D01*
X02243Y084909D01*
X02242Y084917D01*
X022419Y084918D01*
X022416Y084922D01*
X022411Y084927D01*
X022407Y084935D01*
X022403Y084945D01*
X022398Y084956D01*
X022396Y084969D01*
X022395Y084984D01*
X022396Y085012D01*
X022668Y085091D01*
Y085079D01*
D02*
G37*
G36*
X022358Y084918D02*
X022359Y084897D01*
X022361Y084875D01*
X022364Y084854D01*
X022366Y084844D01*
X022368Y084836D01*
Y084835D01*
X022369Y084834D01*
X02237Y084828D01*
X022373Y084818D01*
X022379Y084807D01*
X022385Y084794D01*
X022393Y08478D01*
X022404Y084766D01*
X022416Y084754D01*
X022417Y084753D01*
X022422Y08475D01*
X02243Y084745D01*
X02244Y084739D01*
X022452Y084735D01*
X022466Y084729D01*
X022481Y084726D01*
X022498Y084725D01*
X022357D01*
Y084939D01*
X022358Y084918D01*
D02*
G37*
G36*
X023079Y083846D02*
X023063D01*
Y08397D01*
X023044Y083964D01*
Y083955D01*
X023043Y083947D01*
X023042Y083936D01*
X02304Y083923D01*
X023036Y083911D01*
X023031Y083899D01*
X023025Y083889D01*
X023024Y083888D01*
X02302Y083884D01*
X023015Y08388D01*
X023006Y083873D01*
X022994Y083867D01*
X022979Y083859D01*
X02296Y083852D01*
X022948Y083847D01*
X022936Y083844D01*
X022485Y083715D01*
X022483Y083714D01*
X022478Y083713D01*
X02247Y083711D01*
X022461Y083708D01*
X02244Y083705D01*
X02243Y083703D01*
X022421D01*
X02242D01*
X022418D01*
X022415Y083704D01*
X02241Y083705D01*
X022401Y083708D01*
X022395Y083713D01*
X022391Y083717D01*
Y083718D01*
X022389Y08372D01*
X022387Y083725D01*
X022384Y083731D01*
X022382Y08374D01*
X02238Y083752D01*
X022378Y083769D01*
X022375Y083787D01*
X022357Y083782D01*
Y083846D01*
D01*
X022375Y083852D01*
Y083854D01*
X022376Y083858D01*
X022378Y083866D01*
X022379Y083875D01*
X022385Y083895D01*
X022391Y083905D01*
X022396Y083915D01*
X022397Y083916D01*
X022402Y08392D01*
X022407Y083927D01*
X022417Y083935D01*
X022429Y083943D01*
X022443Y083953D01*
X022462Y083961D01*
X022483Y083969D01*
X022807Y084061D01*
X022809D01*
X022814Y084064D01*
X022821Y084066D01*
X022832Y084069D01*
X022844Y084073D01*
X022859Y084079D01*
X022874Y084086D01*
X02289Y084092D01*
X022925Y08411D01*
X02296Y084129D01*
X022978Y084141D01*
X022993Y084153D01*
X023007Y084166D01*
X023019Y08418D01*
X02302Y084181D01*
X023021Y084183D01*
X023025Y084187D01*
X023029Y084193D01*
X023033Y0842D01*
X023038Y084209D01*
X023043Y084219D01*
X023049Y084231D01*
X023055Y084244D01*
X023061Y084258D01*
X023065Y084274D01*
X023069Y084291D01*
X023074Y084308D01*
X023077Y084327D01*
X023078Y084348D01*
X023079Y084369D01*
Y083846D01*
D02*
G37*
G36*
X022932Y083029D02*
X022946Y083026D01*
X022961Y083023D01*
X022978Y083018D01*
X022993Y083011D01*
X023006Y083002D01*
X023007Y083001D01*
X02301Y082997D01*
X023016Y082991D01*
X023021Y082983D01*
X023028Y082973D01*
X023032Y082961D01*
X023037Y082947D01*
X023038Y082931D01*
Y082926D01*
X023037Y082921D01*
X023036Y082912D01*
X023033Y082897D01*
X023029Y082882D01*
X023022Y082866D01*
X023013Y082849D01*
X023001Y082834D01*
X022999Y082833D01*
X022997Y082831D01*
X022993Y082826D01*
X022986Y082821D01*
X022979Y082814D01*
X022969Y082806D01*
X022958Y082797D01*
X022945Y082788D01*
X02293Y082777D01*
X022913Y082767D01*
X022895Y082756D01*
X022875Y082746D01*
X022853Y082735D01*
X02283Y082724D01*
X022805Y082714D01*
X022779Y082704D01*
X022777Y082703D01*
X022772Y082702D01*
X022765Y0827D01*
X022754Y082696D01*
X022742Y082692D01*
X022726Y082688D01*
X02271Y082683D01*
X022691Y082679D01*
X022672Y082674D01*
X022651Y08267D01*
X022607Y082661D01*
X022561Y082656D01*
X022539Y082654D01*
X022517D01*
X022516D01*
X022514D01*
X022511D01*
X022505D01*
X022493Y082655D01*
X022478Y082657D01*
X022461Y08266D01*
X022444Y082666D01*
X022428Y082672D01*
X022415Y082681D01*
X022414Y082682D01*
X022409Y082685D01*
X022404Y082692D01*
X022398Y0827D01*
X022392Y082709D01*
X022387Y08272D01*
X022383Y082733D01*
X022382Y082748D01*
Y082754D01*
X022383Y082762D01*
X022384Y082772D01*
X022385Y082783D01*
X022389Y082795D01*
X022392Y082806D01*
X022397Y082818D01*
X022398Y082819D01*
X022401Y082822D01*
X022404Y082829D01*
X022409Y082836D01*
X022416Y082845D01*
X022425Y082855D01*
X022436Y082866D01*
X022448Y082878D01*
X022449Y082879D01*
X022454Y082883D01*
X022462Y082889D01*
X022473Y082897D01*
X022487Y082906D01*
X022504Y082917D01*
X022524Y082929D01*
X022547Y082941D01*
X022548D01*
X02255Y082942D01*
X022554Y082944D01*
X022559Y082947D01*
X022566Y08295D01*
X022573Y082953D01*
X022583Y082956D01*
X022593Y082961D01*
X022605Y082965D01*
X022618Y082971D01*
X022632Y082975D01*
X022649Y08298D01*
X022665Y082986D01*
X022684Y082991D01*
X022702Y082997D01*
X022723Y083002D01*
X022724D01*
X022727Y083003D01*
X022734Y083005D01*
X022742Y083007D01*
X022751Y083009D01*
X022762Y083011D01*
X022774Y083013D01*
X022789Y083015D01*
X022818Y083021D01*
X022849Y083025D01*
X02288Y083029D01*
X02291Y08303D01*
X022911D01*
X022913D01*
X022916D01*
X02292D01*
X022932Y083029D01*
D02*
G37*
G36*
X022343Y082707D02*
X022345Y082691D01*
X022348Y082673D01*
X022355Y082653D01*
X022362Y082632D01*
X022373Y08261D01*
Y082609D01*
X022374Y082608D01*
X022376Y082605D01*
X022379Y0826D01*
X022386Y08259D01*
X022396Y082577D01*
X022409Y082563D01*
X022425Y082548D01*
X022442Y082533D01*
X022463Y08252D01*
X022464D01*
X022465Y082519D01*
X022468Y082517D01*
X022473Y082515D01*
X022485Y082509D01*
X0225Y082504D01*
X022517Y082497D01*
X022538Y082493D01*
X02256Y082489D01*
X022583Y082488D01*
X02234D01*
Y082719D01*
X022343Y082707D01*
D02*
G37*
G36*
X022925Y08223D02*
X022933Y082229D01*
X022943Y082226D01*
X022955Y082222D01*
X022967Y082216D01*
X02298Y082208D01*
X022992Y082197D01*
X022993Y082196D01*
X022996Y08219D01*
X023002Y082183D01*
X023007Y082172D01*
X023014Y082159D01*
X023018Y082142D01*
X023022Y082124D01*
X023024Y082102D01*
Y082092D01*
X023022Y082082D01*
X023021Y082069D01*
X023019Y082055D01*
X023015Y082038D01*
X02301Y082023D01*
X023004Y082008D01*
X023003Y082006D01*
X022999Y082001D01*
X022995Y081994D01*
X022989Y081985D01*
X022981Y081974D01*
X022971Y081963D01*
X022959Y081952D01*
X022946Y081942D01*
X022945D01*
X022944Y081941D01*
X02294Y081939D01*
X022937Y081937D01*
X022932Y081933D01*
X022925Y08193D01*
X022919Y081926D01*
X02291Y081921D01*
X022889Y081913D01*
X022865Y081902D01*
X022837Y081892D01*
X022804Y081881D01*
X022484Y081789D01*
X022483D01*
X022479Y081788D01*
X022474Y081787D01*
X022467Y081785D01*
X022453Y081783D01*
X022438Y081781D01*
X022437D01*
X022432D01*
X022427Y081783D01*
X022419Y081785D01*
X022411Y081787D01*
X022403Y081791D01*
X022395Y081797D01*
X022387Y081804D01*
X022386Y081806D01*
X022385Y081808D01*
X022383Y081812D01*
X022381Y081819D01*
X022379Y081827D01*
X022378Y081839D01*
X022375Y081854D01*
Y081871D01*
X022357Y081866D01*
Y081991D01*
X022375Y081997D01*
Y082006D01*
X022376Y082014D01*
X022379Y082026D01*
X022381Y082038D01*
X022385Y082051D01*
X022391Y082065D01*
X022398Y082075D01*
X022399Y082077D01*
X022403Y08208D01*
X022408Y082084D01*
X022417Y082091D01*
X022429Y082098D01*
X022443Y082105D01*
X022462Y082113D01*
X022484Y08212D01*
X022793Y082209D01*
X022794D01*
X022796Y08221D01*
X022801Y082211D01*
X022806Y082212D01*
X022813Y082214D01*
X02282Y082215D01*
X022838Y08222D01*
X022857Y082224D01*
X022878Y082227D01*
X022899Y08223D01*
X022918Y082231D01*
X02292D01*
X022925Y08223D01*
D02*
G37*
G36*
X022793Y081282D02*
X022562Y081269D01*
X022793Y081465D01*
Y081282D01*
D02*
G37*
G36*
X022986Y081136D02*
X022994Y081134D01*
X023012Y08113D01*
X02302Y081127D01*
X023027Y081122D01*
X023028Y081121D01*
X023029Y081119D01*
X023032Y081116D01*
X023034Y081111D01*
X023038Y081105D01*
X023041Y081096D01*
X023043Y081086D01*
X023044Y081075D01*
X02234D01*
Y081113D01*
X02292Y081136D01*
X022922D01*
X022927D01*
X022934D01*
X022944D01*
X022952Y081137D01*
X022961D01*
X022969D01*
X022974D01*
X022975D01*
X02298D01*
X022986Y081136D01*
D02*
G37*
G36*
X022829Y080408D02*
X022486Y080309D01*
X022485D01*
X022481Y080308D01*
X022476Y080307D01*
X022468Y080305D01*
X022453Y080303D01*
X022436Y080302D01*
X022434D01*
X022431D01*
X022427Y080303D01*
X02242Y080304D01*
X022414Y080306D01*
X022407Y080308D01*
X022401Y080312D01*
X022394Y080318D01*
X022393Y080319D01*
X022392Y080321D01*
X022389Y080326D01*
X022386Y080331D01*
X022383Y080339D01*
X02238Y080349D01*
X022378Y080359D01*
X022375Y080374D01*
X022357Y080368D01*
Y080628D01*
X022829Y080408D01*
D02*
G37*
G36*
X022342Y07964D02*
Y07963D01*
X022344Y079611D01*
Y07961D01*
X022345Y079606D01*
Y079602D01*
X022347Y079594D01*
X022349Y079586D01*
X022351Y079574D01*
X022355Y079559D01*
X022359Y079543D01*
Y079542D01*
X02236Y079538D01*
X022361Y079532D01*
X022362Y079526D01*
X022366Y079511D01*
X022367Y079506D01*
Y079496D01*
X022366Y079492D01*
X022363Y079486D01*
X02236Y07948D01*
X022356Y079472D01*
X022349Y079464D01*
X02234Y079457D01*
Y079649D01*
X022342Y07964D01*
D02*
G37*
G36*
X022683Y078625D02*
X022485Y078568D01*
X022483D01*
X022478Y078566D01*
X02247Y078565D01*
X022462Y078563D01*
X022441Y078559D01*
X022431Y078557D01*
X022422D01*
X022421D01*
X022419D01*
X022415Y078558D01*
X02241Y078559D01*
X022401Y078563D01*
X022395Y078567D01*
X022391Y078571D01*
Y078572D01*
X022389Y078575D01*
X022387Y078578D01*
X022384Y078584D01*
X022382Y078593D01*
X02238Y078605D01*
X022378Y078619D01*
X022375Y078638D01*
X022357Y078633D01*
Y0787D01*
X022375Y078708D01*
Y078716D01*
X022376Y078724D01*
X022378Y078735D01*
X022381Y078747D01*
X022384Y078759D01*
X02239Y07877D01*
X022396Y078781D01*
X022397Y078782D01*
X022401Y078786D01*
X022406Y07879D01*
X022415Y078795D01*
X022427Y078802D01*
X022442Y07881D01*
X022462Y078817D01*
X022473Y078822D01*
X022485Y078825D01*
X022683Y078883D01*
Y078625D01*
D02*
G37*
G36*
X022925Y078116D02*
X022933Y078114D01*
X022943Y078112D01*
X022955Y078108D01*
X022967Y078102D01*
X02298Y078094D01*
X022992Y078083D01*
X022993Y078082D01*
X022996Y078076D01*
X023002Y078069D01*
X023007Y078058D01*
X023014Y078045D01*
X023018Y078028D01*
X023022Y07801D01*
X023024Y077988D01*
Y077978D01*
X023022Y077968D01*
X023021Y077955D01*
X023019Y077941D01*
X023015Y077924D01*
X02301Y077909D01*
X023004Y077894D01*
X023003Y077891D01*
X022999Y077887D01*
X022995Y077879D01*
X022989Y077871D01*
X022981Y07786D01*
X022971Y077849D01*
X022959Y077838D01*
X022946Y077828D01*
X022945D01*
X022944Y077827D01*
X02294Y077825D01*
X022937Y077823D01*
X022932Y077819D01*
X022925Y077816D01*
X022919Y077812D01*
X02291Y077807D01*
X022889Y077799D01*
X022865Y077788D01*
X022837Y077778D01*
X022804Y077767D01*
X022484Y077675D01*
X022483D01*
X022479Y077674D01*
X022474Y077673D01*
X022467Y077671D01*
X022453Y077669D01*
X022438Y077667D01*
X022437D01*
X022432D01*
X022427Y077669D01*
X022419Y077671D01*
X022411Y077673D01*
X022403Y077677D01*
X022395Y077683D01*
X022387Y07769D01*
X022386Y077691D01*
X022385Y077694D01*
X022383Y077698D01*
X022381Y077705D01*
X022379Y077713D01*
X022378Y077725D01*
X022375Y07774D01*
Y077757D01*
X022357Y077752D01*
Y077877D01*
X022375Y077883D01*
Y077891D01*
X022376Y0779D01*
X022379Y077912D01*
X022381Y077924D01*
X022385Y077937D01*
X022391Y077951D01*
X022398Y077961D01*
X022399Y077963D01*
X022403Y077966D01*
X022408Y07797D01*
X022417Y077977D01*
X022429Y077984D01*
X022443Y077991D01*
X022462Y077999D01*
X022484Y078006D01*
X022793Y078095D01*
X022794D01*
X022796Y078096D01*
X022801Y078097D01*
X022806Y078098D01*
X022813Y0781D01*
X02282Y078101D01*
X022838Y078106D01*
X022857Y07811D01*
X022878Y078113D01*
X022899Y078116D01*
X022918Y078117D01*
X02292D01*
X022925Y078116D01*
D02*
G37*
G36*
X022452Y077229D02*
X022458D01*
X022466Y077228D01*
X022477Y077226D01*
X022489Y077224D01*
X022504Y07722D01*
X022711Y077174D01*
X022556Y07706D01*
X022555D01*
X022554Y077058D01*
X02255Y077055D01*
X022546Y077053D01*
X022535Y077046D01*
X022522Y077037D01*
X022508Y077027D01*
X022493Y077018D01*
X022481Y077011D01*
X02247Y077005D01*
X022469D01*
X022466Y077003D01*
X022462Y077002D01*
X022455Y077D01*
X022441Y076996D01*
X022427Y076994D01*
X022426D01*
X022423D01*
X02242Y076995D01*
X022416Y076996D01*
X022405Y077D01*
X022399Y077004D01*
X022394Y077008D01*
X022393Y077009D01*
X022392Y077011D01*
X02239Y077015D01*
X022386Y077019D01*
X022383Y077026D01*
X02238Y077033D01*
X022378Y077043D01*
X022375Y077054D01*
X022357Y077048D01*
Y077129D01*
X022375Y077135D01*
Y077143D01*
X022376Y077152D01*
X022378Y077162D01*
X022381Y077174D01*
X022384Y077186D01*
X02239Y077197D01*
X022396Y077207D01*
X022397Y077208D01*
X022399Y077211D01*
X022404Y077215D01*
X022409Y077218D01*
X022417Y077223D01*
X022425Y077227D01*
X022434Y077229D01*
X022444Y07723D01*
X022445D01*
X022448D01*
X022452Y077229D01*
D02*
G37*
G36*
X022827Y075784D02*
X022514Y07569D01*
X022827Y075966D01*
Y075784D01*
D02*
G37*
G36*
X022344Y075172D02*
Y075167D01*
X022345Y075159D01*
X022348Y075142D01*
X022354Y075122D01*
X022362Y075101D01*
X022374Y07508D01*
X022381Y07507D01*
X02239Y075061D01*
Y07506D01*
X022392Y075058D01*
X022397Y075053D01*
X022407Y075045D01*
X02242Y075035D01*
X022436Y075027D01*
X022454Y075019D01*
X022475Y075014D01*
X022486Y075011D01*
X022343D01*
X022343Y075178D01*
X022344Y075172D01*
D02*
G37*
G36*
X022997Y074828D02*
X023004Y074827D01*
X023017Y074823D01*
X023024Y07482D01*
X023029Y074816D01*
X02303Y074815D01*
X023031Y074814D01*
X023033Y07481D01*
X023036Y074806D01*
X023041Y074795D01*
X023042Y074788D01*
X023043Y074782D01*
Y074779D01*
X023042Y074774D01*
Y074769D01*
X023039Y074758D01*
X023032Y074747D01*
X023031Y074746D01*
X023028Y074743D01*
X023022Y074737D01*
X023014Y074731D01*
X023003Y074723D01*
X02299Y074715D01*
X022973Y074708D01*
X022954Y074701D01*
X022952D01*
X022947Y074699D01*
X02294Y074697D01*
X02293Y074693D01*
X022916Y074689D01*
X0229Y074684D01*
X022881Y074678D01*
X02286Y074672D01*
X022836Y074664D01*
X022808Y074655D01*
X022779Y074646D01*
X022747Y074637D01*
X022712Y074627D01*
X022675Y074616D01*
X022636Y074605D01*
X022594Y074593D01*
X022593D01*
X02259Y074592D01*
X022584Y07459D01*
X022578Y074588D01*
X022569Y074586D01*
X022559Y074583D01*
X022548Y074581D01*
X022536Y074578D01*
X02251Y074573D01*
X022484Y074568D01*
X022457Y074564D01*
X022434Y074563D01*
X022433D01*
X02243D01*
X022426Y074564D01*
X022419Y074565D01*
X022406Y074569D01*
X022399Y074573D01*
X022393Y074578D01*
X022392Y074579D01*
X022391Y07458D01*
X022389Y074583D01*
X022385Y074587D01*
X02238Y074598D01*
X022379Y074604D01*
X022378Y074611D01*
Y074614D01*
X022379Y07462D01*
X02238Y074629D01*
X022384Y074639D01*
X022385Y074641D01*
X02239Y074646D01*
X022396Y074654D01*
X022402Y074658D01*
X022408Y074664D01*
X022409Y074665D01*
X022411Y074666D01*
X022417Y074669D01*
X022425Y074673D01*
X022436Y074678D01*
X022449Y074684D01*
X022465Y07469D01*
X022486Y074697D01*
X022487D01*
X022491Y074699D01*
X022497Y0747D01*
X022505Y074703D01*
X022515Y074706D01*
X022528Y074711D01*
X022543Y074715D01*
X022559Y074721D01*
X022578Y074726D01*
X022598Y074733D01*
X022619Y074739D01*
X022643Y074747D01*
X022668Y074755D01*
X022695Y074762D01*
X022722Y07477D01*
X02275Y074779D01*
X022751D01*
X022756Y07478D01*
X022761Y074782D01*
X02277Y074784D01*
X022779Y074786D01*
X02279Y07479D01*
X022815Y074796D01*
X022841Y074804D01*
X022866Y07481D01*
X022877Y074813D01*
X022888Y074816D01*
X022897Y074818D01*
X022904Y074819D01*
X022907D01*
X022912Y07482D01*
X022922Y074822D01*
X022933Y074823D01*
X022946Y074826D01*
X02296Y074828D01*
X022974Y074829D01*
X022989D01*
X02299D01*
X022993D01*
X022997Y074828D01*
D02*
G37*
G36*
X022344Y074597D02*
X022346Y074585D01*
X02235Y074572D01*
X022355Y074558D01*
X022362Y074544D01*
X022372Y074529D01*
X022373Y074528D01*
X022378Y074524D01*
X022384Y074517D01*
X022393Y07451D01*
X022404Y074501D01*
X022418Y074492D01*
X022433Y074484D01*
X022451Y074477D01*
X022453Y074476D01*
X02246Y074475D01*
X022469Y074471D01*
X022481Y074468D01*
X022496Y074466D01*
X022512Y074463D01*
X022531Y074462D01*
X022548Y074461D01*
X022343D01*
Y074607D01*
X022344Y074597D01*
D02*
G37*
G36*
X022997Y074294D02*
X023004Y074293D01*
X023017Y07429D01*
X023024Y074287D01*
X023029Y074282D01*
X02303Y074281D01*
X023031Y07428D01*
X023033Y074277D01*
X023036Y074273D01*
X023041Y074262D01*
X023042Y074255D01*
X023043Y074249D01*
Y074245D01*
X023042Y074241D01*
Y074235D01*
X023039Y074224D01*
X023032Y074214D01*
X023031Y074212D01*
X023028Y074209D01*
X023022Y074204D01*
X023014Y074197D01*
X023003Y07419D01*
X02299Y074182D01*
X022973Y074174D01*
X022954Y074168D01*
X022952D01*
X022947Y074165D01*
X02294Y074163D01*
X02293Y07416D01*
X022916Y074156D01*
X0229Y07415D01*
X022881Y074145D01*
X02286Y074138D01*
X022836Y07413D01*
X022808Y074122D01*
X022779Y074113D01*
X022747Y074103D01*
X022712Y074093D01*
X022675Y074082D01*
X022636Y074071D01*
X022594Y074059D01*
X022593D01*
X02259Y074058D01*
X022584Y074056D01*
X022578Y074055D01*
X022569Y074053D01*
X022559Y07405D01*
X022548Y074047D01*
X022536Y074044D01*
X02251Y07404D01*
X022484Y074034D01*
X022457Y074031D01*
X022434Y07403D01*
X022433D01*
X02243D01*
X022426Y074031D01*
X022419Y074032D01*
X022406Y074035D01*
X022399Y07404D01*
X022393Y074044D01*
X022392Y074045D01*
X022391Y074046D01*
X022389Y07405D01*
X022385Y074054D01*
X02238Y074065D01*
X022379Y07407D01*
X022378Y074078D01*
Y07408D01*
X022379Y074087D01*
X02238Y074096D01*
X022384Y074105D01*
X022385Y074108D01*
X02239Y074113D01*
X022396Y074121D01*
X022402Y074125D01*
X022408Y07413D01*
X022409Y074132D01*
X022411Y074133D01*
X022417Y074136D01*
X022425Y074139D01*
X022436Y074145D01*
X022449Y07415D01*
X022465Y074157D01*
X022486Y074163D01*
X022487D01*
X022491Y074165D01*
X022497Y074167D01*
X022505Y07417D01*
X022515Y074173D01*
X022528Y074177D01*
X022543Y074182D01*
X022559Y074187D01*
X022578Y074193D01*
X022598Y074199D01*
X022619Y074206D01*
X022643Y074214D01*
X022668Y074221D01*
X022695Y074229D01*
X022722Y074236D01*
X02275Y074245D01*
X022751D01*
X022756Y074246D01*
X022761Y074249D01*
X02277Y074251D01*
X022779Y074253D01*
X02279Y074256D01*
X022815Y074263D01*
X022841Y07427D01*
X022866Y074277D01*
X022877Y074279D01*
X022888Y074282D01*
X022897Y074285D01*
X022904Y074286D01*
X022907D01*
X022912Y074287D01*
X022922Y074289D01*
X022933Y07429D01*
X022946Y074292D01*
X02296Y074294D01*
X022974Y074296D01*
X022989D01*
X02299D01*
X022993D01*
X022997Y074294D01*
D02*
G37*
G36*
X022344Y074064D02*
X022346Y074052D01*
X02235Y074039D01*
X022355Y074024D01*
X022362Y07401D01*
X022372Y073996D01*
X022373Y073995D01*
X022378Y073991D01*
X022384Y073984D01*
X022393Y073976D01*
X022404Y073968D01*
X022418Y073959D01*
X022433Y07395D01*
X022451Y073944D01*
X022453Y073942D01*
X02246Y073941D01*
X022469Y073938D01*
X022481Y073935D01*
X022496Y073933D01*
X022512Y073929D01*
X022531Y073928D01*
X022548Y073927D01*
X022343D01*
Y074074D01*
X022344Y074064D01*
D02*
G37*
G36*
X023002Y073636D02*
X02301Y073633D01*
X02302Y073628D01*
X023022Y073626D01*
X023027Y073621D01*
X023033Y073615D01*
X023038Y073607D01*
Y073606D01*
X023039Y073605D01*
Y0736D01*
X02304Y073594D01*
X023041Y073585D01*
X023042Y073574D01*
X023043Y073559D01*
X023044Y073539D01*
X023063Y073545D01*
Y073448D01*
X022343D01*
X022935Y073623D01*
X022937Y073624D01*
X022943Y073626D01*
X02295Y073628D01*
X02296Y07363D01*
X02297Y073633D01*
X02298Y073635D01*
X022987Y073636D01*
X022994Y073638D01*
X022995D01*
X022996D01*
X023002Y073636D01*
D02*
G37*
G36*
X022344Y071972D02*
Y071966D01*
X022345Y071959D01*
X022348Y071941D01*
X022354Y071922D01*
X022362Y071901D01*
X022374Y07188D01*
X022381Y07187D01*
X02239Y07186D01*
Y071859D01*
X022392Y071858D01*
X022397Y071853D01*
X022407Y071845D01*
X02242Y071835D01*
X022436Y071826D01*
X022454Y071819D01*
X022475Y071813D01*
X022486Y071811D01*
X022343D01*
Y071977D01*
X022344Y071972D01*
D02*
G37*
%LPC*%
G36*
X025267Y085314D02*
X025249Y085309D01*
Y0853D01*
X025248Y085291D01*
X025247Y08528D01*
X025243Y085268D01*
X02524Y085255D01*
X025234Y085243D01*
X025228Y085232D01*
X025227Y085231D01*
X025224Y085228D01*
X025218Y085224D01*
X02521Y085217D01*
X0252Y08521D01*
X025185Y085203D01*
X025169Y085195D01*
X025148Y085189D01*
X024703Y085062D01*
X024701Y085061D01*
X024696Y08506D01*
X024688Y085057D01*
X024678Y085055D01*
X024666Y085053D01*
X024654Y085051D01*
X024642Y085049D01*
X024631D01*
X02463D01*
X024627D01*
X024622Y08505D01*
X024618Y085051D01*
X024606Y085055D01*
X024601Y085059D01*
X024596Y085064D01*
X024595Y085065D01*
X024594Y085067D01*
X024592Y085072D01*
X02459Y085078D01*
X024586Y085088D01*
X024584Y085101D01*
X024582Y085118D01*
X02458Y085138D01*
X024561Y085132D01*
Y085314D01*
X025267D01*
X024561D01*
Y08453D01*
D01*
Y084872D01*
X024562Y084859D01*
X024563Y084843D01*
X024566Y084826D01*
X024568Y084805D01*
X024571Y084784D01*
X024575Y084761D01*
X02458Y084739D01*
X024586Y084716D01*
X024594Y084694D01*
X024603Y084672D01*
X024614Y084651D01*
X024625Y084631D01*
X024639Y084615D01*
X02464Y084614D01*
X024642Y084612D01*
X024646Y084607D01*
X024653Y084602D01*
X024661Y084595D01*
X024671Y084587D01*
X024683Y08458D01*
X024695Y084572D01*
X02471Y084565D01*
X024726Y084557D01*
X024744Y084549D01*
X024763Y084543D01*
X024784Y084537D01*
X024807Y084533D01*
X024831Y084531D01*
X024856Y08453D01*
X024561D01*
X025267D01*
X024866D01*
X024873Y084531D01*
X024881D01*
X024891Y084532D01*
X024902Y084533D01*
X024914Y084534D01*
X024939Y084539D01*
X024968Y084546D01*
X024995Y084556D01*
X025021Y084569D01*
X025022Y08457D01*
X025027Y084572D01*
X025033Y084577D01*
X025042Y084582D01*
X025053Y08459D01*
X025065Y084598D01*
X025079Y084608D01*
X025093Y08462D01*
X025109Y084633D01*
X025124Y084647D01*
X025156Y084678D01*
X02517Y084695D01*
X025184Y084712D01*
X025197Y084731D01*
X025209Y08475D01*
X02521Y084751D01*
X025212Y084755D01*
X025215Y084761D01*
X025218Y084769D01*
X025222Y08478D01*
X025228Y084792D01*
X025233Y084807D01*
X025238Y084824D01*
X025243Y084842D01*
X025249Y084862D01*
X025254Y084885D01*
X025259Y084909D01*
X025262Y084934D01*
X025265Y084961D01*
X025266Y08499D01*
X025267Y08502D01*
Y085314D01*
D02*
G37*
G36*
X025284Y084451D02*
X024545D01*
Y083798D01*
D01*
Y083975D01*
X024547Y083963D01*
X024549Y083947D01*
X024552Y083928D01*
X024559Y083908D01*
X024567Y083887D01*
X024578Y083865D01*
Y083864D01*
X024579Y083863D01*
X024581Y08386D01*
X024583Y083855D01*
X024591Y083845D01*
X024602Y083832D01*
X024614Y083818D01*
X02463Y083803D01*
X024648Y083788D01*
X024668Y083775D01*
X024669D01*
D01*
X024671Y083774D01*
X024674Y083772D01*
X024678Y08377D01*
X024689Y083764D01*
X024704Y083759D01*
X024722Y083752D01*
X024742Y083748D01*
X024762Y083744D01*
X024784Y083743D01*
X024785D01*
X02479D01*
X024797D01*
X024807Y083744D01*
X024819Y083745D01*
X024832Y083747D01*
X024849Y083749D01*
X024866Y083754D01*
X024886Y083758D01*
X024907Y083763D01*
X024928Y08377D01*
X024951Y083778D01*
X024974Y083787D01*
X024997Y083798D01*
D01*
X024999Y083799D01*
X025024Y083811D01*
X025049Y083827D01*
X02505Y083828D01*
X025054Y08383D01*
X025061Y083835D01*
X025071Y083841D01*
X025081Y08385D01*
X025093Y083858D01*
X025108Y083869D01*
X025122Y083881D01*
X025137Y083896D01*
X025154Y08391D01*
X025185Y083942D01*
X025201Y083959D01*
X025215Y083976D01*
X025228Y083995D01*
X02524Y084015D01*
Y084016D01*
X025242Y084018D01*
X025244Y084022D01*
X025247Y084029D01*
X02525Y084037D01*
X025254Y084046D01*
X025257Y084056D01*
X025262Y084068D01*
X025266Y084083D01*
X025269Y084097D01*
X025274Y084113D01*
X025277Y08413D01*
X025281Y084168D01*
X025284Y084208D01*
Y084216D01*
X025283Y084222D01*
Y08423D01*
X025281Y084238D01*
X025279Y084257D01*
X025275Y084279D01*
X025269Y084302D01*
X025261Y084325D01*
X02525Y084346D01*
Y084347D01*
X025248Y084348D01*
X025243Y084355D01*
X025236Y084363D01*
X025225Y084375D01*
X025212Y084389D01*
X025195Y084402D01*
X025175Y084414D01*
X025155Y084425D01*
X025154D01*
X025151Y084426D01*
X025148Y084427D01*
X025144Y084429D01*
X025133Y084433D01*
X025116Y084438D01*
X025099Y084442D01*
X025079Y084446D01*
X025059Y08445D01*
X025037Y084451D01*
X025284D01*
D01*
D02*
G37*
G36*
X025267Y083798D02*
X025249Y083794D01*
Y083793D01*
X025248Y08379D01*
X025247Y083784D01*
X025244Y083776D01*
X025239Y083761D01*
X025229Y083744D01*
X025228Y083743D01*
D01*
X025225Y083738D01*
X025219Y083732D01*
X02521Y083723D01*
X025198Y083711D01*
X025184Y083697D01*
X025166Y08368D01*
X025143Y083661D01*
X024545Y08316D01*
Y083137D01*
X025124Y08316D01*
X025126D01*
X025132D01*
X025138D01*
X025148D01*
X025157Y083161D01*
X025166D01*
X025173D01*
X025179D01*
X02518D01*
X025184D01*
X025191Y08316D01*
X025198Y083159D01*
X025216Y083155D01*
X025225Y083151D01*
X025231Y083147D01*
X025232Y083146D01*
X025233Y083144D01*
X025237Y08314D01*
X025239Y083136D01*
X025242Y083129D01*
X025245Y083121D01*
X025248Y083111D01*
X025249Y0831D01*
D01*
X025267Y083105D01*
Y0831D01*
D01*
Y083743D01*
D01*
Y083798D01*
D02*
G37*
G36*
X025275Y083062D02*
X024561D01*
Y082171D01*
D01*
X02458Y082176D01*
Y082179D01*
X024581Y082183D01*
X024582Y082192D01*
X024584Y082201D01*
X024587Y082212D01*
X024592Y082224D01*
X024597Y082236D01*
X024605Y082247D01*
X024606Y082248D01*
X024609Y082252D01*
X024615Y082257D01*
X024623Y082264D01*
X024634Y08227D01*
X02465Y082278D01*
X024668Y082286D01*
X02469Y082293D01*
X025275Y082462D01*
Y082478D01*
X024674Y082765D01*
X025143Y082899D01*
X025144D01*
X025147Y0829D01*
X025151Y082901D01*
X025158Y082902D01*
X025172Y082905D01*
X025186Y082906D01*
X025187D01*
X025191D01*
X025196Y082905D01*
X025203Y082904D01*
X02521Y082902D01*
X025218Y082899D01*
X025226Y082894D01*
X025232Y082888D01*
X025233Y082887D01*
X025234Y082885D01*
X025238Y08288D01*
X02524Y082874D01*
X025243Y082865D01*
X025247Y082855D01*
X025248Y082843D01*
X025249Y082829D01*
X025267Y082833D01*
Y083062D01*
X025249Y083057D01*
Y083047D01*
X025248Y083041D01*
X025247Y083028D01*
X025245Y083021D01*
X025244Y083017D01*
Y083016D01*
X025242Y083014D01*
X02524Y083009D01*
X025237Y083004D01*
X025232Y082997D01*
X025227Y08299D01*
X02522Y082982D01*
X025213Y082974D01*
X025212Y082973D01*
X025208Y082971D01*
X025203Y082967D01*
X025195Y082962D01*
X025185Y082957D01*
X025173Y08295D01*
X025159Y082945D01*
X025144Y08294D01*
X02463Y082793D01*
X024629Y082794D01*
X024625Y082797D01*
X024619Y082802D01*
X024613Y082808D01*
X024599Y082822D01*
X024594Y08283D01*
X02459Y082837D01*
Y082838D01*
X024589Y08284D01*
X024586Y082844D01*
X024585Y08285D01*
X024583Y082856D01*
X024582Y082866D01*
X024581Y082876D01*
X02458Y082888D01*
X024561Y082884D01*
Y083062D01*
X025275D01*
D02*
G37*
G36*
X025267Y082029D02*
X025249Y082023D01*
Y082015D01*
X025248Y082006D01*
X025247Y081995D01*
X025243Y081983D01*
X02524Y08197D01*
X025234Y081958D01*
X025228Y081947D01*
X025227Y081946D01*
X025224Y081942D01*
X025218Y081938D01*
X02521Y081931D01*
X0252Y081925D01*
X025185Y081917D01*
X025169Y08191D01*
X025148Y081903D01*
X024703Y081776D01*
X024701Y081775D01*
X024696Y081774D01*
X024688Y081772D01*
X024678Y08177D01*
X024666Y081768D01*
X024654Y081765D01*
X024642Y081763D01*
X024631D01*
X02463D01*
X024627D01*
X024622Y081764D01*
X024618Y081765D01*
X024606Y08177D01*
X024601Y081773D01*
X024596Y081778D01*
X024595Y08178D01*
X024594Y081782D01*
X024592Y081786D01*
X02459Y081793D01*
X024586Y081803D01*
X024584Y081816D01*
X024582Y081832D01*
X02458Y081853D01*
X024561Y081846D01*
Y082029D01*
X025267D01*
X024561D01*
Y081244D01*
D01*
Y081586D01*
X024562Y081573D01*
X024563Y081558D01*
X024566Y08154D01*
X024568Y081519D01*
X024571Y081499D01*
X024575Y081476D01*
X02458Y081454D01*
X024586Y081431D01*
X024594Y081408D01*
X024603Y081386D01*
X024614Y081365D01*
X024625Y081346D01*
X024639Y081329D01*
X02464Y081328D01*
X024642Y081326D01*
X024646Y081322D01*
X024653Y081316D01*
X024661Y08131D01*
X024671Y081302D01*
X024683Y081294D01*
X024695Y081287D01*
X02471Y081279D01*
X024726Y081271D01*
X024744Y081264D01*
X024763Y081257D01*
X024784Y081252D01*
X024807Y081247D01*
X024831Y081245D01*
X024856Y081244D01*
X024561D01*
X025267D01*
X024866D01*
X024873Y081245D01*
X024881D01*
X024891Y081246D01*
X024902Y081247D01*
X024914Y081248D01*
X024939Y081254D01*
X024968Y08126D01*
X024995Y08127D01*
X025021Y081283D01*
X025022Y081284D01*
X025027Y081287D01*
X025033Y081291D01*
X025042Y081296D01*
X025053Y081304D01*
X025065Y081313D01*
X025079Y081323D01*
X025093Y081335D01*
X025109Y081348D01*
X025124Y081361D01*
X025156Y081393D01*
X02517Y081409D01*
X025184Y081427D01*
X025197Y081445D01*
X025209Y081465D01*
X02521Y081466D01*
X025212Y081469D01*
X025215Y081476D01*
X025218Y081483D01*
X025222Y081494D01*
X025228Y081506D01*
X025233Y081522D01*
X025238Y081538D01*
X025243Y081557D01*
X025249Y081576D01*
X025254Y081599D01*
X025259Y081623D01*
X025262Y081648D01*
X025265Y081676D01*
X025266Y081704D01*
X025267Y081735D01*
Y082029D01*
D02*
G37*
G36*
X025284Y081124D02*
X024561D01*
X0251D01*
X025091Y081123D01*
X025079Y081122D01*
X025064Y081118D01*
X025045Y081115D01*
X025024Y08111D01*
X024997Y081103D01*
X024688Y081014D01*
X024686Y081013D01*
X024681Y081012D01*
X024674Y08101D01*
X024665Y081008D01*
X024644Y081005D01*
X024634Y081002D01*
X024626D01*
X024625D01*
X024622D01*
X024619Y081004D01*
X024615Y081005D01*
X024605Y081009D01*
X024599Y081012D01*
X024595Y081018D01*
Y081019D01*
X024593Y081021D01*
X024592Y081025D01*
X024589Y081032D01*
X024586Y081041D01*
X024584Y081053D01*
X024582Y081068D01*
X02458Y081087D01*
X024561Y081081D01*
Y08073D01*
X02458Y080736D01*
Y080744D01*
X024581Y080753D01*
X024583Y080765D01*
X024585Y080777D01*
X02459Y08079D01*
X024595Y080804D01*
X024603Y080814D01*
X024604Y080816D01*
X024607Y080819D01*
X024613Y080823D01*
X024621Y08083D01*
X024633Y080837D01*
X024648Y080844D01*
X024666Y080852D01*
X024688Y080859D01*
X024997Y080948D01*
X024998D01*
X025001Y080949D01*
X025005Y08095D01*
X02501Y080951D01*
X025017Y080953D01*
X025025Y080954D01*
X025042Y080959D01*
X025062Y080963D01*
X025083Y080966D01*
X025103Y080969D01*
X025122Y08097D01*
X025124D01*
X02513Y080969D01*
X025137Y080967D01*
X025147Y080965D01*
X025159Y080961D01*
X025171Y080955D01*
X025184Y080947D01*
X025196Y080936D01*
X025197Y080935D01*
X025201Y080929D01*
X025206Y080922D01*
X025212Y080911D01*
X025218Y080898D01*
X025222Y080881D01*
X025227Y080863D01*
X025228Y080841D01*
Y080831D01*
X025227Y080821D01*
X025226Y080808D01*
X025224Y080794D01*
X025219Y080777D01*
X025215Y080762D01*
X025208Y080747D01*
X025207Y080744D01*
X025204Y08074D01*
X0252Y080732D01*
X025193Y080724D01*
X025185Y080713D01*
X025175Y080702D01*
X025163Y080691D01*
X02515Y080681D01*
X025149D01*
X025148Y08068D01*
X025145Y080678D01*
X025142Y080676D01*
X025136Y080672D01*
X02513Y080669D01*
X025123Y080665D01*
X025114Y08066D01*
X025093Y080652D01*
X025069Y080641D01*
X025041Y080631D01*
X025008Y08062D01*
X024688Y080528D01*
X024687D01*
X024684Y080527D01*
X024678Y080526D01*
X024672Y080524D01*
X024657Y080522D01*
X024642Y08052D01*
X024641D01*
X024637D01*
X024631Y080522D01*
X024623Y080524D01*
X024616Y080526D01*
X024607Y08053D01*
X024599Y080536D01*
X024592Y080543D01*
X024591Y080544D01*
X02459Y080547D01*
X024587Y080551D01*
X024585Y080558D01*
X024583Y080566D01*
X024582Y080578D01*
X02458Y080593D01*
Y08061D01*
X024561Y080605D01*
Y080365D01*
X02458Y080371D01*
Y080373D01*
X024581Y080377D01*
X024582Y080385D01*
X024583Y080394D01*
X02459Y080414D01*
X024595Y080424D01*
X024601Y080434D01*
X024602Y080435D01*
X024606Y08044D01*
X024611Y080446D01*
X024621Y080454D01*
X024633Y080463D01*
X024648Y080472D01*
X024666Y08048D01*
X024687Y080488D01*
X025012Y080581D01*
X025014D01*
X025018Y080583D01*
X025026Y080585D01*
X025037Y080588D01*
X025049Y080593D01*
X025063Y080598D01*
X025078Y080605D01*
X025095Y080611D01*
X02513Y080629D01*
X025165Y080648D01*
X025182Y08066D01*
X025197Y080672D01*
X025212Y080685D01*
X025224Y080699D01*
X025225Y0807D01*
X025226Y080702D01*
X025229Y080706D01*
X025233Y080712D01*
X025238Y080719D01*
X025242Y080728D01*
X025248Y080738D01*
X025253Y08075D01*
X02526Y080763D01*
X025265Y080777D01*
X025269Y080793D01*
X025274Y08081D01*
X025278Y080828D01*
X025281Y080846D01*
X025283Y080867D01*
X025284Y080888D01*
Y080365D01*
D01*
Y081124D01*
D02*
G37*
G36*
X025267Y080349D02*
D01*
X025249Y080343D01*
Y080329D01*
X025248Y08032D01*
X025247Y080311D01*
X025245Y0803D01*
X025242Y08029D01*
X025239Y08028D01*
X025238Y080279D01*
X025237Y080276D01*
X025234Y080271D01*
X02523Y080267D01*
X025221Y080255D01*
X025216Y080249D01*
X025209Y080244D01*
X025208D01*
X025206Y080242D01*
X025203Y080241D01*
X025196Y080237D01*
X025187Y080234D01*
X025177Y08023D01*
X025161Y080224D01*
X025143Y080219D01*
X024956Y080172D01*
X024699Y080231D01*
X024698D01*
X024696Y080232D01*
X024692D01*
X024688Y080233D01*
X024676Y080236D01*
X024662Y080241D01*
X024646Y080246D01*
X024631Y080253D01*
X024618Y080259D01*
X024607Y080267D01*
X024606Y080268D01*
X024604Y08027D01*
X024601Y080275D01*
X024596Y08028D01*
X024592Y080289D01*
X024587Y080299D01*
X024583Y080311D01*
X02458Y080326D01*
X024561Y08032D01*
Y079982D01*
X02458Y079988D01*
Y079996D01*
X024581Y080005D01*
X024582Y080015D01*
X024585Y080027D01*
X024589Y08004D01*
X024594Y08005D01*
X024601Y08006D01*
X024602Y080061D01*
X024604Y080064D01*
X024608Y080068D01*
X024614Y080071D01*
X024621Y080076D01*
X024629Y08008D01*
X024639Y080082D01*
X024649Y080083D01*
X02465D01*
X024652D01*
X024656Y080082D01*
X024663D01*
X024671Y080081D01*
X024681Y080079D01*
X024693Y080077D01*
X024709Y080073D01*
X024915Y080027D01*
X02476Y079913D01*
X024759D01*
X024758Y079911D01*
X024755Y079908D01*
X02475Y079906D01*
X024739Y079899D01*
X024726Y07989D01*
X024712Y07988D01*
X024698Y079871D01*
X024686Y079864D01*
X024675Y079858D01*
X024674D01*
X024671Y079856D01*
X024666Y079855D01*
X02466Y079853D01*
X024645Y079849D01*
X024631Y079847D01*
X02463D01*
X024628D01*
X024625Y079848D01*
X02462Y079849D01*
X024609Y079853D01*
X024604Y079857D01*
X024598Y079861D01*
X024597Y079862D01*
X024596Y079864D01*
X024594Y079868D01*
X024591Y079872D01*
X024587Y079879D01*
X024584Y079886D01*
X024582Y079896D01*
X02458Y079907D01*
X024561Y079901D01*
Y07969D01*
X02458D01*
Y079691D01*
X024581Y079694D01*
X024582Y0797D01*
X024583Y079706D01*
X02459Y079723D01*
X024594Y079731D01*
X024599Y079739D01*
X024601Y07974D01*
X024603Y079743D01*
X024608Y079749D01*
X024618Y079756D01*
X024623Y079762D01*
X02463Y079768D01*
X024639Y079775D01*
X024648Y079783D01*
X024658Y07979D01*
X024671Y0798D01*
X024684Y07981D01*
X024699Y079821D01*
X024974Y080022D01*
X025138Y080064D01*
X02514Y080065D01*
X025146Y080066D01*
X025155Y080068D01*
X025165Y080071D01*
X025174Y080074D01*
X025184Y080077D01*
X025192Y080078D01*
X025197Y080079D01*
X025198D01*
X025201D01*
X025205Y080078D01*
X02521Y080077D01*
X025216Y080074D01*
X025222Y080072D01*
X025229Y080068D01*
X025234Y080062D01*
X025236Y080061D01*
X025237Y080059D01*
X025239Y080055D01*
X025241Y080048D01*
X025244Y080041D01*
X025247Y08003D01*
X025248Y080018D01*
X025249Y080003D01*
Y079984D01*
X025267Y07999D01*
Y07979D01*
Y080349D01*
D02*
G37*
G36*
Y079572D02*
D01*
X025249Y079566D01*
Y079557D01*
X025248Y079549D01*
X025247Y079538D01*
X025243Y079526D01*
X02524Y079513D01*
X025234Y079501D01*
X025228Y07949D01*
X025227Y079489D01*
X025224Y079485D01*
X025218Y079481D01*
X02521Y079474D01*
X0252Y079468D01*
X025185Y07946D01*
X025169Y079453D01*
X025148Y079446D01*
X024703Y079319D01*
X024701Y079318D01*
X024696Y079317D01*
X024688Y079315D01*
X024678Y079313D01*
X024666Y07931D01*
X024654Y079308D01*
X024642Y079306D01*
X024631D01*
X02463D01*
X024627D01*
X024622Y079307D01*
X024618Y079308D01*
X024606Y079313D01*
X024601Y079316D01*
X024596Y079321D01*
X024595Y079323D01*
X024594Y079325D01*
X024592Y079329D01*
X02459Y079336D01*
X024586Y079345D01*
X024584Y079359D01*
X024582Y079375D01*
X02458Y079396D01*
X024561Y079389D01*
Y079129D01*
X024562Y079116D01*
X024563Y079101D01*
X024566Y079083D01*
X024568Y079062D01*
X024571Y079042D01*
X024575Y079019D01*
X02458Y078997D01*
X024586Y078974D01*
X024594Y078951D01*
X024603Y078929D01*
X024614Y078908D01*
X024625Y078889D01*
X024639Y078872D01*
X02464Y078871D01*
X024642Y078869D01*
X024646Y078865D01*
X024653Y078859D01*
X024661Y078853D01*
X024671Y078845D01*
X024683Y078837D01*
X024695Y07883D01*
X02471Y078822D01*
X024726Y078814D01*
X024744Y078807D01*
X024763Y0788D01*
X024784Y078795D01*
X024807Y07879D01*
X024831Y078788D01*
X024856Y078787D01*
X024561D01*
X025267D01*
Y079572D01*
D02*
G37*
G36*
X025284Y078667D02*
X024561D01*
X0251D01*
X025091Y078666D01*
X025079Y078665D01*
X025064Y078661D01*
X025045Y078658D01*
X025024Y078652D01*
X024997Y078646D01*
X024688Y078557D01*
X024686Y078556D01*
X024681Y078555D01*
X024674Y078553D01*
X024665Y078551D01*
X024644Y078548D01*
X024634Y078545D01*
X024626D01*
X024625D01*
X024622D01*
X024619Y078546D01*
X024615Y078548D01*
X024605Y078552D01*
X024599Y078555D01*
X024595Y078561D01*
Y078562D01*
X024593Y078564D01*
X024592Y078568D01*
X024589Y078575D01*
X024586Y078584D01*
X024584Y078596D01*
X024582Y078611D01*
X02458Y07863D01*
X024561Y078624D01*
Y078273D01*
X02458Y078279D01*
Y078287D01*
X024581Y078296D01*
X024583Y078308D01*
X024585Y07832D01*
X02459Y078333D01*
X024595Y078346D01*
X024603Y078357D01*
X024604Y078358D01*
X024607Y078362D01*
X024613Y078366D01*
X024621Y078373D01*
X024633Y07838D01*
X024648Y078387D01*
X024666Y078395D01*
X024688Y078402D01*
X024997Y078491D01*
X024998D01*
X025001Y078492D01*
X025005Y078493D01*
X02501Y078494D01*
X025017Y078496D01*
X025025Y078497D01*
X025042Y078502D01*
X025062Y078506D01*
X025083Y078509D01*
X025103Y078512D01*
X025122Y078513D01*
X025124D01*
X02513Y078512D01*
X025137Y07851D01*
X025147Y078508D01*
X025159Y078504D01*
X025171Y078498D01*
X025184Y07849D01*
X025196Y078479D01*
X025197Y078478D01*
X025201Y078472D01*
X025206Y078464D01*
X025212Y078454D01*
X025218Y07844D01*
X025222Y078424D01*
X025227Y078405D01*
X025228Y078384D01*
Y078374D01*
X025227Y078364D01*
X025226Y078351D01*
X025224Y078337D01*
X025219Y07832D01*
X025215Y078305D01*
X025208Y07829D01*
X025207Y078287D01*
X025204Y078283D01*
X0252Y078275D01*
X025193Y078267D01*
X025185Y078256D01*
X025175Y078245D01*
X025163Y078234D01*
X02515Y078224D01*
X025149D01*
X025148Y078223D01*
X025145Y078221D01*
X025142Y078219D01*
X025136Y078215D01*
X02513Y078212D01*
X025123Y078208D01*
X025114Y078203D01*
X025093Y078195D01*
X025069Y078184D01*
X025041Y078174D01*
X025008Y078163D01*
X024688Y078071D01*
X024687D01*
X024684Y07807D01*
X024678Y078069D01*
X024672Y078067D01*
X024657Y078064D01*
X024642Y078063D01*
X024641D01*
X024637D01*
X024631Y078064D01*
X024623Y078067D01*
X024616Y078069D01*
X024607Y078073D01*
X024599Y078079D01*
X024592Y078086D01*
X024591Y078087D01*
X02459Y07809D01*
X024587Y078094D01*
X024585Y078101D01*
X024583Y078109D01*
X024582Y078121D01*
X02458Y078136D01*
Y078153D01*
X024561Y078148D01*
D01*
Y077926D01*
X024545D01*
Y077227D01*
X024769Y077279D01*
Y077297D01*
X024768D01*
X024764D01*
X02476Y077298D01*
X024754D01*
X024746Y077299D01*
X024737Y0773D01*
X024718Y077305D01*
X024696Y07731D01*
X024673Y077318D01*
X024651Y077329D01*
X024641Y077335D01*
X024632Y077343D01*
X02463Y077345D01*
X024625Y077351D01*
X024618Y077359D01*
X024609Y077373D01*
X024601Y077388D01*
X024594Y077406D01*
X024589Y077428D01*
X024586Y077452D01*
Y07746D01*
X024587Y077464D01*
X024589Y077472D01*
X02459Y07748D01*
X024594Y077498D01*
X024602Y07752D01*
X024606Y077532D01*
X024613Y077544D01*
X02462Y077557D01*
X024628Y07757D01*
X024638Y077585D01*
X024649Y077598D01*
X02465Y077599D01*
X024652Y077601D01*
X024655Y077604D01*
X024661Y07761D01*
X024666Y077616D01*
X024675Y077623D01*
X024684Y077632D01*
X024695Y07764D01*
X024708Y077649D01*
X024722Y077659D01*
X024737Y077669D01*
X024754Y07768D01*
X024772Y07769D01*
X024792Y077699D01*
X024814Y077709D01*
X024837Y077719D01*
X024838D01*
X024841Y077721D01*
X024846Y077722D01*
X024854Y077726D01*
X024864Y077729D01*
X024875Y077732D01*
X024887Y077735D01*
X0249Y077739D01*
X024915Y077743D01*
X024932Y077746D01*
X024966Y077753D01*
X025003Y077757D01*
X02504Y07776D01*
X025041D01*
X025044D01*
X025049D01*
X025054Y077758D01*
X025062D01*
X025071Y077757D01*
X02509Y077754D01*
X025113Y077749D01*
X025135Y077741D01*
X025157Y07773D01*
X025177Y077716D01*
Y077715D01*
X025179Y077714D01*
X025184Y077707D01*
X025192Y077697D01*
X0252Y077684D01*
X025208Y077667D01*
X025216Y077646D01*
X025221Y077622D01*
X025222Y077609D01*
X025224Y077594D01*
Y077584D01*
X025222Y077572D01*
X02522Y077557D01*
X025217Y07754D01*
X025213Y07752D01*
X025206Y0775D01*
X025197Y077481D01*
Y07748D01*
X025196Y077479D01*
X025192Y077472D01*
X025185Y077462D01*
X025175Y077448D01*
X025163Y077433D01*
X025148Y077415D01*
X025131Y077396D01*
X025109Y077376D01*
Y077351D01*
X02511Y077352D01*
X025113Y077354D01*
X025118Y077357D01*
X025124Y077362D01*
X025133Y077368D01*
X025142Y077375D01*
X025162Y077391D01*
X025185Y077412D01*
X025207Y077434D01*
X025228Y077458D01*
X025238Y07747D01*
X025245Y077482D01*
Y077483D01*
X025247Y077485D01*
X025249Y077488D01*
X025251Y077494D01*
X025254Y0775D01*
X025257Y077508D01*
X025261Y077517D01*
X025264Y077527D01*
X025268Y077538D01*
X025272Y07755D01*
X025277Y077577D01*
X025281Y077609D01*
X025284Y077643D01*
Y077655D01*
X025283Y077663D01*
X025281Y077674D01*
X025279Y077687D01*
X025277Y077702D01*
X025274Y077716D01*
X025271Y077732D01*
X025265Y077749D01*
X025259Y077766D01*
X025251Y077784D01*
X025242Y0778D01*
X025232Y077817D01*
X02522Y077833D01*
X025207Y077848D01*
X025206Y077849D01*
X025204Y077851D01*
X0252Y077856D01*
X025193Y07786D01*
X025185Y077866D01*
X025175Y077872D01*
X025166Y07788D01*
X025153Y077886D01*
X025139Y077894D01*
X025124Y077902D01*
X025107Y077908D01*
D01*
X025089Y077914D01*
X025069Y077918D01*
X02505Y077922D01*
X025028Y077925D01*
X025005Y077926D01*
X025004D01*
X024999D01*
X024993D01*
D01*
X024985Y077925D01*
X024974Y077923D01*
X024962Y077922D01*
X024948Y07792D01*
X024933Y077918D01*
X024916Y077915D01*
X024899Y07791D01*
X024898Y07791D01*
X024892Y077908D01*
D01*
X024862Y077899D01*
X024842Y077893D01*
X024822Y077884D01*
X024802Y077875D01*
X024782Y077864D01*
X024781Y077863D01*
X024778Y077861D01*
X024772Y077858D01*
X024764Y077852D01*
X024756Y077847D01*
X024745Y077838D01*
X024733Y077829D01*
X024721Y077819D01*
X024708Y077807D01*
X024693Y077793D01*
X024679Y077779D01*
X024665Y077763D01*
X024651Y077745D01*
X024637Y077727D01*
X024623Y077707D01*
X02461Y077686D01*
X024609Y077685D01*
X024607Y077681D01*
X024604Y077674D01*
X024601Y077667D01*
X024595Y077656D01*
X02459Y077644D01*
X024584Y077629D01*
X024578Y077613D01*
X024571Y077597D01*
X024566Y077578D01*
X024555Y077539D01*
X024551Y077519D01*
X024548Y077497D01*
X024546Y077476D01*
X024545Y077455D01*
Y077926D01*
X024561D01*
Y077908D01*
X02458Y077914D01*
Y077916D01*
X024581Y07792D01*
X024582Y077928D01*
X024583Y077937D01*
X02459Y077957D01*
X024595Y077967D01*
X024601Y077977D01*
X024602Y077978D01*
X024606Y077982D01*
X024611Y077989D01*
X024621Y077997D01*
X024633Y078005D01*
X024648Y078015D01*
X024666Y078023D01*
X024687Y078031D01*
X025012Y078123D01*
X025014D01*
X025018Y078126D01*
X025026Y078128D01*
X025037Y078131D01*
X025049Y078136D01*
X025063Y078141D01*
X025078Y078148D01*
X025095Y078154D01*
X02513Y078172D01*
X025165Y078191D01*
X025182Y078203D01*
X025197Y078215D01*
X025212Y078228D01*
X025224Y078242D01*
X025225Y078243D01*
X025226Y078245D01*
X025229Y078249D01*
X025233Y078255D01*
X025238Y078262D01*
X025242Y078271D01*
X025248Y078281D01*
X025253Y078293D01*
X02526Y078306D01*
X025265Y07832D01*
X025269Y078336D01*
X025274Y078353D01*
X025278Y07837D01*
X025281Y078389D01*
X025283Y07841D01*
X025284Y078431D01*
Y078064D01*
Y078442D01*
X025283Y078454D01*
X025281Y07847D01*
X025279Y078487D01*
X025276Y078507D01*
X025272Y078527D01*
X025265Y078546D01*
X025264Y078549D01*
X025262Y078554D01*
X025257Y078563D01*
X025253Y078574D01*
X02524Y078598D01*
X025232Y078609D01*
X025224Y078619D01*
X025222Y07862D01*
X025219Y078622D01*
X025214Y078626D01*
X025207Y078632D01*
X025198Y078637D01*
X025189Y078644D01*
X025178Y078649D01*
X025166Y078655D01*
X025165D01*
X02516Y078657D01*
X025154Y078658D01*
X025145Y07866D01*
X025136Y078662D01*
X025126Y078665D01*
X025116Y078666D01*
X025107Y078667D01*
X025284D01*
D01*
D02*
G37*
G36*
X025088Y077012D02*
X02498D01*
X025088D01*
X02498Y076978D01*
Y076675D01*
X025088Y076707D01*
Y076675D01*
D01*
Y077012D01*
D02*
G37*
G36*
X025281Y076378D02*
Y076195D01*
X025119Y076146D01*
Y076378D01*
D01*
X025031Y076353D01*
X024547Y075925D01*
Y075854D01*
X024548Y075855D01*
X025031Y076002D01*
Y075921D01*
X025119Y075948D01*
Y076028D01*
X025281Y076077D01*
Y075921D01*
Y076378D01*
D02*
G37*
G36*
X025267Y075859D02*
X025249D01*
X025248Y075857D01*
X025245Y075854D01*
D01*
X025242Y075852D01*
X025236Y075845D01*
X025226Y075835D01*
X025214Y075822D01*
X0252Y075807D01*
X025184Y075791D01*
X025167Y075774D01*
X025148Y075755D01*
X025128Y075735D01*
X025086Y075694D01*
X025043Y075652D01*
X024999Y075613D01*
X024998Y075612D01*
X024995Y07561D01*
X024991Y075605D01*
X024984Y0756D01*
X024977Y075592D01*
X024967Y075586D01*
X024946Y075568D01*
X024923Y075549D01*
X024899Y075533D01*
X024877Y075518D01*
X024866Y075511D01*
X024856Y075507D01*
X024855D01*
X024854Y075506D01*
X024848Y075504D01*
X024838Y0755D01*
X024825Y075496D01*
X024809Y075492D01*
X024793Y075488D01*
X024774Y075486D01*
X024756Y075485D01*
X024755D01*
X024754D01*
X024748D01*
X024739Y075486D01*
X024728Y075488D01*
X024716Y075493D01*
X024703Y075498D01*
X024691Y075506D01*
X024679Y075516D01*
X024678Y075517D01*
X024675Y075521D01*
X024669Y075528D01*
X024664Y075536D01*
X024658Y075546D01*
X024653Y075559D01*
X02465Y075574D01*
X024649Y07559D01*
Y075596D01*
X02465Y075602D01*
X024651Y075608D01*
X024653Y075615D01*
X024658Y075633D01*
X024663Y075641D01*
X024668Y075652D01*
X024675Y075662D01*
X024683Y075672D01*
X024691Y075683D01*
X024702Y075694D01*
X024714Y075704D01*
X024728Y075713D01*
X02472Y075733D01*
X024719D01*
X024716Y075732D01*
X024712Y07573D01*
X024707Y075728D01*
X024701Y075725D01*
X024693Y075722D01*
X024676Y075715D01*
X024657Y075704D01*
X024638Y075692D01*
X024619Y075678D01*
X024603Y075663D01*
X024602Y075662D01*
X024601Y07566D01*
X024597Y075657D01*
X024594Y075652D01*
X02459Y075647D01*
X024585Y07564D01*
X024574Y075623D01*
X024564Y075602D01*
X024556Y075578D01*
X024549Y075552D01*
X024548Y075537D01*
X024547Y075522D01*
Y075514D01*
X024548Y075509D01*
Y075504D01*
X024549Y075496D01*
X024552Y075478D01*
X024558Y075459D01*
X024567Y075438D01*
X024579Y075417D01*
X024585Y075407D01*
X024594Y075398D01*
Y075396D01*
X024596Y075395D01*
X024602Y07539D01*
X024611Y075382D01*
X024625Y075372D01*
X02464Y075364D01*
X024658Y075356D01*
X024679Y075351D01*
X02469Y075348D01*
X02471D01*
X024721Y075349D01*
X024734Y075352D01*
X02475Y075354D01*
X024769Y075358D01*
X024787Y075365D01*
X024807Y075372D01*
X024808D01*
X024809Y075374D01*
X024813Y075375D01*
X024817Y075377D01*
X024828Y075384D01*
X024843Y075394D01*
X024862Y075407D01*
X024885Y075425D01*
X024897Y075435D01*
X02491Y075446D01*
X024924Y075459D01*
X024938Y075472D01*
X024939Y075473D01*
X024942Y075475D01*
X024945Y075478D01*
X02495Y075484D01*
X024957Y07549D01*
X024966Y075499D01*
X024975Y075509D01*
X024986Y075522D01*
X025001Y075536D01*
X025016Y075553D01*
X025032Y075572D01*
X025052Y075593D01*
X025073Y075616D01*
X025096Y075642D01*
X02512Y075671D01*
X025147Y075702D01*
Y075557D01*
X025146Y075546D01*
X025145Y075532D01*
X025144Y075517D01*
X02514Y075501D01*
X025137Y075487D01*
X025133Y075476D01*
X025132Y075475D01*
X02513Y075472D01*
X025125Y075466D01*
X02512Y07546D01*
X025111Y075452D01*
X025101Y075445D01*
X025088Y075436D01*
X025073Y075427D01*
Y075403D01*
X025267Y075485D01*
Y075348D01*
D01*
Y075854D01*
Y075859D01*
D02*
G37*
G36*
Y075305D02*
D01*
X025249Y075299D01*
Y075282D01*
X025248Y075271D01*
X025245Y075246D01*
X025243Y075235D01*
X025241Y075226D01*
Y075225D01*
X025239Y075223D01*
X025238Y075218D01*
X025234Y075213D01*
X025226Y075202D01*
X025215Y075191D01*
X025214Y07519D01*
X025212Y075189D01*
X025206Y075185D01*
X025198Y075182D01*
X025189Y075178D01*
X025175Y075173D01*
X025159Y075167D01*
X025139Y075161D01*
X024789Y075059D01*
X024787D01*
X024785Y075058D01*
X024781Y075057D01*
X024775Y075054D01*
X024762Y075051D01*
X024747Y075046D01*
X024732Y075041D01*
X024719Y075037D01*
X024713Y075036D01*
X024708Y075034D01*
X024705Y075032D01*
X024703D01*
X024702D01*
X024701Y075031D01*
X024696Y07503D01*
X024687Y075029D01*
X024678D01*
X024677D01*
X024674D01*
X024671Y07503D01*
X024665Y075031D01*
X024653Y075035D01*
X024648Y075039D01*
X024642Y075043D01*
X024641Y075044D01*
X02464Y075046D01*
X024638Y075049D01*
X024634Y075053D01*
X024632Y07506D01*
X02463Y075066D01*
X024629Y075074D01*
X024628Y075084D01*
Y075095D01*
X024629Y075102D01*
Y075111D01*
X02463Y075122D01*
X024631Y075135D01*
X024611Y07514D01*
X024547Y074874D01*
Y074852D01*
X025139Y075027D01*
X025142Y075028D01*
X025147Y075029D01*
X025155Y075031D01*
X025165Y075034D01*
X025174Y075037D01*
X025184Y075039D01*
X025192Y07504D01*
X025198Y075041D01*
X0252D01*
X025201D01*
X025206Y07504D01*
X025215Y075037D01*
X025225Y075031D01*
X025227Y075029D01*
X025231Y075025D01*
X025238Y075018D01*
X025242Y075011D01*
Y07501D01*
X025243Y075008D01*
Y075004D01*
X025244Y074998D01*
X025245Y074989D01*
X025247Y074978D01*
X025248Y074963D01*
X025249Y074943D01*
X025267Y074948D01*
Y074852D01*
X024547D01*
X025267D01*
X025267Y075305D01*
D02*
G37*
G36*
X025267Y07483D02*
D01*
X025249Y074825D01*
Y074817D01*
X025248Y074808D01*
X025247Y074797D01*
X025244Y074785D01*
X025241Y074773D01*
X025237Y074763D01*
X02523Y074753D01*
X025229Y074752D01*
X025226Y074748D01*
X02522Y074744D01*
X025212Y074738D01*
X0252Y074732D01*
X025184Y074724D01*
X025166Y074717D01*
X025154Y074712D01*
X025142Y074709D01*
X024689Y07458D01*
X024687D01*
X024683Y074578D01*
X024675Y074577D01*
X024666Y074575D01*
X024646Y074571D01*
X024636Y074569D01*
X024627D01*
X024626D01*
X024623D01*
X024619Y07457D01*
X024615Y074571D01*
X024605Y074575D01*
X024599Y074579D01*
X024595Y074583D01*
Y074584D01*
X024593Y074587D01*
X024592Y07459D01*
X024589Y074596D01*
X024586Y074605D01*
X024584Y074616D01*
X024582Y07463D01*
X02458Y074648D01*
X024561Y074642D01*
Y074299D01*
X02458Y074307D01*
Y074314D01*
X024581Y074323D01*
X024582Y074334D01*
X024585Y074346D01*
X024589Y074358D01*
X024594Y074369D01*
X024601Y07438D01*
X024602Y074381D01*
X024605Y074384D01*
X02461Y074389D01*
X024619Y074394D01*
X024631Y074401D01*
X024646Y074408D01*
X024666Y074416D01*
X024677Y07442D01*
X024689Y074424D01*
X024887Y074482D01*
Y074224D01*
X024689Y074167D01*
X024687D01*
X024683Y074165D01*
X024675Y074164D01*
X024666Y074161D01*
X024645Y074158D01*
X024636Y074156D01*
X024627D01*
X024626D01*
X024623D01*
X024619Y074157D01*
X024615Y074158D01*
X024605Y074161D01*
X024599Y074166D01*
X024595Y07417D01*
Y074171D01*
X024593Y074173D01*
X024592Y074177D01*
X024589Y074183D01*
X024586Y074192D01*
X024584Y074204D01*
X024582Y074218D01*
X02458Y074237D01*
X024561Y074231D01*
Y073909D01*
X024547D01*
Y073436D01*
D01*
Y073582D01*
X024548Y073572D01*
X02455Y07356D01*
X024555Y073547D01*
X024559Y073533D01*
X024567Y073519D01*
X024576Y073504D01*
X024578Y073503D01*
X024582Y073499D01*
X024589Y073492D01*
X024597Y073485D01*
X024608Y073476D01*
X024622Y073467D01*
X024638Y073459D01*
X024655Y073452D01*
X024657Y073451D01*
X024664Y07345D01*
X024674Y073447D01*
X024686Y073443D01*
X0247Y073441D01*
X024716Y073438D01*
X024735Y073437D01*
X024752Y073436D01*
X024767D01*
X024774Y073437D01*
X024783D01*
X024793Y073438D01*
X024805D01*
X02483Y073441D01*
X024859Y073444D01*
X02489Y07345D01*
X024923Y073457D01*
X024924D01*
X024927Y073459D01*
X024932Y07346D01*
X024938Y073462D01*
X024946Y073464D01*
X024955Y073466D01*
X024965Y073469D01*
X024975Y073473D01*
X025001Y073482D01*
X025028Y073492D01*
X025056Y073504D01*
X025085Y073519D01*
X025086D01*
X025088Y073521D01*
X025091Y073522D01*
X025097Y073525D01*
X025103Y073529D01*
X025111Y073533D01*
X025127Y073544D01*
X025147Y073556D01*
X025168Y073571D01*
X025189Y073586D01*
X025208Y073604D01*
X025209Y073605D01*
X025214Y073609D01*
X025219Y073616D01*
X025226Y073624D01*
X025234Y073635D01*
X025243Y073647D01*
X025252Y073661D01*
X025261Y073676D01*
X025262Y073678D01*
X025264Y073684D01*
X025267Y073691D01*
X025271Y073702D01*
X025275Y073715D01*
X025278Y07373D01*
X02528Y073746D01*
X025281Y073762D01*
Y073769D01*
X02528Y073778D01*
X025278Y073788D01*
X025276Y0738D01*
X025272Y073812D01*
X025265Y073825D01*
X025257Y073838D01*
X025256Y073839D01*
X025253Y073843D01*
X025247Y073849D01*
X025239Y073856D01*
X025229Y073865D01*
X025216Y073874D01*
X025203Y073882D01*
D01*
X025201Y073883D01*
X025184Y07389D01*
X025183D01*
D01*
X025182Y073891D01*
X025175Y073894D01*
X025166Y073896D01*
X025154Y073899D01*
X025138Y073903D01*
X025121Y073906D01*
X025101Y073908D01*
X025081Y073909D01*
X02508D01*
X025076D01*
X025069D01*
D01*
X025061Y073908D01*
X02505D01*
X025038Y073907D01*
X025022Y073906D01*
X025007Y073903D01*
X02499Y073901D01*
X024971Y073898D01*
X024931Y073891D01*
X024887Y07388D01*
X024842Y073866D01*
X024841D01*
X024838Y073864D01*
X024832Y073863D01*
X024826Y07386D01*
X024817Y073856D01*
X024806Y073852D01*
X024795Y073847D01*
X024783Y073841D01*
X024756Y073828D01*
X024726Y073813D01*
X024698Y073796D01*
X024669Y073777D01*
X024668Y073776D01*
X024666Y073774D01*
X024663Y073771D01*
X024657Y073768D01*
X024645Y073757D01*
X02463Y073744D01*
X024614Y07373D01*
X024598Y073713D01*
X024583Y073696D01*
X024578Y073688D01*
X024572Y073679D01*
X024571Y073677D01*
X024568Y073672D01*
X024564Y073663D01*
X024559Y073652D01*
X024555Y073639D01*
X024551Y073624D01*
X024548Y073607D01*
X024547Y073591D01*
Y073909D01*
X024561D01*
Y073882D01*
X02458Y073887D01*
Y073896D01*
X024581Y073905D01*
X024583Y073917D01*
X024585Y07393D01*
X02459Y073943D01*
X024595Y073955D01*
X024603Y073966D01*
X024604Y073967D01*
X024607Y07397D01*
X024613Y073974D01*
X024621Y073981D01*
X024633Y073989D01*
X024649Y073995D01*
X024667Y074003D01*
X024689Y074011D01*
X025142Y074141D01*
X025144D01*
X025149Y074143D01*
X025157Y074145D01*
X025167Y074147D01*
X025187Y074152D01*
X025197Y074153D01*
X025205Y074154D01*
X025206D01*
X025208D01*
X025212Y074153D01*
X025216Y074152D01*
X025226Y074147D01*
X02523Y074144D01*
X025234Y074139D01*
X025236Y074138D01*
X025237Y074136D01*
X025239Y074131D01*
X025241Y074124D01*
X025244Y074115D01*
X025247Y074103D01*
X025248Y07409D01*
X025249Y074074D01*
X025267Y074078D01*
Y073909D01*
D01*
Y07483D01*
D02*
G37*
G36*
X025281Y073375D02*
X024547D01*
Y072902D01*
D01*
Y073049D01*
X024548Y073039D01*
X02455Y073027D01*
X024555Y073014D01*
X024559Y073D01*
X024567Y072985D01*
X024576Y072971D01*
X024578Y07297D01*
X024582Y072966D01*
X024589Y072959D01*
X024597Y072951D01*
X024608Y072943D01*
X024622Y072934D01*
X024638Y072925D01*
X024655Y072919D01*
X024657Y072918D01*
X024664Y072916D01*
X024674Y072913D01*
X024686Y07291D01*
X0247Y072908D01*
X024716Y072904D01*
X024735Y072903D01*
X024752Y072902D01*
X024767D01*
X024774Y072903D01*
X024783D01*
X024793Y072904D01*
X024805D01*
X02483Y072908D01*
X024859Y072911D01*
X02489Y072916D01*
X024923Y072924D01*
X024924D01*
X024927Y072925D01*
X024932Y072926D01*
X024938Y072928D01*
X024946Y072931D01*
X024955Y072933D01*
X024965Y072936D01*
X024975Y072939D01*
X025001Y072948D01*
X025028Y072959D01*
X025056Y072971D01*
X025085Y072985D01*
X025086D01*
X025088Y072987D01*
X025091Y072989D01*
X025097Y072992D01*
X025103Y072995D01*
X025111Y073D01*
X025127Y07301D01*
X025147Y073022D01*
X025168Y073038D01*
X025189Y073053D01*
X025208Y073071D01*
X025209Y073072D01*
X025214Y073076D01*
X025219Y073083D01*
X025226Y07309D01*
X025234Y073101D01*
X025243Y073113D01*
X025252Y073127D01*
X025261Y073143D01*
X025262Y073145D01*
X025264Y07315D01*
X025267Y073158D01*
X025271Y073169D01*
X025275Y073182D01*
X025278Y073196D01*
X02528Y073213D01*
X025281Y073229D01*
Y073236D01*
X02528Y073244D01*
X025278Y073254D01*
X025276Y073266D01*
X025272Y073278D01*
X025265Y073291D01*
X025257Y073304D01*
X025256Y073306D01*
X025253Y07331D01*
X025247Y073315D01*
X025239Y073323D01*
X025229Y073332D01*
X025216Y073341D01*
X025201Y073349D01*
X025184Y073357D01*
X025183D01*
X025182Y073358D01*
X025175Y07336D01*
X025166Y073362D01*
X025154Y073366D01*
X025138Y07337D01*
X025121Y073372D01*
X025101Y073374D01*
X025081Y073375D01*
X025281D01*
D02*
G37*
G36*
Y072837D02*
X024542D01*
D01*
X025057D01*
X02505Y072836D01*
X02504D01*
X025028Y072834D01*
X025015Y072832D01*
X025001Y07283D01*
X024985Y072828D01*
X024969Y072825D01*
X024933Y072816D01*
X024895Y072804D01*
X024876Y072797D01*
X024856Y072789D01*
X024855Y072787D01*
X024852Y072786D01*
X024846Y072783D01*
X024839Y07278D01*
X02483Y072774D01*
X02482Y072769D01*
X024808Y072762D01*
X024796Y072755D01*
X024769Y072737D01*
X02474Y072715D01*
X024711Y072691D01*
X024684Y072665D01*
X024683Y072664D01*
X02468Y072662D01*
X024677Y072657D01*
X024672Y072652D01*
X024666Y072645D01*
X02466Y072637D01*
X024652Y072627D01*
X024643Y072617D01*
X024626Y072593D01*
X024608Y072566D01*
X024592Y072536D01*
X024576Y072504D01*
Y072503D01*
X024575Y072501D01*
X024574Y072498D01*
X024572Y072492D01*
X02457Y072486D01*
X024567Y072479D01*
X024564Y07247D01*
X024561Y072461D01*
X024556Y072439D01*
X024549Y072414D01*
X024545Y072386D01*
X024542Y072357D01*
X024562D01*
Y072358D01*
X024563Y07236D01*
X024564Y072364D01*
X024567Y07237D01*
X024569Y072378D01*
X024572Y072385D01*
X02458Y072404D01*
X024591Y072427D01*
X024605Y07245D01*
X024621Y072474D01*
X024641Y072498D01*
X024642Y072499D01*
X024644Y072501D01*
X024649Y072505D01*
X024654Y072511D01*
X024661Y072517D01*
X024669Y072525D01*
X02468Y072534D01*
X024691Y072543D01*
X024704Y072552D01*
X02472Y072563D01*
X024735Y072574D01*
X024752Y072585D01*
X024771Y072596D01*
X024791Y072607D01*
X024813Y072618D01*
X024834Y072629D01*
Y072628D01*
X024833Y072627D01*
X024832Y07262D01*
X024829Y072611D01*
X024826Y072599D01*
X024824Y072586D01*
X02482Y072572D01*
X024819Y072558D01*
X024818Y072545D01*
Y072539D01*
X024819Y072535D01*
X02482Y072524D01*
X024824Y07251D01*
X024829Y072495D01*
X024837Y072478D01*
X024848Y072462D01*
X024863Y072446D01*
X024865Y072444D01*
X024871Y07244D01*
X024881Y072434D01*
X024895Y072427D01*
X024912Y072419D01*
X024934Y072414D01*
X024959Y072409D01*
X024987Y072407D01*
X024989D01*
X024992D01*
X024997D01*
X025005Y072408D01*
X025014Y072409D01*
X025025Y07241D01*
X025037Y072411D01*
X02505Y072415D01*
X025079Y072421D01*
X025111Y072432D01*
X025127Y072439D01*
X025144Y072446D01*
X02516Y072455D01*
X025177Y072466D01*
X025178Y072467D01*
X025181Y072469D01*
X025186Y072474D01*
X025193Y072479D01*
X025201Y072486D01*
X025209Y072495D01*
X025219Y072505D01*
X025229Y072516D01*
X025239Y07253D01*
X025249Y072544D01*
X025257Y072559D01*
X025265Y072577D01*
X025272Y072594D01*
X025277Y072614D01*
X02528Y072634D01*
X025281Y072656D01*
Y072664D01*
X02528Y072669D01*
X025279Y072677D01*
X025278Y072685D01*
X025275Y072703D01*
X025268Y072724D01*
X025259Y072746D01*
X025252Y072757D01*
X025244Y072768D01*
X025237Y072778D01*
X025227Y072787D01*
X025226D01*
X025225Y07279D01*
X025221Y072792D01*
X025217Y072795D01*
X02521Y072798D01*
X025204Y072803D01*
X025195Y072807D01*
X025186Y072811D01*
X025175Y072817D01*
X025163Y072821D01*
X02515Y072826D01*
X025136Y072829D01*
X025121Y072832D01*
X025104Y072834D01*
X025087Y072836D01*
X025068Y072837D01*
X025281D01*
D02*
G37*
G36*
Y072309D02*
Y072169D01*
X02528Y072178D01*
X025278Y072187D01*
X025276Y072199D01*
X025272Y072211D01*
X025265Y072225D01*
X025257Y072238D01*
X025256Y072239D01*
X025253Y072243D01*
X025247Y072249D01*
X025239Y072256D01*
X025229Y072265D01*
X025216Y072274D01*
X025201Y072282D01*
X025184Y07229D01*
X025183D01*
X025182Y072291D01*
X025175Y072293D01*
X025166Y072296D01*
X025154Y072299D01*
X025138Y072303D01*
X025121Y072305D01*
X025101Y072308D01*
X025081Y072309D01*
X025281D01*
X024547D01*
X025069D01*
X025061Y072308D01*
X02505D01*
X025038Y072307D01*
X025022Y072305D01*
X025007Y072303D01*
X02499Y072301D01*
X024971Y072298D01*
X024931Y072291D01*
X024887Y07228D01*
X024842Y072266D01*
X024841D01*
X024838Y072264D01*
X024832Y072263D01*
X024826Y07226D01*
X024817Y072256D01*
X024806Y072252D01*
X024795Y072246D01*
X024783Y072241D01*
X024756Y072228D01*
X024726Y072213D01*
X024698Y072196D01*
X024669Y072176D01*
X024668Y072175D01*
X024666Y072174D01*
X024663Y072171D01*
X024657Y072168D01*
X024645Y072157D01*
X02463Y072144D01*
X024614Y072129D01*
X024598Y072113D01*
X024583Y072096D01*
X024578Y072088D01*
X024572Y072079D01*
X024571Y072077D01*
X024568Y072072D01*
X024564Y072063D01*
X024559Y072052D01*
X024555Y072039D01*
X024551Y072023D01*
X024548Y072007D01*
X024547Y071991D01*
D01*
Y071982D01*
X024548Y071972D01*
X02455Y07196D01*
X024555Y071947D01*
X024559Y071933D01*
X024567Y071919D01*
X024576Y071904D01*
X024578Y071903D01*
X024582Y071899D01*
X024589Y071892D01*
X024597Y071885D01*
X024608Y071876D01*
X024622Y071867D01*
X024638Y071858D01*
X024655Y071852D01*
X024657Y071851D01*
X024664Y07185D01*
X024674Y071846D01*
X024686Y071843D01*
X0247Y071841D01*
X024716Y071838D01*
X024735Y071837D01*
X024752Y071835D01*
X024767D01*
X024774Y071837D01*
X024783D01*
X024793Y071838D01*
X024805D01*
X02483Y071841D01*
X024859Y071844D01*
X02489Y07185D01*
X024923Y071857D01*
X024924D01*
X024927Y071858D01*
X024932Y071859D01*
X024938Y071862D01*
X024946Y071864D01*
X024955Y071866D01*
X024965Y071869D01*
X024975Y071873D01*
X025001Y071881D01*
X025028Y071892D01*
X025056Y071904D01*
X025085Y071919D01*
X025086D01*
X025088Y071921D01*
X025091Y071922D01*
X025097Y071925D01*
X025103Y071928D01*
X025111Y071933D01*
X025127Y071944D01*
X025147Y071956D01*
X025168Y071971D01*
X025189Y071986D01*
X025208Y072004D01*
X025209Y072005D01*
X025214Y072009D01*
X025219Y072016D01*
X025226Y072023D01*
X025234Y072034D01*
X025243Y072046D01*
X025252Y072061D01*
X025261Y072076D01*
X025262Y072078D01*
X025264Y072084D01*
X025267Y072091D01*
X025271Y072102D01*
X025275Y072115D01*
X025278Y072129D01*
X02528Y072146D01*
X025281Y072162D01*
Y071904D01*
Y072309D01*
D02*
G37*
%LPD*%
G36*
X025201Y08504D02*
X025208Y085036D01*
X025212Y085033D01*
X025216Y085029D01*
Y085028D01*
X025218Y085026D01*
X025219Y085022D01*
X025221Y085017D01*
X025224Y085012D01*
X025225Y085003D01*
X025227Y084994D01*
Y084976D01*
X025226Y084971D01*
Y084965D01*
X025225Y084957D01*
X025221Y084938D01*
X025216Y084919D01*
X025208Y084896D01*
X025197Y084873D01*
X025182Y084851D01*
X025181Y08485D01*
X025179Y084848D01*
X025175Y084844D01*
X025171Y084839D01*
X025166Y084832D01*
X025158Y084826D01*
X025149Y084818D01*
X02514Y084809D01*
X02513Y084801D01*
X025118Y084791D01*
X025104Y084782D01*
X02509Y084772D01*
X025059Y084755D01*
X025024Y084738D01*
X025022D01*
X025019Y084736D01*
X025014Y084735D01*
X025006Y084732D01*
X024997Y08473D01*
X024986Y084726D01*
X024974Y084722D01*
X024961Y084719D01*
X024947Y084715D01*
X024932Y084711D01*
X024898Y084706D01*
X024863Y084701D01*
X024826Y084699D01*
X024825D01*
X024822D01*
X024819D01*
X024814D01*
X024807Y0847D01*
X024801D01*
X024783Y084702D01*
X024764Y084704D01*
X024744Y084709D01*
X024723Y084714D01*
X024702Y084722D01*
X024701D01*
X0247Y084723D01*
X024693Y084726D01*
X024684Y084732D01*
X024673Y084739D01*
X02466Y084749D01*
X024646Y084761D01*
X024633Y084777D01*
X024622Y084793D01*
X024621Y084794D01*
X024619Y084798D01*
X024616Y084806D01*
X024613Y084816D01*
X024609Y084828D01*
X024606Y084842D01*
X024604Y084859D01*
X024603Y084877D01*
X025138Y08503D01*
X025139D01*
X025145Y085032D01*
X025151Y085033D01*
X025159Y085036D01*
X025177Y085039D01*
X025185Y085041D01*
X025192D01*
X025193D01*
X025194D01*
X025201Y08504D01*
D02*
G37*
G36*
X025017Y08445D02*
X025006Y084449D01*
X024994Y084448D01*
X02498Y084445D01*
X024965Y084442D01*
X024947Y084439D01*
X024928Y084434D01*
X02491Y084429D01*
X024889Y084424D01*
X024868Y084416D01*
X024848Y084407D01*
X024826Y084397D01*
X024804Y084385D01*
X024803Y084384D01*
X024798Y084382D01*
X024793Y084379D01*
X024784Y084373D01*
X024774Y084367D01*
X024763Y084359D01*
X02475Y084349D01*
X024736Y084338D01*
X024722Y084326D01*
X024707Y084313D01*
X024691Y084299D01*
X024675Y084283D01*
X02466Y084266D01*
X024644Y084248D01*
X02463Y084229D01*
X024616Y084208D01*
X024615Y084207D01*
X024613Y084203D01*
X024609Y084197D01*
X024605Y084189D01*
X024599Y084179D01*
X024593Y084167D01*
X024587Y084154D01*
X02458Y084138D01*
X024573Y084122D01*
X024568Y084104D01*
X024556Y084067D01*
X024551Y084048D01*
X024548Y084027D01*
X024546Y084007D01*
X024545Y083986D01*
Y084451D01*
X025025D01*
X025017Y08445D01*
D02*
G37*
G36*
X025136Y084284D02*
X02515Y084281D01*
X025166Y084278D01*
X025182Y084273D01*
X025197Y084266D01*
X02521Y084257D01*
X025212Y084256D01*
X025215Y084252D01*
X02522Y084246D01*
X025226Y084238D01*
X025232Y084228D01*
X025237Y084216D01*
X025241Y084202D01*
X025242Y084186D01*
Y084181D01*
X025241Y084177D01*
X02524Y084167D01*
X025238Y084152D01*
X025233Y084137D01*
X025227Y084121D01*
X025217Y084104D01*
X025205Y084089D01*
X025204Y084088D01*
X025202Y084086D01*
X025197Y084081D01*
X025191Y084076D01*
X025183Y084069D01*
X025173Y084061D01*
X025162Y084052D01*
X025149Y084043D01*
X025134Y084032D01*
X025118Y084022D01*
X025099Y084011D01*
X025079Y084001D01*
X025057Y08399D01*
X025034Y083979D01*
X025009Y083969D01*
X024983Y083959D01*
X024981Y083958D01*
X024977Y083957D01*
X024969Y083955D01*
X024958Y083951D01*
X024946Y083947D01*
X024931Y083943D01*
X024914Y083938D01*
X024896Y083934D01*
X024876Y08393D01*
X024855Y083925D01*
X024811Y083916D01*
X024766Y083911D01*
X024744Y083909D01*
X024722D01*
X024721D01*
X024719D01*
X024715D01*
X02471D01*
X024698Y08391D01*
X024683Y083912D01*
X024665Y083915D01*
X024649Y083921D01*
X024632Y083927D01*
X024619Y083936D01*
X024618Y083937D01*
X024614Y08394D01*
X024608Y083947D01*
X024603Y083955D01*
X024596Y083964D01*
X024592Y083975D01*
X024587Y083989D01*
X024586Y084003D01*
Y084009D01*
X024587Y084017D01*
X024589Y084027D01*
X02459Y084038D01*
X024593Y08405D01*
X024596Y084061D01*
X024602Y084073D01*
X024603Y084074D01*
X024605Y084077D01*
X024608Y084084D01*
X024614Y084091D01*
X02462Y0841D01*
X024629Y08411D01*
X02464Y084121D01*
X024652Y084133D01*
X024653Y084134D01*
X024658Y084138D01*
X024666Y084144D01*
X024677Y084152D01*
X024691Y084161D01*
X024709Y084172D01*
X024728Y084184D01*
X024751Y084196D01*
X024752D01*
X024755Y084197D01*
X024758Y084199D01*
X024763Y084202D01*
X02477Y084205D01*
X024778Y084208D01*
X024787Y084211D01*
X024797Y084216D01*
X024809Y08422D01*
X024822Y084226D01*
X024837Y08423D01*
X024853Y084236D01*
X024869Y084241D01*
X024888Y084246D01*
X024907Y084252D01*
X024927Y084257D01*
X024928D01*
X024932Y084258D01*
X024938Y08426D01*
X024946Y084262D01*
X024956Y084264D01*
X024967Y084266D01*
X024979Y084268D01*
X024993Y084271D01*
X025022Y084276D01*
X025053Y08428D01*
X025085Y084284D01*
X025114Y084285D01*
X025115D01*
X025118D01*
X025121D01*
X025124D01*
X025136Y084284D01*
D02*
G37*
G36*
X025221Y083644D02*
X025228Y083641D01*
X025232Y083638D01*
X025237Y083633D01*
Y083632D01*
X025239Y08363D01*
X02524Y083627D01*
X025242Y083622D01*
X025244Y083616D01*
X025247Y083608D01*
X025248Y083599D01*
X025249Y083588D01*
X025267D01*
Y083409D01*
X025249Y083404D01*
Y083402D01*
X025248Y083396D01*
Y08339D01*
X025247Y083381D01*
X025245Y083371D01*
X025244Y083363D01*
X025243Y083357D01*
X025242Y083352D01*
Y083351D01*
X025241Y08335D01*
X025236Y083344D01*
X025231Y083339D01*
X025226Y083335D01*
X025219Y083331D01*
X025212Y083326D01*
X02521Y083325D01*
X025207Y083324D01*
X025201Y083322D01*
X025192Y08332D01*
X025181Y083317D01*
X025167Y083314D01*
X025149Y083312D01*
X02513Y083311D01*
X02504Y083306D01*
Y083525D01*
X025095Y083569D01*
X025155Y083619D01*
X025156Y08362D01*
X025158Y083621D01*
X025161Y083625D01*
X025166Y083628D01*
X025178Y083634D01*
X02519Y083641D01*
X025192Y083642D01*
X025197Y083643D01*
X025205Y083645D01*
X025214Y083646D01*
X025216D01*
X025221Y083644D01*
D02*
G37*
G36*
X024997Y083306D02*
X024767Y083293D01*
X024997Y083489D01*
Y083306D01*
D02*
G37*
G36*
X025033Y082432D02*
X02469Y082334D01*
X024689D01*
X024686Y082333D01*
X02468Y082332D01*
X024673Y082329D01*
X024657Y082327D01*
X02464Y082326D01*
X024639D01*
X024636D01*
X024631Y082327D01*
X024625Y082328D01*
X024618Y08233D01*
X024611Y082333D01*
X024605Y082337D01*
X024598Y082342D01*
X024597Y082344D01*
X024596Y082346D01*
X024593Y08235D01*
X024591Y082356D01*
X024587Y082363D01*
X024584Y082373D01*
X024582Y082384D01*
X02458Y082398D01*
X024561Y082393D01*
Y082653D01*
X025033Y082432D01*
D02*
G37*
G36*
X025201Y081754D02*
X025208Y08175D01*
X025212Y081748D01*
X025216Y081743D01*
Y081742D01*
X025218Y08174D01*
X025219Y081737D01*
X025221Y081731D01*
X025224Y081726D01*
X025225Y081717D01*
X025227Y081709D01*
Y08169D01*
X025226Y081686D01*
Y081679D01*
X025225Y081671D01*
X025221Y081653D01*
X025216Y081633D01*
X025208Y08161D01*
X025197Y081587D01*
X025182Y081565D01*
X025181Y081564D01*
X025179Y081562D01*
X025175Y081559D01*
X025171Y081553D01*
X025166Y081547D01*
X025158Y08154D01*
X025149Y081533D01*
X02514Y081524D01*
X02513Y081515D01*
X025118Y081505D01*
X025104Y081496D01*
X02509Y081487D01*
X025059Y081469D01*
X025024Y081453D01*
X025022D01*
X025019Y081451D01*
X025014Y081449D01*
X025006Y081446D01*
X024997Y081444D01*
X024986Y081441D01*
X024974Y081436D01*
X024961Y081433D01*
X024947Y08143D01*
X024932Y081425D01*
X024898Y08142D01*
X024863Y081416D01*
X024826Y081413D01*
X024825D01*
X024822D01*
X024819D01*
X024814D01*
X024807Y081415D01*
X024801D01*
X024783Y081417D01*
X024764Y081419D01*
X024744Y081423D01*
X024723Y081429D01*
X024702Y081436D01*
X024701D01*
X0247Y081437D01*
X024693Y081441D01*
X024684Y081446D01*
X024673Y081454D01*
X02466Y081464D01*
X024646Y081476D01*
X024633Y081491D01*
X024622Y081507D01*
X024621Y081509D01*
X024619Y081513D01*
X024616Y081521D01*
X024613Y08153D01*
X024609Y081542D01*
X024606Y081557D01*
X024604Y081573D01*
X024603Y081592D01*
X025138Y081745D01*
X025139D01*
X025145Y081747D01*
X025151Y081748D01*
X025159Y08175D01*
X025177Y081753D01*
X025185Y081756D01*
X025192D01*
X025193D01*
X025194D01*
X025201Y081754D01*
D02*
G37*
G36*
X025284Y080899D02*
X025283Y080911D01*
X025281Y080927D01*
X025279Y080945D01*
X025276Y080964D01*
X025272Y080984D01*
X025265Y081004D01*
X025264Y081006D01*
X025262Y081011D01*
X025257Y08102D01*
X025253Y081031D01*
X02524Y081055D01*
X025232Y081066D01*
X025224Y081076D01*
X025222Y081077D01*
X025219Y081079D01*
X025214Y081083D01*
X025207Y081089D01*
X025198Y081094D01*
X025189Y081101D01*
X025178Y081106D01*
X025166Y081112D01*
X025165D01*
X02516Y081114D01*
X025154Y081115D01*
X025145Y081117D01*
X025136Y081119D01*
X025126Y081122D01*
X025116Y081123D01*
X025107Y081124D01*
X025284D01*
Y080899D01*
D02*
G37*
G36*
X025201Y079297D02*
X025208Y079293D01*
X025212Y079291D01*
X025216Y079286D01*
Y079285D01*
X025218Y079283D01*
X025219Y07928D01*
X025221Y079274D01*
X025224Y079269D01*
X025225Y07926D01*
X025227Y079251D01*
Y079233D01*
X025226Y079229D01*
Y079222D01*
X025225Y079214D01*
X025221Y079196D01*
X025216Y079176D01*
X025208Y079153D01*
X025197Y07913D01*
X025182Y079108D01*
X025181Y079107D01*
X025179Y079105D01*
X025175Y079102D01*
X025171Y079096D01*
X025166Y07909D01*
X025158Y079083D01*
X025149Y079075D01*
X02514Y079067D01*
X02513Y079058D01*
X025118Y079048D01*
X025104Y079039D01*
X02509Y07903D01*
X025059Y079012D01*
X025024Y078996D01*
X025022D01*
X025019Y078994D01*
X025014Y078992D01*
X025006Y078989D01*
X024997Y078987D01*
X024986Y078984D01*
X024974Y078979D01*
X024961Y078976D01*
X024947Y078973D01*
X024932Y078968D01*
X024898Y078963D01*
X024863Y078959D01*
X024826Y078956D01*
X024825D01*
X024822D01*
X024819D01*
X024814D01*
X024807Y078957D01*
X024801D01*
X024783Y07896D01*
X024764Y078962D01*
X024744Y078966D01*
X024723Y078972D01*
X024702Y078979D01*
X024701D01*
X0247Y07898D01*
X024693Y078984D01*
X024684Y078989D01*
X024673Y078997D01*
X02466Y079007D01*
X024646Y079019D01*
X024633Y079034D01*
X024622Y07905D01*
X024621Y079051D01*
X024619Y079056D01*
X024616Y079063D01*
X024613Y079073D01*
X024609Y079085D01*
X024606Y0791D01*
X024604Y079116D01*
X024603Y079135D01*
X025138Y079288D01*
X025139D01*
X025145Y07929D01*
X025151Y079291D01*
X025159Y079293D01*
X025177Y079296D01*
X025185Y079298D01*
X025192D01*
X025193D01*
X025194D01*
X025201Y079297D01*
D02*
G37*
G36*
X025267Y078787D02*
X024866D01*
X024873Y078788D01*
X024881D01*
X024891Y078789D01*
X024902Y07879D01*
X024914Y078791D01*
X024939Y078797D01*
X024968Y078803D01*
X024995Y078813D01*
X025021Y078826D01*
X025022Y078827D01*
X025027Y07883D01*
X025033Y078834D01*
X025042Y078839D01*
X025053Y078847D01*
X025065Y078856D01*
X025079Y078866D01*
X025093Y078878D01*
X025109Y078891D01*
X025124Y078904D01*
X025156Y078936D01*
X02517Y078952D01*
X025184Y078969D01*
X025197Y078988D01*
X025209Y079008D01*
X02521Y079009D01*
X025212Y079012D01*
X025215Y079019D01*
X025218Y079026D01*
X025222Y079037D01*
X025228Y079049D01*
X025233Y079065D01*
X025238Y079081D01*
X025243Y0791D01*
X025249Y079119D01*
X025254Y079142D01*
X025259Y079166D01*
X025262Y079191D01*
X025265Y079219D01*
X025266Y079247D01*
X025267Y079278D01*
Y078787D01*
D02*
G37*
G36*
X024546Y077437D02*
X024547Y077424D01*
X024549Y077409D01*
X024552Y07739D01*
X024557Y077368D01*
X024563Y077345D01*
Y077344D01*
X024564Y07734D01*
X024567Y077334D01*
X024568Y077327D01*
X024572Y077312D01*
X024573Y077305D01*
Y077295D01*
X024572Y07729D01*
X02457Y077283D01*
X024567Y077274D01*
X024561Y077265D01*
X024555Y077256D01*
X024545Y077246D01*
Y077447D01*
X024546Y077437D01*
D02*
G37*
G36*
X025031Y076121D02*
X024719Y076027D01*
X025031Y076303D01*
Y076121D01*
D02*
G37*
G36*
X025213Y074566D02*
X025217Y074565D01*
X025227Y07456D01*
X025232Y074557D01*
X025237Y074552D01*
Y07455D01*
X025239Y074548D01*
X02524Y074544D01*
X025242Y074537D01*
X025244Y074529D01*
X025247Y074518D01*
X025248Y074505D01*
X025249Y074488D01*
X025267Y074494D01*
Y074421D01*
X025249Y074413D01*
Y074405D01*
X025248Y074396D01*
X025247Y074385D01*
X025244Y074373D01*
X025241Y074361D01*
X025237Y074349D01*
X02523Y07434D01*
X025229Y074338D01*
X025226Y074335D01*
X02522Y074331D01*
X025212Y074325D01*
X0252Y074319D01*
X025184Y074311D01*
X025166Y074303D01*
X025154Y074299D01*
X025142Y074296D01*
X024931Y074236D01*
Y074494D01*
X025142Y074554D01*
X025144D01*
X025149Y074556D01*
X025157Y074558D01*
X025166Y07456D01*
X025187Y074565D01*
X025197Y074566D01*
X025206Y074567D01*
X025207D01*
X025209D01*
X025213Y074566D01*
D02*
G37*
G36*
X025202Y073803D02*
X025208Y073802D01*
X025221Y073798D01*
X025228Y073795D01*
X025233Y073791D01*
X025234Y07379D01*
X025236Y073789D01*
X025238Y073785D01*
X02524Y073781D01*
X025245Y07377D01*
X025247Y073764D01*
X025248Y073757D01*
Y073754D01*
X025247Y073749D01*
Y073744D01*
X025243Y073733D01*
X025237Y073722D01*
X025236Y073721D01*
X025232Y073718D01*
X025227Y073712D01*
X025218Y073706D01*
X025207Y073698D01*
X025194Y07369D01*
X025178Y073683D01*
X025158Y073676D01*
X025157D01*
X025151Y073674D01*
X025145Y073672D01*
X025134Y073668D01*
X025121Y073664D01*
X025104Y073659D01*
X025086Y073653D01*
X025064Y073647D01*
X02504Y073639D01*
X025013Y07363D01*
X024983Y073621D01*
X024951Y073612D01*
X024916Y073602D01*
X024879Y073591D01*
X02484Y07358D01*
X024798Y073568D01*
X024797D01*
X024794Y073567D01*
X024789Y073565D01*
X024782Y073563D01*
X024773Y073561D01*
X024763Y073558D01*
X024752Y073556D01*
X02474Y073553D01*
X024714Y073548D01*
X024688Y073543D01*
X024662Y073539D01*
X024639Y073538D01*
X024638D01*
X024634D01*
X02463Y073539D01*
X024623Y073541D01*
X02461Y073544D01*
X024604Y073548D01*
X024597Y073553D01*
X024596Y073554D01*
X024595Y073555D01*
X024593Y073558D01*
X02459Y073562D01*
X024584Y073573D01*
X024583Y073579D01*
X024582Y073586D01*
Y073589D01*
X024583Y073595D01*
X024584Y073604D01*
X024589Y073614D01*
X02459Y073616D01*
X024594Y073621D01*
X024601Y073629D01*
X024606Y073633D01*
X024613Y073639D01*
X024614Y07364D01*
X024616Y073641D01*
X024621Y073644D01*
X024629Y073648D01*
X02464Y073653D01*
X024653Y073659D01*
X024669Y073665D01*
X02469Y073672D01*
X024691D01*
X024696Y073674D01*
X024701Y073675D01*
X02471Y073678D01*
X02472Y073682D01*
X024733Y073686D01*
X024747Y07369D01*
X024763Y073696D01*
X024782Y073701D01*
X024803Y073708D01*
X024824Y073714D01*
X024848Y073722D01*
X024873Y07373D01*
X024899Y073737D01*
X024926Y073745D01*
X024955Y073754D01*
X024956D01*
X02496Y073755D01*
X024966Y073757D01*
X024974Y073759D01*
X024983Y073761D01*
X024994Y073765D01*
X025019Y073771D01*
X025045Y073779D01*
X025071Y073785D01*
X025081Y073788D01*
X025092Y073791D01*
X025101Y073793D01*
X025109Y073794D01*
X025111D01*
X025116Y073795D01*
X025126Y073797D01*
X025137Y073798D01*
X02515Y073801D01*
X025165Y073803D01*
X025179Y073804D01*
X025193D01*
X025194D01*
X025197D01*
X025202Y073803D01*
D02*
G37*
G36*
X025061Y073374D02*
X02505D01*
X025038Y073373D01*
X025022Y073372D01*
X025007Y07337D01*
X02499Y073368D01*
X024971Y073365D01*
X024931Y073358D01*
X024887Y073347D01*
X024842Y073333D01*
X024841D01*
X024838Y073331D01*
X024832Y07333D01*
X024826Y073326D01*
X024817Y073323D01*
X024806Y073319D01*
X024795Y073313D01*
X024783Y073308D01*
X024756Y073295D01*
X024726Y073279D01*
X024698Y073263D01*
X024669Y073243D01*
X024668Y073242D01*
X024666Y073241D01*
X024663Y073238D01*
X024657Y073234D01*
X024645Y073224D01*
X02463Y07321D01*
X024614Y073196D01*
X024598Y07318D01*
X024583Y073162D01*
X024578Y073155D01*
X024572Y073146D01*
X024571Y073144D01*
X024568Y073138D01*
X024564Y07313D01*
X024559Y073119D01*
X024555Y073106D01*
X024551Y07309D01*
X024548Y073074D01*
X024547Y073057D01*
Y073375D01*
X025069D01*
X025061Y073374D01*
D02*
G37*
G36*
X025202Y073269D02*
X025208Y073268D01*
X025221Y073265D01*
X025228Y073262D01*
X025233Y073257D01*
X025234Y073256D01*
X025236Y073255D01*
X025238Y073252D01*
X02524Y073248D01*
X025245Y073237D01*
X025247Y07323D01*
X025248Y073224D01*
Y07322D01*
X025247Y073216D01*
Y07321D01*
X025243Y0732D01*
X025237Y073189D01*
X025236Y073187D01*
X025232Y073184D01*
X025227Y073179D01*
X025218Y073172D01*
X025207Y073165D01*
X025194Y073157D01*
X025178Y073149D01*
X025158Y073143D01*
X025157D01*
X025151Y073141D01*
X025145Y073138D01*
X025134Y073135D01*
X025121Y073131D01*
X025104Y073125D01*
X025086Y07312D01*
X025064Y073113D01*
X02504Y073106D01*
X025013Y073097D01*
X024983Y073088D01*
X024951Y073078D01*
X024916Y073068D01*
X024879Y073057D01*
X02484Y073046D01*
X024798Y073034D01*
X024797D01*
X024794Y073033D01*
X024789Y073031D01*
X024782Y07303D01*
X024773Y073028D01*
X024763Y073025D01*
X024752Y073022D01*
X02474Y073019D01*
X024714Y073015D01*
X024688Y073009D01*
X024662Y073006D01*
X024639Y073005D01*
X024638D01*
X024634D01*
X02463Y073006D01*
X024623Y073007D01*
X02461Y07301D01*
X024604Y073015D01*
X024597Y073019D01*
X024596Y07302D01*
X024595Y073021D01*
X024593Y073025D01*
X02459Y073029D01*
X024584Y07304D01*
X024583Y073045D01*
X024582Y073053D01*
Y073055D01*
X024583Y073062D01*
X024584Y073071D01*
X024589Y07308D01*
X02459Y073083D01*
X024594Y073088D01*
X024601Y073096D01*
X024606Y0731D01*
X024613Y073106D01*
X024614Y073107D01*
X024616Y073108D01*
X024621Y073111D01*
X024629Y073114D01*
X02464Y07312D01*
X024653Y073125D01*
X024669Y073132D01*
X02469Y073138D01*
X024691D01*
X024696Y073141D01*
X024701Y073142D01*
X02471Y073145D01*
X02472Y073148D01*
X024733Y073153D01*
X024747Y073157D01*
X024763Y073162D01*
X024782Y073168D01*
X024803Y073174D01*
X024824Y073181D01*
X024848Y073189D01*
X024873Y073196D01*
X024899Y073204D01*
X024926Y073212D01*
X024955Y07322D01*
X024956D01*
X02496Y073221D01*
X024966Y073224D01*
X024974Y073226D01*
X024983Y073228D01*
X024994Y073231D01*
X025019Y073238D01*
X025045Y073245D01*
X025071Y073252D01*
X025081Y073254D01*
X025092Y073257D01*
X025101Y07326D01*
X025109Y073261D01*
X025111D01*
X025116Y073262D01*
X025126Y073264D01*
X025137Y073265D01*
X02515Y073267D01*
X025165Y073269D01*
X025179Y073271D01*
X025193D01*
X025194D01*
X025197D01*
X025202Y073269D01*
D02*
G37*
G36*
X025184Y072719D02*
X025193Y072718D01*
X025203Y072715D01*
X025213Y072713D01*
X025221Y072709D01*
X02523Y072703D01*
X025231Y072702D01*
X025233Y0727D01*
X025236Y072697D01*
X025239Y072691D01*
X025243Y072685D01*
X025245Y072678D01*
X025248Y072669D01*
X025249Y072661D01*
Y072657D01*
X025248Y072653D01*
X025247Y072649D01*
X025242Y072637D01*
X025239Y07263D01*
X025234Y072624D01*
X025233Y072622D01*
X02523Y072619D01*
X025224Y072614D01*
X025214Y072607D01*
X025201Y072599D01*
X025184Y072592D01*
X025163Y072583D01*
X025153Y072579D01*
X025139Y072574D01*
X025138D01*
X025134Y072573D01*
X025128Y072571D01*
X025121Y072569D01*
X025111Y072566D01*
X0251Y072563D01*
X025087Y07256D01*
X025074Y072556D01*
X025044Y072549D01*
X025013Y072544D01*
X024981Y072539D01*
X024951Y072538D01*
X024949D01*
X024945D01*
X024938Y072539D01*
X024928Y07254D01*
X024919Y072544D01*
X024908Y072547D01*
X024897Y072552D01*
X024887Y07256D01*
X024886Y072561D01*
X024884Y072563D01*
X02488Y072567D01*
X024876Y072571D01*
X024869Y072583D01*
X024867Y072591D01*
X024866Y072599D01*
Y072607D01*
X024867Y072613D01*
X024868Y072619D01*
X024869Y072627D01*
X024875Y072645D01*
X024876D01*
X024879Y072646D01*
X024884Y072649D01*
X02489Y072651D01*
X024899Y072654D01*
X024909Y072657D01*
X024921Y072662D01*
X024933Y072666D01*
X024946Y072671D01*
X024961Y072675D01*
X024993Y072685D01*
X025027Y072695D01*
X025063Y072703D01*
X025064D01*
X025066Y072704D01*
X025069D01*
X025074Y072705D01*
X025086Y072709D01*
X025101Y072711D01*
X025119Y072714D01*
X025136Y072718D01*
X025155Y072719D01*
X025171Y07272D01*
X025173D01*
X025178D01*
X025184Y072719D01*
D02*
G37*
G36*
X025202Y072203D02*
X025208Y072202D01*
X025221Y072198D01*
X025228Y072195D01*
X025233Y072191D01*
X025234Y07219D01*
X025236Y072188D01*
X025238Y072185D01*
X02524Y072181D01*
X025245Y07217D01*
X025247Y072163D01*
X025248Y072157D01*
Y072154D01*
X025247Y072149D01*
Y072144D01*
X025243Y072133D01*
X025237Y072122D01*
X025236Y072121D01*
X025232Y072117D01*
X025227Y072112D01*
X025218Y072105D01*
X025207Y072098D01*
X025194Y07209D01*
X025178Y072082D01*
X025158Y072076D01*
X025157D01*
X025151Y072074D01*
X025145Y072072D01*
X025134Y072068D01*
X025121Y072064D01*
X025104Y072058D01*
X025086Y072053D01*
X025064Y072046D01*
X02504Y072039D01*
X025013Y07203D01*
X024983Y072021D01*
X024951Y072011D01*
X024916Y072002D01*
X024879Y071991D01*
X02484Y07198D01*
X024798Y071968D01*
X024797D01*
X024794Y071967D01*
X024789Y071964D01*
X024782Y071963D01*
X024773Y071961D01*
X024763Y071958D01*
X024752Y071956D01*
X02474Y071952D01*
X024714Y071948D01*
X024688Y071943D01*
X024662Y071939D01*
X024639Y071938D01*
X024638D01*
X024634D01*
X02463Y071939D01*
X024623Y07194D01*
X02461Y071944D01*
X024604Y071948D01*
X024597Y071952D01*
X024596Y071954D01*
X024595Y071955D01*
X024593Y071958D01*
X02459Y071962D01*
X024584Y071973D01*
X024583Y071979D01*
X024582Y071986D01*
Y071988D01*
X024583Y071995D01*
X024584Y072004D01*
X024589Y072014D01*
X02459Y072016D01*
X024594Y072021D01*
X024601Y072029D01*
X024606Y072033D01*
X024613Y072039D01*
X024614Y07204D01*
X024616Y072041D01*
X024621Y072044D01*
X024629Y072048D01*
X02464Y072053D01*
X024653Y072058D01*
X024669Y072065D01*
X02469Y072072D01*
X024691D01*
X024696Y072074D01*
X024701Y072075D01*
X02471Y072078D01*
X02472Y072081D01*
X024733Y072086D01*
X024747Y07209D01*
X024763Y072096D01*
X024782Y072101D01*
X024803Y072108D01*
X024824Y072114D01*
X024848Y072122D01*
X024873Y072129D01*
X024899Y072137D01*
X024926Y072145D01*
X024955Y072154D01*
X024956D01*
X02496Y072155D01*
X024966Y072157D01*
X024974Y072159D01*
X024983Y072161D01*
X024994Y072164D01*
X025019Y072171D01*
X025045Y072179D01*
X025071Y072185D01*
X025081Y072187D01*
X025092Y072191D01*
X025101Y072193D01*
X025109Y072194D01*
X025111D01*
X025116Y072195D01*
X025126Y072197D01*
X025137Y072198D01*
X02515Y072201D01*
X025165Y072203D01*
X025179Y072204D01*
X025193D01*
X025194D01*
X025197D01*
X025202Y072203D01*
D02*
G37*
D14*
X02464Y08162D02*
G03*
X02464Y08132I0J-00015D01*
G01*
D02*
G03*
X02464Y08162I0J00015D01*
G01*
Y071403D02*
G03*
X02464Y071103I0J-00015D01*
G01*
D02*
G03*
X02464Y071403I0J00015D01*
G01*
Y061187D02*
G03*
X02464Y060887I0J-00015D01*
G01*
D02*
G03*
X02464Y061187I0J00015D01*
G01*
Y05097D02*
G03*
X02464Y05067I0J-00015D01*
G01*
D02*
G03*
X02464Y05097I0J00015D01*
G01*
D126*
X022579Y061899D02*
X023479D01*
X022519Y061089D02*
X024889D01*
X022369Y059499D02*
X024619D01*
X025159D02*
X026959D01*
X024859Y057909D02*
X026959D01*
X022579Y061929D02*
X023449D01*
X022549Y061869D02*
X023539D01*
X022519Y061839D02*
X023599D01*
X022429Y061239D02*
X024649D01*
X022429Y061209D02*
X024649D01*
X022459Y061179D02*
X024739D01*
X022459Y061149D02*
X024799D01*
X022489Y061119D02*
X024859D01*
X022399Y061659D02*
X023899D01*
X022489Y061809D02*
X023659D01*
X022459Y061779D02*
X023719D01*
X022459Y061749D02*
X023749D01*
X022429Y061719D02*
X023839D01*
X022399Y061689D02*
X023839D01*
X022399Y061629D02*
X023959D01*
X022399Y061599D02*
X024019D01*
X022399Y061569D02*
X024049D01*
X022369Y061539D02*
X024139D01*
X022369Y061509D02*
X024169D01*
X022369Y061479D02*
X024229D01*
X022369Y061449D02*
X024289D01*
X022369Y061419D02*
X024319D01*
X022369Y061389D02*
X024349D01*
X022399Y061359D02*
X024439D01*
X022399Y061329D02*
X024499D01*
X022399Y061299D02*
X024529D01*
X022399Y061269D02*
X024589D01*
X022819Y060849D02*
X025309D01*
X022519Y061059D02*
X024979D01*
X022549Y061029D02*
X025009D01*
X022579Y060999D02*
X025039D01*
X022639Y060969D02*
X025129D01*
X022669Y060939D02*
X025159D01*
X022729Y060909D02*
X025189D01*
X022759Y060879D02*
X025279D01*
X022879Y060819D02*
X025369D01*
X022909Y060789D02*
X025429D01*
X022969Y060759D02*
X025459D01*
X023029Y060729D02*
X025549D01*
X023059Y060699D02*
X025579D01*
X023119Y060669D02*
X025609D01*
X023179Y060639D02*
X025699D01*
X023209Y060609D02*
X025729D01*
X023269Y060579D02*
X025789D01*
X023329Y060549D02*
X025849D01*
X023389Y060519D02*
X025879D01*
X023419Y060489D02*
X025969D01*
X024169Y060069D02*
X026689D01*
X024229Y060039D02*
X026719D01*
X024289Y060009D02*
X026749D01*
X024319Y059979D02*
X026779D01*
X024379Y059949D02*
X026809D01*
X024439Y059919D02*
X026809D01*
X024469Y059889D02*
X026869D01*
X024529Y059859D02*
X026869D01*
X024589Y059829D02*
X026869D01*
X024649Y059799D02*
X026899D01*
X022489Y060069D02*
X023629D01*
X022579Y060159D02*
X023479D01*
X022549Y060129D02*
X023509D01*
X022519Y060099D02*
X023569D01*
X022459Y060039D02*
X023719D01*
X022459Y060009D02*
X023749D01*
X022429Y059979D02*
X023779D01*
X022429Y059949D02*
X023839D01*
X022399Y059919D02*
X023899D01*
X022399Y059889D02*
X023929D01*
X022369Y059859D02*
X024019D01*
X022369Y059829D02*
X024049D01*
X022369Y059799D02*
X024109D01*
X022369Y059769D02*
X024169D01*
X022369Y059739D02*
X024199D01*
X022369Y059709D02*
X024289D01*
X022369Y059679D02*
X024319D01*
X022369Y059649D02*
X024409D01*
X022369Y059619D02*
X024409D01*
X022369Y059589D02*
X024469D01*
X022369Y059559D02*
X024529D01*
X022369Y059529D02*
X024589D01*
X024679Y059769D02*
X026929D01*
X024739Y059739D02*
X026929D01*
X024799Y059709D02*
X026929D01*
X024829Y059679D02*
X026959D01*
X024889Y059649D02*
X026959D01*
X024949Y059619D02*
X026959D01*
X024979Y059589D02*
X026959D01*
X025039Y059559D02*
X026959D01*
X025099Y059529D02*
X026959D01*
X022549Y059259D02*
X025039D01*
X022399Y059469D02*
X024709D01*
X022429Y059439D02*
X024709D01*
X022429Y059409D02*
X024769D01*
X022459Y059379D02*
X024829D01*
X022459Y059349D02*
X024889D01*
X022489Y059319D02*
X024919D01*
X022519Y059289D02*
X025009D01*
X022579Y059229D02*
X025099D01*
X022609Y059199D02*
X025159D01*
X022639Y059169D02*
X025219D01*
X022699Y059139D02*
X025219D01*
X022759Y059109D02*
X025309D01*
X022789Y059079D02*
X025369D01*
X022849Y059049D02*
X025399D01*
X022909Y059019D02*
X025459D01*
X022939Y058989D02*
X025549D01*
X022999Y058959D02*
X025579D01*
X023059Y058929D02*
X025609D01*
X023119Y058899D02*
X025699D01*
X023179Y058869D02*
X025729D01*
X023209Y058839D02*
X025759D01*
X023269Y058809D02*
X025819D01*
X023329Y058779D02*
X025879D01*
X023389Y058749D02*
X025909D01*
X023419Y058719D02*
X025999D01*
X025579Y059259D02*
X026899D01*
X025219Y059469D02*
X026989D01*
X025249Y059439D02*
X026959D01*
X025309Y059409D02*
X026959D01*
X025369Y059379D02*
X026959D01*
X025429Y059349D02*
X026929D01*
X025489Y059319D02*
X026929D01*
X025519Y059289D02*
X026899D01*
X025639Y059229D02*
X026869D01*
X025699Y059199D02*
X026869D01*
X025729Y059169D02*
X026809D01*
X025789Y059139D02*
X026809D01*
X025849Y059109D02*
X026779D01*
X025879Y059079D02*
X026749D01*
X025939Y059049D02*
X026719D01*
X025999Y059019D02*
X026659D01*
X026059Y058989D02*
X026629D01*
X024109Y058329D02*
X026659D01*
X024169Y058299D02*
X026689D01*
X024229Y058269D02*
X026749D01*
X024259Y058239D02*
X026779D01*
X024319Y058209D02*
X026809D01*
X024379Y058179D02*
X026809D01*
X024439Y058149D02*
X026869D01*
X024469Y058119D02*
X026869D01*
X024529Y058089D02*
X026869D01*
X024589Y058059D02*
X026899D01*
X024649Y058029D02*
X026899D01*
X024679Y057999D02*
X026929D01*
X024739Y057969D02*
X026929D01*
X024799Y057939D02*
X026959D01*
X024649Y057579D02*
X026929D01*
X024619Y057549D02*
X026899D01*
X024589Y057519D02*
X026899D01*
X024499Y057489D02*
X026869D01*
X024469Y057459D02*
X026869D01*
X024439Y057429D02*
X026869D01*
X024349Y057399D02*
X026809D01*
X024319Y057369D02*
X026809D01*
X024259Y057339D02*
X026749D01*
X024199Y057309D02*
X026749D01*
X024169Y057279D02*
X026689D01*
X024109Y057249D02*
X026629D01*
X024859Y057669D02*
X026959D01*
X024889Y057879D02*
X026959D01*
X024949Y057849D02*
X026959D01*
X025009Y057819D02*
X026959D01*
X025039Y057789D02*
X026989D01*
X025009Y057759D02*
X026959D01*
X024979Y057729D02*
X026959D01*
X024889Y057699D02*
X026959D01*
X024799Y057639D02*
X026959D01*
X024739Y057609D02*
X026929D01*
X022879Y060309D02*
X023149D01*
X023749D02*
X026269D01*
X023869Y057099D02*
X026389D01*
X023479Y058689D02*
X026059D01*
X023779Y056289D02*
X024979D01*
X022639Y061959D02*
X023389D01*
X022819Y062049D02*
X023209D01*
X022729Y062019D02*
X023269D01*
X022699Y061989D02*
X023329D01*
X022609Y060189D02*
X023419D01*
X022759Y060279D02*
X023239D01*
X022699Y060249D02*
X023329D01*
X022669Y060219D02*
X023359D01*
X023479Y060459D02*
X025999D01*
X023539Y060429D02*
X026029D01*
X023599Y060399D02*
X026089D01*
X023649Y060369D02*
X026149D01*
X023689Y060339D02*
X026209D01*
X023809Y060279D02*
X026299D01*
X023839Y060249D02*
X026389D01*
X023899Y060219D02*
X026389D01*
X023959Y060189D02*
X026449D01*
X024019Y060159D02*
X026509D01*
X024079Y060129D02*
X026569D01*
X024109Y060099D02*
X026599D01*
X026149Y058959D02*
X026539D01*
X026209Y058929D02*
X026449D01*
X023899Y058449D02*
X026449D01*
X023689Y058569D02*
X026269D01*
X023749Y058539D02*
X026299D01*
X023809Y058509D02*
X026389D01*
X023839Y058479D02*
X026419D01*
X023959Y058419D02*
X026509D01*
X024019Y058389D02*
X026569D01*
X024049Y058359D02*
X026599D01*
X023539Y058659D02*
X026089D01*
X023599Y058629D02*
X026149D01*
X023629Y058599D02*
X026209D01*
X024049Y057219D02*
X026599D01*
X023959Y057189D02*
X026539D01*
X023959Y057159D02*
X026479D01*
X023899Y057129D02*
X026449D01*
X023839Y057069D02*
X026329D01*
X023839Y057039D02*
X026269D01*
X023809Y057009D02*
X026239D01*
X023719Y056859D02*
X025969D01*
X023779Y056979D02*
X026179D01*
X023719Y056949D02*
X026149D01*
X023749Y056919D02*
X026059D01*
X023719Y056889D02*
X026029D01*
X023689Y056829D02*
X025909D01*
X023689Y056799D02*
X025849D01*
X023689Y056769D02*
X025819D01*
X023689Y056739D02*
X025759D01*
X023659Y056709D02*
X025699D01*
X023659Y056679D02*
X025639D01*
X023659Y056649D02*
X025609D01*
X023659Y056619D02*
X025549D01*
X023659Y056589D02*
X025519D01*
X023689Y056559D02*
X025429D01*
X023689Y056529D02*
X025399D01*
X023689Y056499D02*
X025339D01*
X023689Y056469D02*
X025279D01*
X023689Y056439D02*
X025219D01*
X023719Y056409D02*
X025189D01*
X023719Y056379D02*
X025129D01*
X023749Y056349D02*
X025069D01*
X023749Y056319D02*
X025009D01*
X023809Y056259D02*
X024919D01*
X023839Y056229D02*
X024859D01*
X023839Y056199D02*
X024799D01*
X023899Y056169D02*
X024739D01*
X023929Y056139D02*
X024679D01*
X022759Y062049D02*
X022789D01*
X023119Y058869D02*
X023149D01*
X024079Y056049D02*
X024529D01*
X023959Y056109D02*
X024619D01*
X024019Y056079D02*
X024589D01*
X024199Y056019D02*
X024409D01*
M02*
