G04*
G04 #@! TF.GenerationSoftware,Altium Limited,Altium Designer,19.0.10 (269)*
G04*
G04 Layer_Color=32768*
%FSTAX24Y24*%
%MOIN*%
G70*
G01*
G75*
%ADD15C,0.0050*%
%ADD21C,0.0039*%
%ADD129C,0.0020*%
D15*
X027125Y066389D02*
X030825D01*
X027125Y063789D02*
Y066389D01*
Y063789D02*
X030825D01*
Y066389D01*
X028975Y06497D02*
Y065207D01*
X028857Y065089D02*
X029093D01*
X027225Y079289D02*
X030925D01*
X027225Y076689D02*
Y079289D01*
Y076689D02*
X030925D01*
Y079289D01*
X029075Y07787D02*
Y078107D01*
X028957Y077989D02*
X029193D01*
X060322Y063361D02*
Y068873D01*
X063078Y063361D02*
Y068873D01*
X060322Y063361D02*
X063078D01*
X060322Y068873D02*
X063078D01*
X060322Y075094D02*
Y080606D01*
X063078Y075094D02*
Y080606D01*
X060322Y075094D02*
X063078D01*
X060322Y080606D02*
X063078D01*
X060322Y069227D02*
Y074739D01*
X063078Y069227D02*
Y074739D01*
X060322Y069227D02*
X063078D01*
X060322Y074739D02*
X063078D01*
X060322Y057494D02*
Y063006D01*
X063078Y057494D02*
Y063006D01*
X060322Y057494D02*
X063078D01*
X060322Y063006D02*
X063078D01*
D21*
X038553Y054535D02*
X038947D01*
X03875Y054339D02*
Y054732D01*
X053353Y0814D02*
X053747D01*
X05355Y081203D02*
Y081597D01*
D129*
X035833Y053035D02*
Y055957D01*
X033667Y053035D02*
Y055957D01*
X035833D01*
X033667Y053035D02*
X035833D01*
X036959D02*
Y056035D01*
X040541Y053035D02*
Y056035D01*
X036959Y053035D02*
X040541D01*
X036959Y056035D02*
X040541D01*
X04298Y057328D02*
X04542D01*
Y055772D02*
Y057328D01*
X04298Y055772D02*
X04542D01*
X04298D02*
Y057328D01*
Y055528D02*
X04542D01*
Y053972D02*
Y055528D01*
X04298Y053972D02*
X04542D01*
X04298D02*
Y055528D01*
X045548Y051048D02*
Y052252D01*
X042852D02*
X045548D01*
X042852Y051048D02*
Y052252D01*
Y051048D02*
X045548D01*
X041298Y051052D02*
X042502D01*
Y053748D01*
X041298D02*
X042502D01*
X041298Y051052D02*
Y053748D01*
X042852Y052548D02*
Y053752D01*
Y052548D02*
X045548D01*
Y053752D01*
X042852D02*
X045548D01*
X03007Y053203D02*
Y055671D01*
X028692Y053203D02*
Y055671D01*
X03007D01*
X028692Y053203D02*
X03007D01*
X061104Y052693D02*
X068396D01*
Y056807D01*
X061104D02*
X068396D01*
X061104Y052693D02*
Y056807D01*
X036636Y084006D02*
Y087321D01*
X03264D02*
X036636D01*
X03264Y084006D02*
Y087321D01*
Y084006D02*
X036636D01*
X056273Y064892D02*
Y067608D01*
X049549Y064943D02*
Y067557D01*
X055537Y064892D02*
X056273D01*
X055537Y067608D02*
X056273D01*
X051537Y064049D02*
X055537D01*
X051537Y068451D02*
X055537D01*
Y064049D02*
Y064892D01*
Y067608D02*
Y068451D01*
X049549Y067557D02*
X051537D01*
X049549Y064943D02*
X051537D01*
Y067557D02*
Y068451D01*
Y064049D02*
Y064943D01*
X056273Y076792D02*
Y079508D01*
X049549Y076843D02*
Y079457D01*
X055537Y076792D02*
X056273D01*
X055537Y079508D02*
X056273D01*
X051537Y075949D02*
X055537D01*
X051537Y080351D02*
X055537D01*
Y075949D02*
Y076792D01*
Y079508D02*
Y080351D01*
X049549Y079457D02*
X051537D01*
X049549Y076843D02*
X051537D01*
Y079457D02*
Y080351D01*
Y075949D02*
Y076843D01*
X05495Y080711D02*
Y082089D01*
X05215Y080711D02*
Y082089D01*
Y080711D02*
X05495D01*
X05215Y082089D02*
X05495D01*
X056273Y070842D02*
Y073558D01*
X049549Y070893D02*
Y073507D01*
X055537Y070842D02*
X056273D01*
X055537Y073558D02*
X056273D01*
X051537Y069999D02*
X055537D01*
X051537Y074401D02*
X055537D01*
Y069999D02*
Y070842D01*
Y073558D02*
Y074401D01*
X049549Y073507D02*
X051537D01*
X049549Y070893D02*
X051537D01*
Y073507D02*
Y074401D01*
Y069999D02*
Y070893D01*
X056273Y058942D02*
Y061658D01*
X049549Y058993D02*
Y061607D01*
X055537Y058942D02*
X056273D01*
X055537Y061658D02*
X056273D01*
X051537Y058099D02*
X055537D01*
X051537Y062501D02*
X055537D01*
Y058099D02*
Y058942D01*
Y061658D02*
Y062501D01*
X049549Y061607D02*
X051537D01*
X049549Y058993D02*
X051537D01*
Y061607D02*
Y062501D01*
Y058099D02*
Y058993D01*
M02*
