G04*
G04 #@! TF.GenerationSoftware,Altium Limited,Altium Designer,19.0.10 (269)*
G04*
G04 Layer_Color=16711935*
%FSTAX24Y24*%
%MOIN*%
G70*
G01*
G75*
%ADD99R,0.1280X0.1280*%
%ADD100C,0.1280*%
%ADD101R,0.0552X0.0552*%
%ADD102C,0.0730*%
%ADD103C,0.0848*%
%ADD104R,0.0848X0.0848*%
%ADD105C,0.0336*%
%ADD106O,0.0474X0.0867*%
%ADD107O,0.0434X0.0789*%
%ADD108C,0.0631*%
%ADD109C,0.0659*%
%ADD110C,0.0280*%
D99*
X0644Y0826D02*
D03*
Y0646D02*
D03*
Y0766D02*
D03*
Y0706D02*
D03*
Y0586D02*
D03*
D100*
Y0856D02*
D03*
Y0676D02*
D03*
Y0796D02*
D03*
Y0736D02*
D03*
Y0616D02*
D03*
D101*
X027925Y060789D02*
D03*
D102*
X0492Y0516D02*
D03*
X0522D02*
D03*
X0502D02*
D03*
X0512D02*
D03*
X05425Y051586D02*
D03*
X05725D02*
D03*
X05525D02*
D03*
X05625D02*
D03*
X06435Y0516D02*
D03*
X06735D02*
D03*
X06535D02*
D03*
X06635D02*
D03*
X0593Y051586D02*
D03*
X0623D02*
D03*
X0603D02*
D03*
X0613D02*
D03*
X0305Y085514D02*
D03*
X0275D02*
D03*
X0295D02*
D03*
X0285D02*
D03*
D103*
X061707Y05625D02*
D03*
X066707Y05325D02*
D03*
X066107Y05625D02*
D03*
X067707D02*
D03*
D104*
X061707Y05325D02*
D03*
D105*
X035776Y08475D02*
D03*
X0335D02*
D03*
D106*
X036341Y084561D02*
D03*
X032935D02*
D03*
D107*
X036341Y086207D02*
D03*
X032935D02*
D03*
D108*
X0617Y064148D02*
D03*
Y068085D02*
D03*
Y075881D02*
D03*
Y079819D02*
D03*
Y070015D02*
D03*
Y073952D02*
D03*
Y058281D02*
D03*
Y062218D02*
D03*
D109*
X06115Y0848D02*
D03*
Y086178D02*
D03*
X0452Y086039D02*
D03*
Y084661D02*
D03*
D110*
X0352Y0849D02*
D03*
X03455D02*
D03*
X03355Y0799D02*
D03*
X0371Y0763D02*
D03*
X0373Y0785D02*
D03*
X0344Y06525D02*
D03*
Y06475D02*
D03*
X03565Y07805D02*
D03*
X034791Y0775D02*
D03*
X0407Y0812D02*
D03*
X03675Y07285D02*
D03*
X03935Y07105D02*
D03*
X0304Y06375D02*
D03*
X03575D02*
D03*
X03015Y06965D02*
D03*
X03685Y0834D02*
D03*
X0413Y055283D02*
D03*
X0405Y055598D02*
D03*
X031895Y052495D02*
D03*
X031Y0585D02*
D03*
X045Y05065D02*
D03*
X03215Y06975D02*
D03*
X0347Y07515D02*
D03*
X03325Y08295D02*
D03*
X033489D02*
D03*
X03645Y0831D02*
D03*
X0361Y08325D02*
D03*
X0428Y0563D02*
D03*
X0431Y05755D02*
D03*
X03615Y0559D02*
D03*
X03665Y054353D02*
D03*
X04065Y0534D02*
D03*
X0347Y0547D02*
D03*
X0341Y05635D02*
D03*
X03825Y0542D02*
D03*
X0355Y0543D02*
D03*
X0385Y0523D02*
D03*
X03725Y05295D02*
D03*
X034Y05475D02*
D03*
M02*
