G04*
G04 #@! TF.GenerationSoftware,Altium Limited,Altium Designer,19.0.10 (269)*
G04*
G04 Layer_Color=16711935*
%FSTAX24Y24*%
%MOIN*%
G70*
G01*
G75*
%ADD11C,0.0079*%
%ADD14C,0.0200*%
%ADD15C,0.0050*%
%ADD18C,0.0100*%
%ADD20C,0.0060*%
%ADD21C,0.0039*%
%ADD128R,0.0244X0.1150*%
D11*
X035772Y056246D02*
G03*
X035772Y056246I-000039J0D01*
G01*
X029913Y055815D02*
G03*
X029913Y055815I-000039J0D01*
G01*
X06101Y05325D02*
G03*
X06101Y05325I-000039J0D01*
G01*
X036872Y084329D02*
G03*
X036872Y084329I-000039J0D01*
G01*
D14*
X02539Y08361D02*
G03*
X02539Y08331I0J-00015D01*
G01*
D02*
G03*
X02539Y08361I0J00015D01*
G01*
Y073393D02*
G03*
X02539Y073093I0J-00015D01*
G01*
D02*
G03*
X02539Y073393I0J00015D01*
G01*
Y063177D02*
G03*
X02539Y062877I0J-00015D01*
G01*
D02*
G03*
X02539Y063177I0J00015D01*
G01*
Y05296D02*
G03*
X02539Y05266I0J-00015D01*
G01*
D02*
G03*
X02539Y05296I0J00015D01*
G01*
D15*
X030215Y065089D02*
G03*
X030215Y065089I-00124J0D01*
G01*
X030315Y077989D02*
G03*
X030315Y077989I-00124J0D01*
G01*
X035734Y053709D02*
Y055283D01*
X033766Y053709D02*
Y055283D01*
X035734D01*
X033766Y053709D02*
X035734D01*
X043304Y055912D02*
Y057188D01*
Y055912D02*
X045096D01*
Y057188D01*
X043304D02*
X045096D01*
X043304Y054112D02*
Y055388D01*
Y054112D02*
X045096D01*
Y055388D01*
X043304D02*
X045096D01*
X045052Y051146D02*
Y052154D01*
X043348D02*
X045052D01*
X043348Y051146D02*
Y052154D01*
Y051146D02*
X045052D01*
X041396Y051548D02*
X042404D01*
Y053252D01*
X041396D02*
X042404D01*
X041396Y051548D02*
Y053252D01*
X043348Y052646D02*
Y053654D01*
Y052646D02*
X045052D01*
Y053654D01*
X043348D02*
X045052D01*
X029972Y053846D02*
Y055028D01*
X028791Y053846D02*
Y055028D01*
X029972D01*
X028791Y053846D02*
X029972D01*
X027676Y066388D02*
X030274D01*
X027676Y063789D02*
Y066388D01*
Y063789D02*
X030274D01*
Y066388D01*
X027776Y079288D02*
X030374D01*
X027776Y076689D02*
Y079288D01*
Y076689D02*
X030374D01*
Y079288D01*
X061203Y052791D02*
Y056709D01*
X068297D01*
Y052791D02*
Y056709D01*
X061203Y052791D02*
X068297D01*
X036398Y084329D02*
Y087222D01*
X032878D02*
X036398D01*
X032878Y084329D02*
Y087222D01*
Y084329D02*
X036398D01*
X032484Y08703D02*
X036791D01*
D18*
X035453Y086927D02*
Y086652D01*
X035315D01*
X035269Y086698D01*
Y086789D01*
X035315Y086835D01*
X035453D01*
X034994Y086698D02*
X03504Y086652D01*
X035131D01*
X035177Y086698D01*
Y086881D01*
X035131Y086927D01*
X03504D01*
X034994Y086881D01*
X034902Y086652D02*
Y086927D01*
X034764D01*
X034718Y086881D01*
Y086835D01*
X034764Y086789D01*
X034902D01*
X034764D01*
X034718Y086743D01*
Y086698D01*
X034764Y086652D01*
X034902D01*
X034167D02*
X034351D01*
Y086927D01*
X034167D01*
X034351Y086789D02*
X034259D01*
X033892Y086652D02*
Y086927D01*
X034029D01*
X034075Y086881D01*
Y086789D01*
X034029Y086743D01*
X033892D01*
X033708Y087019D02*
X033662D01*
X033616Y086973D01*
Y086743D01*
X033754D01*
X0338Y086789D01*
Y086881D01*
X033754Y086927D01*
X033616D01*
X033386D02*
X033478D01*
X033524Y086881D01*
Y086789D01*
X033478Y086743D01*
X033386D01*
X033341Y086789D01*
Y086835D01*
X033524D01*
D20*
X02127Y08177D02*
Y08673D01*
Y08177D02*
X02434D01*
Y08673D01*
X02127D02*
X02434D01*
X02127Y071553D02*
Y076513D01*
Y071553D02*
X02434D01*
Y076513D01*
X02127D02*
X02434D01*
X02127Y061337D02*
Y066297D01*
Y061337D02*
X02434D01*
Y066297D01*
X02127D02*
X02434D01*
X02127Y05112D02*
Y05608D01*
Y05112D02*
X02434D01*
Y05608D01*
X02127D02*
X02434D01*
D21*
X040285Y054949D02*
G03*
X040285Y054949I-000197J0D01*
G01*
X037057Y053768D02*
Y055303D01*
X040443Y053768D02*
Y055303D01*
X037057Y053768D02*
X040443D01*
X037057Y055303D02*
X040443D01*
X039191Y052645D02*
X040609D01*
X039191Y052055D02*
X040609D01*
X039191D02*
Y052645D01*
X040609Y052055D02*
Y052645D01*
X054456Y080825D02*
Y081975D01*
X052644Y080825D02*
Y081975D01*
Y080825D02*
X054456D01*
X052644Y081975D02*
X054456D01*
D128*
X052766Y0814D02*
D03*
M02*
