G04*
G04 #@! TF.GenerationSoftware,Altium Limited,Altium Designer,19.0.10 (269)*
G04*
G04 Layer_Color=255*
%FSTAX24Y24*%
%MOIN*%
G70*
G01*
G75*
%ADD114R,0.1200X0.1200*%
%ADD115C,0.1200*%
%ADD116R,0.0472X0.0472*%
%ADD117C,0.0650*%
%ADD118C,0.0768*%
%ADD119R,0.0768X0.0768*%
%ADD120C,0.0256*%
%ADD121O,0.0394X0.0787*%
%ADD122O,0.0354X0.0709*%
%ADD123C,0.0551*%
%ADD124C,0.0579*%
D114*
X0644Y0826D02*
D03*
Y0646D02*
D03*
Y0766D02*
D03*
Y0706D02*
D03*
Y0586D02*
D03*
D115*
Y0856D02*
D03*
Y0676D02*
D03*
Y0796D02*
D03*
Y0736D02*
D03*
Y0616D02*
D03*
D116*
X027925Y060789D02*
D03*
D117*
X0492Y0516D02*
D03*
X0522D02*
D03*
X0502D02*
D03*
X0512D02*
D03*
X05425Y051586D02*
D03*
X05725D02*
D03*
X05525D02*
D03*
X05625D02*
D03*
X06435Y0516D02*
D03*
X06735D02*
D03*
X06535D02*
D03*
X06635D02*
D03*
X0593Y051586D02*
D03*
X0623D02*
D03*
X0603D02*
D03*
X0613D02*
D03*
X0305Y085514D02*
D03*
X0275D02*
D03*
X0295D02*
D03*
X0285D02*
D03*
D118*
X061707Y05625D02*
D03*
X066707Y05325D02*
D03*
X066107Y05625D02*
D03*
X067707D02*
D03*
D119*
X061707Y05325D02*
D03*
D120*
X035776Y08475D02*
D03*
X0335D02*
D03*
D121*
X036341Y084561D02*
D03*
X032935D02*
D03*
D122*
X036341Y086207D02*
D03*
X032935D02*
D03*
D123*
X0617Y064148D02*
D03*
Y068085D02*
D03*
Y075881D02*
D03*
Y079819D02*
D03*
Y070015D02*
D03*
Y073952D02*
D03*
Y058281D02*
D03*
Y062218D02*
D03*
D124*
X06115Y0848D02*
D03*
Y086178D02*
D03*
X0452Y086039D02*
D03*
Y084661D02*
D03*
M02*
