G04*
G04 #@! TF.GenerationSoftware,Altium Limited,Altium Designer,19.0.10 (269)*
G04*
G04 Layer_Color=65535*
%FSTAX24Y24*%
%MOIN*%
G70*
G01*
G75*
%ADD10C,0.0040*%
%ADD11C,0.0079*%
%ADD12C,0.0236*%
%ADD13C,0.0098*%
%ADD14C,0.0200*%
%ADD15C,0.0050*%
%ADD16C,0.0150*%
%ADD17C,0.0000*%
%ADD18C,0.0100*%
%ADD19C,0.0197*%
%ADD20C,0.0060*%
%ADD21C,0.0039*%
%ADD22C,0.0080*%
%ADD23C,0.0047*%
%ADD24R,0.0246X0.0581*%
%ADD25R,0.0500X0.1000*%
G36*
X042216Y084181D02*
X042382Y084016D01*
X042397Y084D01*
X042059Y083661D01*
Y084339D01*
X042216Y084181D01*
D02*
G37*
G36*
X031025Y08265D02*
X03104D01*
Y082625D01*
X03055D01*
X0308Y082875D01*
X031025Y08265D01*
D02*
G37*
G36*
X030025D02*
X03004D01*
Y082625D01*
X02955D01*
X0298Y082875D01*
X030025Y08265D01*
D02*
G37*
G36*
X03785Y080225D02*
X037625Y08045D01*
X03761D01*
Y080475D01*
X0381D01*
X03785Y080225D01*
D02*
G37*
G36*
X03685D02*
X036625Y08045D01*
X03661D01*
Y080475D01*
X0371D01*
X03685Y080225D01*
D02*
G37*
G36*
X03848Y057D02*
X038255Y056775D01*
Y05676D01*
X03823D01*
Y05725D01*
X03848Y057D01*
D02*
G37*
G36*
X040025Y05675D02*
X039775Y057D01*
X04Y057225D01*
Y05724D01*
X040025D01*
Y05675D01*
D02*
G37*
D10*
X066884Y0856D02*
G03*
X066884Y0856I-000984J0D01*
G01*
Y0826D02*
G03*
X066884Y0826I-000984J0D01*
G01*
Y0676D02*
G03*
X066884Y0676I-000984J0D01*
G01*
Y0646D02*
G03*
X066884Y0646I-000984J0D01*
G01*
Y0796D02*
G03*
X066884Y0796I-000984J0D01*
G01*
Y0766D02*
G03*
X066884Y0766I-000984J0D01*
G01*
Y0736D02*
G03*
X066884Y0736I-000984J0D01*
G01*
Y0706D02*
G03*
X066884Y0706I-000984J0D01*
G01*
Y0616D02*
G03*
X066884Y0616I-000984J0D01*
G01*
Y0586D02*
G03*
X066884Y0586I-000984J0D01*
G01*
X03005Y08073D02*
Y08107D01*
X02955Y08073D02*
Y08107D01*
X03105Y08073D02*
Y08107D01*
X03055Y08073D02*
Y08107D01*
X038693Y0512D02*
X039033D01*
X038693Y0517D02*
X039033D01*
X040267Y0512D02*
X040607D01*
X040267Y0517D02*
X040607D01*
X0346Y05163D02*
Y05197D01*
X0341Y05163D02*
Y05197D01*
X0414Y08193D02*
Y08227D01*
X0419Y08193D02*
Y08227D01*
X04095Y08193D02*
Y08227D01*
X04045Y08193D02*
Y08227D01*
X064636Y0811D02*
X067164D01*
X064164Y080864D02*
X064636D01*
X067164D02*
X067636D01*
X064636D02*
Y0811D01*
X067164Y080864D02*
Y0811D01*
X0634D02*
X064164D01*
Y08087D02*
Y0811D01*
X067636Y08087D02*
Y0811D01*
X0684D01*
X067636Y0871D02*
X0684D01*
X067636Y08687D02*
Y0871D01*
X064164Y08687D02*
Y0871D01*
X0634D02*
X064164D01*
X067164Y086864D02*
Y0871D01*
X064636Y086864D02*
Y0871D01*
X067164Y086864D02*
X067636D01*
X064164D02*
X064636D01*
Y0871D02*
X067164D01*
X06345Y083864D02*
X06834D01*
X06345Y084336D02*
X06834D01*
X0634Y0811D02*
Y08133D01*
Y08687D02*
X06349D01*
X0634D02*
Y0871D01*
Y083864D02*
X06349D01*
X0634Y084336D02*
X06349D01*
X0634Y083864D02*
Y084336D01*
X06349D02*
Y086864D01*
Y081336D02*
Y083864D01*
X0634Y081336D02*
X06349D01*
X06831D02*
X0684D01*
X06831D02*
Y083864D01*
Y084336D02*
Y086864D01*
X0684Y083864D02*
Y084336D01*
X06831D02*
X0684D01*
X06831Y083864D02*
X0684D01*
Y08687D02*
Y0871D01*
X06831Y08687D02*
X0684D01*
Y0811D02*
Y08133D01*
X06493Y085757D02*
X06574D01*
X065743D02*
Y08631D01*
X066057Y085757D02*
Y08631D01*
X06574D02*
X06605D01*
X06606Y085757D02*
X06687D01*
X06606Y085443D02*
X06687D01*
X06574Y08489D02*
X06605D01*
X066057D02*
Y085443D01*
X065743Y08489D02*
Y085443D01*
X06493D02*
X06574D01*
X06493Y082757D02*
X06574D01*
X065743D02*
Y08331D01*
X066057Y082757D02*
Y08331D01*
X06574D02*
X06605D01*
X06606Y082757D02*
X06687D01*
X06606Y082443D02*
X06687D01*
X06574Y08189D02*
X06605D01*
X066057D02*
Y082443D01*
X065743Y08189D02*
Y082443D01*
X06493D02*
X06574D01*
X03643Y05725D02*
X03677D01*
X03643Y05675D02*
X03677D01*
X03535Y05163D02*
Y05197D01*
X03585Y05163D02*
Y05197D01*
X03438Y05675D02*
X03472D01*
X03438Y05725D02*
X03472D01*
X04153Y05675D02*
X04187D01*
X04153Y05725D02*
X04187D01*
X0374Y051624D02*
Y051964D01*
X0369Y051624D02*
Y051964D01*
X029855Y061039D02*
X030195D01*
X029855Y060539D02*
X030195D01*
X031331Y051621D02*
Y051961D01*
X030831Y051621D02*
Y051961D01*
Y056971D02*
Y057311D01*
X031331Y056971D02*
Y057311D01*
X027275Y062069D02*
Y062409D01*
X027775Y062069D02*
Y062409D01*
X030525Y072025D02*
Y072365D01*
X030025Y072025D02*
Y072365D01*
X030531Y051621D02*
Y051961D01*
X030031Y051621D02*
Y051961D01*
X029731Y051621D02*
Y051961D01*
X029231Y051621D02*
Y051961D01*
X030031Y056971D02*
Y057311D01*
X030531Y056971D02*
Y057311D01*
X029231Y056971D02*
Y057311D01*
X029731Y056971D02*
Y057311D01*
X028431Y056971D02*
Y057311D01*
X028931Y056971D02*
Y057311D01*
X0287Y05163D02*
Y05197D01*
X0282Y05163D02*
Y05197D01*
X031011Y054095D02*
X031351D01*
X031011Y053595D02*
X031351D01*
X0421Y05468D02*
Y05502D01*
X0416Y05468D02*
Y05502D01*
X031011Y055241D02*
X031351D01*
X031011Y054741D02*
X031351D01*
X04908Y05485D02*
X04942D01*
X04908Y05535D02*
X04942D01*
X0566Y05423D02*
Y05457D01*
X0561Y05423D02*
Y05457D01*
X027598Y08243D02*
Y08277D01*
X027098Y08243D02*
Y08277D01*
X02865Y08243D02*
Y08277D01*
X02815Y08243D02*
Y08277D01*
X05773Y05425D02*
X05807D01*
X05773Y05375D02*
X05807D01*
X035589Y08193D02*
Y08227D01*
X036089Y08193D02*
Y08227D01*
X0349Y08193D02*
Y08227D01*
X0344Y08193D02*
Y08227D01*
X064636Y0631D02*
X067164D01*
X064164Y062864D02*
X064636D01*
X067164D02*
X067636D01*
X064636D02*
Y0631D01*
X067164Y062864D02*
Y0631D01*
X0634D02*
X064164D01*
Y06287D02*
Y0631D01*
X067636Y06287D02*
Y0631D01*
X0684D01*
X067636Y0691D02*
X0684D01*
X067636Y06887D02*
Y0691D01*
X064164Y06887D02*
Y0691D01*
X0634D02*
X064164D01*
X067164Y068864D02*
Y0691D01*
X064636Y068864D02*
Y0691D01*
X067164Y068864D02*
X067636D01*
X064164D02*
X064636D01*
Y0691D02*
X067164D01*
X06345Y065864D02*
X06834D01*
X06345Y066336D02*
X06834D01*
X0634Y0631D02*
Y06333D01*
Y06887D02*
X06349D01*
X0634D02*
Y0691D01*
Y065864D02*
X06349D01*
X0634Y066336D02*
X06349D01*
X0634Y065864D02*
Y066336D01*
X06349D02*
Y068864D01*
Y063336D02*
Y065864D01*
X0634Y063336D02*
X06349D01*
X06831D02*
X0684D01*
X06831D02*
Y065864D01*
Y066336D02*
Y068864D01*
X0684Y065864D02*
Y066336D01*
X06831D02*
X0684D01*
X06831Y065864D02*
X0684D01*
Y06887D02*
Y0691D01*
X06831Y06887D02*
X0684D01*
Y0631D02*
Y06333D01*
X06493Y067757D02*
X06574D01*
X065743D02*
Y06831D01*
X066057Y067757D02*
Y06831D01*
X06574D02*
X06605D01*
X06606Y067757D02*
X06687D01*
X06606Y067443D02*
X06687D01*
X06574Y06689D02*
X06605D01*
X066057D02*
Y067443D01*
X065743Y06689D02*
Y067443D01*
X06493D02*
X06574D01*
X06493Y064757D02*
X06574D01*
X065743D02*
Y06531D01*
X066057Y064757D02*
Y06531D01*
X06574D02*
X06605D01*
X06606Y064757D02*
X06687D01*
X06606Y064443D02*
X06687D01*
X06574Y06389D02*
X06605D01*
X066057D02*
Y064443D01*
X065743Y06389D02*
Y064443D01*
X06493D02*
X06574D01*
X064636Y0751D02*
X067164D01*
X064164Y074864D02*
X064636D01*
X067164D02*
X067636D01*
X064636D02*
Y0751D01*
X067164Y074864D02*
Y0751D01*
X0634D02*
X064164D01*
Y07487D02*
Y0751D01*
X067636Y07487D02*
Y0751D01*
X0684D01*
X067636Y0811D02*
X0684D01*
X067636Y08087D02*
Y0811D01*
X064164Y08087D02*
Y0811D01*
X0634D02*
X064164D01*
X067164Y080864D02*
Y0811D01*
X064636Y080864D02*
Y0811D01*
X067164Y080864D02*
X067636D01*
X064164D02*
X064636D01*
Y0811D02*
X067164D01*
X06345Y077864D02*
X06834D01*
X06345Y078336D02*
X06834D01*
X0634Y0751D02*
Y07533D01*
Y08087D02*
X06349D01*
X0634D02*
Y0811D01*
Y077864D02*
X06349D01*
X0634Y078336D02*
X06349D01*
X0634Y077864D02*
Y078336D01*
X06349D02*
Y080864D01*
Y075336D02*
Y077864D01*
X0634Y075336D02*
X06349D01*
X06831D02*
X0684D01*
X06831D02*
Y077864D01*
Y078336D02*
Y080864D01*
X0684Y077864D02*
Y078336D01*
X06831D02*
X0684D01*
X06831Y077864D02*
X0684D01*
Y08087D02*
Y0811D01*
X06831Y08087D02*
X0684D01*
Y0751D02*
Y07533D01*
X06493Y079757D02*
X06574D01*
X065743D02*
Y08031D01*
X066057Y079757D02*
Y08031D01*
X06574D02*
X06605D01*
X06606Y079757D02*
X06687D01*
X06606Y079443D02*
X06687D01*
X06574Y07889D02*
X06605D01*
X066057D02*
Y079443D01*
X065743Y07889D02*
Y079443D01*
X06493D02*
X06574D01*
X06493Y076757D02*
X06574D01*
X065743D02*
Y07731D01*
X066057Y076757D02*
Y07731D01*
X06574D02*
X06605D01*
X06606Y076757D02*
X06687D01*
X06606Y076443D02*
X06687D01*
X06574Y07589D02*
X06605D01*
X066057D02*
Y076443D01*
X065743Y07589D02*
Y076443D01*
X06493D02*
X06574D01*
X04318Y0689D02*
X04352D01*
X04318Y0684D02*
X04352D01*
X04318Y08055D02*
X04352D01*
X04318Y08005D02*
X04352D01*
X059749Y06795D02*
Y0682D01*
X057151D02*
X059749D01*
X057151Y06445D02*
Y0682D01*
X059749Y06445D02*
Y0682D01*
X057151Y06445D02*
X059749D01*
X057151D02*
Y06465D01*
X0582Y06645D02*
X05845D01*
X0582D02*
X05845Y0662D01*
X0582D02*
X05845D01*
Y06645D02*
X0587D01*
X05845Y0662D02*
X0587Y06645D01*
X05845Y0662D02*
X0587D01*
X059749Y07985D02*
Y0801D01*
X057151D02*
X059749D01*
X057151Y07635D02*
Y0801D01*
X059749Y07635D02*
Y0801D01*
X057151Y07635D02*
X059749D01*
X057151D02*
Y07655D01*
X0582Y07835D02*
X05845D01*
X0582D02*
X05845Y0781D01*
X0582D02*
X05845D01*
Y07835D02*
X0587D01*
X05845Y0781D02*
X0587Y07835D01*
X05845Y0781D02*
X0587D01*
X049Y066063D02*
Y066403D01*
X0485Y066063D02*
Y066403D01*
X049Y07803D02*
Y07837D01*
X0485Y07803D02*
Y07837D01*
X04803Y06891D02*
X04837D01*
X04803Y06841D02*
X04837D01*
X04803Y08055D02*
X04837D01*
X04803Y08005D02*
X04837D01*
X0391Y08193D02*
Y08227D01*
X0386Y08193D02*
Y08227D01*
X0366Y07408D02*
Y07442D01*
X0361Y07408D02*
Y07442D01*
X04005Y08193D02*
Y08227D01*
X03955Y08193D02*
Y08227D01*
X064636Y0691D02*
X067164D01*
X064164Y068864D02*
X064636D01*
X067164D02*
X067636D01*
X064636D02*
Y0691D01*
X067164Y068864D02*
Y0691D01*
X0634D02*
X064164D01*
Y06887D02*
Y0691D01*
X067636Y06887D02*
Y0691D01*
X0684D01*
X067636Y0751D02*
X0684D01*
X067636Y07487D02*
Y0751D01*
X064164Y07487D02*
Y0751D01*
X0634D02*
X064164D01*
X067164Y074864D02*
Y0751D01*
X064636Y074864D02*
Y0751D01*
X067164Y074864D02*
X067636D01*
X064164D02*
X064636D01*
Y0751D02*
X067164D01*
X06345Y071864D02*
X06834D01*
X06345Y072336D02*
X06834D01*
X0634Y0691D02*
Y06933D01*
Y07487D02*
X06349D01*
X0634D02*
Y0751D01*
Y071864D02*
X06349D01*
X0634Y072336D02*
X06349D01*
X0634Y071864D02*
Y072336D01*
X06349D02*
Y074864D01*
Y069336D02*
Y071864D01*
X0634Y069336D02*
X06349D01*
X06831D02*
X0684D01*
X06831D02*
Y071864D01*
Y072336D02*
Y074864D01*
X0684Y071864D02*
Y072336D01*
X06831D02*
X0684D01*
X06831Y071864D02*
X0684D01*
Y07487D02*
Y0751D01*
X06831Y07487D02*
X0684D01*
Y0691D02*
Y06933D01*
X06493Y073757D02*
X06574D01*
X065743D02*
Y07431D01*
X066057Y073757D02*
Y07431D01*
X06574D02*
X06605D01*
X06606Y073757D02*
X06687D01*
X06606Y073443D02*
X06687D01*
X06574Y07289D02*
X06605D01*
X066057D02*
Y073443D01*
X065743Y07289D02*
Y073443D01*
X06493D02*
X06574D01*
X06493Y070757D02*
X06574D01*
X065743D02*
Y07131D01*
X066057Y070757D02*
Y07131D01*
X06574D02*
X06605D01*
X06606Y070757D02*
X06687D01*
X06606Y070443D02*
X06687D01*
X06574Y06989D02*
X06605D01*
X066057D02*
Y070443D01*
X065743Y06989D02*
Y070443D01*
X06493D02*
X06574D01*
X04318Y07464D02*
X04352D01*
X04318Y07414D02*
X04352D01*
X064636Y0571D02*
X067164D01*
X064164Y056864D02*
X064636D01*
X067164D02*
X067636D01*
X064636D02*
Y0571D01*
X067164Y056864D02*
Y0571D01*
X0634D02*
X064164D01*
Y05687D02*
Y0571D01*
X067636Y05687D02*
Y0571D01*
X0684D01*
X067636Y0631D02*
X0684D01*
X067636Y06287D02*
Y0631D01*
X064164Y06287D02*
Y0631D01*
X0634D02*
X064164D01*
X067164Y062864D02*
Y0631D01*
X064636Y062864D02*
Y0631D01*
X067164Y062864D02*
X067636D01*
X064164D02*
X064636D01*
Y0631D02*
X067164D01*
X06345Y059864D02*
X06834D01*
X06345Y060336D02*
X06834D01*
X0634Y0571D02*
Y05733D01*
Y06287D02*
X06349D01*
X0634D02*
Y0631D01*
Y059864D02*
X06349D01*
X0634Y060336D02*
X06349D01*
X0634Y059864D02*
Y060336D01*
X06349D02*
Y062864D01*
Y057336D02*
Y059864D01*
X0634Y057336D02*
X06349D01*
X06831D02*
X0684D01*
X06831D02*
Y059864D01*
Y060336D02*
Y062864D01*
X0684Y059864D02*
Y060336D01*
X06831D02*
X0684D01*
X06831Y059864D02*
X0684D01*
Y06287D02*
Y0631D01*
X06831Y06287D02*
X0684D01*
Y0571D02*
Y05733D01*
X06493Y061757D02*
X06574D01*
X065743D02*
Y06231D01*
X066057Y061757D02*
Y06231D01*
X06574D02*
X06605D01*
X06606Y061757D02*
X06687D01*
X06606Y061443D02*
X06687D01*
X06574Y06089D02*
X06605D01*
X066057D02*
Y061443D01*
X065743Y06089D02*
Y061443D01*
X06493D02*
X06574D01*
X06493Y058757D02*
X06574D01*
X065743D02*
Y05931D01*
X066057Y058757D02*
Y05931D01*
X06574D02*
X06605D01*
X06606Y058757D02*
X06687D01*
X06606Y058443D02*
X06687D01*
X06574Y05789D02*
X06605D01*
X066057D02*
Y058443D01*
X065743Y05789D02*
Y058443D01*
X06493D02*
X06574D01*
X04318Y06245D02*
X04352D01*
X04318Y06195D02*
X04352D01*
X059749Y0739D02*
Y07415D01*
X057151D02*
X059749D01*
X057151Y0704D02*
Y07415D01*
X059749Y0704D02*
Y07415D01*
X057151Y0704D02*
X059749D01*
X057151D02*
Y0706D01*
X0582Y0724D02*
X05845D01*
X0582D02*
X05845Y07215D01*
X0582D02*
X05845D01*
Y0724D02*
X0587D01*
X05845Y07215D02*
X0587Y0724D01*
X05845Y07215D02*
X0587D01*
X059749Y062D02*
Y06225D01*
X057151D02*
X059749D01*
X057151Y0585D02*
Y06225D01*
X059749Y0585D02*
Y06225D01*
X057151Y0585D02*
X059749D01*
X057151D02*
Y0587D01*
X0582Y0605D02*
X05845D01*
X0582D02*
X05845Y06025D01*
X0582D02*
X05845D01*
Y0605D02*
X0587D01*
X05845Y06025D02*
X0587Y0605D01*
X05845Y06025D02*
X0587D01*
X049Y072047D02*
Y072387D01*
X0485Y072047D02*
Y072387D01*
X0376Y08193D02*
Y08227D01*
X0381Y08193D02*
Y08227D01*
X049Y06008D02*
Y06042D01*
X0485Y06008D02*
Y06042D01*
X04803Y07465D02*
X04837D01*
X04803Y07415D02*
X04837D01*
X04803Y06246D02*
X04837D01*
X04803Y06196D02*
X04837D01*
X0366Y08193D02*
Y08227D01*
X0371Y08193D02*
Y08227D01*
X040654Y08593D02*
Y08627D01*
X041154Y08593D02*
Y08627D01*
D11*
X035772Y056246D02*
G03*
X035772Y056246I-000039J0D01*
G01*
X029913Y055815D02*
G03*
X029913Y055815I-000039J0D01*
G01*
X06101Y05325D02*
G03*
X06101Y05325I-000039J0D01*
G01*
X036872Y084329D02*
G03*
X036872Y084329I-000039J0D01*
G01*
X037057Y053925D02*
Y055146D01*
X040443Y053925D02*
Y055146D01*
X037057Y053925D02*
X040443D01*
X037057Y055146D02*
X040443D01*
X039457Y052635D02*
X040343Y052635D01*
Y052065D02*
Y052635D01*
X039457Y052065D02*
X040343D01*
X039457Y052635D02*
X039457Y052065D01*
X030178Y074637D02*
X030572D01*
X030257Y074834D02*
X030493D01*
X030178Y074874D02*
X030572D01*
X030178D02*
X030375Y074677D01*
X030316Y074775D02*
X030434D01*
X030375Y074677D02*
X030572Y074874D01*
X029775Y073539D02*
Y074316D01*
X030875Y073539D02*
Y074316D01*
Y075261D02*
Y076089D01*
X029775Y075261D02*
Y076089D01*
X029875Y073439D02*
X030775D01*
X030875Y073539D01*
X029775D02*
X029875Y073439D01*
X029775Y076089D02*
X030875D01*
X029628Y061791D02*
X029943D01*
X029638Y062781D02*
X029953D01*
X028088Y072687D02*
X028403D01*
X028078Y071697D02*
X028393D01*
X027678Y074637D02*
X028072D01*
X027757Y074834D02*
X027993D01*
X027678Y074874D02*
X028072D01*
X027678D02*
X027875Y074677D01*
X027816Y074775D02*
X027934D01*
X027875Y074677D02*
X028072Y074874D01*
X027275Y073539D02*
Y074316D01*
X028375Y073539D02*
Y074316D01*
Y075261D02*
Y076089D01*
X027275Y075261D02*
Y076089D01*
X027375Y073439D02*
X028275D01*
X028375Y073539D01*
X027275D02*
X027375Y073439D01*
X027275Y076089D02*
X028375D01*
X059553Y055001D02*
X059947D01*
X059632Y054804D02*
X059868D01*
X059553Y054765D02*
X059947D01*
X05975Y054962D02*
X059947Y054765D01*
X059691Y054863D02*
X059809D01*
X059553Y054765D02*
X05975Y054962D01*
X06035Y055322D02*
Y0561D01*
X05925Y055322D02*
Y0561D01*
Y05355D02*
Y054378D01*
X06035Y05355D02*
Y054378D01*
X05935Y0562D02*
X06025D01*
X05925Y0561D02*
X05935Y0562D01*
X06025D02*
X06035Y0561D01*
X05925Y05355D02*
X06035D01*
X058412Y055502D02*
Y056142D01*
X057388Y055502D02*
Y056142D01*
X057565D01*
X058235D02*
X058412D01*
X033403Y081349D02*
X033797D01*
X033482Y081546D02*
X033718D01*
X033403Y081585D02*
X033797D01*
X033403D02*
X0336Y081388D01*
X033541Y081487D02*
X033659D01*
X0336Y081388D02*
X033797Y081585D01*
X033Y08025D02*
Y081028D01*
X0341Y08025D02*
Y081028D01*
Y081972D02*
Y0828D01*
X033Y081972D02*
Y0828D01*
X0331Y08015D02*
X034D01*
X0341Y08025D01*
X033D02*
X0331Y08015D01*
X033Y0828D02*
X0341D01*
X049044Y086987D02*
X050087D01*
X047213D02*
X048256D01*
X049044Y084113D02*
X050087D01*
X047213D02*
X048256D01*
X047213D02*
Y086987D01*
X050087Y084113D02*
Y086987D01*
X058152Y085982D02*
Y086297D01*
X059142Y085972D02*
Y086287D01*
X052074Y08075D02*
X055D01*
Y080937D01*
X052074Y08075D02*
Y0813D01*
X055Y081863D02*
Y08205D01*
X052074Y0813D02*
X05215D01*
Y08075D02*
Y0813D01*
Y0815D02*
Y08205D01*
X052074Y0815D02*
X05215D01*
X052074Y08205D02*
X055D01*
X052074Y0815D02*
Y08205D01*
X053393Y081203D02*
Y081597D01*
Y0814D02*
X053668Y081243D01*
X053393Y0814D02*
X053668Y081597D01*
Y081243D02*
Y081597D01*
X053353Y0814D02*
X053393D01*
X053668D02*
X053747D01*
X042902Y085703D02*
Y086018D01*
X041912Y085713D02*
Y086028D01*
D12*
X040167Y054752D02*
G03*
X040167Y054752I-000118J0D01*
G01*
D13*
X040624Y055598D02*
G03*
X040624Y055598I-000049J0D01*
G01*
D14*
X02464Y08162D02*
G03*
X02464Y08132I0J-00015D01*
G01*
D02*
G03*
X02464Y08162I0J00015D01*
G01*
Y071403D02*
G03*
X02464Y071103I0J-00015D01*
G01*
D02*
G03*
X02464Y071403I0J00015D01*
G01*
Y061187D02*
G03*
X02464Y060887I0J-00015D01*
G01*
D02*
G03*
X02464Y061187I0J00015D01*
G01*
Y05097D02*
G03*
X02464Y05067I0J-00015D01*
G01*
D02*
G03*
X02464Y05097I0J00015D01*
G01*
D15*
X036965Y07783D02*
G03*
X036965Y077289I0J-00027D01*
G01*
X02946Y0802D02*
Y0816D01*
Y0802D02*
X03013D01*
Y0816D01*
X02946D02*
X03013D01*
X03046Y0802D02*
Y0816D01*
Y0802D02*
X03113D01*
Y0816D01*
X03046D02*
X03113D01*
X038163Y05179D02*
X039563D01*
X038163Y05112D02*
Y05179D01*
Y05112D02*
X039563D01*
Y05179D01*
X039737D02*
X041137D01*
X039737Y05112D02*
Y05179D01*
Y05112D02*
X041137D01*
Y05179D01*
X03402Y0511D02*
X03469D01*
X03402D02*
Y0525D01*
X03469D01*
Y0511D02*
Y0525D01*
X04199Y0814D02*
Y0828D01*
X04132D02*
X04199D01*
X04132Y0814D02*
Y0828D01*
Y0814D02*
X04199D01*
X04036D02*
Y0828D01*
Y0814D02*
X04103D01*
Y0828D01*
X04036D02*
X04103D01*
X035742Y053709D02*
Y055283D01*
X033758Y053709D02*
Y055283D01*
X0359Y05666D02*
X0373D01*
Y05733D01*
X0359D02*
X0373D01*
X0359Y05666D02*
Y05733D01*
X03594Y0511D02*
Y0525D01*
X03527D02*
X03594D01*
X03527Y0511D02*
Y0525D01*
Y0511D02*
X03594D01*
X03385Y05734D02*
X03525D01*
X03385Y05667D02*
Y05734D01*
Y05667D02*
X03525D01*
Y05734D01*
X041D02*
X0424D01*
X041Y05667D02*
Y05734D01*
Y05667D02*
X0424D01*
Y05734D01*
X043304Y057303D02*
X045096D01*
X043304Y055797D02*
X045096D01*
X043304Y055503D02*
X045096D01*
X043304Y053997D02*
X045096D01*
X045052Y051146D02*
Y051229D01*
Y052071D02*
Y052154D01*
X043348Y051146D02*
Y051229D01*
Y052071D02*
Y052154D01*
X045052D01*
X043348Y051146D02*
X045052D01*
X041396Y051548D02*
X041479D01*
X042321D02*
X042404D01*
X041396Y053252D02*
X041479D01*
X042321D02*
X042404D01*
Y051548D02*
Y053252D01*
X041396Y051548D02*
Y053252D01*
X043348Y053571D02*
Y053654D01*
Y052646D02*
Y052729D01*
X045052Y053571D02*
Y053654D01*
Y052646D02*
Y052729D01*
X043348Y052646D02*
X045052D01*
X043348Y053654D02*
X045052D01*
X03682Y051094D02*
X03749D01*
X03682D02*
Y052494D01*
X03749D01*
Y051094D02*
Y052494D01*
X029325Y060449D02*
X030725D01*
Y061119D01*
X029325D02*
X030725D01*
X029325Y060449D02*
Y061119D01*
X029972Y053846D02*
Y055028D01*
X028791Y053846D02*
Y055028D01*
X030741Y051091D02*
Y052491D01*
Y051091D02*
X031411D01*
Y052491D01*
X030741D02*
X031411D01*
X031421Y056441D02*
Y057841D01*
X030751D02*
X031421D01*
X030751Y056441D02*
Y057841D01*
Y056441D02*
X031421D01*
X029664Y063789D02*
X030274Y0644D01*
X029664Y066388D02*
X030274Y065778D01*
X027676Y066388D02*
X029664D01*
X027676Y063789D02*
X029664D01*
X027676Y065482D02*
Y066388D01*
Y063789D02*
Y064695D01*
X030274Y0644D02*
Y064695D01*
Y065482D02*
Y065778D01*
X029764Y076689D02*
X030374Y0773D01*
X029764Y079288D02*
X030374Y078678D01*
X027776Y079288D02*
X029764D01*
X027776Y076689D02*
X029764D01*
X027776Y078382D02*
Y079288D01*
Y076689D02*
Y077595D01*
X030374Y0773D02*
Y077595D01*
Y078382D02*
Y078678D01*
X027185Y062939D02*
X027855D01*
Y061539D02*
Y062939D01*
X027185Y061539D02*
X027855D01*
X027185D02*
Y062939D01*
X029945Y071495D02*
X030615D01*
X029945D02*
Y072895D01*
X030615D01*
Y071495D02*
Y072895D01*
X029941Y051091D02*
Y052491D01*
Y051091D02*
X030611D01*
Y052491D01*
X029941D02*
X030611D01*
X029141Y051091D02*
Y052491D01*
Y051091D02*
X029811D01*
Y052491D01*
X029141D02*
X029811D01*
X030621Y056441D02*
Y057841D01*
X029951D02*
X030621D01*
X029951Y056441D02*
Y057841D01*
Y056441D02*
X030621D01*
X029821Y056441D02*
Y057841D01*
X029151D02*
X029821D01*
X029151Y056441D02*
Y057841D01*
Y056441D02*
X029821D01*
X029021Y056441D02*
Y057841D01*
X028351D02*
X029021D01*
X028351Y056441D02*
Y057841D01*
Y056441D02*
X029021D01*
X02811Y0511D02*
Y0525D01*
Y0511D02*
X02878D01*
Y0525D01*
X02811D02*
X02878D01*
X030481Y053505D02*
X031881D01*
Y054175D01*
X030481D02*
X031881D01*
X030481Y053505D02*
Y054175D01*
X04151Y05415D02*
Y05555D01*
Y05415D02*
X04218D01*
Y05555D01*
X04151D02*
X04218D01*
X030481Y054651D02*
X031881D01*
Y055321D01*
X030481D02*
X031881D01*
X030481Y054651D02*
Y055321D01*
X061203Y056709D02*
X061364D01*
X062093D02*
X065734D01*
X066522D02*
X067309D01*
X068096D02*
X068297D01*
X061203Y056561D02*
Y056709D01*
Y053766D02*
Y055931D01*
X068297Y052791D02*
Y056709D01*
X06223Y052791D02*
X066325D01*
X067112D02*
X068297D01*
X04855Y05544D02*
X04995D01*
X04855Y05477D02*
Y05544D01*
Y05477D02*
X04995D01*
Y05544D01*
X05601Y0537D02*
Y0551D01*
Y0537D02*
X05668D01*
Y0551D01*
X05601D02*
X05668D01*
X027008Y0819D02*
Y0833D01*
Y0819D02*
X027678D01*
Y0833D01*
X027008D02*
X027678D01*
X02806Y0819D02*
Y0833D01*
Y0819D02*
X02873D01*
Y0833D01*
X02806D02*
X02873D01*
X036965Y07666D02*
Y07846D01*
X032815Y07666D02*
Y07846D01*
X03685Y07666D02*
X036965Y07666D01*
X032815D02*
X03293Y07666D01*
X03685Y07846D02*
X036965Y07846D01*
X032815D02*
X03293Y07846D01*
X0572Y05366D02*
X0586D01*
Y05433D01*
X0572D02*
X0586D01*
X0572Y05366D02*
Y05433D01*
X036398Y086691D02*
Y08703D01*
X032878Y086691D02*
Y08703D01*
X036398D01*
Y085081D02*
Y085726D01*
X032878Y085081D02*
Y085726D01*
X036179Y0814D02*
Y0828D01*
X035509D02*
X036179D01*
X035509Y0814D02*
Y0828D01*
Y0814D02*
X036179D01*
X03431D02*
Y0828D01*
Y0814D02*
X03498D01*
Y0828D01*
X03431D02*
X03498D01*
X04265Y06831D02*
X04405D01*
Y06898D01*
X04265D02*
X04405D01*
X04265Y06831D02*
Y06898D01*
Y07996D02*
X04405D01*
Y08063D01*
X04265D02*
X04405D01*
X04265Y07996D02*
Y08063D01*
X060519Y063558D02*
Y068676D01*
X062881Y063558D02*
Y068676D01*
X060519Y063558D02*
X062881D01*
X060519Y068676D02*
X062881D01*
X060519Y075291D02*
Y080409D01*
X062881Y075291D02*
Y080409D01*
X060519Y075291D02*
X062881D01*
X060519Y080409D02*
X062881D01*
X04841Y065533D02*
Y066933D01*
Y065533D02*
X04908D01*
Y066933D01*
X04841D02*
X04908D01*
X04841Y0775D02*
Y0789D01*
Y0775D02*
X04908D01*
Y0789D01*
X04841D02*
X04908D01*
X0475Y06832D02*
X0489D01*
Y06899D01*
X0475D02*
X0489D01*
X0475Y06832D02*
Y06899D01*
Y07996D02*
X0489D01*
Y08063D01*
X0475D02*
X0489D01*
X0475Y07996D02*
Y08063D01*
X03851Y0814D02*
Y0828D01*
Y0814D02*
X03918D01*
Y0828D01*
X03851D02*
X03918D01*
X03602Y07355D02*
X03669D01*
X03602D02*
Y07495D01*
X03669D01*
Y07355D02*
Y07495D01*
X03946Y0814D02*
Y0828D01*
Y0814D02*
X04013D01*
Y0828D01*
X03946D02*
X04013D01*
X04265Y07405D02*
X04405D01*
Y07472D01*
X04265D02*
X04405D01*
X04265Y07405D02*
Y07472D01*
Y06186D02*
X04405D01*
Y06253D01*
X04265D02*
X04405D01*
X04265Y06186D02*
Y06253D01*
X060519Y069424D02*
Y074542D01*
X062881Y069424D02*
Y074542D01*
X060519Y069424D02*
X062881D01*
X060519Y074542D02*
X062881D01*
X060519Y057691D02*
Y062809D01*
X062881Y057691D02*
Y062809D01*
X060519Y057691D02*
X062881D01*
X060519Y062809D02*
X062881D01*
X04841Y071517D02*
Y072917D01*
Y071517D02*
X04908D01*
Y072917D01*
X04841D02*
X04908D01*
X03819Y0814D02*
Y0828D01*
X03752D02*
X03819D01*
X03752Y0814D02*
Y0828D01*
Y0814D02*
X03819D01*
X04841Y05955D02*
Y06095D01*
Y05955D02*
X04908D01*
Y06095D01*
X04841D02*
X04908D01*
X0475Y07406D02*
X0489D01*
Y07473D01*
X0475D02*
X0489D01*
X0475Y07406D02*
Y07473D01*
Y06187D02*
X0489D01*
Y06254D01*
X0475D02*
X0489D01*
X0475Y06187D02*
Y06254D01*
X03719Y0814D02*
Y0828D01*
X03652D02*
X03719D01*
X03652Y0814D02*
Y0828D01*
Y0814D02*
X03719D01*
X041244Y0854D02*
Y0868D01*
X040574D02*
X041244D01*
X040574Y0854D02*
Y0868D01*
Y0854D02*
X041244D01*
X03689Y07631D02*
Y076193D01*
Y076252D01*
X03724D01*
X037182Y07631D01*
X03724Y075785D02*
X037182Y075902D01*
X037065Y076018D01*
X036948D01*
X03689Y07596D01*
Y075843D01*
X036948Y075785D01*
X037007D01*
X037065Y075843D01*
Y076018D01*
X032632Y076023D02*
X032574Y075965D01*
Y075848D01*
X032632Y07579D01*
X032865D01*
X032924Y075848D01*
Y075965D01*
X032865Y076023D01*
X032807D01*
X032749Y075965D01*
Y07579D01*
X032817Y079131D02*
X032875Y079073D01*
Y078956D01*
X032817Y078898D01*
X032758D01*
X0327Y078956D01*
X032642Y078898D01*
X032584D01*
X032525Y078956D01*
Y079073D01*
X032584Y079131D01*
X032642D01*
X0327Y079073D01*
X032758Y079131D01*
X032817D01*
X0327Y079073D02*
Y078956D01*
X03684Y07916D02*
Y079043D01*
Y079102D01*
X03719D01*
X037132Y07916D01*
D16*
X03704Y07871D02*
G03*
X03704Y07871I-00005J0D01*
G01*
D17*
X050332Y067844D02*
G03*
X050332Y067844I-000098J0D01*
G01*
Y079744D02*
G03*
X050332Y079744I-000098J0D01*
G01*
Y073794D02*
G03*
X050332Y073794I-000098J0D01*
G01*
Y061894D02*
G03*
X050332Y061894I-000098J0D01*
G01*
D18*
X062725Y085489D02*
G03*
X062725Y085489I-001575J0D01*
G01*
X046775Y08535D02*
G03*
X046775Y08535I-001575J0D01*
G01*
X028677Y06045D02*
Y061127D01*
X027173D02*
X028677D01*
X027173Y06045D02*
X028677D01*
X027173D02*
Y061127D01*
X029713Y069076D02*
Y069568D01*
X028335Y067009D02*
X029713D01*
Y067501D01*
X028335Y069568D02*
X029713D01*
X048239Y052545D02*
X053161D01*
X048239Y050261D02*
Y052545D01*
Y050261D02*
X053161D01*
Y052545D01*
X053289Y052531D02*
X058211D01*
X053289Y050248D02*
Y052531D01*
Y050248D02*
X058211D01*
Y052531D01*
X033Y062738D02*
X040087D01*
X033Y060301D02*
X040087D01*
X040087Y060301D02*
X040087D01*
Y06297D01*
X039063Y070341D02*
X040087D01*
X040087D02*
X040087D01*
Y070022D02*
Y070341D01*
X033D02*
X03402D01*
X033Y070022D02*
Y070341D01*
Y060301D02*
Y06297D01*
X05177Y053614D02*
Y055484D01*
X05433Y053614D02*
Y055484D01*
X05177D02*
X05433D01*
X05177Y053614D02*
X05433D01*
X063389Y052545D02*
X068311D01*
X063389Y050261D02*
Y052545D01*
Y050261D02*
X068311D01*
Y052545D01*
X058339Y052531D02*
X063261D01*
X058339Y050248D02*
Y052531D01*
Y050248D02*
X063261D01*
Y052531D01*
X026539Y084569D02*
X031461D01*
Y086852D01*
X026539D02*
X031461D01*
X026539Y084569D02*
Y086852D01*
X04362Y065814D02*
Y067684D01*
X04618Y065814D02*
Y067684D01*
X04362D02*
X04618D01*
X04362Y065814D02*
X04618D01*
X04362Y077314D02*
Y079184D01*
X04618Y077314D02*
Y079184D01*
X04362D02*
X04618D01*
X04362Y077314D02*
X04618D01*
X03872Y084388D02*
X03917D01*
X03973D02*
X04018D01*
Y086608D01*
X03872Y084388D02*
Y086608D01*
X0392Y084998D02*
Y085998D01*
X0397D01*
Y084998D02*
Y085998D01*
X0392Y084998D02*
X0397D01*
X03872Y086608D02*
X03917D01*
X03973D02*
X04018D01*
X037288Y073885D02*
Y074397D01*
X038312Y073885D02*
Y074397D01*
X038095Y073885D02*
X038312D01*
X037288D02*
X037505D01*
X032978Y073935D02*
Y074447D01*
X034001Y073935D02*
Y074447D01*
X033785Y073935D02*
X034001D01*
X032978D02*
X033194D01*
X03692Y084353D02*
X03737D01*
X03793D02*
X03838D01*
Y086573D01*
X03692Y084353D02*
Y086573D01*
X0374Y084963D02*
Y085963D01*
X0379D01*
Y084963D02*
Y085963D01*
X0374Y084963D02*
X0379D01*
X03692Y086573D02*
X03737D01*
X03793D02*
X03838D01*
X057407Y083669D02*
Y087065D01*
X051108D02*
X057407D01*
X051108Y082635D02*
Y087065D01*
X057407Y082635D02*
Y083669D01*
X051108Y082635D02*
X057407D01*
X04362Y071414D02*
Y073284D01*
X04618Y071414D02*
Y073284D01*
X04362D02*
X04618D01*
X04362Y071414D02*
X04618D01*
X04362Y059314D02*
Y061184D01*
X04618Y059314D02*
Y061184D01*
X04362D02*
X04618D01*
X04362Y059314D02*
X04618D01*
X034528Y073885D02*
Y074397D01*
X035552Y073885D02*
Y074397D01*
X035335Y073885D02*
X035552D01*
X034528D02*
X034745D01*
X041452Y083661D02*
Y084339D01*
Y083661D02*
X042956D01*
X041452Y084339D02*
X042956D01*
Y083661D02*
Y084339D01*
X030539Y08193D02*
Y08223D01*
X030689D01*
X030739Y08218D01*
Y08208D01*
X030689Y08203D01*
X030539D01*
X030639D02*
X030739Y08193D01*
X030988D02*
Y08223D01*
X030839Y08208D01*
X031038D01*
X031138Y08223D02*
X031338D01*
Y08218D01*
X031138Y08198D01*
Y08193D01*
X02954Y08192D02*
Y08222D01*
X02969D01*
X02974Y08217D01*
Y08207D01*
X02969Y08202D01*
X02954D01*
X02964D02*
X02974Y08192D01*
X02999D02*
Y08222D01*
X02984Y08207D01*
X03004D01*
X03034Y08222D02*
X03024Y08217D01*
X03014Y08207D01*
Y08197D01*
X03019Y08192D01*
X03029D01*
X03034Y08197D01*
Y08202D01*
X03029Y08207D01*
X03014D01*
X03063Y08399D02*
Y08369D01*
X03083D01*
X03113Y08399D02*
X03093D01*
Y08369D01*
X03113D01*
X03093Y08384D02*
X03103D01*
X03123Y08399D02*
Y08369D01*
X03138D01*
X03143Y08374D01*
Y08394D01*
X03138Y08399D01*
X03123D01*
X03153Y08394D02*
X03158Y08399D01*
X03168D01*
X03173Y08394D01*
Y08389D01*
X03168Y08384D01*
X03173Y08379D01*
Y08374D01*
X03168Y08369D01*
X03158D01*
X03153Y08374D01*
Y08379D01*
X03158Y08384D01*
X03153Y08389D01*
Y08394D01*
X03158Y08384D02*
X03168D01*
X02963Y08399D02*
Y08369D01*
X02983D01*
X03013Y08399D02*
X02993D01*
Y08369D01*
X03013D01*
X02993Y08384D02*
X03003D01*
X03023Y08399D02*
Y08369D01*
X03038D01*
X03043Y08374D01*
Y08394D01*
X03038Y08399D01*
X03023D01*
X03073D02*
X03063Y08394D01*
X03053Y08384D01*
Y08374D01*
X03058Y08369D01*
X03068D01*
X03073Y08374D01*
Y08379D01*
X03068Y08384D01*
X03053D01*
X06368Y08772D02*
X06358D01*
X06363D01*
Y08747D01*
X06358Y08742D01*
X06353D01*
X06348Y08747D01*
X06378Y08767D02*
X06383Y08772D01*
X06393D01*
X06398Y08767D01*
Y08762D01*
X06393Y08757D01*
X06398Y08752D01*
Y08747D01*
X06393Y08742D01*
X06383D01*
X06378Y08747D01*
Y08752D01*
X06383Y08757D01*
X06378Y08762D01*
Y08767D01*
X06383Y08757D02*
X06393D01*
X03376Y05692D02*
Y05667D01*
X03381Y05662D01*
X03391D01*
X03396Y05667D01*
Y05692D01*
X03421Y05662D02*
Y05692D01*
X03406Y05677D01*
X03426D01*
X03705Y05665D02*
Y0564D01*
X0371Y05635D01*
X0372D01*
X03725Y0564D01*
Y05665D01*
X03735Y05635D02*
X03745D01*
X0374D01*
Y05665D01*
X03735Y0566D01*
X038393Y05202D02*
Y05232D01*
X038543D01*
X038593Y05227D01*
Y05217D01*
X038543Y05212D01*
X038393D01*
X038493D02*
X038593Y05202D01*
X038693D02*
X038792D01*
X038742D01*
Y05232D01*
X038693Y05227D01*
X038942D02*
X038992Y05232D01*
X039092D01*
X039142Y05227D01*
Y05222D01*
X039092Y05217D01*
X039142Y05212D01*
Y05207D01*
X039092Y05202D01*
X038992D01*
X038942Y05207D01*
Y05212D01*
X038992Y05217D01*
X038942Y05222D01*
Y05227D01*
X038992Y05217D02*
X039092D01*
X03598Y05765D02*
Y05795D01*
X03613D01*
X03618Y0579D01*
Y0578D01*
X03613Y05775D01*
X03598D01*
X03608D02*
X03618Y05765D01*
X03628D02*
X03638D01*
X03633D01*
Y05795D01*
X03628Y0579D01*
X03653Y05795D02*
X03673D01*
Y0579D01*
X03653Y0577D01*
Y05765D01*
X039967Y05202D02*
Y05232D01*
X040117D01*
X040167Y05227D01*
Y05217D01*
X040117Y05212D01*
X039967D01*
X040067D02*
X040167Y05202D01*
X040267D02*
X040367D01*
X040317D01*
Y05232D01*
X040267Y05227D01*
X040517D02*
X040567Y05232D01*
X040667D01*
X040717Y05227D01*
Y05222D01*
X040667Y05217D01*
X040617D01*
X040667D01*
X040717Y05212D01*
Y05207D01*
X040667Y05202D01*
X040567D01*
X040517Y05207D01*
X03535Y05283D02*
Y05313D01*
X0355D01*
X03555Y05308D01*
Y05298D01*
X0355Y05293D01*
X03535D01*
X03545D02*
X03555Y05283D01*
X03565D02*
X03575D01*
X0357D01*
Y05313D01*
X03565Y05308D01*
X0361Y05283D02*
X0359D01*
X0361Y05303D01*
Y05308D01*
X03605Y05313D01*
X03595D01*
X0359Y05308D01*
X03393Y05767D02*
Y05797D01*
X03408D01*
X03413Y05792D01*
Y05782D01*
X03408Y05777D01*
X03393D01*
X03403D02*
X03413Y05767D01*
X03443D02*
X03423D01*
X03443Y05787D01*
Y05792D01*
X03438Y05797D01*
X03428D01*
X03423Y05792D01*
X04107Y05767D02*
Y05797D01*
X04122D01*
X04127Y05792D01*
Y05782D01*
X04122Y05777D01*
X04107D01*
X04117D02*
X04127Y05767D01*
X04137D02*
X04147D01*
X04142D01*
Y05797D01*
X04137Y05792D01*
X03781Y05787D02*
Y05757D01*
X03801D01*
X03831Y05787D02*
X03811D01*
Y05757D01*
X03831D01*
X03811Y05772D02*
X03821D01*
X03841Y05787D02*
Y05757D01*
X03856D01*
X03861Y05762D01*
Y05782D01*
X03856Y05787D01*
X03841D01*
X03871Y05782D02*
X03876Y05787D01*
X03886D01*
X03891Y05782D01*
Y05777D01*
X03886Y05772D01*
X03881D01*
X03886D01*
X03891Y05767D01*
Y05762D01*
X03886Y05757D01*
X03876D01*
X03871Y05762D01*
X03936Y05787D02*
Y05757D01*
X03956D01*
X03986Y05787D02*
X03966D01*
Y05757D01*
X03986D01*
X03966Y05772D02*
X03976D01*
X03996Y05787D02*
Y05757D01*
X04011D01*
X04016Y05762D01*
Y05782D01*
X04011Y05787D01*
X03996D01*
X04026Y05757D02*
X04036D01*
X04031D01*
Y05787D01*
X04026Y05782D01*
X04327Y05794D02*
X04307D01*
Y05779D01*
X04317D01*
X04307D01*
Y05764D01*
X04357D02*
X04337D01*
X04357Y05784D01*
Y05789D01*
X04352Y05794D01*
X04342D01*
X04337Y05789D01*
X04327Y05614D02*
X04307D01*
Y05599D01*
X04317D01*
X04307D01*
Y05584D01*
X04337D02*
X04347D01*
X04342D01*
Y05614D01*
X04337Y05609D01*
X0389Y05331D02*
Y05301D01*
X03905D01*
X0391Y05306D01*
Y05326D01*
X03905Y05331D01*
X0389D01*
X03935Y05301D02*
Y05331D01*
X0392Y05316D01*
X0394D01*
X04294Y05286D02*
Y05256D01*
X04309D01*
X04314Y05261D01*
Y05281D01*
X04309Y05286D01*
X04294D01*
X04324Y05281D02*
X04329Y05286D01*
X04339D01*
X04344Y05281D01*
Y05276D01*
X04339Y05271D01*
X04334D01*
X04339D01*
X04344Y05266D01*
Y05261D01*
X04339Y05256D01*
X04329D01*
X04324Y05261D01*
X04139Y05436D02*
Y05406D01*
X04154D01*
X04159Y05411D01*
Y05431D01*
X04154Y05436D01*
X04139D01*
X04189Y05406D02*
X04169D01*
X04189Y05426D01*
Y05431D01*
X04184Y05436D01*
X04174D01*
X04169Y05431D01*
X04294Y05436D02*
Y05406D01*
X04309D01*
X04314Y05411D01*
Y05431D01*
X04309Y05436D01*
X04294D01*
X04324Y05406D02*
X04334D01*
X04329D01*
Y05436D01*
X04324Y05431D01*
X0371Y05307D02*
X03705Y05312D01*
X03695D01*
X0369Y05307D01*
Y05287D01*
X03695Y05282D01*
X03705D01*
X0371Y05287D01*
X0372Y05302D02*
X0374Y05282D01*
X0373Y05292D01*
X0374Y05302D01*
X0372Y05282D01*
X0377Y05312D02*
X0375D01*
Y05297D01*
X0376Y05302D01*
X03765D01*
X0377Y05297D01*
Y05287D01*
X03765Y05282D01*
X03755D01*
X0375Y05287D01*
X05113Y08771D02*
Y08746D01*
X05118Y08741D01*
X05128D01*
X05133Y08746D01*
Y08771D01*
X05143D02*
X05163D01*
Y08766D01*
X05143Y08746D01*
Y08741D01*
X03258Y07995D02*
Y0797D01*
X03263Y07965D01*
X03273D01*
X03278Y0797D01*
Y07995D01*
X03308D02*
X03298Y0799D01*
X03288Y0798D01*
Y0797D01*
X03293Y07965D01*
X03303D01*
X03308Y0797D01*
Y07975D01*
X03303Y0798D01*
X03288D01*
X032743Y071316D02*
Y071066D01*
X032793Y071016D01*
X032893D01*
X032943Y071066D01*
Y071316D01*
X033243D02*
X033043D01*
Y071166D01*
X033143Y071216D01*
X033193D01*
X033243Y071166D01*
Y071066D01*
X033193Y071016D01*
X033093D01*
X033043Y071066D01*
X028781Y05649D02*
Y056241D01*
X028831Y056191D01*
X028931D01*
X028981Y056241D01*
Y05649D01*
X029081Y05644D02*
X029131Y05649D01*
X029231D01*
X029281Y05644D01*
Y05639D01*
X029231Y056341D01*
X029181D01*
X029231D01*
X029281Y056291D01*
Y056241D01*
X029231Y056191D01*
X029131D01*
X029081Y056241D01*
X027365Y070218D02*
Y069969D01*
X027415Y069919D01*
X027515D01*
X027565Y069969D01*
Y070218D01*
X027865Y069919D02*
X027665D01*
X027865Y070119D01*
Y070168D01*
X027815Y070218D01*
X027715D01*
X027665Y070168D01*
X040644Y08712D02*
Y08742D01*
X040794D01*
X040844Y08737D01*
Y08727D01*
X040794Y08722D01*
X040644D01*
X040744D02*
X040844Y08712D01*
X041094D02*
Y08742D01*
X040944Y08727D01*
X041144D01*
X041444Y08742D02*
X041244D01*
Y08727D01*
X041344Y08732D01*
X041394D01*
X041444Y08727D01*
Y08717D01*
X041394Y08712D01*
X041294D01*
X041244Y08717D01*
X03659Y08312D02*
Y08342D01*
X03674D01*
X03679Y08337D01*
Y08327D01*
X03674Y08322D01*
X03659D01*
X03669D02*
X03679Y08312D01*
X03704D02*
Y08342D01*
X03689Y08327D01*
X03709D01*
X03734Y08312D02*
Y08342D01*
X03719Y08327D01*
X03739D01*
X04758Y06286D02*
Y06316D01*
X04773D01*
X04778Y06311D01*
Y06301D01*
X04773Y06296D01*
X04758D01*
X04768D02*
X04778Y06286D01*
X04803D02*
Y06316D01*
X04788Y06301D01*
X04808D01*
X04818Y06311D02*
X04823Y06316D01*
X04833D01*
X04838Y06311D01*
Y06306D01*
X04833Y06301D01*
X04828D01*
X04833D01*
X04838Y06296D01*
Y06291D01*
X04833Y06286D01*
X04823D01*
X04818Y06291D01*
X04758Y07506D02*
Y07536D01*
X04773D01*
X04778Y07531D01*
Y07521D01*
X04773Y07516D01*
X04758D01*
X04768D02*
X04778Y07506D01*
X04803D02*
Y07536D01*
X04788Y07521D01*
X04808D01*
X04838Y07506D02*
X04818D01*
X04838Y07526D01*
Y07531D01*
X04833Y07536D01*
X04823D01*
X04818Y07531D01*
X04848Y06128D02*
Y06158D01*
X04863D01*
X04868Y06153D01*
Y06143D01*
X04863Y06138D01*
X04848D01*
X04858D02*
X04868Y06128D01*
X04893D02*
Y06158D01*
X04878Y06143D01*
X04898D01*
X04908Y06128D02*
X04918D01*
X04913D01*
Y06158D01*
X04908Y06153D01*
X04848Y07324D02*
Y07354D01*
X04863D01*
X04868Y07349D01*
Y07339D01*
X04863Y07334D01*
X04848D01*
X04858D02*
X04868Y07324D01*
X04893D02*
Y07354D01*
X04878Y07339D01*
X04898D01*
X04908Y07349D02*
X04913Y07354D01*
X04923D01*
X04928Y07349D01*
Y07329D01*
X04923Y07324D01*
X04913D01*
X04908Y07329D01*
Y07349D01*
X0376Y08312D02*
Y08342D01*
X03775D01*
X0378Y08337D01*
Y08327D01*
X03775Y08322D01*
X0376D01*
X0377D02*
X0378Y08312D01*
X0379Y08337D02*
X03795Y08342D01*
X03805D01*
X0381Y08337D01*
Y08332D01*
X03805Y08327D01*
X038D01*
X03805D01*
X0381Y08322D01*
Y08317D01*
X03805Y08312D01*
X03795D01*
X0379Y08317D01*
X0382D02*
X03825Y08312D01*
X03835D01*
X0384Y08317D01*
Y08337D01*
X03835Y08342D01*
X03825D01*
X0382Y08337D01*
Y08332D01*
X03825Y08327D01*
X0384D01*
X04272Y06286D02*
Y06316D01*
X04287D01*
X04292Y06311D01*
Y06301D01*
X04287Y06296D01*
X04272D01*
X04282D02*
X04292Y06286D01*
X04302Y06311D02*
X04307Y06316D01*
X04317D01*
X04322Y06311D01*
Y06306D01*
X04317Y06301D01*
X04312D01*
X04317D01*
X04322Y06296D01*
Y06291D01*
X04317Y06286D01*
X04307D01*
X04302Y06291D01*
X04332Y06311D02*
X04337Y06316D01*
X04347D01*
X04352Y06311D01*
Y06306D01*
X04347Y06301D01*
X04352Y06296D01*
Y06291D01*
X04347Y06286D01*
X04337D01*
X04332Y06291D01*
Y06296D01*
X04337Y06301D01*
X04332Y06306D01*
Y06311D01*
X04337Y06301D02*
X04347D01*
X04272Y07504D02*
Y07534D01*
X04287D01*
X04292Y07529D01*
Y07519D01*
X04287Y07514D01*
X04272D01*
X04282D02*
X04292Y07504D01*
X04302Y07529D02*
X04307Y07534D01*
X04317D01*
X04322Y07529D01*
Y07524D01*
X04317Y07519D01*
X04312D01*
X04317D01*
X04322Y07514D01*
Y07509D01*
X04317Y07504D01*
X04307D01*
X04302Y07509D01*
X04332Y07534D02*
X04352D01*
Y07529D01*
X04332Y07509D01*
Y07504D01*
X03954Y08312D02*
Y08342D01*
X03969D01*
X03974Y08337D01*
Y08327D01*
X03969Y08322D01*
X03954D01*
X03964D02*
X03974Y08312D01*
X03984Y08337D02*
X03989Y08342D01*
X03999D01*
X04004Y08337D01*
Y08332D01*
X03999Y08327D01*
X03994D01*
X03999D01*
X04004Y08322D01*
Y08317D01*
X03999Y08312D01*
X03989D01*
X03984Y08317D01*
X04034Y08342D02*
X04024Y08337D01*
X04014Y08327D01*
Y08317D01*
X04019Y08312D01*
X04029D01*
X04034Y08317D01*
Y08322D01*
X04029Y08327D01*
X04014D01*
X03858Y08312D02*
Y08342D01*
X03873D01*
X03878Y08337D01*
Y08327D01*
X03873Y08322D01*
X03858D01*
X03868D02*
X03878Y08312D01*
X03888Y08337D02*
X03893Y08342D01*
X03903D01*
X03908Y08337D01*
Y08332D01*
X03903Y08327D01*
X03898D01*
X03903D01*
X03908Y08322D01*
Y08317D01*
X03903Y08312D01*
X03893D01*
X03888Y08317D01*
X03938Y08342D02*
X03918D01*
Y08327D01*
X03928Y08332D01*
X03933D01*
X03938Y08327D01*
Y08317D01*
X03933Y08312D01*
X03923D01*
X03918Y08317D01*
X04758Y08096D02*
Y08126D01*
X04773D01*
X04778Y08121D01*
Y08111D01*
X04773Y08106D01*
X04758D01*
X04768D02*
X04778Y08096D01*
X04788Y08121D02*
X04793Y08126D01*
X04803D01*
X04808Y08121D01*
Y08116D01*
X04803Y08111D01*
X04798D01*
X04803D01*
X04808Y08106D01*
Y08101D01*
X04803Y08096D01*
X04793D01*
X04788Y08101D01*
X04833Y08096D02*
Y08126D01*
X04818Y08111D01*
X04838D01*
X04758Y06932D02*
Y06962D01*
X04773D01*
X04778Y06957D01*
Y06947D01*
X04773Y06942D01*
X04758D01*
X04768D02*
X04778Y06932D01*
X04788Y06957D02*
X04793Y06962D01*
X04803D01*
X04808Y06957D01*
Y06952D01*
X04803Y06947D01*
X04798D01*
X04803D01*
X04808Y06942D01*
Y06937D01*
X04803Y06932D01*
X04793D01*
X04788Y06937D01*
X04818Y06957D02*
X04823Y06962D01*
X04833D01*
X04838Y06957D01*
Y06952D01*
X04833Y06947D01*
X04828D01*
X04833D01*
X04838Y06942D01*
Y06937D01*
X04833Y06932D01*
X04823D01*
X04818Y06937D01*
X03888Y07512D02*
Y07542D01*
X03903D01*
X03908Y07537D01*
Y07527D01*
X03903Y07522D01*
X03888D01*
X03898D02*
X03908Y07512D01*
X03918Y07537D02*
X03923Y07542D01*
X03933D01*
X03938Y07537D01*
Y07532D01*
X03933Y07527D01*
X03928D01*
X03933D01*
X03938Y07522D01*
Y07517D01*
X03933Y07512D01*
X03923D01*
X03918Y07517D01*
X03968Y07512D02*
X03948D01*
X03968Y07532D01*
Y07537D01*
X03963Y07542D01*
X03953D01*
X03948Y07537D01*
X04848Y07922D02*
Y07952D01*
X04863D01*
X04868Y07947D01*
Y07937D01*
X04863Y07932D01*
X04848D01*
X04858D02*
X04868Y07922D01*
X04878Y07947D02*
X04883Y07952D01*
X04893D01*
X04898Y07947D01*
Y07942D01*
X04893Y07937D01*
X04888D01*
X04893D01*
X04898Y07932D01*
Y07927D01*
X04893Y07922D01*
X04883D01*
X04878Y07927D01*
X04908Y07922D02*
X04918D01*
X04913D01*
Y07952D01*
X04908Y07947D01*
X04848Y06726D02*
Y06756D01*
X04863D01*
X04868Y06751D01*
Y06741D01*
X04863Y06736D01*
X04848D01*
X04858D02*
X04868Y06726D01*
X04878Y06751D02*
X04883Y06756D01*
X04893D01*
X04898Y06751D01*
Y06746D01*
X04893Y06741D01*
X04888D01*
X04893D01*
X04898Y06736D01*
Y06731D01*
X04893Y06726D01*
X04883D01*
X04878Y06731D01*
X04908Y06751D02*
X04913Y06756D01*
X04923D01*
X04928Y06751D01*
Y06731D01*
X04923Y06726D01*
X04913D01*
X04908Y06731D01*
Y06751D01*
X04272Y08096D02*
Y08126D01*
X04287D01*
X04292Y08121D01*
Y08111D01*
X04287Y08106D01*
X04272D01*
X04282D02*
X04292Y08096D01*
X04322D02*
X04302D01*
X04322Y08116D01*
Y08121D01*
X04317Y08126D01*
X04307D01*
X04302Y08121D01*
X04332Y08101D02*
X04337Y08096D01*
X04347D01*
X04352Y08101D01*
Y08121D01*
X04347Y08126D01*
X04337D01*
X04332Y08121D01*
Y08116D01*
X04337Y08111D01*
X04352D01*
X04139Y08313D02*
Y08343D01*
X04154D01*
X04159Y08338D01*
Y08328D01*
X04154Y08323D01*
X04139D01*
X04149D02*
X04159Y08313D01*
X04189D02*
X04169D01*
X04189Y08333D01*
Y08338D01*
X04184Y08343D01*
X04174D01*
X04169Y08338D01*
X04199D02*
X04204Y08343D01*
X04214D01*
X04219Y08338D01*
Y08333D01*
X04214Y08328D01*
X04219Y08323D01*
Y08318D01*
X04214Y08313D01*
X04204D01*
X04199Y08318D01*
Y08323D01*
X04204Y08328D01*
X04199Y08333D01*
Y08338D01*
X04204Y08328D02*
X04214D01*
X04044Y08312D02*
Y08342D01*
X04059D01*
X04064Y08337D01*
Y08327D01*
X04059Y08322D01*
X04044D01*
X04054D02*
X04064Y08312D01*
X04094D02*
X04074D01*
X04094Y08332D01*
Y08337D01*
X04089Y08342D01*
X04079D01*
X04074Y08337D01*
X04104Y08342D02*
X04124D01*
Y08337D01*
X04104Y08317D01*
Y08312D01*
X04272Y0693D02*
Y0696D01*
X04287D01*
X04292Y06955D01*
Y06945D01*
X04287Y0694D01*
X04272D01*
X04282D02*
X04292Y0693D01*
X04322D02*
X04302D01*
X04322Y0695D01*
Y06955D01*
X04317Y0696D01*
X04307D01*
X04302Y06955D01*
X04352Y0696D02*
X04342Y06955D01*
X04332Y06945D01*
Y06935D01*
X04337Y0693D01*
X04347D01*
X04352Y06935D01*
Y0694D01*
X04347Y06945D01*
X04332D01*
X03438Y08313D02*
Y08343D01*
X03453D01*
X03458Y08338D01*
Y08328D01*
X03453Y08323D01*
X03438D01*
X03448D02*
X03458Y08313D01*
X03488D02*
X03468D01*
X03488Y08333D01*
Y08338D01*
X03483Y08343D01*
X03473D01*
X03468Y08338D01*
X03518Y08343D02*
X03498D01*
Y08328D01*
X03508Y08333D01*
X03513D01*
X03518Y08328D01*
Y08318D01*
X03513Y08313D01*
X03503D01*
X03498Y08318D01*
X035579Y08313D02*
Y08343D01*
X035729D01*
X035779Y08338D01*
Y08328D01*
X035729Y08323D01*
X035579D01*
X035679D02*
X035779Y08313D01*
X036078D02*
X035878D01*
X036078Y08333D01*
Y08338D01*
X036028Y08343D01*
X035928D01*
X035878Y08338D01*
X036328Y08313D02*
Y08343D01*
X036178Y08328D01*
X036378D01*
X05728Y05466D02*
Y05496D01*
X05743D01*
X05748Y05491D01*
Y05481D01*
X05743Y05476D01*
X05728D01*
X05738D02*
X05748Y05466D01*
X05778D02*
X05758D01*
X05778Y05486D01*
Y05491D01*
X05773Y05496D01*
X05763D01*
X05758Y05491D01*
X05788D02*
X05793Y05496D01*
X05803D01*
X05808Y05491D01*
Y05486D01*
X05803Y05481D01*
X05798D01*
X05803D01*
X05808Y05476D01*
Y05471D01*
X05803Y05466D01*
X05793D01*
X05788Y05471D01*
X02813Y08363D02*
Y08393D01*
X02828D01*
X02833Y08388D01*
Y08378D01*
X02828Y08373D01*
X02813D01*
X02823D02*
X02833Y08363D01*
X02863D02*
X02843D01*
X02863Y08383D01*
Y08388D01*
X02858Y08393D01*
X02848D01*
X02843Y08388D01*
X02893Y08363D02*
X02873D01*
X02893Y08383D01*
Y08388D01*
X02888Y08393D01*
X02878D01*
X02873Y08388D01*
X02708Y08363D02*
Y08393D01*
X02723D01*
X02728Y08388D01*
Y08378D01*
X02723Y08373D01*
X02708D01*
X02718D02*
X02728Y08363D01*
X02758D02*
X02738D01*
X02758Y08383D01*
Y08388D01*
X02753Y08393D01*
X02743D01*
X02738Y08388D01*
X02768Y08363D02*
X02778D01*
X02773D01*
Y08393D01*
X02768Y08388D01*
X05608Y05542D02*
Y05572D01*
X05623D01*
X05628Y05567D01*
Y05557D01*
X05623Y05552D01*
X05608D01*
X05618D02*
X05628Y05542D01*
X05658D02*
X05638D01*
X05658Y05562D01*
Y05567D01*
X05653Y05572D01*
X05643D01*
X05638Y05567D01*
X05668D02*
X05673Y05572D01*
X05683D01*
X05688Y05567D01*
Y05547D01*
X05683Y05542D01*
X05673D01*
X05668Y05547D01*
Y05567D01*
X04862Y05576D02*
Y05606D01*
X04877D01*
X04882Y05601D01*
Y05591D01*
X04877Y05586D01*
X04862D01*
X04872D02*
X04882Y05576D01*
X04892D02*
X04902D01*
X04897D01*
Y05606D01*
X04892Y05601D01*
X04917Y05581D02*
X04922Y05576D01*
X04932D01*
X04937Y05581D01*
Y05601D01*
X04932Y05606D01*
X04922D01*
X04917Y05601D01*
Y05596D01*
X04922Y05591D01*
X04937D01*
X030561Y055641D02*
Y05594D01*
X030711D01*
X030761Y05589D01*
Y055791D01*
X030711Y055741D01*
X030561D01*
X030661D02*
X030761Y055641D01*
X030861D02*
X030961D01*
X030911D01*
Y05594D01*
X030861Y05589D01*
X031311Y05594D02*
X031211Y05589D01*
X031111Y055791D01*
Y055691D01*
X031161Y055641D01*
X031261D01*
X031311Y055691D01*
Y055741D01*
X031261Y055791D01*
X031111D01*
X04158Y05587D02*
Y05617D01*
X04173D01*
X04178Y05612D01*
Y05602D01*
X04173Y05597D01*
X04158D01*
X04168D02*
X04178Y05587D01*
X04188D02*
X04198D01*
X04193D01*
Y05617D01*
X04188Y05612D01*
X04233Y05617D02*
X04213D01*
Y05602D01*
X04223Y05607D01*
X04228D01*
X04233Y05602D01*
Y05592D01*
X04228Y05587D01*
X04218D01*
X04213Y05592D01*
X030561Y054501D02*
Y0548D01*
X030711D01*
X030761Y05475D01*
Y054651D01*
X030711Y054601D01*
X030561D01*
X030661D02*
X030761Y054501D01*
X030861D02*
X030961D01*
X030911D01*
Y0548D01*
X030861Y05475D01*
X031261Y054501D02*
Y0548D01*
X031111Y054651D01*
X031311D01*
X02819Y05283D02*
Y05313D01*
X02834D01*
X02839Y05308D01*
Y05298D01*
X02834Y05293D01*
X02819D01*
X02829D02*
X02839Y05283D01*
X02849D02*
X028589D01*
X02854D01*
Y05313D01*
X02849Y05308D01*
X028739Y05283D02*
X028839D01*
X028789D01*
Y05313D01*
X028739Y05308D01*
X028431Y058161D02*
Y05846D01*
X028581D01*
X028631Y05841D01*
Y058311D01*
X028581Y058261D01*
X028431D01*
X028531D02*
X028631Y058161D01*
X028731D02*
X028831D01*
X028781D01*
Y05846D01*
X028731Y05841D01*
X028981D02*
X029031Y05846D01*
X029131D01*
X029181Y05841D01*
Y058211D01*
X029131Y058161D01*
X029031D01*
X028981Y058211D01*
Y05841D01*
X029231Y058171D02*
Y05847D01*
X029381D01*
X029431Y05842D01*
Y058321D01*
X029381Y058271D01*
X029231D01*
X029331D02*
X029431Y058171D01*
X029531Y058221D02*
X029581Y058171D01*
X029681D01*
X029731Y058221D01*
Y05842D01*
X029681Y05847D01*
X029581D01*
X029531Y05842D01*
Y05837D01*
X029581Y058321D01*
X029731D01*
X030031Y058161D02*
Y05846D01*
X030181D01*
X030231Y05841D01*
Y058311D01*
X030181Y058261D01*
X030031D01*
X030131D02*
X030231Y058161D01*
X030331Y05841D02*
X030381Y05846D01*
X030481D01*
X030531Y05841D01*
Y05836D01*
X030481Y058311D01*
X030531Y058261D01*
Y058211D01*
X030481Y058161D01*
X030381D01*
X030331Y058211D01*
Y058261D01*
X030381Y058311D01*
X030331Y05836D01*
Y05841D01*
X030381Y058311D02*
X030481D01*
X030021Y052821D02*
Y05312D01*
X030171D01*
X030221Y05307D01*
Y052971D01*
X030171Y052921D01*
X030021D01*
X030121D02*
X030221Y052821D01*
X030321Y05312D02*
X030521D01*
Y05307D01*
X030321Y052871D01*
Y052821D01*
X029221D02*
Y05312D01*
X029371D01*
X029421Y05307D01*
Y052971D01*
X029371Y052921D01*
X029221D01*
X029321D02*
X029421Y052821D01*
X029721Y05312D02*
X029621Y05307D01*
X029521Y052971D01*
Y052871D01*
X029571Y052821D01*
X029671D01*
X029721Y052871D01*
Y052921D01*
X029671Y052971D01*
X029521D01*
X030831Y058161D02*
Y05846D01*
X030981D01*
X031031Y05841D01*
Y058311D01*
X030981Y058261D01*
X030831D01*
X030931D02*
X031031Y058161D01*
X031331Y05846D02*
X031131D01*
Y058311D01*
X031231Y05836D01*
X031281D01*
X031331Y058311D01*
Y058211D01*
X031281Y058161D01*
X031181D01*
X031131Y058211D01*
X030821Y052821D02*
Y05312D01*
X030971D01*
X031021Y05307D01*
Y052971D01*
X030971Y052921D01*
X030821D01*
X030921D02*
X031021Y052821D01*
X031271D02*
Y05312D01*
X031121Y052971D01*
X031321D01*
X029405Y061449D02*
Y061748D01*
X029555D01*
X029605Y061698D01*
Y061599D01*
X029555Y061549D01*
X029405D01*
X029505D02*
X029605Y061449D01*
X029705Y061698D02*
X029755Y061748D01*
X029855D01*
X029905Y061698D01*
Y061649D01*
X029855Y061599D01*
X029805D01*
X029855D01*
X029905Y061549D01*
Y061499D01*
X029855Y061449D01*
X029755D01*
X029705Y061499D01*
X04984Y06286D02*
Y06306D01*
X04979Y06311D01*
X04969D01*
X04964Y06306D01*
Y06286D01*
X04969Y06281D01*
X04979D01*
X04974Y06291D02*
X04984Y06281D01*
X04979D02*
X04984Y06286D01*
X04994Y06306D02*
X04999Y06311D01*
X05009D01*
X05014Y06306D01*
Y06301D01*
X05009Y06296D01*
X05014Y06291D01*
Y06286D01*
X05009Y06281D01*
X04999D01*
X04994Y06286D01*
Y06291D01*
X04999Y06296D01*
X04994Y06301D01*
Y06306D01*
X04999Y06296D02*
X05009D01*
X04984Y07476D02*
Y07496D01*
X04979Y07501D01*
X04969D01*
X04964Y07496D01*
Y07476D01*
X04969Y07471D01*
X04979D01*
X04974Y07481D02*
X04984Y07471D01*
X04979D02*
X04984Y07476D01*
X04994Y07501D02*
X05014D01*
Y07496D01*
X04994Y07476D01*
Y07471D01*
X034766Y075302D02*
Y075502D01*
X034716Y075552D01*
X034616D01*
X034566Y075502D01*
Y075302D01*
X034616Y075252D01*
X034716D01*
X034666Y075352D02*
X034766Y075252D01*
X034716D02*
X034766Y075302D01*
X035066Y075552D02*
X034966Y075502D01*
X034866Y075402D01*
Y075302D01*
X034916Y075252D01*
X035016D01*
X035066Y075302D01*
Y075352D01*
X035016Y075402D01*
X034866D01*
X033213Y07535D02*
Y07555D01*
X033163Y0756D01*
X033063D01*
X033013Y07555D01*
Y07535D01*
X033063Y0753D01*
X033163D01*
X033113Y0754D02*
X033213Y0753D01*
X033163D02*
X033213Y07535D01*
X033513Y0756D02*
X033313D01*
Y07545D01*
X033413Y0755D01*
X033463D01*
X033513Y07545D01*
Y07535D01*
X033463Y0753D01*
X033363D01*
X033313Y07535D01*
X03753Y075302D02*
Y075502D01*
X03748Y075552D01*
X03738D01*
X03733Y075502D01*
Y075302D01*
X03738Y075252D01*
X03748D01*
X03743Y075352D02*
X03753Y075252D01*
X03748D02*
X03753Y075302D01*
X03778Y075252D02*
Y075552D01*
X03763Y075402D01*
X03783D01*
X04984Y08071D02*
Y08091D01*
X04979Y08096D01*
X04969D01*
X04964Y08091D01*
Y08071D01*
X04969Y08066D01*
X04979D01*
X04974Y08076D02*
X04984Y08066D01*
X04979D02*
X04984Y08071D01*
X04994Y08091D02*
X04999Y08096D01*
X05009D01*
X05014Y08091D01*
Y08086D01*
X05009Y08081D01*
X05004D01*
X05009D01*
X05014Y08076D01*
Y08071D01*
X05009Y08066D01*
X04999D01*
X04994Y08071D01*
X04984Y06881D02*
Y06901D01*
X04979Y06906D01*
X04969D01*
X04964Y06901D01*
Y06881D01*
X04969Y06876D01*
X04979D01*
X04974Y06886D02*
X04984Y06876D01*
X04979D02*
X04984Y06881D01*
X05014Y06876D02*
X04994D01*
X05014Y06896D01*
Y06901D01*
X05009Y06906D01*
X04999D01*
X04994Y06901D01*
X0576Y05672D02*
Y05692D01*
X05755Y05697D01*
X05745D01*
X0574Y05692D01*
Y05672D01*
X05745Y05667D01*
X05755D01*
X0575Y05677D02*
X0576Y05667D01*
X05755D02*
X0576Y05672D01*
X0577Y05667D02*
X0578D01*
X05775D01*
Y05697D01*
X0577Y05692D01*
X0425Y06153D02*
Y06183D01*
X04265D01*
X0427Y06178D01*
Y06168D01*
X04265Y06163D01*
X0425D01*
X0428Y06153D02*
X0429D01*
X04285D01*
Y06183D01*
X0428Y06178D01*
X04305D02*
X0431Y06183D01*
X0432D01*
X04325Y06178D01*
Y06158D01*
X0432Y06153D01*
X0431D01*
X04305Y06158D01*
Y06178D01*
X0425Y07363D02*
Y07393D01*
X04265D01*
X0427Y07388D01*
Y07378D01*
X04265Y07373D01*
X0425D01*
X0428Y07368D02*
X04285Y07363D01*
X04295D01*
X043Y07368D01*
Y07388D01*
X04295Y07393D01*
X04285D01*
X0428Y07388D01*
Y07383D01*
X04285Y07378D01*
X043D01*
X0425Y07953D02*
Y07983D01*
X04265D01*
X0427Y07978D01*
Y07968D01*
X04265Y07963D01*
X0425D01*
X0428Y07978D02*
X04285Y07983D01*
X04295D01*
X043Y07978D01*
Y07973D01*
X04295Y07968D01*
X043Y07963D01*
Y07958D01*
X04295Y07953D01*
X04285D01*
X0428Y07958D01*
Y07963D01*
X04285Y07968D01*
X0428Y07973D01*
Y07978D01*
X04285Y07968D02*
X04295D01*
X0425Y06803D02*
Y06833D01*
X04265D01*
X0427Y06828D01*
Y06818D01*
X04265Y06813D01*
X0425D01*
X0428Y06833D02*
X043D01*
Y06828D01*
X0428Y06808D01*
Y06803D01*
X026589Y0872D02*
Y0875D01*
X026739D01*
X026789Y08745D01*
Y08735D01*
X026739Y0873D01*
X026589D01*
X027088Y0875D02*
X026988Y08745D01*
X026889Y08735D01*
Y08725D01*
X026938Y0872D01*
X027038D01*
X027088Y08725D01*
Y0873D01*
X027038Y08735D01*
X026889D01*
X05839Y05288D02*
Y05318D01*
X05854D01*
X05859Y05313D01*
Y05303D01*
X05854Y05298D01*
X05839D01*
X05889Y05318D02*
X05869D01*
Y05303D01*
X05879Y05308D01*
X05884D01*
X05889Y05303D01*
Y05293D01*
X05884Y05288D01*
X05874D01*
X05869Y05293D01*
X06344Y05289D02*
Y05319D01*
X06359D01*
X06364Y05314D01*
Y05304D01*
X06359Y05299D01*
X06344D01*
X06389Y05289D02*
Y05319D01*
X06374Y05304D01*
X06394D01*
X05065Y05583D02*
Y05613D01*
X0508D01*
X05085Y05608D01*
Y05598D01*
X0508Y05593D01*
X05065D01*
X05095Y05608D02*
X051Y05613D01*
X0511D01*
X05115Y05608D01*
Y05603D01*
X0511Y05598D01*
X05105D01*
X0511D01*
X05115Y05593D01*
Y05588D01*
X0511Y05583D01*
X051D01*
X05095Y05588D01*
X05334Y05288D02*
Y05318D01*
X05349D01*
X05354Y05313D01*
Y05303D01*
X05349Y05298D01*
X05334D01*
X05384Y05288D02*
X05364D01*
X05384Y05308D01*
Y05313D01*
X05379Y05318D01*
X05369D01*
X05364Y05313D01*
X04829Y05289D02*
Y05319D01*
X04844D01*
X04849Y05314D01*
Y05304D01*
X04844Y05299D01*
X04829D01*
X04859Y05289D02*
X04869D01*
X04864D01*
Y05319D01*
X04859Y05314D01*
X0415Y08499D02*
Y08469D01*
X0417D01*
X042Y08499D02*
X0418D01*
Y08469D01*
X042D01*
X0418Y08484D02*
X0419D01*
X0421Y08499D02*
Y08469D01*
X04225D01*
X0423Y08474D01*
Y08494D01*
X04225Y08499D01*
X0421D01*
X0424D02*
X0426D01*
Y08494D01*
X0424Y08474D01*
Y08469D01*
X03668Y08159D02*
Y08129D01*
X03688D01*
X03718Y08159D02*
X03698D01*
Y08129D01*
X03718D01*
X03698Y08144D02*
X03708D01*
X03728Y08159D02*
Y08129D01*
X03743D01*
X03748Y08134D01*
Y08154D01*
X03743Y08159D01*
X03728D01*
X03778D02*
X03758D01*
Y08144D01*
X03768Y08149D01*
X03773D01*
X03778Y08144D01*
Y08134D01*
X03773Y08129D01*
X03763D01*
X03758Y08134D01*
X03768Y08159D02*
Y08129D01*
X03788D01*
X03818Y08159D02*
X03798D01*
Y08129D01*
X03818D01*
X03798Y08144D02*
X03808D01*
X03828Y08159D02*
Y08129D01*
X03843D01*
X03848Y08134D01*
Y08154D01*
X03843Y08159D01*
X03828D01*
X03873Y08129D02*
Y08159D01*
X03858Y08144D01*
X03878D01*
X027225Y061778D02*
Y061479D01*
X027425D01*
X027725Y061778D02*
X027525D01*
Y061479D01*
X027725D01*
X027525Y061629D02*
X027625D01*
X027825Y061778D02*
Y061479D01*
X027975D01*
X028025Y061529D01*
Y061729D01*
X027975Y061778D01*
X027825D01*
X028325Y061479D02*
X028125D01*
X028325Y061679D01*
Y061729D01*
X028275Y061778D01*
X028175D01*
X028125Y061729D01*
X04727Y08776D02*
Y08746D01*
X04747D01*
X04757D02*
X04767D01*
X04762D01*
Y08776D01*
X04757Y08771D01*
X06099Y05742D02*
Y05712D01*
Y05722D01*
X06119Y05742D01*
X06104Y05727D01*
X06119Y05712D01*
X06129D02*
X06139D01*
X06134D01*
Y05742D01*
X06129Y05737D01*
X06368Y06372D02*
X06358D01*
X06363D01*
Y06347D01*
X06358Y06342D01*
X06353D01*
X06348Y06347D01*
X06378Y06342D02*
X06388D01*
X06383D01*
Y06372D01*
X06378Y06367D01*
X06403D02*
X06408Y06372D01*
X06418D01*
X06423Y06367D01*
Y06347D01*
X06418Y06342D01*
X06408D01*
X06403Y06347D01*
Y06367D01*
X06368Y07572D02*
X06358D01*
X06363D01*
Y07547D01*
X06358Y07542D01*
X06353D01*
X06348Y07547D01*
X06378D02*
X06383Y07542D01*
X06393D01*
X06398Y07547D01*
Y07567D01*
X06393Y07572D01*
X06383D01*
X06378Y07567D01*
Y07562D01*
X06383Y07557D01*
X06398D01*
X06368Y08172D02*
X06358D01*
X06363D01*
Y08147D01*
X06358Y08142D01*
X06353D01*
X06348Y08147D01*
X06378Y08172D02*
X06398D01*
Y08167D01*
X06378Y08147D01*
Y08142D01*
X06368Y06972D02*
X06358D01*
X06363D01*
Y06947D01*
X06358Y06942D01*
X06353D01*
X06348Y06947D01*
X06398Y06972D02*
X06388Y06967D01*
X06378Y06957D01*
Y06947D01*
X06383Y06942D01*
X06393D01*
X06398Y06947D01*
Y06952D01*
X06393Y06957D01*
X06378D01*
X03276Y08793D02*
X03266D01*
X03271D01*
Y08768D01*
X03266Y08763D01*
X03261D01*
X03256Y08768D01*
X03306Y08793D02*
X03286D01*
Y08778D01*
X03296Y08783D01*
X03301D01*
X03306Y08778D01*
Y08768D01*
X03301Y08763D01*
X03291D01*
X03286Y08768D01*
X021485Y056845D02*
X021385D01*
X021435D01*
Y056595D01*
X021385Y056545D01*
X021335D01*
X021285Y056595D01*
X021735Y056545D02*
Y056845D01*
X021585Y056695D01*
X021785D01*
X02149Y067065D02*
X02139D01*
X02144D01*
Y066815D01*
X02139Y066765D01*
X02134D01*
X02129Y066815D01*
X02159Y067015D02*
X02164Y067065D01*
X02174D01*
X02179Y067015D01*
Y066965D01*
X02174Y066915D01*
X02169D01*
X02174D01*
X02179Y066865D01*
Y066815D01*
X02174Y066765D01*
X02164D01*
X02159Y066815D01*
X02149Y077286D02*
X02139D01*
X02144D01*
Y077036D01*
X02139Y076986D01*
X02134D01*
X02129Y077036D01*
X02179Y076986D02*
X02159D01*
X02179Y077186D01*
Y077236D01*
X02174Y077286D01*
X02164D01*
X02159Y077236D01*
X02149Y087497D02*
X02139D01*
X02144D01*
Y087247D01*
X02139Y087197D01*
X02134D01*
X02129Y087247D01*
X02159Y087197D02*
X02169D01*
X02164D01*
Y087497D01*
X02159Y087447D01*
X03697Y087712D02*
X03707D01*
X03702D01*
Y087413D01*
X03697D01*
X03707D01*
X03737Y087712D02*
X03727D01*
X03722Y087663D01*
Y087463D01*
X03727Y087413D01*
X03737D01*
X03742Y087463D01*
Y087663D01*
X03737Y087712D01*
X03772Y087413D02*
X03752D01*
X03772Y087613D01*
Y087663D01*
X03767Y087712D01*
X03757D01*
X03752Y087663D01*
X03877Y087748D02*
X03887D01*
X03882D01*
Y087448D01*
X03877D01*
X03887D01*
X03917Y087748D02*
X03907D01*
X03902Y087698D01*
Y087498D01*
X03907Y087448D01*
X03917D01*
X03922Y087498D01*
Y087698D01*
X03917Y087748D01*
X03932Y087448D02*
X03942D01*
X03937D01*
Y087748D01*
X03932Y087698D01*
X03306Y08344D02*
Y08314D01*
X03321D01*
X03326Y08319D01*
Y08339D01*
X03321Y08344D01*
X03306D01*
X03336D02*
X03346D01*
X03341D01*
Y08314D01*
X03336D01*
X03346D01*
X03376Y08344D02*
X03366D01*
X03361Y08339D01*
Y08319D01*
X03366Y08314D01*
X03376D01*
X03381Y08319D01*
Y08339D01*
X03376Y08344D01*
X03406Y08314D02*
Y08344D01*
X03391Y08329D01*
X03411D01*
X05931Y05684D02*
Y05654D01*
X05946D01*
X05951Y05659D01*
Y05679D01*
X05946Y05684D01*
X05931D01*
X05961D02*
X05971D01*
X05966D01*
Y05654D01*
X05961D01*
X05971D01*
X06001Y05684D02*
X05991D01*
X05986Y05679D01*
Y05659D01*
X05991Y05654D01*
X06001D01*
X06006Y05659D01*
Y05679D01*
X06001Y05684D01*
X06016Y05679D02*
X06021Y05684D01*
X06031D01*
X06036Y05679D01*
Y05674D01*
X06031Y05669D01*
X06026D01*
X06031D01*
X06036Y05664D01*
Y05659D01*
X06031Y05654D01*
X06021D01*
X06016Y05659D01*
X027335Y076728D02*
Y076429D01*
X027485D01*
X027535Y076479D01*
Y076679D01*
X027485Y076728D01*
X027335D01*
X027635D02*
X027735D01*
X027685D01*
Y076429D01*
X027635D01*
X027735D01*
X028035Y076728D02*
X027935D01*
X027885Y076679D01*
Y076479D01*
X027935Y076429D01*
X028035D01*
X028085Y076479D01*
Y076679D01*
X028035Y076728D01*
X028385Y076429D02*
X028185D01*
X028385Y076629D01*
Y076679D01*
X028335Y076728D01*
X028235D01*
X028185Y076679D01*
X029835Y076728D02*
Y076429D01*
X029985D01*
X030035Y076479D01*
Y076679D01*
X029985Y076728D01*
X029835D01*
X030135D02*
X030235D01*
X030185D01*
Y076429D01*
X030135D01*
X030235D01*
X030535Y076728D02*
X030435D01*
X030385Y076679D01*
Y076479D01*
X030435Y076429D01*
X030535D01*
X030585Y076479D01*
Y076679D01*
X030535Y076728D01*
X030685Y076429D02*
X030785D01*
X030735D01*
Y076728D01*
X030685Y076679D01*
X05213Y0827D02*
Y0824D01*
X05228D01*
X05233Y08245D01*
Y08265D01*
X05228Y0827D01*
X05213D01*
X05263D02*
X05243D01*
Y08255D01*
X05253Y0826D01*
X05258D01*
X05263Y08255D01*
Y08245D01*
X05258Y0824D01*
X05248D01*
X05243Y08245D01*
X042055Y08737D02*
X042005Y08742D01*
X041905D01*
X041855Y08737D01*
Y08717D01*
X041905Y08712D01*
X042005D01*
X042055Y08717D01*
X042155Y08732D02*
X042355Y08712D01*
X042255Y08722D01*
X042355Y08732D01*
X042155Y08712D01*
X042455Y08717D02*
X042505Y08712D01*
X042605D01*
X042655Y08717D01*
Y08737D01*
X042605Y08742D01*
X042505D01*
X042455Y08737D01*
Y08732D01*
X042505Y08727D01*
X042655D01*
X0583Y08762D02*
X05825Y08767D01*
X05815D01*
X0581Y08762D01*
Y08742D01*
X05815Y08737D01*
X05825D01*
X0583Y08742D01*
X0584Y08757D02*
X0586Y08737D01*
X0585Y08747D01*
X0586Y08757D01*
X0584Y08737D01*
X0587Y08762D02*
X05875Y08767D01*
X05885D01*
X0589Y08762D01*
Y08757D01*
X05885Y08752D01*
X0589Y08747D01*
Y08742D01*
X05885Y08737D01*
X05875D01*
X0587Y08742D01*
Y08747D01*
X05875Y08752D01*
X0587Y08757D01*
Y08762D01*
X05875Y08752D02*
X05885D01*
X0363Y07552D02*
X03625Y07557D01*
X03615D01*
X0361Y07552D01*
Y07532D01*
X03615Y07527D01*
X03625D01*
X0363Y07532D01*
X0364Y07547D02*
X0366Y07527D01*
X0365Y07537D01*
X0366Y07547D01*
X0364Y07527D01*
X0367Y07557D02*
X0369D01*
Y07552D01*
X0367Y07532D01*
Y07527D01*
X03434Y05291D02*
X03429Y05296D01*
X03419D01*
X03414Y05291D01*
Y05271D01*
X03419Y05266D01*
X03429D01*
X03434Y05271D01*
X03444Y05286D02*
X03464Y05266D01*
X03454Y05276D01*
X03464Y05286D01*
X03444Y05266D01*
X03494Y05296D02*
X03484Y05291D01*
X03474Y05281D01*
Y05271D01*
X03479Y05266D01*
X03489D01*
X03494Y05271D01*
Y05276D01*
X03489Y05281D01*
X03474D01*
X027465Y063519D02*
X027415Y063568D01*
X027315D01*
X027265Y063519D01*
Y063319D01*
X027315Y063269D01*
X027415D01*
X027465Y063319D01*
X027565Y063469D02*
X027765Y063269D01*
X027665Y063369D01*
X027765Y063469D01*
X027565Y063269D01*
X028015D02*
Y063568D01*
X027865Y063419D01*
X028065D01*
X029155Y063488D02*
X029105Y063538D01*
X029005D01*
X028955Y063488D01*
Y063289D01*
X029005Y063239D01*
X029105D01*
X029155Y063289D01*
X029255Y063439D02*
X029455Y063239D01*
X029355Y063339D01*
X029455Y063439D01*
X029255Y063239D01*
X029555Y063488D02*
X029605Y063538D01*
X029705D01*
X029755Y063488D01*
Y063439D01*
X029705Y063389D01*
X029655D01*
X029705D01*
X029755Y063339D01*
Y063289D01*
X029705Y063239D01*
X029605D01*
X029555Y063289D01*
X030225Y073468D02*
X030175Y073518D01*
X030075D01*
X030025Y073468D01*
Y073269D01*
X030075Y073219D01*
X030175D01*
X030225Y073269D01*
X030325Y073419D02*
X030525Y073219D01*
X030425Y073319D01*
X030525Y073419D01*
X030325Y073219D01*
X030825D02*
X030625D01*
X030825Y073419D01*
Y073468D01*
X030775Y073518D01*
X030675D01*
X030625Y073468D01*
X027595Y073389D02*
X027545Y073438D01*
X027445D01*
X027395Y073389D01*
Y073189D01*
X027445Y073139D01*
X027545D01*
X027595Y073189D01*
X027695Y073339D02*
X027895Y073139D01*
X027795Y073239D01*
X027895Y073339D01*
X027695Y073139D01*
X027995D02*
X028095D01*
X028045D01*
Y073438D01*
X027995Y073389D01*
X04388Y087521D02*
X04383Y087571D01*
X04373D01*
X04368Y087521D01*
Y087321D01*
X04373Y087271D01*
X04383D01*
X04388Y087321D01*
X04398D02*
X04403Y087271D01*
X04413D01*
X04418Y087321D01*
Y087521D01*
X04413Y087571D01*
X04403D01*
X04398Y087521D01*
Y087471D01*
X04403Y087421D01*
X04418D01*
X0606Y06358D02*
X06055Y06363D01*
X06045D01*
X0604Y06358D01*
Y06338D01*
X06045Y06333D01*
X06055D01*
X0606Y06338D01*
X0607Y06358D02*
X06075Y06363D01*
X06085D01*
X0609Y06358D01*
Y06353D01*
X06085Y06348D01*
X0609Y06343D01*
Y06338D01*
X06085Y06333D01*
X06075D01*
X0607Y06338D01*
Y06343D01*
X06075Y06348D01*
X0607Y06353D01*
Y06358D01*
X06075Y06348D02*
X06085D01*
X05983Y087659D02*
X05978Y087709D01*
X05968D01*
X05963Y087659D01*
Y087459D01*
X05968Y087409D01*
X05978D01*
X05983Y087459D01*
X05993Y087709D02*
X06013D01*
Y087659D01*
X05993Y087459D01*
Y087409D01*
X0606Y07531D02*
X06055Y07536D01*
X06045D01*
X0604Y07531D01*
Y07511D01*
X06045Y07506D01*
X06055D01*
X0606Y07511D01*
X0609Y07536D02*
X0608Y07531D01*
X0607Y07521D01*
Y07511D01*
X06075Y07506D01*
X06085D01*
X0609Y07511D01*
Y07516D01*
X06085Y07521D01*
X0607D01*
X0606Y08118D02*
X06055Y08123D01*
X06045D01*
X0604Y08118D01*
Y08098D01*
X06045Y08093D01*
X06055D01*
X0606Y08098D01*
X0609Y08123D02*
X0607D01*
Y08108D01*
X0608Y08113D01*
X06085D01*
X0609Y08108D01*
Y08098D01*
X06085Y08093D01*
X06075D01*
X0607Y08098D01*
X0606Y06945D02*
X06055Y0695D01*
X06045D01*
X0604Y06945D01*
Y06925D01*
X06045Y0692D01*
X06055D01*
X0606Y06925D01*
X06085Y0692D02*
Y0695D01*
X0607Y06935D01*
X0609D01*
X03494Y08128D02*
X03489Y08133D01*
X03479D01*
X03474Y08128D01*
Y08108D01*
X03479Y08103D01*
X03489D01*
X03494Y08108D01*
X03504Y08128D02*
X03509Y08133D01*
X03519D01*
X03524Y08128D01*
Y08123D01*
X03519Y08118D01*
X03514D01*
X03519D01*
X03524Y08113D01*
Y08108D01*
X03519Y08103D01*
X03509D01*
X03504Y08108D01*
X027395Y066968D02*
X027345Y067018D01*
X027245D01*
X027195Y066968D01*
Y066769D01*
X027245Y066719D01*
X027345D01*
X027395Y066769D01*
X027695Y066719D02*
X027495D01*
X027695Y066919D01*
Y066968D01*
X027645Y067018D01*
X027545D01*
X027495Y066968D01*
X027505Y079858D02*
X027455Y079908D01*
X027355D01*
X027305Y079858D01*
Y079659D01*
X027355Y079609D01*
X027455D01*
X027505Y079659D01*
X027605Y079609D02*
X027705D01*
X027655D01*
Y079908D01*
X027605Y079858D01*
X05678Y06187D02*
Y06217D01*
X05663Y06202D01*
X05683D01*
X05663Y07402D02*
X05668Y07407D01*
X05678D01*
X05683Y07402D01*
Y07397D01*
X05678Y07392D01*
X05673D01*
X05678D01*
X05683Y07387D01*
Y07382D01*
X05678Y07377D01*
X05668D01*
X05663Y07382D01*
X05683Y07972D02*
X05663D01*
X05683Y07992D01*
Y07997D01*
X05678Y08002D01*
X05668D01*
X05663Y07997D01*
X05673Y06782D02*
X05683D01*
X05678D01*
Y06812D01*
X05673Y06807D01*
D19*
X061888Y086411D02*
G03*
X06036Y086367I-000738J-000922D01*
G01*
X044462Y084428D02*
G03*
X04599Y084472I000738J000922D01*
G01*
D20*
X02956Y08214D02*
X03004D01*
Y08336D01*
X02956Y08214D02*
Y08336D01*
X03004D01*
X03056Y08214D02*
X03104D01*
Y08336D01*
X03056Y08214D02*
Y08336D01*
X03104D01*
X037745Y05676D02*
Y05724D01*
Y05676D02*
X038965D01*
X037745Y05724D02*
X038965D01*
Y05676D02*
Y05724D01*
X04051Y05676D02*
Y05724D01*
X03929D02*
X04051D01*
X03929Y05676D02*
X04051D01*
X03929D02*
Y05724D01*
X02122Y08172D02*
Y08678D01*
Y08172D02*
X02148D01*
X02439D02*
Y08309D01*
X02341Y08678D02*
X02439D01*
Y08541D02*
Y08678D01*
X02122D02*
X02148D01*
X02341Y08172D02*
X02439D01*
X02122Y071503D02*
Y076563D01*
Y071503D02*
X02148D01*
X02439D02*
Y072873D01*
X02341Y076563D02*
X02439D01*
Y075193D02*
Y076563D01*
X02122D02*
X02148D01*
X02341Y071503D02*
X02439D01*
X02122Y061287D02*
Y066347D01*
Y061287D02*
X02148D01*
X02439D02*
Y062657D01*
X02341Y066347D02*
X02439D01*
Y064977D02*
Y066347D01*
X02122D02*
X02148D01*
X02341Y061287D02*
X02439D01*
X02122Y05107D02*
Y05613D01*
Y05107D02*
X02148D01*
X02439D02*
Y05244D01*
X02341Y05613D02*
X02439D01*
Y05476D02*
Y05613D01*
X02122D02*
X02148D01*
X02341Y05107D02*
X02439D01*
X03761Y08096D02*
X03809D01*
X03761Y07974D02*
Y08096D01*
X03809Y07974D02*
Y08096D01*
X03761Y07974D02*
X03809D01*
X03661Y08096D02*
X03709D01*
X03661Y07974D02*
Y08096D01*
X03709Y07974D02*
Y08096D01*
X03661Y07974D02*
X03709D01*
D21*
X028871Y062919D02*
X030721D01*
Y061659D02*
Y062919D01*
X028871Y061659D02*
X030721D01*
X028871D02*
Y062919D01*
X02731Y071559D02*
X02916D01*
X02731D02*
Y072819D01*
X02916D01*
Y071559D02*
Y072819D01*
X0388Y0737D02*
X0393D01*
Y0746D01*
Y0748D01*
X0388D02*
X0393D01*
X0388Y0737D02*
Y0748D01*
X03885Y0741D02*
X03925D01*
Y0744D01*
X03885D02*
X03925D01*
X03885Y0741D02*
Y0744D01*
X05928Y085204D02*
Y087054D01*
X05802Y085204D02*
X05928D01*
X05802D02*
Y087054D01*
X05928D01*
X041774Y084946D02*
Y086796D01*
X043034D01*
Y084946D02*
Y086796D01*
X041774Y084946D02*
X043034D01*
D22*
X036188Y080011D02*
Y080689D01*
X034685D02*
X036188D01*
X034685Y080011D02*
X036188D01*
X034685D02*
Y080689D01*
D23*
X051635Y064148D02*
X055439D01*
X051635Y068352D02*
X055439D01*
X051635Y064156D02*
Y068352D01*
Y076048D02*
X055439D01*
X051635Y080252D02*
X055439D01*
X051635Y076056D02*
Y080252D01*
Y070098D02*
X055439D01*
X051635Y074302D02*
X055439D01*
X051635Y070106D02*
Y074302D01*
Y058198D02*
X055439D01*
X051635Y062402D02*
X055439D01*
X051635Y058206D02*
Y062402D01*
D24*
X03958Y052345D02*
D03*
D25*
X03945Y085498D02*
D03*
X03765Y085463D02*
D03*
M02*
