G04*
G04 #@! TF.GenerationSoftware,Altium Limited,Altium Designer,19.0.10 (269)*
G04*
G04 Layer_Color=32768*
%FSTAX24Y24*%
%MOIN*%
G70*
G01*
G75*
%ADD21C,0.0039*%
%ADD127R,0.0236X0.0098*%
G36*
X057622Y055945D02*
X057607D01*
Y056044D01*
X057607Y056044D01*
X057606Y056043D01*
X057605Y056042D01*
X057603Y05604D01*
X057601Y056039D01*
X057598Y056037D01*
X057595Y056035D01*
X057592Y056033D01*
X057592D01*
X057592Y056033D01*
X057591Y056032D01*
X057589Y056031D01*
X057587Y05603D01*
X057584Y056029D01*
X057581Y056028D01*
X057579Y056026D01*
X057576Y056025D01*
Y05604D01*
X057576D01*
X057576Y05604D01*
X057577Y056041D01*
X057578Y056041D01*
X057579Y056042D01*
X05758Y056042D01*
X057584Y056044D01*
X057587Y056046D01*
X057591Y056049D01*
X057595Y056052D01*
X057598Y056055D01*
X057599Y056055D01*
X057599Y056055D01*
X057599Y056056D01*
X0576Y056056D01*
X057602Y056058D01*
X057604Y05606D01*
X057606Y056063D01*
X057608Y056066D01*
X05761Y056069D01*
X057612Y056072D01*
X057622D01*
Y055945D01*
D02*
G37*
G36*
X057491Y056073D02*
X057492D01*
X057494Y056073D01*
X057496Y056073D01*
X057498Y056072D01*
X057503Y056071D01*
X057509Y05607D01*
X057514Y056068D01*
X057517Y056066D01*
X057519Y056065D01*
X057519Y056065D01*
X05752Y056065D01*
X057521Y056064D01*
X057522Y056064D01*
X057523Y056063D01*
X057524Y056062D01*
X057527Y056059D01*
X057531Y056056D01*
X057534Y056052D01*
X057538Y056047D01*
X057541Y056042D01*
Y056042D01*
X057541Y056041D01*
X057541Y05604D01*
X057542Y056039D01*
X057542Y056038D01*
X057543Y056036D01*
X057544Y056034D01*
X057544Y056032D01*
X057545Y05603D01*
X057546Y056027D01*
X057546Y056024D01*
X057547Y056021D01*
X057548Y056015D01*
X057548Y056008D01*
Y056008D01*
Y056008D01*
Y056007D01*
Y056006D01*
X057548Y056004D01*
Y056003D01*
X057548Y056001D01*
X057547Y055999D01*
X057547Y055995D01*
X057546Y05599D01*
X057545Y055985D01*
X057543Y05598D01*
Y05598D01*
X057543Y05598D01*
X057543Y055979D01*
X057542Y055978D01*
X057542Y055977D01*
X057541Y055976D01*
X05754Y055973D01*
X057538Y055969D01*
X057535Y055966D01*
X057532Y055962D01*
X057529Y055959D01*
X057529D01*
X05753Y055958D01*
X05753Y055958D01*
X057531Y055957D01*
X057532Y055957D01*
X057533Y055956D01*
X057536Y055954D01*
X057539Y055952D01*
X057543Y05595D01*
X057547Y055949D01*
X05755Y055947D01*
X057545Y055935D01*
X057545D01*
X057545Y055936D01*
X057544Y055936D01*
X057543Y055936D01*
X057542Y055937D01*
X05754Y055938D01*
X057539Y055938D01*
X057537Y055939D01*
X057533Y055941D01*
X057528Y055944D01*
X057523Y055947D01*
X057518Y055951D01*
X057518D01*
X057518Y055951D01*
X057517Y05595D01*
X057516Y05595D01*
X057515Y055949D01*
X057513Y055948D01*
X057511Y055948D01*
X057509Y055947D01*
X057507Y055946D01*
X057505Y055946D01*
X057499Y055944D01*
X057494Y055943D01*
X057491Y055943D01*
X057487Y055943D01*
X057486D01*
X057485Y055943D01*
X057483D01*
X057481Y055943D01*
X057479Y055944D01*
X057477Y055944D01*
X057472Y055945D01*
X057467Y055947D01*
X057462Y055949D01*
X057459Y05595D01*
X057456Y055951D01*
X057456Y055951D01*
X057456Y055952D01*
X057455Y055952D01*
X057454Y055953D01*
X057453Y055954D01*
X057452Y055955D01*
X057448Y055957D01*
X057445Y055961D01*
X057442Y055965D01*
X057438Y055969D01*
X057435Y055974D01*
Y055975D01*
X057435Y055975D01*
X057434Y055976D01*
X057434Y055977D01*
X057433Y055978D01*
X057433Y05598D01*
X057432Y055982D01*
X057431Y055984D01*
X057431Y055987D01*
X05743Y055989D01*
X057429Y055992D01*
X057429Y055995D01*
X057428Y056001D01*
X057428Y056008D01*
Y056008D01*
Y056009D01*
Y05601D01*
X057428Y056011D01*
Y056013D01*
X057428Y056015D01*
X057428Y056017D01*
X057428Y056019D01*
X057429Y056025D01*
X057431Y05603D01*
X057432Y056036D01*
X057435Y056042D01*
X057435Y056042D01*
X057435Y056043D01*
X057436Y056044D01*
X057436Y056045D01*
X057437Y056046D01*
X057438Y056047D01*
X057441Y056051D01*
X057444Y056054D01*
X057447Y056058D01*
X057452Y056062D01*
X057456Y056065D01*
X057457Y056066D01*
X057457Y056066D01*
X057458Y056066D01*
X057459Y056067D01*
X05746Y056067D01*
X057462Y056068D01*
X057464Y056069D01*
X057466Y056069D01*
X057468Y05607D01*
X05747Y056071D01*
X057476Y056072D01*
X057481Y056073D01*
X057485Y056073D01*
X057489D01*
X057491Y056073D01*
D02*
G37*
G36*
X057581Y055906D02*
X057582D01*
X057586Y055906D01*
X05759Y055905D01*
X057594Y055904D01*
X057598Y055903D01*
X057602Y055902D01*
X057602D01*
X057603Y055901D01*
X057603Y055901D01*
X057604Y055901D01*
X057606Y0559D01*
X057608Y055898D01*
X057611Y055896D01*
X057614Y055894D01*
X057616Y055891D01*
X057618Y055888D01*
Y055888D01*
X057619Y055888D01*
X057619Y055887D01*
X057619Y055887D01*
X05762Y055885D01*
X057621Y055882D01*
X057623Y05588D01*
X057624Y055876D01*
X057624Y055872D01*
X057625Y055868D01*
X057609Y055867D01*
Y055867D01*
Y055868D01*
X057609Y055868D01*
X057608Y055869D01*
X057608Y055871D01*
X057607Y055874D01*
X057606Y055877D01*
X057604Y05588D01*
X057602Y055882D01*
X0576Y055885D01*
X0576Y055885D01*
X057599Y055886D01*
X057597Y055887D01*
X057594Y055888D01*
X057591Y055889D01*
X057588Y05589D01*
X057583Y055891D01*
X057578Y055891D01*
X057576D01*
X057574Y055891D01*
X057573Y055891D01*
X05757Y05589D01*
X057566Y05589D01*
X057562Y055889D01*
X057559Y055887D01*
X057558Y055886D01*
X057556Y055886D01*
X057556Y055885D01*
X057555Y055885D01*
X057554Y055883D01*
X057553Y055882D01*
X057551Y05588D01*
X05755Y055878D01*
X05755Y055875D01*
X057549Y055872D01*
Y055872D01*
Y055871D01*
X05755Y05587D01*
X05755Y055868D01*
X05755Y055867D01*
X057551Y055865D01*
X057552Y055863D01*
X057554Y055861D01*
X057554Y055861D01*
X057555Y05586D01*
X057556Y05586D01*
X057557Y055859D01*
X057558Y055859D01*
X057559Y055858D01*
X057561Y055858D01*
X057562Y055857D01*
X057564Y055856D01*
X057567Y055855D01*
X057569Y055855D01*
X057572Y055854D01*
X057576Y055853D01*
X057579Y055852D01*
X057579D01*
X05758Y055852D01*
X057581Y055852D01*
X057582Y055851D01*
X057584Y055851D01*
X057586Y05585D01*
X057588Y05585D01*
X05759Y055849D01*
X057595Y055848D01*
X0576Y055847D01*
X057602Y055846D01*
X057604Y055845D01*
X057606Y055845D01*
X057607Y055844D01*
X057607D01*
X057608Y055844D01*
X057608Y055843D01*
X057609Y055843D01*
X057611Y055842D01*
X057613Y055841D01*
X057616Y055839D01*
X057619Y055836D01*
X057621Y055834D01*
X057623Y055831D01*
X057624Y055831D01*
X057624Y05583D01*
X057625Y055828D01*
X057626Y055826D01*
X057627Y055823D01*
X057628Y05582D01*
X057628Y055817D01*
X057629Y055813D01*
Y055813D01*
Y055813D01*
Y055812D01*
Y055812D01*
X057628Y05581D01*
X057628Y055807D01*
X057627Y055804D01*
X057626Y055801D01*
X057625Y055798D01*
X057623Y055794D01*
Y055794D01*
X057623Y055794D01*
X057622Y055793D01*
X05762Y055791D01*
X057619Y055789D01*
X057616Y055787D01*
X057613Y055785D01*
X05761Y055783D01*
X057606Y055781D01*
X057606D01*
X057606Y055781D01*
X057605Y05578D01*
X057604Y05578D01*
X057603Y05578D01*
X057602Y055779D01*
X057599Y055778D01*
X057596Y055777D01*
X057592Y055777D01*
X057587Y055776D01*
X057582Y055776D01*
X057579D01*
X057578Y055776D01*
X057576D01*
X057574Y055776D01*
X057572Y055776D01*
X057568Y055777D01*
X057563Y055778D01*
X057558Y055779D01*
X057554Y055781D01*
X057553D01*
X057553Y055781D01*
X057552Y055781D01*
X057552Y055782D01*
X05755Y055783D01*
X057547Y055784D01*
X057544Y055787D01*
X057541Y055789D01*
X057538Y055792D01*
X057535Y055796D01*
Y055796D01*
X057535Y055796D01*
X057535Y055797D01*
X057534Y055797D01*
X057534Y055798D01*
X057533Y055799D01*
X057532Y055802D01*
X057531Y055806D01*
X05753Y055809D01*
X057529Y055814D01*
X057529Y055818D01*
X057544Y05582D01*
Y05582D01*
Y055819D01*
X057544Y055819D01*
Y055818D01*
X057545Y055817D01*
X057545Y055814D01*
X057546Y055812D01*
X057547Y055809D01*
X057548Y055807D01*
X057549Y055804D01*
X05755Y055804D01*
X05755Y055803D01*
X057551Y055802D01*
X057552Y055801D01*
X057554Y055799D01*
X057556Y055797D01*
X057559Y055796D01*
X057562Y055794D01*
X057562D01*
X057562Y055794D01*
X057563Y055794D01*
X057563Y055794D01*
X057565Y055793D01*
X057568Y055793D01*
X05757Y055792D01*
X057574Y055791D01*
X057577Y055791D01*
X057581Y055791D01*
X057583D01*
X057585Y055791D01*
X057587Y055791D01*
X05759Y055791D01*
X057592Y055792D01*
X057595Y055793D01*
X057598Y055793D01*
X057598Y055794D01*
X057599Y055794D01*
X057601Y055795D01*
X057602Y055795D01*
X057604Y055797D01*
X057606Y055798D01*
X057608Y055799D01*
X057609Y055801D01*
X057609Y055801D01*
X05761Y055802D01*
X05761Y055803D01*
X057611Y055805D01*
X057612Y055806D01*
X057612Y055808D01*
X057612Y05581D01*
X057613Y055812D01*
Y055812D01*
Y055813D01*
X057612Y055814D01*
X057612Y055816D01*
X057612Y055817D01*
X057611Y055819D01*
X05761Y055821D01*
X057609Y055822D01*
X057609Y055823D01*
X057608Y055823D01*
X057608Y055824D01*
X057606Y055825D01*
X057605Y055826D01*
X057603Y055827D01*
X0576Y055829D01*
X057598Y05583D01*
X057598Y05583D01*
X057597Y05583D01*
X057595Y055831D01*
X057594Y055831D01*
X057593Y055831D01*
X057592Y055832D01*
X05759Y055832D01*
X057588Y055833D01*
X057586Y055833D01*
X057584Y055834D01*
X057581Y055834D01*
X057578Y055835D01*
X057575Y055836D01*
X057575D01*
X057575Y055836D01*
X057574Y055836D01*
X057573Y055837D01*
X057571Y055837D01*
X05757Y055837D01*
X057566Y055838D01*
X057562Y05584D01*
X057558Y055841D01*
X057554Y055842D01*
X057552Y055843D01*
X057551Y055844D01*
X057551D01*
X057551Y055844D01*
X05755Y055845D01*
X057548Y055845D01*
X057546Y055847D01*
X057544Y055849D01*
X057542Y055851D01*
X057539Y055853D01*
X057538Y055855D01*
X057537Y055856D01*
X057537Y055857D01*
X057536Y055858D01*
X057535Y05586D01*
X057535Y055862D01*
X057534Y055865D01*
X057533Y055868D01*
X057533Y055871D01*
Y055871D01*
Y055872D01*
Y055872D01*
Y055873D01*
X057534Y055875D01*
X057534Y055877D01*
X057535Y05588D01*
X057535Y055883D01*
X057537Y055886D01*
X057539Y055889D01*
Y055889D01*
X057539Y055889D01*
X05754Y05589D01*
X057541Y055892D01*
X057543Y055894D01*
X057545Y055896D01*
X057547Y055898D01*
X057551Y0559D01*
X057554Y055902D01*
X057555D01*
X057555Y055902D01*
X057556Y055902D01*
X057556Y055902D01*
X057557Y055903D01*
X057558Y055903D01*
X057561Y055904D01*
X057565Y055905D01*
X057569Y055905D01*
X057573Y055906D01*
X057578Y055906D01*
X05758D01*
X057581Y055906D01*
D02*
G37*
G36*
X057709D02*
X057711Y055906D01*
X057713Y055906D01*
X057715Y055905D01*
X057717Y055905D01*
X057722Y055904D01*
X057727Y055902D01*
X05773Y055901D01*
X057733Y0559D01*
X057735Y055898D01*
X057738Y055896D01*
X057738Y055896D01*
X057738Y055896D01*
X057739Y055896D01*
X05774Y055895D01*
X057741Y055894D01*
X057742Y055892D01*
X057744Y055891D01*
X057745Y05589D01*
X057746Y055888D01*
X057748Y055886D01*
X05775Y055883D01*
X057751Y055881D01*
X057752Y055878D01*
X057754Y055876D01*
X057755Y055873D01*
X057756Y055869D01*
X05774Y055866D01*
Y055866D01*
X057739Y055866D01*
X057739Y055867D01*
X057739Y055868D01*
X057738Y055869D01*
X057738Y05587D01*
X057736Y055873D01*
X057734Y055876D01*
X057732Y05588D01*
X05773Y055883D01*
X057727Y055886D01*
X057726Y055886D01*
X057725Y055887D01*
X057723Y055888D01*
X057721Y055889D01*
X057718Y05589D01*
X057714Y055891D01*
X05771Y055892D01*
X057706Y055892D01*
X057704D01*
X057703Y055892D01*
X057702D01*
X057701Y055892D01*
X057697Y055891D01*
X057693Y05589D01*
X057689Y055889D01*
X057685Y055887D01*
X057681Y055885D01*
X057681D01*
X057681Y055884D01*
X05768Y055884D01*
X057678Y055882D01*
X057676Y05588D01*
X057674Y055877D01*
X057671Y055874D01*
X057669Y05587D01*
X057668Y055866D01*
Y055866D01*
X057667Y055866D01*
X057667Y055865D01*
X057667Y055864D01*
X057667Y055863D01*
X057666Y055862D01*
X057666Y055859D01*
X057665Y055855D01*
X057664Y055851D01*
X057664Y055847D01*
X057664Y055842D01*
Y055842D01*
Y055841D01*
Y05584D01*
Y055839D01*
X057664Y055838D01*
Y055836D01*
X057664Y055834D01*
X057664Y055832D01*
X057665Y055828D01*
X057666Y055823D01*
X057667Y055819D01*
X057668Y055814D01*
Y055814D01*
X057669Y055813D01*
X057669Y055813D01*
X057669Y055812D01*
X05767Y05581D01*
X057672Y055807D01*
X057674Y055804D01*
X057677Y055801D01*
X057679Y055798D01*
X057683Y055796D01*
X057683D01*
X057683Y055796D01*
X057684Y055795D01*
X057685Y055795D01*
X057686Y055795D01*
X057687Y055794D01*
X057689Y055793D01*
X057693Y055792D01*
X057696Y055791D01*
X0577Y05579D01*
X057704Y05579D01*
X057706D01*
X057707Y05579D01*
X057708D01*
X057709Y05579D01*
X057713Y055791D01*
X057716Y055792D01*
X05772Y055793D01*
X057724Y055795D01*
X057726Y055797D01*
X057728Y055798D01*
X057728Y055798D01*
X057728Y055798D01*
X057729Y055799D01*
X05773Y055799D01*
X05773Y0558D01*
X057731Y055801D01*
X057732Y055803D01*
X057733Y055804D01*
X057734Y055806D01*
X057736Y055807D01*
X057737Y055809D01*
X057738Y055811D01*
X057739Y055814D01*
X05774Y055816D01*
X057741Y055819D01*
X057741Y055822D01*
X057758Y055818D01*
Y055818D01*
X057758Y055817D01*
X057758Y055816D01*
X057757Y055814D01*
X057756Y055813D01*
X057756Y055811D01*
X057755Y055809D01*
X057754Y055806D01*
X057751Y055801D01*
X057748Y055796D01*
X057746Y055793D01*
X057744Y055791D01*
X057742Y055789D01*
X057739Y055787D01*
X057739Y055786D01*
X057739Y055786D01*
X057738Y055786D01*
X057737Y055785D01*
X057735Y055784D01*
X057734Y055783D01*
X057732Y055782D01*
X05773Y055781D01*
X057727Y05578D01*
X057725Y055779D01*
X057722Y055778D01*
X057719Y055777D01*
X057716Y055777D01*
X057713Y055776D01*
X057709Y055776D01*
X057706Y055776D01*
X057704D01*
X057702Y055776D01*
X057701D01*
X057699Y055776D01*
X057697Y055777D01*
X057694Y055777D01*
X057689Y055778D01*
X057683Y055779D01*
X057678Y055781D01*
X057675Y055782D01*
X057673Y055784D01*
X057673Y055784D01*
X057672Y055784D01*
X057671Y055785D01*
X057671Y055786D01*
X05767Y055786D01*
X057668Y055787D01*
X057667Y055789D01*
X057665Y05579D01*
X057664Y055792D01*
X057662Y055793D01*
X057659Y055798D01*
X057656Y055803D01*
X057653Y055808D01*
Y055808D01*
X057653Y055809D01*
X057653Y05581D01*
X057652Y055811D01*
X057652Y055812D01*
X057651Y055814D01*
X057651Y055816D01*
X05765Y055818D01*
X057649Y055821D01*
X057649Y055823D01*
X057648Y055829D01*
X057647Y055835D01*
X057647Y055842D01*
Y055842D01*
Y055843D01*
Y055844D01*
X057647Y055845D01*
Y055847D01*
X057647Y055849D01*
X057647Y055851D01*
X057648Y055853D01*
X057649Y055859D01*
X05765Y055865D01*
X057652Y05587D01*
X057654Y055876D01*
X057654Y055876D01*
X057655Y055877D01*
X057655Y055878D01*
X057656Y055878D01*
X057656Y05588D01*
X057657Y055881D01*
X05766Y055884D01*
X057663Y055888D01*
X057666Y055892D01*
X057671Y055895D01*
X057675Y055898D01*
X057676Y055899D01*
X057676Y055899D01*
X057677Y055899D01*
X057678Y0559D01*
X057679Y0559D01*
X057681Y055901D01*
X057683Y055902D01*
X057685Y055902D01*
X057687Y055903D01*
X057689Y055904D01*
X057694Y055905D01*
X0577Y055906D01*
X057706Y055906D01*
X057708D01*
X057709Y055906D01*
D02*
G37*
G36*
X058144Y055888D02*
X058093D01*
X058086Y055853D01*
X058087Y055854D01*
X058087Y055854D01*
X058087Y055854D01*
X058088Y055855D01*
X058089Y055855D01*
X058091Y055856D01*
X058094Y055857D01*
X058097Y055859D01*
X058101Y05586D01*
X058106Y055861D01*
X058108Y055861D01*
X058112D01*
X058113Y055861D01*
X058114Y055861D01*
X058116Y055861D01*
X058118Y055861D01*
X05812Y05586D01*
X058124Y055859D01*
X058127Y055858D01*
X058129Y055857D01*
X058131Y055855D01*
X058134Y055854D01*
X058136Y055852D01*
X058138Y05585D01*
X058138Y05585D01*
X058139Y055849D01*
X058139Y055849D01*
X05814Y055848D01*
X058141Y055847D01*
X058142Y055845D01*
X058143Y055844D01*
X058144Y055842D01*
X058145Y05584D01*
X058146Y055838D01*
X058147Y055835D01*
X058148Y055833D01*
X058148Y05583D01*
X058149Y055827D01*
X058149Y055824D01*
X05815Y055821D01*
Y05582D01*
Y05582D01*
Y055819D01*
X058149Y055818D01*
X058149Y055816D01*
X058149Y055815D01*
X058149Y055813D01*
X058148Y055811D01*
X058147Y055806D01*
X058145Y055801D01*
X058144Y055798D01*
X058143Y055796D01*
X058141Y055793D01*
X05814Y055791D01*
X058139Y055791D01*
X058139Y05579D01*
X058138Y05579D01*
X058137Y055789D01*
X058136Y055788D01*
X058135Y055786D01*
X058133Y055785D01*
X058131Y055783D01*
X058129Y055782D01*
X058126Y055781D01*
X058123Y055779D01*
X05812Y055778D01*
X058117Y055777D01*
X058114Y055777D01*
X05811Y055776D01*
X058106Y055776D01*
X058105D01*
X058104Y055776D01*
X058102Y055776D01*
X0581Y055776D01*
X058098Y055777D01*
X058096Y055777D01*
X058092Y055778D01*
X058087Y05578D01*
X058085Y055781D01*
X058083Y055782D01*
X05808Y055784D01*
X058078Y055785D01*
X058078Y055785D01*
X058078Y055786D01*
X058077Y055786D01*
X058077Y055787D01*
X058076Y055788D01*
X058075Y055789D01*
X058074Y055791D01*
X058073Y055792D01*
X058072Y055794D01*
X058071Y055796D01*
X058069Y0558D01*
X058067Y055805D01*
X058066Y055808D01*
X058066Y055811D01*
X058082Y055812D01*
Y055812D01*
Y055812D01*
X058082Y055811D01*
X058083Y05581D01*
X058083Y055808D01*
X058084Y055805D01*
X058085Y055803D01*
X058086Y0558D01*
X058088Y055797D01*
X05809Y055794D01*
X058091Y055794D01*
X058092Y055793D01*
X058093Y055793D01*
X058095Y055791D01*
X058097Y05579D01*
X0581Y055789D01*
X058103Y055789D01*
X058106Y055789D01*
X058108D01*
X058108Y055789D01*
X05811Y055789D01*
X058113Y05579D01*
X058116Y055791D01*
X058119Y055792D01*
X058122Y055794D01*
X058124Y055795D01*
X058125Y055797D01*
X058126Y055797D01*
X058126Y055797D01*
X058126Y055798D01*
X058127Y055798D01*
X058128Y0558D01*
X058129Y055803D01*
X058131Y055806D01*
X058132Y05581D01*
X058133Y055814D01*
X058133Y055817D01*
Y055819D01*
Y055819D01*
Y05582D01*
Y055821D01*
X058133Y055821D01*
Y055823D01*
X058133Y055824D01*
X058132Y055827D01*
X058131Y05583D01*
X05813Y055834D01*
X058128Y055837D01*
X058126Y05584D01*
Y05584D01*
X058125Y05584D01*
X058124Y055841D01*
X058123Y055843D01*
X058121Y055844D01*
X058118Y055845D01*
X058114Y055847D01*
X058111Y055847D01*
X058108Y055848D01*
X058105D01*
X058104Y055848D01*
X058102Y055847D01*
X058099Y055847D01*
X058097Y055846D01*
X058095Y055845D01*
X058093Y055844D01*
X058092Y055844D01*
X058092Y055844D01*
X058091Y055843D01*
X058089Y055842D01*
X058088Y055841D01*
X058086Y055839D01*
X058085Y055837D01*
X058083Y055835D01*
X058069Y055837D01*
X058081Y055902D01*
X058144D01*
Y055888D01*
D02*
G37*
G36*
X058026Y055778D02*
X058011D01*
Y055876D01*
X058011Y055876D01*
X05801Y055876D01*
X058009Y055874D01*
X058007Y055873D01*
X058005Y055872D01*
X058002Y05587D01*
X057999Y055868D01*
X057996Y055866D01*
X057996D01*
X057996Y055866D01*
X057995Y055865D01*
X057993Y055864D01*
X057991Y055863D01*
X057988Y055861D01*
X057985Y05586D01*
X057983Y055859D01*
X05798Y055858D01*
Y055873D01*
X05798D01*
X05798Y055873D01*
X057981Y055873D01*
X057982Y055874D01*
X057983Y055874D01*
X057984Y055875D01*
X057988Y055877D01*
X057991Y055879D01*
X057995Y055882D01*
X057999Y055884D01*
X058003Y055888D01*
X058003Y055888D01*
X058003Y055888D01*
X058003Y055888D01*
X058004Y055889D01*
X058006Y055891D01*
X058008Y055893D01*
X05801Y055896D01*
X058013Y055898D01*
X058015Y055901D01*
X058016Y055904D01*
X058026D01*
Y055778D01*
D02*
G37*
G36*
X057831D02*
X057815D01*
Y055876D01*
X057815Y055876D01*
X057814Y055876D01*
X057813Y055874D01*
X057811Y055873D01*
X057809Y055872D01*
X057806Y05587D01*
X057804Y055868D01*
X0578Y055866D01*
X0578D01*
X0578Y055866D01*
X057799Y055865D01*
X057797Y055864D01*
X057795Y055863D01*
X057792Y055861D01*
X05779Y05586D01*
X057787Y055859D01*
X057784Y055858D01*
Y055873D01*
X057784D01*
X057785Y055873D01*
X057785Y055873D01*
X057786Y055874D01*
X057787Y055874D01*
X057789Y055875D01*
X057792Y055877D01*
X057795Y055879D01*
X057799Y055882D01*
X057803Y055884D01*
X057807Y055888D01*
X057807Y055888D01*
X057807Y055888D01*
X057808Y055888D01*
X057808Y055889D01*
X05781Y055891D01*
X057812Y055893D01*
X057814Y055896D01*
X057817Y055898D01*
X057819Y055901D01*
X057821Y055904D01*
X057831D01*
Y055778D01*
D02*
G37*
G36*
X057475Y055904D02*
X057476Y055904D01*
X057478Y055904D01*
X05748Y055904D01*
X057482Y055903D01*
X057487Y055902D01*
X057491Y0559D01*
X057494Y055899D01*
X057496Y055898D01*
X057498Y055896D01*
X0575Y055894D01*
X057501Y055894D01*
X057501Y055894D01*
X057501Y055893D01*
X057502Y055892D01*
X057503Y055892D01*
X057504Y05589D01*
X057505Y055889D01*
X057506Y055887D01*
X057508Y055884D01*
X057509Y05588D01*
X05751Y055877D01*
X057511Y055875D01*
X057511Y055872D01*
X057511Y055869D01*
Y055869D01*
Y055868D01*
X057511Y055867D01*
X057511Y055865D01*
X05751Y055863D01*
X05751Y05586D01*
X057509Y055857D01*
X057508Y055855D01*
X057508Y055854D01*
X057507Y055853D01*
X057507Y055852D01*
X057505Y05585D01*
X057504Y055848D01*
X057502Y055845D01*
X0575Y055842D01*
X057497Y055839D01*
X057497Y055839D01*
X057496Y055838D01*
X057495Y055837D01*
X057494Y055836D01*
X057493Y055835D01*
X057492Y055833D01*
X05749Y055832D01*
X057489Y05583D01*
X057487Y055828D01*
X057485Y055826D01*
X057482Y055824D01*
X05748Y055822D01*
X057477Y05582D01*
X057474Y055817D01*
X057474Y055817D01*
X057473Y055817D01*
X057473Y055816D01*
X057472Y055815D01*
X057471Y055814D01*
X057469Y055813D01*
X057466Y055811D01*
X057463Y055808D01*
X05746Y055805D01*
X057458Y055803D01*
X057457Y055802D01*
X057456Y055801D01*
X057456Y055801D01*
X057455Y0558D01*
X057454Y0558D01*
X057453Y055799D01*
X057452Y055797D01*
X057451Y055796D01*
X057449Y055793D01*
X057511D01*
Y055778D01*
X057428D01*
Y055778D01*
Y055779D01*
Y05578D01*
X057428Y055781D01*
X057428Y055783D01*
X057428Y055785D01*
X057429Y055787D01*
X05743Y055789D01*
Y055789D01*
X05743Y055789D01*
X05743Y05579D01*
X057431Y055792D01*
X057432Y055794D01*
X057433Y055797D01*
X057435Y055799D01*
X057437Y055802D01*
X05744Y055805D01*
Y055806D01*
X05744Y055806D01*
X057441Y055807D01*
X057443Y055809D01*
X057445Y055811D01*
X057448Y055814D01*
X057451Y055817D01*
X057455Y055821D01*
X05746Y055824D01*
X05746Y055825D01*
X057461Y055825D01*
X057462Y055826D01*
X057463Y055827D01*
X057465Y055829D01*
X057467Y05583D01*
X057469Y055832D01*
X057471Y055834D01*
X057476Y055838D01*
X05748Y055843D01*
X057483Y055845D01*
X057485Y055847D01*
X057486Y055849D01*
X057488Y055851D01*
Y055851D01*
X057488Y055851D01*
X057489Y055852D01*
X057489Y055853D01*
X05749Y055855D01*
X057492Y055857D01*
X057493Y05586D01*
X057494Y055863D01*
X057495Y055867D01*
X057495Y05587D01*
Y05587D01*
Y05587D01*
X057495Y055871D01*
X057495Y055873D01*
X057494Y055875D01*
X057494Y055878D01*
X057492Y05588D01*
X057491Y055883D01*
X057489Y055885D01*
X057488Y055886D01*
X057487Y055886D01*
X057486Y055887D01*
X057484Y055889D01*
X057481Y05589D01*
X057479Y055891D01*
X057475Y055892D01*
X057471Y055892D01*
X05747D01*
X057469Y055892D01*
X057467Y055891D01*
X057465Y055891D01*
X057462Y05589D01*
X057459Y055889D01*
X057456Y055887D01*
X057453Y055885D01*
X057453Y055885D01*
X057452Y055884D01*
X057451Y055882D01*
X05745Y05588D01*
X057449Y055878D01*
X057448Y055874D01*
X057447Y055871D01*
X057446Y055866D01*
X057431Y055868D01*
Y055868D01*
X057431Y055869D01*
Y05587D01*
X057431Y055871D01*
X057431Y055872D01*
X057432Y055874D01*
X057432Y055876D01*
X057433Y055878D01*
X057434Y055882D01*
X057436Y055887D01*
X057438Y055889D01*
X057439Y055891D01*
X057441Y055893D01*
X057443Y055895D01*
X057443Y055895D01*
X057443Y055895D01*
X057444Y055896D01*
X057445Y055896D01*
X057446Y055897D01*
X057447Y055898D01*
X057449Y055899D01*
X05745Y0559D01*
X057452Y055901D01*
X057455Y055902D01*
X057457Y055902D01*
X05746Y055903D01*
X057462Y055904D01*
X057465Y055904D01*
X057468Y055904D01*
X057472Y055904D01*
X057473D01*
X057475Y055904D01*
D02*
G37*
G36*
X057914D02*
X057915Y055904D01*
X057917Y055904D01*
X057919Y055904D01*
X057921Y055903D01*
X057925Y055902D01*
X057929Y0559D01*
X057932Y055899D01*
X057934Y055898D01*
X057936Y055896D01*
X057938Y055895D01*
X057938Y055895D01*
X057938Y055894D01*
X057939Y055894D01*
X057939Y055893D01*
X05794Y055892D01*
X057941Y055891D01*
X057943Y055888D01*
X057945Y055885D01*
X057946Y055881D01*
X057948Y055876D01*
X057948Y055874D01*
X057948Y055871D01*
Y055871D01*
Y055871D01*
Y05587D01*
X057948Y055868D01*
X057947Y055866D01*
X057947Y055864D01*
X057946Y055861D01*
X057945Y055859D01*
X057943Y055856D01*
X057943Y055856D01*
X057942Y055855D01*
X057941Y055854D01*
X05794Y055852D01*
X057938Y055851D01*
X057935Y055849D01*
X057933Y055847D01*
X057929Y055846D01*
X05793D01*
X05793Y055846D01*
X05793Y055846D01*
X057931Y055845D01*
X057933Y055844D01*
X057936Y055843D01*
X057939Y055841D01*
X057942Y055839D01*
X057944Y055837D01*
X057947Y055834D01*
Y055834D01*
X057947Y055833D01*
X057948Y055832D01*
X057949Y055831D01*
X05795Y055828D01*
X057951Y055825D01*
X057952Y055822D01*
X057953Y055818D01*
X057953Y055814D01*
Y055814D01*
Y055813D01*
Y055812D01*
X057953Y055811D01*
X057953Y05581D01*
X057952Y055808D01*
X057952Y055806D01*
X057952Y055804D01*
X05795Y0558D01*
X057949Y055798D01*
X057948Y055796D01*
X057947Y055793D01*
X057945Y055791D01*
X057944Y055789D01*
X057942Y055787D01*
X057941Y055787D01*
X057941Y055786D01*
X05794Y055786D01*
X05794Y055785D01*
X057938Y055784D01*
X057937Y055783D01*
X057935Y055782D01*
X057934Y055781D01*
X057932Y05578D01*
X057929Y055779D01*
X057927Y055778D01*
X057924Y055777D01*
X057921Y055777D01*
X057918Y055776D01*
X057915Y055776D01*
X057912Y055776D01*
X05791D01*
X057908Y055776D01*
X057907Y055776D01*
X057905Y055776D01*
X057903Y055777D01*
X057901Y055777D01*
X057896Y055778D01*
X057893Y055779D01*
X057891Y05578D01*
X057888Y055782D01*
X057886Y055783D01*
X057883Y055785D01*
X057881Y055787D01*
X057881Y055787D01*
X057881Y055787D01*
X05788Y055788D01*
X057879Y055789D01*
X057879Y05579D01*
X057878Y055791D01*
X057877Y055793D01*
X057876Y055794D01*
X057875Y055796D01*
X057874Y055798D01*
X057872Y055803D01*
X057871Y055806D01*
X057871Y055808D01*
X05787Y055811D01*
X05787Y055814D01*
Y055814D01*
Y055815D01*
Y055815D01*
X05787Y055816D01*
Y055817D01*
X05787Y055819D01*
X057871Y055821D01*
X057871Y055825D01*
X057873Y055828D01*
X057874Y055831D01*
X057876Y055835D01*
Y055835D01*
X057877Y055835D01*
X057877Y055836D01*
X057879Y055837D01*
X057881Y055839D01*
X057883Y055841D01*
X057886Y055843D01*
X05789Y055845D01*
X057894Y055846D01*
X057894D01*
X057894Y055846D01*
X057893Y055846D01*
X057892Y055847D01*
X057891Y055847D01*
X057889Y055849D01*
X057886Y05585D01*
X057884Y055852D01*
X057882Y055854D01*
X05788Y055856D01*
X057879Y055856D01*
X057879Y055857D01*
X057878Y055859D01*
X057877Y05586D01*
X057877Y055863D01*
X057876Y055866D01*
X057875Y055869D01*
X057875Y055872D01*
Y055872D01*
Y055872D01*
Y055873D01*
X057875Y055874D01*
X057875Y055875D01*
X057876Y055877D01*
X057876Y05588D01*
X057877Y055884D01*
X057879Y055887D01*
X05788Y055889D01*
X057882Y055891D01*
X057883Y055893D01*
X057885Y055895D01*
X057885Y055895D01*
X057885Y055895D01*
X057886Y055896D01*
X057887Y055896D01*
X057888Y055897D01*
X057889Y055898D01*
X05789Y055899D01*
X057892Y0559D01*
X057894Y055901D01*
X057896Y055902D01*
X057898Y055902D01*
X0579Y055903D01*
X057905Y055904D01*
X057908Y055904D01*
X057911Y055904D01*
X057913D01*
X057914Y055904D01*
D02*
G37*
%LPC*%
G36*
X057488Y056059D02*
X057486D01*
X057485Y056059D01*
X057483Y056059D01*
X057481Y056058D01*
X057479Y056058D01*
X057477Y056057D01*
X057475Y056057D01*
X057472Y056056D01*
X05747Y056055D01*
X057467Y056054D01*
X057464Y056052D01*
X057462Y05605D01*
X057459Y056048D01*
X057457Y056046D01*
X057457Y056046D01*
X057456Y056046D01*
X057456Y056045D01*
X057455Y056044D01*
X057454Y056042D01*
X057453Y056041D01*
X057452Y056039D01*
X057451Y056037D01*
X05745Y056034D01*
X057448Y056031D01*
X057448Y056028D01*
X057447Y056025D01*
X057446Y056021D01*
X057445Y056017D01*
X057445Y056013D01*
X057445Y056008D01*
Y056008D01*
Y056007D01*
Y056006D01*
X057445Y056004D01*
X057445Y056002D01*
X057445Y056D01*
X057446Y055997D01*
X057446Y055994D01*
X057448Y055988D01*
X057448Y055985D01*
X05745Y055982D01*
X057451Y055979D01*
X057453Y055976D01*
X057454Y055973D01*
X057457Y05597D01*
X057457Y05597D01*
X057457Y05597D01*
X057458Y055969D01*
X057459Y055968D01*
X05746Y055967D01*
X057462Y055966D01*
X057463Y055965D01*
X057465Y055964D01*
X057467Y055963D01*
X05747Y055961D01*
X057472Y05596D01*
X057475Y055959D01*
X057478Y055959D01*
X057481Y055958D01*
X057484Y055957D01*
X057488Y055957D01*
X057489D01*
X057491Y055957D01*
X057493Y055958D01*
X057496Y055958D01*
X057499Y055959D01*
X057502Y055959D01*
X057505Y055961D01*
X057504Y055961D01*
X057503Y055961D01*
X057502Y055962D01*
X0575Y055963D01*
X057497Y055965D01*
X057495Y055966D01*
X057491Y055967D01*
X057488Y055968D01*
X057492Y05598D01*
X057493D01*
X057493Y05598D01*
X057494Y055979D01*
X057495Y055979D01*
X057496Y055979D01*
X057497Y055978D01*
X057501Y055977D01*
X057505Y055975D01*
X057509Y055973D01*
X057512Y055971D01*
X057516Y055968D01*
X057516Y055968D01*
X057517Y055968D01*
X057518Y055969D01*
X057519Y05597D01*
X05752Y055972D01*
X057521Y055973D01*
X057522Y055975D01*
X057524Y055978D01*
X057525Y055981D01*
X057526Y055984D01*
X057527Y055987D01*
X057529Y05599D01*
X05753Y055994D01*
X05753Y055999D01*
X057531Y056003D01*
X057531Y056008D01*
Y056008D01*
Y056009D01*
Y05601D01*
Y056011D01*
X057531Y056012D01*
Y056014D01*
X057531Y056015D01*
X05753Y056017D01*
X05753Y056021D01*
X057529Y056026D01*
X057527Y05603D01*
X057526Y056035D01*
Y056035D01*
X057525Y056035D01*
X057525Y056036D01*
X057525Y056037D01*
X057523Y056039D01*
X057522Y056041D01*
X05752Y056044D01*
X057517Y056047D01*
X057514Y05605D01*
X05751Y056053D01*
X05751D01*
X05751Y056053D01*
X057509Y056053D01*
X057509Y056054D01*
X057508Y056054D01*
X057507Y056055D01*
X057504Y056056D01*
X057501Y056057D01*
X057497Y056058D01*
X057492Y056059D01*
X057488Y056059D01*
D02*
G37*
G36*
X057912Y055892D02*
X05791D01*
X057908Y055891D01*
X057906Y055891D01*
X057904Y05589D01*
X057901Y055889D01*
X057899Y055888D01*
X057897Y055886D01*
X057896Y055886D01*
X057896Y055885D01*
X057895Y055884D01*
X057894Y055882D01*
X057893Y05588D01*
X057892Y055878D01*
X057891Y055875D01*
X057891Y055872D01*
Y055872D01*
Y055872D01*
X057891Y055871D01*
X057891Y055869D01*
X057892Y055867D01*
X057892Y055865D01*
X057893Y055862D01*
X057895Y05586D01*
X057897Y055858D01*
X057897Y055857D01*
X057898Y055857D01*
X057899Y055856D01*
X057901Y055855D01*
X057903Y055854D01*
X057905Y055853D01*
X057908Y055852D01*
X057912Y055852D01*
X057912D01*
X057913Y055852D01*
X057915Y055852D01*
X057917Y055853D01*
X057919Y055853D01*
X057922Y055854D01*
X057924Y055856D01*
X057926Y055858D01*
X057926Y055858D01*
X057927Y055859D01*
X057928Y05586D01*
X057929Y055861D01*
X05793Y055863D01*
X057931Y055866D01*
X057932Y055869D01*
X057932Y055872D01*
Y055872D01*
Y055872D01*
Y055873D01*
X057932Y055875D01*
X057931Y055877D01*
X057931Y055879D01*
X05793Y055881D01*
X057928Y055884D01*
X057926Y055886D01*
X057926Y055886D01*
X057925Y055887D01*
X057924Y055888D01*
X057922Y055889D01*
X05792Y05589D01*
X057917Y055891D01*
X057915Y055892D01*
X057912Y055892D01*
D02*
G37*
G36*
X057911Y055839D02*
X05791D01*
X057909Y055839D01*
X057907Y055839D01*
X057905Y055839D01*
X057902Y055838D01*
X057899Y055836D01*
X057896Y055835D01*
X057893Y055832D01*
X057893Y055832D01*
X057892Y055831D01*
X057891Y055829D01*
X057889Y055827D01*
X057888Y055825D01*
X057887Y055821D01*
X057886Y055818D01*
X057886Y055814D01*
Y055814D01*
Y055813D01*
X057886Y055812D01*
X057886Y05581D01*
X057887Y055808D01*
X057887Y055806D01*
X057888Y055804D01*
X057889Y055801D01*
X057889Y055801D01*
X057889Y0558D01*
X05789Y055799D01*
X057891Y055798D01*
X057892Y055796D01*
X057894Y055795D01*
X057896Y055793D01*
X057898Y055792D01*
X057898Y055792D01*
X057899Y055791D01*
X0579Y055791D01*
X057902Y05579D01*
X057904Y05579D01*
X057906Y055789D01*
X057909Y055789D01*
X057912Y055789D01*
X057913D01*
X057913Y055789D01*
X057916Y055789D01*
X057918Y055789D01*
X057921Y05579D01*
X057924Y055791D01*
X057927Y055793D01*
X05793Y055796D01*
X05793Y055796D01*
X057931Y055797D01*
X057932Y055799D01*
X057934Y055801D01*
X057935Y055803D01*
X057936Y055806D01*
X057937Y05581D01*
X057937Y055814D01*
Y055814D01*
Y055814D01*
Y055815D01*
X057937Y055815D01*
X057937Y055817D01*
X057936Y05582D01*
X057935Y055823D01*
X057934Y055826D01*
X057932Y055829D01*
X05793Y055832D01*
X057929Y055832D01*
X057928Y055833D01*
X057927Y055834D01*
X057925Y055836D01*
X057922Y055837D01*
X057919Y055838D01*
X057915Y055839D01*
X057911Y055839D01*
D02*
G37*
%LPD*%
D21*
X057388Y055138D02*
X058412D01*
X057388Y056142D02*
X058412D01*
X057388Y055138D02*
Y056142D01*
X058412Y055138D02*
Y056142D01*
D127*
X058264Y055099D02*
D03*
X057536D02*
D03*
X0579Y056191D02*
D03*
M02*
