M48
;Layer_Color=9474304
;FILE_FORMAT=2:4
INCH,LZ
;TYPE=PLATED
T1F00S00C0.0100
T2F00S00C0.0256
T4F00S00C0.0319
T5F00S00C0.0354
T6F00S00C0.0394
T8F00S00C0.0512
;TYPE=NON_PLATED
T9F00S00C0.0256
T10F00S00C0.0591
%
T01
X0628Y0512
X0636
X0632Y052
X0636Y0528
X0644
X0648Y052
X066Y0512
X0668
X0672Y0504
X068
X0684Y0512
Y0528
Y0544
Y056
X068Y0568
X0672
X0664
X0656
X066Y0576
X0668
X0676
X0684
X068Y0584
X0672
X0664
X0656
X066Y0592
X0668
X0676
X0684
X068Y06
X0672
X0664
X0656
X0648
X064
X0632
X0636Y0608
X0644
X0652
X066
X0668
X0676
X0684
X068Y0616
X0672
X0664
X0656
X066Y0624
X0668
X0676
X0684
X0652
Y0592
Y0576
Y056
X0656Y0552
X0664
X0672
X0668Y056
Y0544
X066
X0652
X0636
X0632Y0552
X0636Y056
X0632Y0568
Y0536
X0628Y0528
Y0608
X062
X0612
X0616Y06
X0624
X0612Y0592
X0596
X0592Y06
X0584
X0576
X0568
X0572Y0608
X058
X0588
X0596
X0564
Y0592
X0572
X0576Y0584
X0568
X056
X0552
X0544
X0536
X0528
X052
X0512
X0504
X0496
X05Y0576
X0508
X0516
X0524
X0532
X054
X0548
X0556
X0564
X0572
X058
X0588
X0592Y0568
X06
X0608
Y0552
X0616
X0624
X062Y0544
X0612
X0608Y0536
X0604Y0528
X0596
X0588
X058
X0572
X0564
X0556
X0548
X054
X0532
X0524
X0516
X0508
X05
X0492
X0484
X0476
X048Y0536
X0488
X0496
X0504
X05Y0544
X0492
X0484
X0476
X048Y0552
X0472
X0476Y056
X0484
X0492
X05
X0508
X0516
X0524
X0532
X054
X0544Y0568
X0536
X0528
X052
X0512
X0504
X0496
X0492Y0576
X0484
X0476
X048Y0584
X0472
Y0568
X048
X0492Y0592
X0496Y06
X0504
X0512
X052
X0528
X0524Y0608
X0516
X0508
X05
Y0624
X0508
X0516
X0524
X0532
X054
X0548
X0556
X0528Y0616
X052
X0524Y0592
X0516
X052Y0552
X0528
X0536
X054Y0544
X0532
X0524
X0516
X052Y0536
X0528
X0536
X0544
X0556Y0544
X0564
X0568Y0536
Y052
X0576
X0584
X0588Y0512
X058
X0556
X0548
X0532
X0536Y052
X0528
X0516Y0512
X0508
X0484
X0476
X048Y052
X0488
X0472
Y0536
Y0616
X0488
X0492Y0624
X056Y0568
X0568
X0576
X0584
X0572Y056
X0564
X0556
X058Y0544
X0588
X06Y052
X0608
X0616
X056
X0468Y0512
X0456Y0504
X045Y05065
X0444Y0512
X0428
X04065Y0534
X0405Y055598
X0413Y055283
X0412Y0576
X042
X0431Y05755
X0436Y0576
X0444
X0452
X046
X0468
X0464Y0584
X0456
X0448
X044
Y06
X0448
X0456
X0452Y0608
X0444
X0448Y0616
X0452Y0624
X0444
X0432Y0616
X0424
X042Y0608
X0424Y06
X0408
X04
X0392
X0384
X0376
X0368
X036
X0364Y0592
X0372
X038
X0388
X0396
X0404
X0412
X0404Y0608
X0408Y0616
X0404Y0624
Y0576
X0396
X0388
X038
X0372
X0364
X0356
X0348
X034
X0332
X0324
X0328Y0584
X0336
X0344
X034Y0592
X0332
X0324
X0328Y06
X0336
X0344
X0324Y0608
X0328Y0616
X0324Y0624
X0328Y0568
X0324Y056
X0328Y0552
X0324Y0544
X0328Y0536
X031895Y052495
X0324Y0512
X0332
X034Y05475
X0347Y0547
X0355Y0543
X03665Y054353
X03825Y0542
X0385Y0523
X038Y0512
X03725Y05295
X03615Y0559
X0341Y05635
X0392Y0568
X0428Y0563
X0456Y0568
X0464
X0468Y056
X0456Y0552
X0464Y0616
X0468Y0624
X0312Y0616
X03Y0608
X0304Y06
X0296
X0288
X028
X0272
X0268Y0608
Y0624
X0284
X0252
Y0608
Y0592
X0256Y0584
X0264
X0272
X028
X0288
X031Y0585
X028Y0568
X0272
X0264
X0256
X0248
X024
X0232
X0224
X0216
X022Y0576
X0228
X0232Y0584
X024
X0244Y0576
Y056
X0252
X026
X0268
X0276
X0284
X028Y0552
X0272
X0264
X0256
X0248
X024
X0232
X0224
X0216
X022Y0544
X0228
X0232Y0536
X0224
X0216
X022Y0528
X0228
X0232Y052
X024
X0244Y0512
X0232Y0504
X0224
X0216
Y052
X0224
X026Y0528
X0268
X0276
X0284
X028Y0536
X0272
X0264
X0268Y0544
X0276
X0284
X0293Y0546
X026Y0544
X024Y06
X0232
X0224
X0216
X022Y0608
X0228
Y0624
X022
X024Y0616
X0228Y0592
X022
X0224Y0584
X0216
Y0632
X0224
X0232
X024
Y0648
X0232
X0224
X0216
X022Y064
X0228
X0244Y0656
X0252
X0248Y0664
X024
X0244Y0672
X0252
X0248Y068
X024
X0232
X0224
X0216
X022Y0688
X0228
X0232Y0696
X024
X0248
X0252Y0704
X0244
X0248Y0712
X024
X0232
X0224
X0216
X022Y0704
X0228
X0224Y0696
X0216
X022Y0672
X0228
X0244Y0688
X0252
X0276
X0284
X0292
X0296Y0696
X03015Y06965
X0308Y0704
Y072
X0296Y0728
X0292Y0736
X0296Y0744
X0288
X0292Y0752
X0296Y076
X0288
Y0776
X0308Y0768
X0272Y076
X0264
X0256
X026Y0768
X0252
X0256Y0776
X024
X0232
X0224
X0216
X022Y0752
X0228
X0232Y0744
X024
X0256
X026Y0736
X0268
Y0752
X0252
X024Y076
Y0728
X0248
X0252Y072
X0244
X0232Y0728
X0224
X0216
X022Y0736
X0228
X0224Y0744
X0216
X0268Y072
X0284
X0288Y0712
X0296
X0292Y0704
X0284
X0276
X028Y0712
Y0696
X0288
X0272
Y0664
X028
X0288
X0296
X03Y0672
X0308
X0312Y0664
X0308Y0656
X03
X0292
X0284
X0276
X0268
Y064
X0276
X0284
X0292
X03
X0304Y06375
X0312Y0632
Y0648
X0288
Y0632
X0296
X028
X0272
X0284Y0672
X0292
X0308Y0688
X0324
X032Y068
Y0664
X0336
X0344
Y06525
Y06475
X034Y0656
Y0672
X0364
X0372
X038
X0388
X0384Y068
X0376
X0368
X036
X0364Y0688
X0372
X038
X0388
X0384Y0696
X0376
X0368
X036
X0344
X0336
X0332Y0704
X0324
X03215Y06975
X036Y0664
Y0648
X0368
X0376
X0384
X0388Y0656
X0384Y0664
X0408
Y0648
X0424
X0432
X044
X0448
X0452Y0656
X0444
X0436
X0428
Y064
X0436
X0444
X0452
X0448Y0632
X044
X0432
X0424
X0408
X0392
X0384
X0376
X0368
X036
X03575Y06375
X0344Y0632
X0336
X0464
X0468Y064
X0464Y0648
X0468Y0656
X0464Y068
X0468Y0688
X0464Y0696
X0468Y0704
X0464Y0712
X0448
X044
X0432
X0424
X0416
X0412Y0704
X0404
Y072
Y0736
X0396
X04Y0744
X0404Y0752
X0396
X0388
X0392Y076
X04
X0404Y0768
X0396
X0388
X0384Y076
X0371Y0763
X0372Y0752
X0364
X0368Y0744
X0372Y0736
X03675Y07285
X0347Y07515
X034791Y0775
X0344Y0776
X0336
X03565Y07805
X04Y0776
X042Y0768
X0428
X0436
X0444
X0452
X0448Y0776
X044
Y076
X0448
X0452Y0752
X0444
X0436
X0428
X042
X0424Y076
X0432
X0428Y0736
X0444
X0452
X0448Y0744
X0464
X0468Y0752
X0464Y076
X0468Y0768
Y0736
X0448Y0728
X0452Y072
X0444
X0436
Y0704
X0444
X0452
X0448Y0696
X044
X0432
X0424
X0428Y0704
X0432Y068
X0424
X0448
X0452Y0688
X0444
Y0672
X0452
X0448Y0664
X044
X03935Y07105
X0472Y0712
X048
X0488
X0492Y0704
X05
X0508
X0516
X0524
X0532
X054
X0548
X0556
X0564
X0572
X0576Y0696
X0584
X0588Y0688
X0596
X0612
X062
Y0672
X0612
X0616Y0664
X0624
X062Y0656
X0612
X0596
X0592Y0664
X0584
X0576
X0568
X0572Y0672
Y0688
X058
X0564
X0556
X0548
X054
X0532
X0524
X0516
X0508
X05
X0492
X0496Y0696
X0504
X0512
X052
X0528
X0536
X0544
X0552
X056
X0568
Y0712
X0572Y072
X058
X0588
X0596
X0592Y0728
X0584
X0576
X0568
X0564Y072
X056Y0744
X0552
X0544
X0536
X0528
X052
X0512
X0504
X0496
X05Y0752
X0508
X0516
X0524
X0532
X054
X0548
X0556
X0564
X0572
X058
X0588
X0596
Y0768
X0592Y0776
X0584
X0576
X0568
X0572Y0768
X0564
X0568Y076
X0576
X056
X0552
X0544
X0536
X0528
X052
X0512
X0504
X0496
X0488
X048
X0472
X0476Y0768
X0484
X0492
X0496Y0776
X0504
X0512
X052
X0528
X0524Y0768
X0516
Y0736
X0524
X0528Y0728
X052
X0512
X0504
X0496
X05Y0736
X0508
Y072
X0516
X0524
X0528Y0712
X052
X05Y072
X0492Y0736
X0484
Y0752
X0492
X0476
X0472Y0744
X0476Y0704
X0484
X0488Y0696
X048
X0472
Y068
X0488
X0496
X0504
X0512
X052
X0528
X0536
X0544
X0552
Y0648
X056
X0568
X0572Y0656
X058
Y064
X0572
X0564
X0556
X0548
X054
X0532
X0524
X0516
X0508
X05
X0492
X0484
X0476
X048Y0648
X0488
X0496
X0504
X0512
X052
X0528
X0536
X0544
Y0632
X0552
X056
X0568
X0576
X0584
X0592
X0616
X0624
X0596Y0672
X0564Y0656
X0524
X0516
X052Y0664
X0528
X0524Y0672
X0516
X0512Y0664
X0504
X0496
X0492Y0672
X0484
X048Y0664
X0472Y0648
Y0632
X048
X0488
X0496
X0504
X0512
X052
X0528
X0536
X0616Y0712
X062Y072
X0612
X0616Y0728
X0624
X062Y0752
X0612Y0768
X0616Y0776
X0624
X0632
X064
X0648
X0656
X0664
X0672
X068
X0684Y0768
X0676
X0668
X066
X0652
X0656Y076
X0664
X0672
X068
X0684Y0752
X0676
X0668
X066
X0652
X0644
X0636
X0628
X0648Y0744
X0656
X0664
X0672
X068
X0684Y0736
X0676
X0668
X066
X0652
X0656Y0728
X0664
X0672
X068
X0684Y072
X0676
X0668
X066
X0652
X0644
X0636
X0628
X0632Y0728
X064
X0648
X0656Y0712
X0664
X0672
X068
X0684Y0704
X0676
X0668
X066
X0652
X0656Y0696
X0664
X0672
X068
X0684Y0688
X0676
X0668
X066
X0652
X0644
X0636
X0628
Y0672
X0636
X064Y0664
X0648
X0656
X0664
X0672
X068
X0684Y0672
X0676
X0668
X066
X0652
X0656Y068
X0664
X0672
X068
X0684Y0656
X0676
X0668
X066
X0652
X0644
X0636
X0628
X0632Y0664
Y0632
X064
X0648
X0656
X0664
X0672
X068
X0684Y064
X0676
X0668
X066
X0652
X0656Y0648
X0664
X0672
X068
X0648Y0696
X0652Y0784
X066
X0668
X0676
X0684
X068Y0792
X0672
X0664
X0656
X066Y08
X0668
X0676
X0684
X068Y0808
X0672
X0664
X0656
X0648
X064
X0632
X0636Y0816
X0644
X0652
X066
X0668
X0676
X0684
X068Y0824
X0672
X0664
X0656
X066Y0832
X0668
X0676
X0684
X068Y084
X0672
X0664
X0656
X0648
X064
X0632
X0636Y0848
X0644
X0652
X066
X0668
X0676
X0684
X068Y0856
X0672
X0664
X0656
X066Y0864
X0668
X0676
X0684
X0652
X0644
X0636
X0628
X0632Y0856
X0628Y0848
Y0816
Y0784
X0636
X0644
X0652Y08
Y0832
X0624Y084
X0616
X062Y0848
X0624Y0856
X0616
X0608
X06
X0604Y0864
X0596
X058
X0576Y0856
X058Y0848
X0576Y084
X0592
X0596Y0832
X0588
X0592Y0824
X0584
X0576
X058Y0816
X0588
X0596
X0592Y0808
X0584
X0576
X0572Y0816
Y08
X0564
X058Y0784
X0588
X0596
X0612
X062
X0624Y0808
X0616
X062Y0816
X0612
X062Y0864
X0556
X0548
Y0848
X0556
X0548Y0832
X05
X0492
X0496Y084
Y0824
X048
X0472
X0476Y0832
X048Y084
X0472
X0476Y0816
X0484
X0492Y08
X05
X0508
X0516
X052Y0792
X0528
X0524Y0784
X0516
X0508
X05
X0488Y0792
X0472
X0476Y0784
X0464Y0792
X0468Y08
Y0816
X046
X0452
X0444
X0436
X0428
X0432Y0824
X044
X0448
X0456
X0464
X0468Y0832
X046
X0452
X0444
X0436
X0428
X042
Y0848
X0428
X0436
X0444
X0448Y0856
X0456
X0464
X0468Y0848
X046
X0464Y084
X0456
X0448
X044
X0432
Y0856
X044
X0444Y0864
X0416Y0856
X0412Y0848
X0404
X0396
X0388
X038
X0372
X0368Y084
X03685Y0834
X0372Y0832
X03645Y0831
X0361Y08325
X036Y0808
X0384
X0392
X0407Y0812
X0404Y08
X04Y0792
X0404Y0784
X042
X0424Y0792
X0432
X0448
X0452Y08
X0444
X0448Y0808
X044
X0432
X042Y08
X0444Y0784
X0452
X038
X0373Y0785
X0384Y0792
Y084
X0404Y0832
X04Y0856
X0388Y0864
X038
X0372
X0356
X0348
X034
X0324
X0316Y0848
X0328Y084
X03325Y08295
X033489
X0328Y0824
X0332Y0816
X034
X03355Y0799
X03455Y0849
X0352
X0308Y0848
X03
X0292
X0288Y084
X028
Y0856
X0268Y0848
Y0832
Y0816
X0272Y0808
X0276Y08
X0284
X0292
X0288Y0792
X028
X0272
X0268Y08
Y0784
X0252
X0256Y0792
X0252Y08
X0256Y0808
X0252Y0816
X0256Y0824
Y084
Y0856
X0248
X024
X0232
X0224
X0216
X022Y0848
X0228
X0232Y084
X0224
X0216
X022Y0832
X0228
X024Y0824
Y0808
X0232
X0224
X0216
X022Y08
X0228
X0232Y0792
X024
X0224
X0216
X022Y0784
X0228
X0292
Y0816
X0284
X0312Y0856
X0236Y0864
T02
X032935Y084561
T04
X06115Y0848
Y086178
X0452Y086039
Y084661
T05
X0617Y058281
Y062218
Y064148
Y068085
Y070015
Y073952
Y075881
Y079819
T06
X06435Y0516
X06535
X06635
X06735
X0623Y051586
X0613
X0603
X0593
X05725
X05625
X05525
X05425
X0522Y0516
X0512
X0502
X0492
X0305Y085514
X0295
X0285
X0275
T08
X066707Y05325
X066107Y05625
X067707
X061707
Y05325
T09
X0335Y08475
X035776
T10
X0644Y0586
Y0616
Y0646
Y0676
Y0706
Y0736
Y0766
Y0796
Y0826
Y0856
M30
